<svg width="65" height="65" viewBox="0 0 65 65" fill="none" xmlns="http://www.w3.org/2000/svg">
<g clip-path="url(#clip0_221_442)">
<path fill-rule="evenodd" clip-rule="evenodd" d="M55.1992 26.7871C52.4572 26.7871 52.2666 24.8828 49.5244 24.8828C46.7824 24.8828 46.5918 26.7871 43.8496 26.7871C41.1074 26.7871 40.9169 24.8828 38.1748 24.8828C35.4326 24.8828 35.2421 26.7871 32.5 26.7871C29.7578 26.7871 29.5674 24.8828 26.8252 24.8828C24.083 24.8828 23.8926 26.7871 21.1504 26.7871C18.4082 26.7871 18.2178 24.8828 15.4756 24.8828C12.7335 24.8828 12.543 26.7871 9.80079 26.7871C7.48428 26.7871 6.98878 25.4279 5.23734 25.0062C-0.603777 26.4735 0.278293 34.8642 6.34754 35.0391H58.6524C64.7262 34.8623 65.5996 26.4709 59.7627 25.0062C58.0112 25.4279 57.5157 26.7871 55.1992 26.7871Z" fill="#FFAD32"/>
<path fill-rule="evenodd" clip-rule="evenodd" d="M21.1503 42.6562C18.4081 42.6562 18.2177 40.752 15.4755 40.752C12.7334 40.752 12.5428 42.6562 9.80066 42.6562C7.48415 42.6562 6.98865 41.2971 5.2372 40.8753C2.97363 41.3853 1.26941 43.4182 1.26941 45.8301C1.26941 48.623 3.55457 50.9082 6.34753 50.9082H32.7141L23.6968 41.891C23.0506 42.2972 22.341 42.6562 21.1503 42.6562Z" fill="#FFAD32"/>
<path fill-rule="evenodd" clip-rule="evenodd" d="M52.6527 41.891L43.6355 50.9082H58.6524C64.7241 50.7326 65.6013 42.3407 59.7627 40.8754C58.0113 41.2971 57.5158 42.6563 55.1993 42.6563C54.0086 42.6563 53.299 42.2972 52.6527 41.891Z" fill="#FFAD32"/>
<path d="M58.6523 49.6387H46.7006L52.8813 43.458C54.9442 44.3713 57.2495 43.8679 58.728 42.7689C59.3963 42.3351 59.879 42.0215 60.874 42.0215C66.3479 41.7947 66.3456 33.9951 60.874 33.7695H4.12585C-1.34862 33.9968 -1.34507 41.796 4.12585 42.0215C5.12091 42.0215 5.60371 42.3349 6.27187 42.7689C8.37053 44.3148 11.2362 44.311 13.3294 42.7689C13.9977 42.3351 14.4804 42.0215 15.4755 42.0215C16.4705 42.0215 16.9533 42.3349 17.6215 42.7689C19.103 43.8703 21.4092 44.37 23.4683 43.458L29.6491 49.6387H6.34766C2.84756 49.6387 0 52.4862 0 55.9863V58.5254C0 62.0255 2.84756 64.873 6.34766 64.873H58.6523C62.1524 64.873 65 62.0255 65 58.5254V55.9863C65 52.4861 62.1524 49.6387 58.6523 49.6387ZM25.7785 42.1773C26.0703 42.0784 26.4013 42.0215 26.8251 42.0215C27.8201 42.0215 28.3029 42.3349 28.9711 42.7689C31.0697 44.3148 33.9355 44.311 36.0287 42.7689C36.6969 42.3351 37.1796 42.0215 38.1747 42.0215C39.1697 42.0215 39.6525 42.3349 40.3207 42.7689C42.4233 44.3159 45.2838 44.3103 47.3783 42.7689C48.0464 42.3351 48.5292 42.0216 49.5243 42.0216C49.9482 42.0216 50.279 42.0785 50.571 42.1774L39.0725 53.6758C38.6049 54.1642 37.7447 54.1643 37.2771 53.6758L25.7785 42.1773ZM19.0042 40.6393C16.9056 39.0934 14.0399 39.0972 11.9467 40.6393C11.2785 41.0733 10.7957 41.3867 9.80065 41.3867C8.8056 41.3867 8.32279 41.0733 7.65464 40.6393C6.8608 40.1239 5.87298 39.4824 4.12585 39.4824C2.02236 39.3961 2.01995 36.3959 4.12585 36.3086H60.874C62.9793 36.3958 62.9784 39.3956 60.874 39.4824C59.1269 39.4824 58.1391 40.1239 57.3452 40.6393C56.6771 41.0731 56.1943 41.3867 55.1992 41.3867C54.2042 41.3867 53.7214 41.0733 53.0532 40.6393C50.9504 39.0922 48.0901 39.0979 45.9956 40.6393C45.3275 41.0731 44.8447 41.3866 43.8496 41.3866C42.8545 41.3866 42.3717 41.0731 41.7036 40.6392C39.6049 39.0933 36.7392 39.0971 34.646 40.6392C33.9777 41.0733 33.4949 41.3867 32.5 41.3867C31.5051 41.3867 31.0221 41.0733 30.354 40.6393C28.251 39.0922 25.3908 39.0979 23.2964 40.6393C22.6281 41.0733 22.1455 41.3867 21.1504 41.3867C20.1553 41.3867 19.6725 41.0733 19.0042 40.6393ZM62.4609 58.5254C62.4609 60.6255 60.7524 62.334 58.6523 62.334H6.34766C4.2476 62.334 2.53906 60.6255 2.53906 58.5254V55.9863C2.53906 53.8863 4.2476 52.1777 6.34766 52.1777H32.1882L35.4817 55.4712C36.8944 56.9447 39.4553 56.9446 40.868 55.4712L44.1614 52.1777H58.6523C60.7524 52.1777 62.4609 53.8863 62.4609 55.9863V58.5254Z" fill="#0B0B0B"/>
<path d="M17.266 9.01367C18.9504 8.94664 18.9491 6.54101 17.266 6.47461H17.2651C15.5807 6.54189 15.5828 8.94753 17.266 9.01367Z" fill="#0B0B0B"/>
<path d="M32.5003 9.01367C34.1848 8.94664 34.1835 6.54101 32.5003 6.47461H32.4995C30.815 6.54189 30.8172 8.94753 32.5003 9.01367Z" fill="#0B0B0B"/>
<path d="M47.7347 9.01367C49.4191 8.94664 49.4179 6.54101 47.7347 6.47461H47.7338C46.0494 6.54189 46.0516 8.94753 47.7347 9.01367Z" fill="#0B0B0B"/>
<path d="M9.64878 14.0917C11.3332 14.0246 11.3319 11.619 9.64878 11.5526H9.64789C7.96347 11.6199 7.96563 14.0254 9.64878 14.0917Z" fill="#0B0B0B"/>
<path d="M24.8832 14.0917C26.5676 14.0246 26.5663 11.619 24.8832 11.5526H24.8823C23.1978 11.6199 23.2 14.0254 24.8832 14.0917Z" fill="#0B0B0B"/>
<path d="M40.1176 14.0917C41.802 14.0246 41.8007 11.619 40.1176 11.5526H40.1167C38.4321 11.6199 38.4344 14.0254 40.1176 14.0917Z" fill="#0B0B0B"/>
<path d="M55.3519 14.0917C57.0364 14.0246 57.0351 11.619 55.3519 11.5526H55.3511C53.6665 11.6199 53.6688 14.0254 55.3519 14.0917Z" fill="#0B0B0B"/>
<path d="M0 22.0264C0 24.3014 1.85085 26.1523 4.12585 26.1523C5.12091 26.1523 5.60371 26.4658 6.27187 26.8997C8.37053 28.4456 11.2362 28.4418 13.3294 26.8997C13.9977 26.4659 14.4804 26.1523 15.4755 26.1523C16.4705 26.1523 16.9533 26.4658 17.6215 26.8997C19.7201 28.4456 22.5858 28.4419 24.6791 26.8997C25.3472 26.4659 25.83 26.1523 26.8251 26.1523C27.8201 26.1523 28.3029 26.4658 28.9711 26.8997C31.0697 28.4456 33.9355 28.4418 36.0287 26.8997C36.6969 26.4659 37.1796 26.1523 38.1747 26.1523C39.1697 26.1523 39.6525 26.4658 40.3207 26.8997C42.4235 28.4469 45.2838 28.4412 47.3783 26.8997C48.0464 26.4659 48.5292 26.1525 49.5243 26.1525C50.5193 26.1525 51.0021 26.4659 51.6703 26.8998C53.769 28.4458 56.6347 28.4419 58.7279 26.8998C59.3962 26.466 59.8788 26.1525 60.8739 26.1525C64.9829 26.1176 66.5165 20.8151 63.1381 18.5787C64.2878 17.4293 64.9999 15.8421 64.9999 14.0918C65 6.39146 58.7354 0.126953 51.0352 0.126953H13.9648C6.26463 0.126953 0 6.39146 0 14.0918C0 15.8421 0.71208 17.4291 1.86177 18.5786C0.741025 19.3171 0 20.5867 0 22.0264ZM13.9648 2.66602H51.0352C57.3353 2.66602 62.4609 7.79162 62.4609 14.0918C62.4609 16.1919 60.7524 17.9004 58.6523 17.9004H6.34766C4.2476 17.9004 2.53906 16.1919 2.53906 14.0918C2.53906 7.79162 7.66467 2.66602 13.9648 2.66602ZM60.874 20.4395C62.9793 20.5267 62.9784 23.5264 60.874 23.6133C59.1269 23.6133 58.1391 24.2548 57.3452 24.7702C56.6771 25.204 56.1943 25.5176 55.1992 25.5176C54.2042 25.5176 53.7214 25.2041 53.0532 24.7702C50.9504 23.223 48.0901 23.2287 45.9956 24.7702C45.3275 25.204 44.8447 25.5175 43.8496 25.5175C42.8545 25.5175 42.3717 25.204 41.7036 24.7701C39.6049 23.2242 36.7392 23.228 34.646 24.7701C33.9777 25.2041 33.4949 25.5176 32.5 25.5176C31.5051 25.5176 31.0221 25.2041 30.354 24.7702C28.251 23.223 25.3908 23.2287 23.2964 24.7702C22.6281 25.2041 22.1455 25.5176 21.1504 25.5176C20.1553 25.5176 19.6725 25.2041 19.0044 24.7702C16.9057 23.2243 14.04 23.2281 11.9468 24.7702C11.2785 25.2041 10.7957 25.5176 9.80065 25.5176C8.8056 25.5176 8.32279 25.2041 7.65464 24.7702C6.8608 24.2548 5.87298 23.6133 4.12585 23.6133C2.02236 23.527 2.01995 20.5268 4.12585 20.4395H60.874Z" fill="#0B0B0B"/>
</g>
<defs>
<clipPath id="clip0_221_442">
<rect width="65" height="65" fill="white"/>
</clipPath>
</defs>
</svg>
