<svg width="64" height="65" viewBox="0 0 64 65" fill="none" xmlns="http://www.w3.org/2000/svg">
<g clip-path="url(#clip0_221_409)">
<path fill-rule="evenodd" clip-rule="evenodd" d="M43.7729 37.6125H12.8049C13.6229 58.4776 42.9624 58.4618 43.7729 37.6125Z" fill="#FFAD32"/>
<path d="M63.4735 27.9066C62.6207 24.1094 60.732 20.3999 57.8598 16.8813C53.2226 11.6347 56.2435 2.55134 48.4454 0.303824C43.8759 -0.939928 41.2952 1.90331 38.7995 4.65264C36.958 6.68135 35.0538 8.77911 32.131 9.87945C20.5236 14.0663 13.6527 24.9756 18.1611 36.3433H1.24973C0.559572 36.3433 0.00012207 36.9115 0.00012207 37.6125C0.00012207 43.3832 1.82668 45.1399 4.35476 47.5714C5.72071 48.8852 7.26898 50.3741 9.04792 52.922C12.5911 57.997 16.9799 61.6669 21.74 63.5347C32.9142 68.0129 44.6144 61.7717 49.1675 50.684C59.519 48.1365 65.9368 38.2197 63.4735 27.9066ZM46.3716 36.3433H32.0549C32.5007 29.3699 35.3505 20.1104 40.9821 14.0676C42.6449 12.2833 43.9228 9.66661 45.0502 7.35793C45.6581 6.11304 46.2323 4.93718 46.7775 4.07836C47.3245 3.21674 47.6419 2.99464 47.7498 2.93969C47.8162 3.04211 47.9818 3.39569 48.0314 4.41963C48.0807 5.44027 47.9991 6.75014 47.9126 8.13705C47.7524 10.709 47.571 13.624 48.1326 16.0136C49.5264 21.9437 48.8651 29.4891 46.3716 36.3433ZM34.1697 38.8817C32.6913 45.2976 23.8837 45.293 22.4079 38.8817H34.1697ZM20.2848 23.7616C22.1871 18.7152 26.7027 14.6303 32.9996 12.2596C36.4846 10.9474 38.6905 8.51741 40.6368 6.37333C42.1435 4.71356 43.2868 3.51512 44.5338 2.93373C42.8437 5.74765 41.3316 9.99379 39.1668 12.323C33.0653 18.87 29.9986 28.8741 29.551 36.3436H20.8947C18.9707 32.2755 18.7504 27.8322 20.2848 23.7616ZM34.5558 61.6082C26.1892 64.3152 17.4156 60.5191 11.0865 51.454C9.16563 48.7027 7.45104 47.0535 6.07322 45.7284C3.92515 43.6624 2.74289 42.5257 2.53321 38.8817H19.8674C20.1351 40.7362 20.9857 42.4448 22.3224 43.7789C27.2527 48.7256 35.7146 45.8287 36.7104 38.8817H49.1646C48.7645 49.9907 43.1201 58.8373 34.5558 61.6082ZM60.6758 37.435C59.0998 42.1824 55.2771 45.9065 50.248 47.7036C51.1972 44.579 51.6865 41.18 51.6865 37.6125C51.6865 37.2759 51.5548 36.953 51.3205 36.715C51.0862 36.4771 50.7683 36.3433 50.4369 36.3433H49.0251C51.4256 29.2698 52.0074 21.5673 50.5636 15.4242C50.0888 13.4045 50.2579 10.6912 50.407 8.29722C50.4905 6.95625 50.5703 5.67429 50.538 4.56723C51.3318 5.70399 51.732 7.32265 52.2196 9.52523C52.8496 12.3704 53.5635 15.5951 55.9358 18.5013C60.9901 24.6932 62.6734 31.4173 60.6758 37.435Z" fill="#0B0B0B"/>
</g>
<defs>
<clipPath id="clip0_221_409">
<rect width="64" height="65" fill="white"/>
</clipPath>
</defs>
</svg>
