<svg width="65" height="65" viewBox="0 0 65 65" fill="none" xmlns="http://www.w3.org/2000/svg">
<g clip-path="url(#clip0_221_446)">
<path fill-rule="evenodd" clip-rule="evenodd" d="M14.7266 30.4689H50.2734V63.7306H14.7266V30.4689Z" fill="#FFAD32"/>
<path fill-rule="evenodd" clip-rule="evenodd" d="M14.7266 30.4689H50.2734L47.042 13.9648H17.9582L14.7266 30.4689Z" fill="#FFAD32"/>
<path d="M61.6431 30.0955L56.6211 13.774V3.80859C56.6211 1.70854 54.9126 0 52.8125 0H12.1875C10.0874 0 8.37891 1.70854 8.37891 3.80859V13.774L3.35689 30.0955C3.3197 30.2165 3.30078 30.3423 3.30078 30.4689V63.7306C3.30078 64.4318 3.86915 65.0001 4.57031 65.0001H60.4297C61.1307 65.0001 61.6992 64.4318 61.6992 63.7306V30.4689C61.6992 30.3423 61.6803 30.2165 61.6431 30.0955ZM10.5861 15.2344H54.414L58.7109 29.1993H6.28913L10.5861 15.2344ZM10.918 3.80859C10.918 3.10857 11.4875 2.53906 12.1875 2.53906H52.8125C53.5125 2.53906 54.082 3.10857 54.082 3.80859V12.6953H10.918V3.80859ZM5.83984 62.4609V31.7383H59.1602V62.4609H5.83984Z" fill="#0B0B0B"/>
<path d="M41.3867 6.34766H23.6133C21.9289 6.41469 21.9302 8.82032 23.6133 8.88672H41.3867C43.0713 8.81956 43.0699 6.41418 41.3867 6.34766Z" fill="#0B0B0B"/>
<path d="M42.6425 43.8212C42.4245 40.5171 39.6671 37.8955 36.3086 37.8955H28.6915C25.3332 37.8955 22.5757 40.517 22.3578 43.821C18.9809 45.0112 18.9737 49.8063 22.3438 51.008V52.4951C22.3438 54.5952 24.0523 56.3037 26.1524 56.3037H38.8477C40.9478 56.3037 42.6563 54.5952 42.6563 52.4951V51.008C46.0284 49.8049 46.0171 45.01 42.6425 43.8212ZM28.6915 40.4346H36.3086C38.1925 40.4346 39.7613 41.8095 40.0643 43.6084H24.9358C25.2388 41.8095 26.8076 40.4346 28.6915 40.4346ZM38.8477 53.7646H26.1524C25.4524 53.7646 24.8829 53.1951 24.8829 52.4951V51.2256H40.1172V52.4951C40.1172 53.1953 39.5477 53.7646 38.8477 53.7646ZM41.3868 48.6865H23.6133C21.9287 48.6166 21.9299 46.2168 23.6133 46.1475H41.3868C43.0714 46.2175 43.0702 48.6172 41.3868 48.6865Z" fill="#0B0B0B"/>
</g>
<defs>
<clipPath id="clip0_221_446">
<rect width="65" height="65" fill="white"/>
</clipPath>
</defs>
</svg>
