<svg width="64" height="65" viewBox="0 0 64 65" fill="none" xmlns="http://www.w3.org/2000/svg">
<g clip-path="url(#clip0_221_431)">
<path fill-rule="evenodd" clip-rule="evenodd" d="M45.2347 23.0647C44.468 23.4315 43.7956 23.8516 42.3818 23.8516C39.8734 23.8516 39.6992 22.5289 37.1908 22.5289C34.6825 22.5289 34.5082 23.8516 31.9999 23.8516C29.4917 23.8516 29.3173 22.5289 26.8091 22.5289C24.3008 22.5289 24.1265 23.8516 21.6182 23.8516C20.2044 23.8516 19.532 23.4315 18.7652 23.0647L18.6284 23.0275C19.6749 35.923 22.5249 42.4659 23.1296 57.2629H40.8704C41.4759 42.4486 44.3317 35.9078 45.3752 22.9824L45.2347 23.0647Z" fill="#FFAD32"/>
<path d="M47.009 12.918C47.009 12.2164 46.449 11.6477 45.7583 11.6477H44.378C43.9023 9.3438 42.1628 7.53058 39.9202 6.98067C38.4528 -2.32981 25.5433 -2.32473 24.08 6.98347C21.8542 7.54011 20.1057 9.36908 19.6245 11.6476H18.2415C17.5509 11.6476 16.9908 12.2163 16.9908 12.9179C16.9582 33.0927 21.0046 38.4936 21.8756 57.2114L21.3135 61.8332C21.2203 62.5997 21.4572 63.3528 21.9808 63.9543C22.5509 64.6092 23.4061 65 24.269 65H39.7308C40.5935 65 41.4488 64.609 42.0189 63.9543C42.5425 63.353 42.7794 62.5996 42.6862 61.8332L42.1242 57.2115C42.9953 38.4935 47.0417 33.0931 47.009 12.918ZM42.6368 34.1582C41.6764 34.2201 40.9679 33.9705 40.3325 33.6303C38.4846 32.5813 35.8959 32.582 34.0492 33.6303C33.4208 33.9401 32.9666 34.1641 31.9999 34.1641C31.0333 34.1641 30.5793 33.9401 29.9508 33.6303C28.1008 32.5797 25.5093 32.5838 23.6674 33.6303C23.0328 33.9702 22.3222 34.2203 21.3632 34.1582C20.3876 28.5946 19.5713 22.783 19.4978 14.1882H44.5022C44.4287 22.783 43.6124 28.5946 42.6368 34.1582ZM25.3223 9.35396C25.9871 9.31903 26.5084 8.75476 26.5084 8.07871C26.8112 0.67735 37.1942 0.681415 37.4915 8.08544C37.4915 8.76137 38.0128 9.31903 38.6775 9.35396C40.105 9.42891 41.2985 10.3557 41.7789 11.6476H22.2258C22.7117 10.3656 23.9097 9.42827 25.3223 9.35396ZM40.1448 62.2716C40.047 62.384 39.8806 62.4594 39.7308 62.4594H24.269C24.1192 62.4594 23.9528 62.3839 23.8549 62.2716C23.8251 62.2374 23.7909 62.1877 23.7961 62.1445L24.2353 58.5332H39.7643L40.2033 62.1445C40.2088 62.1877 40.1744 62.2374 40.1448 62.2716ZM42.0508 37.411C41.0746 42.7587 40.0669 48.2797 39.6764 55.9928H24.3236C23.9064 47.9016 22.8737 42.499 21.8198 36.7022C23.2384 36.666 24.0788 36.2517 24.76 35.9159C25.3885 35.6061 25.8425 35.3821 26.8092 35.3821C27.7759 35.3821 28.2299 35.6061 28.8584 35.9159C30.7033 36.9642 33.2961 36.9645 35.1418 35.9159C35.7702 35.6061 36.2243 35.3821 37.191 35.3821C38.1576 35.3821 38.6116 35.6061 39.2401 35.9159C39.9213 36.2518 40.7618 36.6661 42.1804 36.7022C42.1373 36.9381 42.0941 37.1743 42.0508 37.411Z" fill="#0B0B0B"/>
<path d="M29.6007 49.2244H29.5997C28.9091 49.2244 28.3495 49.7931 28.3495 50.4947C28.4155 52.1794 30.7858 52.1794 30.8515 50.4947C30.8515 49.7931 30.2915 49.2244 29.6007 49.2244Z" fill="#0B0B0B"/>
<path d="M35.8555 40.7134H35.8545C35.1638 40.7134 34.6042 41.2822 34.6042 41.9837C34.6703 43.6685 37.0406 43.6685 37.1062 41.9837C37.1062 41.2822 36.5463 40.7134 35.8555 40.7134Z" fill="#0B0B0B"/>
<path d="M28.2884 29.2173C29.9479 29.1501 29.9467 26.7433 28.2884 26.6767H28.2875C26.628 26.744 26.6302 29.1508 28.2884 29.2173Z" fill="#0B0B0B"/>
</g>
<defs>
<clipPath id="clip0_221_431">
<rect width="64" height="65" fill="white"/>
</clipPath>
</defs>
</svg>
