<svg width="64" height="65" viewBox="0 0 64 65" fill="none" xmlns="http://www.w3.org/2000/svg">
<g clip-path="url(#clip0_221_426)">
<path fill-rule="evenodd" clip-rule="evenodd" d="M21.2467 42.1486L18.3002 35.1662H7.4967V42.1486H21.2467Z" fill="#FFAD32"/>
<path fill-rule="evenodd" clip-rule="evenodd" d="M36.3895 20.5464V38.6575H53.961V20.5464C53.961 23.0003 51.9843 25.008 49.5681 25.008C47.152 25.008 45.1753 23.0003 45.1753 20.5464C45.1753 23.0003 43.1985 25.008 40.7824 25.008C38.3663 25.008 36.3895 23.0003 36.3895 20.5464Z" fill="#FFAD32"/>
<path d="M21.2472 54.8439H21.2462C20.556 54.8439 19.9967 55.4122 19.9967 56.1134C20.0627 57.7972 22.4316 57.7972 22.4972 56.1134C22.4972 55.4122 21.9375 54.8439 21.2472 54.8439Z" fill="#0B0B0B"/>
<path d="M63.9967 20.5436V16.0821C63.9967 15.8716 63.9452 15.6643 63.8467 15.4791L59.4966 7.29357V3.80859C59.4966 1.70853 57.8145 0 55.7467 0H34.6038C32.536 0 30.8538 1.70853 30.8538 3.80859V7.29649L26.5037 15.482C26.4051 15.6673 26.3537 15.8746 26.3537 16.0851V20.5466C26.3537 22.2461 27.0858 23.7751 28.2466 24.8255V42.1509L22.131 41.0216L16.7705 28.3185C16.5737 27.8517 16.1217 27.549 15.6217 27.549H1.2467C-0.411797 27.6162 -0.410547 30.0216 1.2467 30.0881H14.7974L20.0977 42.6488C20.2628 43.0402 20.6104 43.3215 21.0229 43.3977L33.7465 45.7472V48.4961H25.7495C23.1579 46.8211 19.335 46.8212 16.7435 48.4961H1.2467C-0.411797 48.5633 -0.410547 50.9687 1.2467 51.0352H14.0695C13.3049 52.1465 12.7838 53.443 12.5857 54.8438H1.2467C-0.411797 54.9109 -0.410547 57.3163 1.2467 57.3828H12.5858C12.8653 59.3587 13.7872 61.1267 15.1289 62.4609H1.2467C-0.411797 62.5281 -0.410547 64.9335 1.2467 65H62.7467C64.4052 64.9328 64.4039 62.5275 62.7467 62.4609H62.1038V24.8226C63.2646 23.7722 63.9967 22.2432 63.9967 20.5436ZM28.8536 20.5464V17.3545H35.1394V20.5464C34.9663 24.7822 29.0253 24.7788 28.8536 20.5464ZM32.8495 8.8867H37.1018L35.477 14.8154H29.6988L32.8495 8.8867ZM57.5023 8.8867L60.6531 14.8154H54.8741L53.2493 8.8867H57.5023ZM50.6542 8.8867L52.279 14.8154H46.4251V8.8867H50.6542ZM43.9252 14.8154H38.0721L39.6969 8.8867H43.9252V14.8154ZM37.6394 17.3545H43.9251V20.5464C43.752 24.7821 37.811 24.7788 37.6394 20.5464V17.3545ZM46.4252 17.3545H52.711V20.5438C52.5416 24.7804 46.5974 24.7813 46.4252 20.5464V17.3545ZM55.211 20.5438V17.3545H61.4967V20.5436C61.3236 24.7783 55.3853 24.7764 55.211 20.5455C55.211 20.5449 55.211 20.5444 55.211 20.5438ZM33.3538 3.80859C33.3538 3.10857 33.9145 2.53906 34.6038 2.53906H55.7467C56.436 2.53906 56.9966 3.10857 56.9966 3.80859V6.34764H33.3538V3.80859ZM29.9075 54.8439C29.7094 53.443 29.1884 52.1467 28.4236 51.0353H33.7465V54.8439H29.9075ZM14.9967 56.1133C14.9967 52.6132 17.8004 49.7657 21.2467 49.7657C29.5381 50.1143 29.5358 62.1136 21.2467 62.4609C17.8004 62.4609 14.9967 59.6135 14.9967 56.1133ZM27.3644 62.4609C28.7061 61.1268 29.628 59.3587 29.9075 57.3828H34.9966C35.6869 57.3828 36.2466 56.8145 36.2466 56.1133V54.2663H59.6038V62.4608H27.3644V62.4609ZM59.6038 51.7273H36.2466V44.6877C36.2466 44.0741 35.8146 43.5484 35.2203 43.4386L30.7466 42.6125V26.1357C32.8264 26.6468 35.1365 25.7746 36.3895 24.1398C38.5764 26.9735 42.9894 26.9724 45.1752 24.1398C47.3627 26.9743 51.777 26.9723 53.9623 24.1382C55.2153 25.7721 57.5253 26.644 59.604 26.1329V51.7273H59.6038Z" fill="#0B0B0B"/>
</g>
<defs>
<clipPath id="clip0_221_426">
<rect width="64" height="65" fill="white"/>
</clipPath>
</defs>
</svg>
