<svg width="65" height="65" viewBox="0 0 65 65" fill="none" xmlns="http://www.w3.org/2000/svg">
<g clip-path="url(#clip0_221_427)">
<path fill-rule="evenodd" clip-rule="evenodd" d="M37.8629 13.1584C39.7232 13.0288 41.3033 12.6054 42.9793 11.7876C44.6552 12.6057 46.2356 13.0291 48.0959 13.1587C49.1382 14.7049 50.2951 15.8619 51.8413 16.9041C51.9709 18.7644 52.3943 20.3446 53.2123 22.0205C52.3943 23.6966 51.9708 25.2766 51.8413 27.1371C50.2951 28.1794 49.1381 29.3363 48.0958 30.8825C46.2489 31.0112 44.6781 31.4294 43.0155 32.2358L42.9275 32.2866C43.1855 33.7152 42.9192 35.1552 43.2153 36.3713C43.699 38.0217 45.3129 39.5078 45.3107 41.7097C45.3113 42.4122 45.1476 43.0418 44.9084 43.6272L45.0281 43.5835C46.2201 43.0688 47.2335 42.2632 48.3177 41.9456C49.9889 41.5387 52.0833 42.1939 53.9896 41.0908C55.8977 39.9915 56.3777 37.8508 57.5652 36.6068C58.8091 35.4189 60.9503 34.939 62.0497 33.0308C63.1526 31.1248 62.4979 29.0309 62.9042 27.3599C63.3876 25.7092 65.002 24.2229 65 22.0205C65.0021 19.8185 63.3882 18.3325 62.9045 16.6822C62.4976 15.0109 63.1528 12.9166 62.0497 11.0103C60.9504 9.10216 58.8098 8.62215 57.5657 7.43463C56.3778 6.19062 55.898 4.04955 53.9897 2.95014C52.0838 1.84742 49.9899 2.50199 48.3189 2.09562C46.668 1.61243 45.1818 -0.00202933 42.9793 1.91575e-06C40.7773 -0.00202933 39.2912 1.6118 37.6408 2.09549C35.9696 2.50225 33.8754 1.8473 31.9691 2.95027C30.061 4.04955 29.581 6.19024 28.3934 7.43425C27.1496 8.62215 25.0084 9.10203 23.9089 11.0103C22.8062 12.9162 23.4608 15.01 23.0544 16.6811C22.7369 17.7658 21.9309 18.7794 21.4161 19.9718L21.3855 20.0861C21.9672 19.8499 22.5927 19.6885 23.29 19.6892C25.4924 19.6871 26.9785 21.3016 28.6296 21.7849C29.8453 22.0805 31.2849 21.8145 32.7131 22.0723L32.7639 21.9843C33.5703 20.3218 33.9888 18.7511 34.1174 16.9039C35.6637 15.8618 36.8207 14.7046 37.8629 13.1584Z" fill="#FFAD32"/>
<path d="M44.442 36.0425C44.3309 35.5631 44.3286 34.9636 44.3263 34.3299C44.3218 33.0889 44.3162 31.5445 43.4606 30.0658C42.6066 28.5835 41.272 27.8063 40.1995 27.1819C39.6519 26.8631 39.1342 26.5616 38.7745 26.2258C37.5155 24.6919 37.048 22.7491 34.9362 21.5406C33.4555 20.6837 31.9109 20.6781 30.67 20.6735C30.0365 20.6713 29.4374 20.6691 28.9581 20.5581C28.4874 20.4147 27.9673 20.1168 27.4172 19.802C26.3413 19.186 25.0028 18.4197 23.2968 18.4197C23.2932 18.4197 23.2897 18.4197 23.286 18.4197C21.5778 18.4197 20.239 19.1862 19.1632 19.802C18.6134 20.1167 18.0934 20.4144 17.6227 20.558C17.1434 20.6691 16.544 20.6713 15.9104 20.6735C14.6694 20.6781 13.1251 20.6837 11.6462 21.5394C10.1639 22.3934 9.38679 23.728 8.76243 24.8005C8.44353 25.3481 8.14214 25.8659 7.80622 26.2256C6.27212 27.4844 4.32948 27.9521 3.12102 30.0638C2.26421 31.5445 2.25863 33.089 2.25406 34.33C2.25177 34.9636 2.24961 35.5627 2.13853 36.042C1.99507 36.5127 1.69724 37.0328 1.3824 37.5829C0.765784 38.6599 -0.00152078 40.0002 2.65735e-06 41.7087C-0.00164773 43.4195 0.765784 44.7597 1.38227 45.8368C1.69699 46.3866 1.99469 46.9066 2.13827 47.3771C2.24936 47.8565 2.25164 48.4558 2.25393 49.0896C2.2585 50.3305 2.26408 51.8751 3.11975 53.3538C3.97376 54.8361 5.30842 55.6132 6.38092 56.2377C6.92847 56.5565 7.44631 56.858 7.80584 57.1938C9.06458 58.7279 9.53241 60.6705 11.644 61.879C13.1249 62.7358 14.6694 62.7414 15.9104 62.7459C16.5439 62.7482 17.143 62.7504 17.6224 62.8613C19.478 63.5598 20.8536 65.0068 23.2837 64.9997H23.2944C25.0025 64.9997 26.3414 64.2333 27.4172 63.6175C27.967 63.3027 28.4869 63.005 28.9575 62.8615C29.4369 62.7504 30.0362 62.7482 30.6701 62.7458C31.9111 62.7414 33.4556 62.7356 34.9343 61.8801C36.4166 61.0261 37.1938 59.6914 37.8182 58.6189C38.137 58.0714 38.4385 57.5537 38.7743 57.194C39.1339 56.8581 39.6519 56.5565 40.1996 56.2376C41.272 55.6132 42.6066 54.836 43.4595 53.3557C44.3163 51.8748 44.3219 50.3303 44.3265 49.0893C44.3287 48.4558 44.3309 47.8567 44.4418 47.3775C44.5853 46.9067 44.8831 46.3866 45.198 45.8365C45.8146 44.7596 46.5819 43.4192 46.5804 41.7107C46.582 39.9999 45.8146 38.6596 45.1981 37.5826C44.8833 37.0331 44.5856 36.5131 44.442 36.0425ZM42.9945 44.5753C42.6141 45.2396 42.2208 45.9265 41.9966 46.6926C41.9911 46.7114 41.9861 46.7303 41.9814 46.7493C41.528 48.5033 42.1614 50.4994 41.2604 52.0864C40.7442 52.9825 39.859 53.4979 38.9218 54.0435C38.2604 54.4287 37.5764 54.8269 36.9992 55.3781C36.985 55.3915 36.9712 55.4054 36.9577 55.4196C36.4069 55.9966 36.0087 56.6804 35.6238 57.3417C35.0782 58.2788 34.5627 59.1639 33.6645 59.6815C32.7694 60.1995 31.7451 60.2032 30.6607 60.2071C29.8952 60.2099 29.1036 60.2128 28.3282 60.4016C28.3092 60.4063 28.2902 60.4114 28.2714 60.4168C27.5059 60.6412 26.8194 61.0342 26.1555 61.4143C25.2152 61.9527 24.3271 62.4612 23.2918 62.4612H23.286C22.2531 62.4612 21.3648 61.9527 20.4246 61.4144C19.7603 61.0341 19.0733 60.6408 18.3074 60.4166C18.2886 60.4111 18.2697 60.4061 18.2507 60.4014C16.4967 59.948 14.5006 60.5814 12.9135 59.6804C12.0175 59.1642 11.5021 58.279 10.9564 57.3417C10.5713 56.6802 10.1731 55.9963 9.62203 55.4191C9.60845 55.405 9.59461 55.391 9.58039 55.3776C9.00339 54.8267 8.31962 54.4286 7.65845 54.0437C6.72128 53.498 5.83616 52.9827 5.3187 52.0845C4.41924 50.4993 5.05236 48.5013 4.59863 46.7482C4.59393 46.7291 4.58885 46.7102 4.58339 46.6914C4.35907 45.9259 3.96602 45.2393 3.58592 44.5755C3.04713 43.6344 2.5383 42.7454 2.53919 41.7089C2.5383 40.6747 3.04713 39.7858 3.58592 38.8446C3.96627 38.1802 4.35957 37.4933 4.58377 36.7273C4.58923 36.7085 4.59431 36.6896 4.59901 36.6705C5.05236 34.9165 4.41899 32.9205 5.31997 31.3334C6.24305 29.762 8.28992 29.3112 9.58116 28.0418C9.59525 28.0283 9.60921 28.0145 9.62267 28.0003C10.1735 27.4233 10.5716 26.7395 10.9566 26.0782C11.5022 25.141 12.0176 24.2559 12.9157 23.7384C14.501 22.839 16.499 23.4721 18.2519 23.0184C18.271 23.0137 18.2899 23.0087 18.3087 23.0031C20.0535 22.5189 21.4649 20.9739 23.2887 20.9588H23.2945C24.3274 20.9588 25.2156 21.4672 26.1558 22.0055C26.8201 22.3859 27.5071 22.7792 28.273 23.0034C28.2918 23.0088 28.3107 23.0139 28.3297 23.0186C30.0837 23.472 32.0797 22.8386 33.6668 23.7396C35.2383 24.6627 35.6891 26.7095 36.9585 28.0008C36.9719 28.015 36.9858 28.0288 37 28.0423C37.577 28.5931 38.2608 28.9913 38.9221 29.3762C39.8592 29.9218 40.7443 30.4372 41.2618 31.3354C41.7798 32.2305 41.7835 33.2548 41.7874 34.3393C41.7902 35.1048 41.7931 35.8964 41.9819 36.6719C41.9866 36.691 41.9917 36.7097 41.9971 36.7285C42.2214 37.4941 42.6145 38.1806 42.9946 38.8446C43.5334 39.7857 44.0422 40.6746 44.0413 41.7112C44.0422 42.7451 43.5332 43.6342 42.9945 44.5753Z" fill="#0B0B0B"/>
<path d="M33.4188 36.5052C33.3916 36.115 33.1861 35.7592 32.8618 35.5406C31.4563 34.5932 30.4071 33.544 29.4595 32.1383C29.2409 31.8141 28.8852 31.6087 28.495 31.5814C26.8039 31.4637 25.3703 31.0796 23.847 30.3359C23.4956 30.1645 23.0848 30.1643 22.7334 30.3359C21.21 31.0793 19.7764 31.4635 18.0855 31.5811C17.6954 31.6083 17.3395 31.8139 17.1209 32.1381C16.1736 33.5436 15.1243 34.5929 13.7187 35.5404C13.3945 35.759 13.1891 36.1148 13.1618 36.5049C13.0441 38.1959 12.6599 39.6293 11.9164 41.1529C11.7448 41.5043 11.7448 41.9151 11.9164 42.2665C12.6598 43.7897 13.0438 45.2233 13.1616 46.9143C13.1888 47.3044 13.3943 47.6601 13.7185 47.8788C15.1241 48.8262 16.1733 49.8756 17.1208 51.2811C17.3394 51.6053 17.6951 51.8107 18.0853 51.8379C19.7763 51.9556 21.2097 52.3398 22.7333 53.0835C23.0847 53.255 23.4955 53.255 23.8469 53.0835C25.3702 52.34 26.8038 51.9559 28.4948 51.838C28.8849 51.8109 29.2406 51.6053 29.4592 51.2811C30.4066 49.8756 31.456 48.8263 32.8616 47.8788C33.1858 47.6601 33.3912 47.3044 33.4184 46.9143C33.5361 45.2234 33.9203 43.7898 34.6638 42.2664C34.8353 41.915 34.8353 41.5042 34.6638 41.1528C33.9206 39.6298 33.5365 38.1963 33.4188 36.5052ZM30.939 46.1262C29.6612 47.055 28.6351 48.0811 27.7063 49.3589C26.1352 49.5244 24.7334 49.9001 23.2902 50.5421C21.8468 49.8998 20.4449 49.5242 18.8739 49.3586C17.9451 48.081 16.9189 47.0548 15.6412 46.1259C15.4756 44.5549 15.1001 43.1531 14.458 41.7098C15.1002 40.2664 15.4759 38.8644 15.6413 37.2935C16.9191 36.3646 17.9452 35.3385 18.874 34.0608C20.4449 33.8952 21.8466 33.5197 23.29 32.8776C24.7333 33.5198 26.1352 33.8955 27.7063 34.061C28.6352 35.3388 29.6612 36.365 30.939 37.2938C31.1046 38.8648 31.4801 40.2666 32.1222 41.71C31.4802 43.1533 31.1046 44.5551 30.939 46.1262Z" fill="#0B0B0B"/>
<path d="M15.095 30.0259C16.7794 29.9589 16.7782 27.5533 15.095 27.4869H15.094C13.4096 27.5542 13.4119 29.9598 15.095 30.0259Z" fill="#0B0B0B"/>
<path d="M10.3368 48.6355C9.63563 48.6355 9.06726 49.2039 9.06726 49.905V49.906C9.06726 50.6072 9.63563 51.1751 10.3368 51.1751C12.0206 51.108 12.0204 48.7021 10.3368 48.6355Z" fill="#0B0B0B"/>
<path d="M28.1196 55.1016C27.4342 54.9547 26.7592 55.3913 26.6122 56.077C26.4653 56.7625 26.902 57.4374 27.5876 57.5844L27.5884 57.5846C28.2565 57.7331 28.9515 57.2994 29.0954 56.6091C29.2423 55.9235 28.8052 55.2486 28.1196 55.1016Z" fill="#0B0B0B"/>
<path d="M39.2359 39.9866C38.6272 39.6388 37.8515 39.8507 37.5035 40.4595C37.1557 41.0682 37.3672 41.8438 37.9759 42.1916C38.5738 42.5363 39.3582 42.3337 39.7081 41.7192L39.7086 41.7183C40.0564 41.1095 39.8447 40.3344 39.2359 39.9866Z" fill="#0B0B0B"/>
<path d="M33.663 10.7033C34.2682 11.0326 35.0485 10.8107 35.3827 10.1875L35.3831 10.1867C35.7156 9.56936 35.4843 8.79989 34.867 8.4674C34.2495 8.13491 33.4794 8.36648 33.1472 8.98372C32.8147 9.60097 33.0456 10.3709 33.663 10.7033Z" fill="#0B0B0B"/>
<path d="M54.6856 9.7627C54.0681 9.43033 53.298 9.66177 52.9658 10.279C52.6333 10.8964 52.8643 11.6664 53.4816 11.9987C54.0867 12.328 54.8671 12.1061 55.2013 11.4829L55.2016 11.4821C55.5341 10.8646 55.303 10.0952 54.6856 9.7627Z" fill="#0B0B0B"/>
<path d="M54.2628 31.1179C52.7264 30.4249 51.6511 32.5771 53.127 33.3893C53.7407 33.7001 54.5155 33.455 54.8304 32.8216L54.8308 32.8207C55.1443 32.1937 54.8899 31.4315 54.2628 31.1179Z" fill="#0B0B0B"/>
</g>
<defs>
<clipPath id="clip0_221_427">
<rect width="65" height="65" fill="white"/>
</clipPath>
</defs>
</svg>
