<svg width="64" height="65" viewBox="0 0 64 65" fill="none" xmlns="http://www.w3.org/2000/svg">
<path fill-rule="evenodd" clip-rule="evenodd" d="M49.0001 23.6346H62.7501V33.7908H49.0001V23.6346Z" fill="#FFAD32"/>
<path fill-rule="evenodd" clip-rule="evenodd" d="M17.625 33.4734V40.6181C18.1645 40.8228 18.6746 41.0889 19.1471 41.408H19.1912H25.125V33.4734H17.625Z" fill="#FFAD32"/>
<path fill-rule="evenodd" clip-rule="evenodd" d="M17.625 9.66974H25.1251V17.6043H17.625V9.66974Z" fill="#FFAD32"/>
<path d="M57.75 16.0173H42.75V12.2087C42.75 10.1086 41.0678 8.40009 39 8.40009H3.74999C1.68225 8.40009 0 10.1086 0 12.2087V47.7555C0 48.4566 0.559624 49.025 1.25 49.025H6.33911C8.00148 59.1283 22.0025 59.1209 23.661 49.025H40.3392C42.0015 59.1283 56.0026 59.1209 57.661 49.025H62.75C63.4404 49.025 64 48.4566 64 47.7555V22.3649C64 18.8648 61.1964 16.0173 57.75 16.0173ZM57.75 18.5563C59.8178 18.5563 61.5 20.2648 61.5 22.3649V40.1383H53.5031C50.9115 38.4633 47.0887 38.4633 44.497 40.1383H42.75V18.5563H57.75ZM40.3392 46.4861H23.6611C23.463 45.0852 22.942 43.7888 22.1772 42.6775H41.823C41.0584 43.7888 40.5373 45.0852 40.3392 46.4861ZM3.74999 10.9393H39.0002C39.6894 10.9393 40.2502 11.5088 40.2502 12.2088V40.1384H19.5031C16.9115 38.4634 13.0886 38.4635 10.497 40.1384H2.49999V12.2088C2.49999 11.5088 3.06074 10.9393 3.74999 10.9393ZM2.49999 42.6775H7.82286C7.05824 43.7888 6.53711 45.0853 6.33899 46.4861H2.49999V42.6775ZM15.0001 54.1032C11.5539 54.1032 8.75011 51.2557 8.75011 47.7556C9.09336 39.3346 20.9081 39.337 21.2502 47.7556C21.2501 51.2557 18.4463 54.1032 15.0001 54.1032ZM49.0002 54.1032C45.5539 54.1032 42.7502 51.2557 42.7502 47.7556C43.0934 39.3346 54.9081 39.3371 55.2503 47.7556C55.2501 51.2557 52.4464 54.1032 49.0002 54.1032ZM57.6611 46.4861C57.463 45.0852 56.942 43.7888 56.1773 42.6775H61.5V46.4861H57.6611Z" fill="#0B0B0B"/>
<path d="M11.375 29.4473V30.9344C11.375 33.0344 13.0573 34.743 15.125 34.743H27.625C29.6928 34.743 31.375 33.0344 31.375 30.9344V29.4473C34.6953 28.2441 34.6842 23.4491 31.3613 22.2603C31.1467 18.9562 28.4317 16.3348 25.125 16.3348H17.625C14.3184 16.3348 11.6033 18.9562 11.3888 22.2603C8.06403 23.4506 8.05703 28.2454 11.375 29.4473ZM27.6252 32.2039H15.125C14.4358 32.2039 13.875 31.6344 13.875 30.9344V29.6649H28.875V30.9344C28.8752 31.6344 28.3144 32.2039 27.6252 32.2039ZM30.1252 27.1258H12.6252C10.9665 27.0558 10.9677 24.656 12.6252 24.5867H30.1252C31.7839 24.6567 31.7825 27.0565 30.1252 27.1258ZM17.625 18.8738H25.125C26.9799 18.8738 28.5245 20.2487 28.8229 22.0477H13.9272C14.2257 20.2487 15.7703 18.8738 17.625 18.8738Z" fill="#0B0B0B"/>
<path d="M49.0005 46.4861H48.9996C48.3092 46.4861 47.75 47.0545 47.75 47.7556C47.816 49.4394 50.1849 49.4394 50.2505 47.7556C50.2505 47.0545 49.6909 46.4861 49.0005 46.4861Z" fill="#0B0B0B"/>
<path d="M15.0005 46.4861H14.9996C14.3093 46.4861 13.75 47.0545 13.75 47.7556C13.816 49.4394 16.1849 49.4394 16.2505 47.7556C16.2505 47.0545 15.6909 46.4861 15.0005 46.4861Z" fill="#0B0B0B"/>
</svg>
