<svg width="65" height="65" viewBox="0 0 65 65" fill="none" xmlns="http://www.w3.org/2000/svg">
<path fill-rule="evenodd" clip-rule="evenodd" d="M42.0291 36.4445C44.0618 28.6034 49.2332 23.3438 55.9516 19.2057C56.4711 18.8579 56.8584 18.4036 57.1009 17.8262C57.9889 15.7132 56.7195 13.2765 55.1357 11.872C51.0153 8.21809 43.8534 8.74133 38.9141 9.85482C27.7252 12.3772 11.0014 18.2614 8.05761 31.1054C5.27438 43.6117 16.8504 58.9705 30.3094 55.5443C33.0298 54.9322 35.3088 53.862 36.9678 51.5603C38.2298 49.8093 39.029 47.5758 39.6464 45.5246C40.5462 42.5353 41.2072 39.4596 42.0291 36.4445Z" fill="#FFAD32"/>
<path d="M63.9375 11.3027C59.2728 1.58027 48.1473 -0.0334855 37.2393 2.42517C20.2015 6.51763 5.10604 13.3264 0.725558 29.0167C-2.11467 40.5505 3.81915 51.8399 10.96 57.9121C16.7574 62.8787 24.6005 64.6673 31.9814 62.975C37.3472 61.7676 41.2229 59.1575 43.8301 54.9958C46.1244 51.3337 47.2238 46.9394 48.3878 42.2868C48.7021 41.0309 49.0269 39.7322 49.3772 38.4479H49.377C51.2999 31.395 55.7938 28.4333 59.4048 26.0534C64.4423 23.1618 66.4058 17.0077 63.9375 11.3027ZM58.7751 23.4255C58.5278 23.591 58.2714 23.7599 58.0079 23.9336C54.2498 26.4104 49.1028 29.8024 46.9279 37.7799C46.5707 39.0901 46.2426 40.4018 45.9251 41.6704C43.711 50.5203 41.7987 58.1633 31.4241 60.4979C14.5285 64.5632 -0.598654 46.8085 3.19068 29.6241C5.20379 21.4512 12.8416 10.528 37.7974 4.90184C43.2793 3.66154 49.1397 3.44613 54.0393 5.37481C57.6056 6.78839 60.2924 9.24945 61.6048 12.3047C63.4175 16.5246 62.2538 21.0977 58.7751 23.4255Z" fill="#0B0B0B"/>
<path d="M25.9381 33.6252C22.4384 33.6252 19.5912 36.4725 19.5912 39.9721C19.9398 48.3921 31.9376 48.3897 32.2849 39.9721C32.2849 36.4725 29.4377 33.6252 25.9381 33.6252ZM25.9381 43.7802C23.8383 43.7802 22.1299 42.0719 22.1299 39.9721C22.3391 34.9201 29.5378 34.9217 29.7462 39.9721C29.7462 42.0719 28.0379 43.7802 25.9381 43.7802Z" fill="#0B0B0B"/>
</svg>
