<svg width="65" height="64" viewBox="0 0 65 64" fill="none" xmlns="http://www.w3.org/2000/svg">
<g clip-path="url(#clip0_221_439)">
<path fill-rule="evenodd" clip-rule="evenodd" d="M49.3524 24.7662L47.7343 17.0001C46.8926 12.9599 44.3066 9.50012 40.1172 9.50012H24.8828C20.6933 9.50012 18.1074 12.9592 17.2656 17.0001L15.6477 24.7664H16.0105C18.6665 24.7664 18.8511 26.734 21.5071 26.734C23.8236 26.734 24.2601 25.2371 26.0961 24.8545C29.3018 24.219 29.6401 26.7227 32.5001 26.734C35.3563 26.7251 35.6956 24.2197 38.9041 24.8545C40.7401 25.2371 41.1766 26.734 43.4931 26.734C46.1491 26.734 46.3335 24.7664 48.9895 24.7664L49.3524 24.7662Z" fill="#FFAD32"/>
<path d="M65 42.0001C65 41.3097 64.4315 40.7501 63.7305 40.7501H53.9782L48.9779 16.749C47.8857 11.5067 44.4906 8.25012 40.1172 8.25012H24.8828C20.5094 8.25012 17.1143 11.5067 16.0221 16.749L11.0218 40.7501H1.26953C0.568495 40.7501 0 41.3097 0 42.0001C0 45.6682 2.68848 48.7298 6.22704 49.3749L5.7191 54.3757C5.68343 54.7272 5.80035 55.0769 6.04093 55.3388C6.28163 55.6007 6.62364 55.75 6.98228 55.75H58.0175C58.3761 55.75 58.7181 55.6007 58.9588 55.3388C59.1995 55.0769 59.3163 54.727 59.2806 54.3757L58.773 49.3749C62.3115 48.7298 65 45.6682 65 42.0001ZM18.5093 17.2512C19.164 14.1084 21.1823 10.7501 24.8828 10.7501H40.1172C43.8177 10.7501 45.836 14.1085 46.4907 17.2512L51.3863 40.7501H13.6137L18.5093 17.2512ZM8.38524 53.2499L8.7661 49.4999H56.2339L56.6148 53.2499H8.38524ZM57.3828 47H7.61717C5.25534 47 3.26485 45.4042 2.69978 43.2501H62.3003C61.7351 45.4042 59.7447 47 57.3828 47Z" fill="#0B0B0B"/>
<path d="M26.6545 17.6287C25.954 17.577 25.3455 18.092 25.2923 18.7802L24.2599 32.1363C24.2068 32.8247 24.7304 33.4252 25.4296 33.4776C26.1192 33.5323 26.741 33.016 26.7916 32.3261L27.8242 18.97C27.8773 18.2816 27.3537 17.681 26.6545 17.6287Z" fill="#0B0B0B"/>
<path d="M39.7077 18.7802C39.6543 18.0917 39.0438 17.5759 38.3455 17.6287C37.6463 17.6811 37.1226 18.2816 37.1758 18.97L38.2082 32.3261C38.2591 33.0161 38.8807 33.5324 39.5704 33.4776C40.2696 33.4252 40.7932 32.8247 40.74 32.1364L39.7077 18.7802Z" fill="#0B0B0B"/>
</g>
<defs>
<clipPath id="clip0_221_439">
<rect width="65" height="64" fill="white"/>
</clipPath>
</defs>
</svg>
