<svg width="64" height="64" viewBox="0 0 64 64" fill="none" xmlns="http://www.w3.org/2000/svg">
<path fill-rule="evenodd" clip-rule="evenodd" d="M16.9967 7.5H51.9968V56.5H16.9967V7.5Z" fill="#FFAD32"/>
<path d="M53.2467 0H8.2467C7.55645 0 6.9967 0.559625 6.9967 1.25V7H5.7467C4.0882 7.06612 4.08945 9.4345 5.7467 9.5H6.9967V13.7858H5.7467C4.0882 13.8519 4.08945 16.2202 5.7467 16.2857H6.9967V20.5715H5.7467C4.0882 20.6376 4.08945 23.006 5.7467 23.0715H6.9967V27.3571H5.7467C4.0882 27.4233 4.08945 29.7916 5.7467 29.8571H6.9967V34.1429H5.7467C4.0882 34.209 4.08945 36.5774 5.7467 36.6429H6.9967V40.9286H5.7467C4.0882 40.9947 4.08945 43.3631 5.7467 43.4286H6.9967V47.7144H5.7467C4.0882 47.7805 4.08945 50.1489 5.7467 50.2144H6.9967V54.5H5.7467C4.0882 54.5661 4.08945 56.9345 5.7467 57H6.9967V62.75C6.9967 63.4404 7.55645 64 8.2467 64H53.2467C56.693 64 59.4967 61.1963 59.4967 57.75V6.25C59.4967 2.80375 56.693 0 53.2467 0ZM56.9967 57.75C56.9967 59.8177 55.3144 61.5 53.2467 61.5H9.4967V57H10.7467C12.4052 56.9339 12.404 54.5655 10.7467 54.5H9.4967V50.2142H10.7467C12.4052 50.1481 12.404 47.7797 10.7467 47.7142H9.4967V43.4285H10.7467C12.4052 43.3624 12.404 40.994 10.7467 40.9285H9.4967V36.6427H10.7467C12.4052 36.5766 12.404 34.2082 10.7467 34.1427H9.4967V29.857H10.7467C12.4052 29.7909 12.404 27.4225 10.7467 27.357H9.4967V23.0714H10.7467C12.4052 23.0052 12.404 20.6369 10.7467 20.5714H9.4967V16.2856H10.7467C12.4052 16.2195 12.404 13.8511 10.7467 13.7856H9.4967V9.5H10.7467C12.4052 9.43388 12.404 7.0655 10.7467 7H9.4967V2.5H53.2467C55.3144 2.5 56.9967 4.18225 56.9967 6.25V57.75Z" fill="#0B0B0B"/>
<path d="M44.4831 21.772C44.2685 18.5187 41.5535 15.9376 38.2469 15.9376H30.7468C27.4403 15.9376 24.7253 18.5187 24.5106 21.772C21.1858 22.9439 21.1786 27.665 24.4969 28.8484V30.3126C24.4969 32.3804 26.179 34.0626 28.2468 34.0626H40.7469C42.8146 34.0626 44.4969 32.3804 44.4969 30.3126V28.8484C47.8171 27.6636 47.8059 22.9425 44.4831 21.772ZM30.7468 18.4375H38.2469C40.1018 18.4375 41.6464 19.7912 41.9448 21.5625H27.049C27.3474 19.7912 28.892 18.4375 30.7468 18.4375ZM40.7469 31.5625H28.2468C27.5575 31.5625 26.9969 31.0017 26.9969 30.3125V29.0625H41.9969V30.3125C41.9969 31.0019 41.436 31.5625 40.7469 31.5625ZM43.2469 26.5625H25.7469C24.0881 26.4936 24.0895 24.1307 25.7469 24.0625H43.2469C44.9055 24.1315 44.9043 26.4942 43.2469 26.5625Z" fill="#0B0B0B"/>
<path d="M43.2468 45.5624H25.7468C24.0883 45.6285 24.0896 47.9969 25.7468 48.0624H43.2468C44.9053 47.9963 44.9039 45.6279 43.2468 45.5624Z" fill="#0B0B0B"/>
<path d="M43.2468 39.3124H25.7468C24.0883 39.3785 24.0896 41.7469 25.7468 41.8124H43.2468C44.9053 41.7463 44.9039 39.3779 43.2468 39.3124Z" fill="#0B0B0B"/>
</svg>
