<svg width="65" height="64" viewBox="0 0 65 64" fill="none" xmlns="http://www.w3.org/2000/svg">
<g clip-path="url(#clip0_221_435)">
<path d="M51.0712 30.7994C51.0712 29.3091 50.3809 27.9746 49.2987 27.0896C49.9501 26.3648 50.3459 25.4125 50.3459 24.3709C50.3459 19.7432 46.5221 15.9782 41.822 15.9782H23.1781C18.478 15.9782 14.6542 19.7432 14.6542 24.371C14.6542 25.4127 15.0501 26.365 15.7015 27.0898C13.3519 28.9546 13.3529 32.6455 15.7017 34.5094C15.0504 35.2341 14.6544 36.1863 14.6544 37.228V38.6566C14.6544 40.9212 16.5257 42.7637 18.8257 42.7637C19.5269 42.7637 20.0952 42.2041 20.0952 41.5137C20.0952 40.8233 19.5269 40.2637 18.8257 40.2637C17.9257 40.2637 17.1935 39.5427 17.1935 38.6566V37.228C17.1935 36.3418 17.9257 35.6208 18.8257 35.6208H29.0574L29.6805 36.2343C31.1595 37.7533 33.8407 37.7532 35.3197 36.2343L35.9429 35.6207H46.1745C47.0745 35.6207 47.8068 36.3417 47.8068 37.2278V38.6565C47.8068 39.5426 47.0745 40.2636 46.1745 40.2636C45.4734 40.2636 44.905 40.8232 44.905 41.5136C44.905 42.2039 45.4734 42.7636 46.1745 42.7636C48.4745 42.7636 50.3458 40.9211 50.3458 38.6565V37.2278C50.3458 36.1862 49.95 35.2341 49.2987 34.5092C50.3809 33.6242 51.0712 32.2896 51.0712 30.7994ZM18.8254 25.978C17.9255 25.978 17.1932 25.257 17.1932 24.3709C17.1932 21.1216 19.878 18.4781 23.1781 18.4781H41.822C45.1221 18.4781 47.8069 21.1216 47.8069 24.3708C47.8069 25.257 47.0746 25.978 46.1747 25.978H18.8254ZM18.8257 33.1207C15.6972 32.9929 15.6995 28.6048 18.8257 28.478H21.803L26.5182 33.1207H18.8257ZM32.5001 34.8811C32.1111 34.8811 31.7474 34.7339 31.476 34.4666L25.394 28.4781H39.6064L33.5244 34.4666C33.2528 34.7339 32.8891 34.8811 32.5001 34.8811ZM43.1971 28.478H46.1745C49.3032 28.6059 49.3006 32.994 46.1745 33.1207H38.4819L43.1971 28.478Z" fill="#0B0B0B"/>
<path d="M21.1796 9.72815C20.8289 10.326 21.037 11.0905 21.6442 11.4357C22.2407 11.7778 23.0259 11.5815 23.3784 10.9782C25.1135 8.01928 24.15 6.2489 23.4466 4.95628C22.8648 3.88703 22.5442 3.29815 23.3784 1.8754C23.7291 1.27753 23.521 0.513027 22.9138 0.167902C22.3066 -0.177348 21.5302 0.0275272 21.1796 0.625402C19.639 3.2529 20.5461 4.91978 21.2085 6.13703C21.8106 7.24315 22.2082 7.9739 21.1796 9.72815Z" fill="#0B0B0B"/>
<path d="M31.3358 9.72815C30.9852 10.326 31.1933 11.0905 31.8005 11.4357C32.3969 11.7778 33.1821 11.5815 33.5347 10.9782C35.2697 8.01928 34.3063 6.2489 33.6028 4.95628C33.021 3.88703 32.7005 3.29815 33.5347 1.8754C33.8853 1.27753 33.6772 0.513027 33.07 0.167902C32.4628 -0.177348 31.6864 0.0275272 31.3358 0.625402C29.7953 3.2529 30.7023 4.91978 31.3648 6.13703C31.9668 7.24315 32.3644 7.9739 31.3358 9.72815Z" fill="#0B0B0B"/>
<path d="M41.492 9.72815C41.1413 10.326 41.3494 11.0905 41.9566 11.4357C42.553 11.7778 43.3383 11.5815 43.6908 10.9782C45.4259 8.01928 44.4624 6.2489 43.759 4.95628C43.1771 3.88703 42.8566 3.29815 43.6908 1.8754C44.0414 1.27753 43.8334 0.513027 43.2262 0.167902C42.6189 -0.177348 41.8426 0.0275272 41.492 0.625402C39.9514 3.2529 40.8585 4.91978 41.5209 6.13703C42.1229 7.24315 42.5205 7.9739 41.492 9.72815Z" fill="#0B0B0B"/>
<path fill-rule="evenodd" clip-rule="evenodd" d="M63.7304 40.2167C63.7304 44.3418 60.3026 47.7166 56.1132 47.7166H8.8868C4.69737 47.7166 1.26965 44.3417 1.26965 40.2167H63.7304Z" fill="#FFAD32"/>
<path d="M57.0862 49.051C56.6446 47.5547 55.0432 46.191 52.5698 46.7326C52.5623 46.7342 52.5548 46.736 52.5474 46.7377L43.168 48.9676C42.9869 48.3222 42.6145 47.749 42.0859 47.314C41.3967 46.7469 40.5232 46.4792 39.6254 46.561C39.0694 46.6116 37.1855 46.8059 35.191 47.0115C33.2879 47.2077 31.32 47.4106 30.7786 47.4599C29.6822 47.5596 28.1509 47.3327 26.5294 47.0927C19.1132 45.7423 12.2864 46.4897 8.17362 54.1286L5.14784 59.3902C4.57731 60.4007 4.5777 61.6224 5.14885 62.5785C5.68053 63.4688 6.62036 64.0001 7.66277 64H18.2723C20.1292 64 20.8472 63.6288 21.764 62.1942L22.5679 60.9364L28.4774 61.2139C32.9971 61.4262 34.4401 61.2003 38.7676 59.6028C43.3064 57.9548 50.7179 54.8336 54.7677 53.3118C54.7719 53.3105 54.7761 53.309 54.7803 53.3075C56.618 52.6536 57.6094 50.8236 57.0862 49.051ZM53.9227 50.9545C53.0893 51.242 51.1089 52.0401 48.6036 53.0498C45.2878 54.3862 41.1611 56.0493 37.8762 57.2619C33.8849 58.7354 32.7574 58.9122 28.5982 58.7168L21.9485 58.4046C21.4903 58.3839 21.0573 58.6058 20.8135 58.9874L19.6151 60.8628C19.3491 61.279 19.237 61.3958 19.1898 61.4204C19.1328 61.4502 18.9378 61.5002 18.2723 61.5002H7.66162C7.60818 61.5002 7.44948 61.499 7.33726 61.3112C7.2927 61.2367 7.16333 60.9655 7.36202 60.6137L10.3878 55.3522C10.3912 55.3463 10.3945 55.3404 10.3978 55.3344C14.4488 48.1516 19.9657 48.6317 26.1517 49.5651C27.9297 49.8282 29.6092 50.0771 31.0121 49.9494C32.0733 49.8535 38.7491 49.1516 39.8589 49.0504C40.0785 49.0306 40.2909 49.095 40.4577 49.2324C40.6267 49.3714 40.7306 49.5722 40.7505 49.7981C40.7637 49.9487 40.799 50.3487 39.6149 50.8535C36.8236 52.0435 33.8603 53.041 31.4846 53.5901C30.8021 53.748 30.3787 54.4207 30.539 55.0927C30.6993 55.7647 31.3827 56.1816 32.065 56.0238C34.5807 55.4422 37.7003 54.3938 40.6237 53.1476C41.6417 52.7137 42.2928 52.1911 42.6969 51.6513L53.1313 49.1706C53.9242 49.0001 54.4908 49.2156 54.6481 49.7485C54.7418 50.0664 54.6942 50.677 53.9227 50.9545Z" fill="#0B0B0B"/>
</g>
<defs>
<clipPath id="clip0_221_435">
<rect width="65" height="64" fill="white"/>
</clipPath>
</defs>
</svg>
