<svg width="64" height="64" viewBox="0 0 64 64" fill="none" xmlns="http://www.w3.org/2000/svg">
<path d="M62.1574 47.5884C64.6618 45.9803 64.5822 42.205 62.0197 40.7004C62.472 39.8495 62.727 38.8784 62.7585 37.8455C62.8164 35.943 62.1001 34.0365 60.8425 32.7458C60.3607 32.2511 59.5692 32.2409 59.0749 32.7228C58.5804 33.2045 58.5701 33.996 59.0519 34.4904C59.834 35.2931 60.2967 36.5496 60.2598 37.7694C60.232 38.6791 59.9331 39.4995 59.409 40.125H4.56625C3.95412 39.4384 3.77938 38.6028 3.74675 37.9861C3.68763 36.8631 4.07325 35.6638 4.7065 35.0016C5.80487 33.7579 4.09288 32.1211 2.89975 33.2738C1.78612 34.4381 1.15412 36.2944 1.25025 38.1178C1.3 39.062 1.5425 39.9438 1.95487 40.7158C-0.58725 42.2329 -0.649625 45.9896 1.84288 47.5889C0.69925 48.7366 0 50.3138 0 52V54.5C0 57.9463 2.80375 60.75 6.25 60.75H57.75C61.1963 60.75 64 57.9463 64 54.5V52C64 50.313 63.301 48.7361 62.1574 47.5884ZM4.0625 45.75C1.98925 45.664 1.99075 42.7103 4.0625 42.625H59.9375C62.0104 42.7109 62.0095 45.6645 59.9375 45.75C58.2173 45.75 57.2446 46.3816 56.463 46.8891C55.8051 47.3163 55.3298 47.625 54.35 47.625C53.3702 47.625 52.8949 47.3164 52.237 46.8891C50.1706 45.367 47.349 45.3708 45.288 46.8891C44.63 47.3163 44.1548 47.625 43.175 47.625C42.1952 47.625 41.7199 47.3164 41.062 46.8891C38.9956 45.367 36.1739 45.3708 34.113 46.8891C33.455 47.3164 32.9796 47.625 32 47.625C31.0203 47.625 30.5449 47.3164 29.887 46.8891C27.8206 45.367 24.999 45.3708 22.938 46.8891C22.28 47.3164 21.8046 47.625 20.825 47.625C19.8453 47.625 19.3699 47.3164 18.712 46.8891C16.6507 45.369 13.8232 45.3695 11.763 46.8891C11.105 47.3164 10.6297 47.625 9.65 47.625C8.67025 47.625 8.19487 47.3164 7.537 46.8891C6.75538 46.3816 5.78263 45.75 4.0625 45.75ZM61.5 54.5C61.5 56.5678 59.8177 58.25 57.75 58.25H6.25C4.18225 58.25 2.5 56.5678 2.5 54.5V52C2.5 50.3668 3.59437 48.904 5.13925 48.4196C5.50575 48.5513 5.81287 48.7506 6.1755 48.986C8.24187 50.5081 11.0635 50.5044 13.1245 48.986C13.7825 48.5589 14.2578 48.2501 15.2375 48.2501C16.2173 48.2501 16.6926 48.5588 17.3505 48.986C19.4169 50.5081 22.2385 50.5044 24.2995 48.986C24.9574 48.5589 25.4328 48.2501 26.4125 48.2501C27.3923 48.2501 27.8676 48.5588 28.5255 48.986C30.596 50.5094 33.4124 50.5038 35.4744 48.986C36.1324 48.5588 36.6076 48.2501 37.5875 48.2501C38.5673 48.2501 39.0425 48.5588 39.7005 48.986C41.7669 50.5081 44.5885 50.5044 46.6495 48.986C47.3075 48.5589 47.7827 48.2501 48.7625 48.2501C49.7423 48.2501 50.2176 48.5588 50.8755 48.986C52.9439 50.5088 55.763 50.504 57.8245 48.986C58.187 48.7506 58.4941 48.5513 58.8607 48.4198C60.4059 48.9039 61.5 50.366 61.5 52V54.5Z" fill="#0B0B0B"/>
<path fill-rule="evenodd" clip-rule="evenodd" d="M4.06237 27.625C0.334491 29.7773 1.46924 36.9441 8.69262 35.0086C11.8364 46.9611 27.6654 45.2024 28.802 34.868C31.8489 37.3055 36.6535 37.0476 39.8409 34.0945C41.3877 36.0633 46.9519 38.7069 51.2316 34.2351C56.3879 39.157 64.8462 34.1867 59.9374 27.625C57.2374 27.625 57.0499 29.5 54.3499 29.5C51.65 29.5 51.4624 27.625 48.7624 27.625C46.0624 27.625 45.8749 29.5 43.1749 29.5C40.4749 29.5 40.2872 27.625 37.5874 27.625C34.8874 27.625 34.6997 29.5 31.9999 29.5C29.2999 29.5 29.1124 27.625 26.4124 27.625C23.7124 27.625 23.5249 29.5 20.8249 29.5C18.1249 29.5 17.9374 27.625 15.2374 27.625C12.5375 27.625 12.3499 29.5 9.64987 29.5C6.94999 29.5 6.76237 27.625 4.06237 27.625Z" fill="#FFAD32"/>
<path d="M62.1669 21.4178C63.2989 20.286 64 18.7233 64 16.9999C64 9.41813 57.8317 3.24988 50.25 3.24988H13.75C6.16825 3.25 0 9.41813 0 17C0 18.7234 0.701125 20.286 1.83312 21.4178C-1.49462 23.6218 0.01825 28.8406 4.0625 28.875C5.04212 28.875 5.5175 29.1836 6.1755 29.6109C7.97137 30.9601 10.7196 31.1951 12.7335 29.8601L12.3298 31.1551C12.1243 31.8141 12.492 32.515 13.1511 32.7205C13.7924 32.9259 14.5129 32.5643 14.7165 31.8991L15.6528 28.8959C16.3035 28.9653 16.7155 29.2015 17.2059 29.5173C17.2064 29.5205 17.2068 29.5236 17.2073 29.5269L18.1448 35.6206C18.2466 36.3064 18.9029 36.7735 19.5702 36.666C20.2526 36.561 20.7206 35.9228 20.6156 35.2405L19.9149 30.6858C20.6047 30.7965 21.5685 30.759 22.199 30.5968L22.8452 31.8193C23.1694 32.4355 23.9364 32.6598 24.5345 32.3401C25.1449 32.0175 25.3781 31.2613 25.0554 30.6509L24.453 29.5113C25.036 29.1364 25.5105 28.8749 26.4124 28.8749C27.3921 28.8749 27.8675 29.1835 28.5254 29.6108C30.5959 31.1341 33.4123 31.1285 35.4743 29.6108C36.1323 29.1835 36.6075 28.8749 37.5874 28.8749C38.5671 28.8749 39.0424 29.1835 39.7004 29.6108C41.0448 30.603 43.1102 31.1493 45.125 30.4238L45.0455 31.0861C44.9633 31.7715 45.4523 32.3939 46.1376 32.4761C46.8101 32.561 47.4484 32.072 47.5276 31.384L47.8134 29.0021C48.0809 28.921 48.384 28.875 48.7624 28.875C49.7421 28.875 50.2175 29.1836 50.8754 29.6109C52.9473 31.1345 55.7611 31.1288 57.8244 29.6109C58.4823 29.1838 58.9576 28.8751 59.9374 28.8751C63.9816 28.8415 65.4941 23.6199 62.1669 21.4178ZM13.75 5.75H50.25C56.4533 5.75 61.5 10.7968 61.5 17C61.5 19.0678 59.8177 20.75 57.75 20.75H6.25C4.18225 20.75 2.5 19.0678 2.5 17C2.5 10.7968 7.54675 5.75 13.75 5.75ZM59.9375 26.375C58.2173 26.375 57.2446 27.0066 56.463 27.5141C55.8051 27.9413 55.3298 28.25 54.35 28.25C53.3702 28.25 52.8949 27.9414 52.237 27.5141C50.1706 25.992 47.349 25.9958 45.288 27.5141C44.63 27.9413 44.1548 28.25 43.175 28.25C42.1952 28.25 41.7199 27.9414 41.062 27.5141C38.9956 25.992 36.1739 25.9958 34.113 27.5141C33.455 27.9414 32.9796 28.25 32 28.25C31.0203 28.25 30.5449 27.9414 29.887 27.5141C27.8206 25.992 24.999 25.9958 22.938 27.5141C22.28 27.9414 21.8046 28.25 20.825 28.25C19.8453 28.25 19.3699 27.9414 18.712 27.5141C16.6507 25.994 13.8232 25.9945 11.763 27.5141C11.105 27.9414 10.6297 28.25 9.65 28.25C8.67025 28.25 8.19487 27.9414 7.537 27.5141C6.75538 27.0066 5.78263 26.375 4.0625 26.375C1.98988 26.2894 1.99025 23.3355 4.0625 23.25H59.9375C62.0107 23.336 62.0091 26.2896 59.9375 26.375Z" fill="#0B0B0B"/>
<path d="M17.0004 12C18.6589 11.934 18.6576 9.56538 17.0004 9.5H16.9995C15.341 9.56625 15.3433 11.9349 17.0004 12Z" fill="#0B0B0B"/>
<path d="M32.0004 12C33.6589 11.934 33.6577 9.56538 32.0004 9.5H31.9996C30.3411 9.56625 30.3432 11.9349 32.0004 12Z" fill="#0B0B0B"/>
<path d="M47.0004 12C48.6589 11.934 48.6577 9.56538 47.0004 9.5H46.9996C45.3411 9.56625 45.3432 11.9349 47.0004 12Z" fill="#0B0B0B"/>
<path d="M9.50044 16.9999C11.1589 16.9339 11.1577 14.5653 9.50044 14.4999H9.49956C7.84106 14.5661 7.84319 16.9346 9.50044 16.9999Z" fill="#0B0B0B"/>
<path d="M24.5004 16.9999C26.1589 16.9339 26.1577 14.5653 24.5004 14.4999H24.4996C22.8411 14.5661 22.8432 16.9346 24.5004 16.9999Z" fill="#0B0B0B"/>
<path d="M39.5004 16.9999C41.1589 16.9339 41.1577 14.5653 39.5004 14.4999H39.4996C37.8411 14.5661 37.8432 16.9346 39.5004 16.9999Z" fill="#0B0B0B"/>
<path d="M54.5004 16.9999C56.1589 16.9339 56.1577 14.5653 54.5004 14.4999H54.4996C52.8411 14.5661 52.8432 16.9346 54.5004 16.9999Z" fill="#0B0B0B"/>
</svg>
