<svg width="64" height="64" viewBox="0 0 64 64" fill="none" xmlns="http://www.w3.org/2000/svg">
<path d="M56.7073 21.9444C56.4698 21.6626 56.12 21.4999 55.7515 21.4999H52.0017V8.75C52.0017 8.05962 51.4419 7.5 50.7517 7.5H44.5015V5C44.5015 4.30963 43.9418 3.75 43.2515 3.75H37.0015V1.25C37.0015 0.559625 36.4418 0 35.7515 0H28.2514C27.561 0 27.0014 0.559625 27.0014 1.25V3.75H20.7514C20.061 3.75 19.5014 4.30963 19.5014 5V7.5H13.2514C12.561 7.5 12.0014 8.05962 12.0014 8.75V21.5H8.25141C7.49916 21.482 6.87428 22.2235 7.01953 22.9618L13.8945 62.9618C13.9977 63.5616 14.5178 64 15.1264 64H48.8763C49.4849 64 50.005 63.5616 50.1082 62.9618L56.9833 22.9618C57.0459 22.5985 56.9449 22.2262 56.7073 21.9444ZM49.5017 10V21.5H44.5015V10H49.5017ZM21.581 24.4972L19.9684 18.4789L24.798 17.1847L28.4817 30.932C25.3803 29.9042 22.8302 27.5555 21.581 24.4972ZM35.2497 11.4735L40.1683 12.3717L36.8792 30.3815C35.282 31.1572 33.4434 31.563 31.5935 31.4925L35.2497 11.4735ZM42.0015 16.2488V25.4071C41.428 26.5144 40.677 27.5099 39.7897 28.3596L42.0015 16.2488ZM42.0015 6.25V10.1756C41.9512 10.1596 41.8997 10.1466 41.8472 10.1371L37.0015 9.25225V6.25H42.0015ZM34.5015 2.5V8.7955L34.4692 8.78963C33.79 8.66563 33.1388 9.1155 33.0149 9.79475L29.9308 26.6815L29.5014 25.0791V2.5H34.5015ZM27.0014 6.25V15.7489L26.8893 15.3302C26.8034 15.01 26.594 14.737 26.3069 14.5712C26.0199 14.4054 25.6788 14.3605 25.3584 14.4464L22.0015 15.3459V6.25H27.0014ZM14.5013 10H19.5013V16.0158L18.1137 16.3875C17.4617 16.5485 17.0432 17.2733 17.2298 17.9185L18.1897 21.5H14.5013V10ZM51.2498 41.5625H38.171C36.5125 41.6286 36.5138 43.997 38.171 44.0625H50.82L49.5309 51.5625H38.1709C36.5124 51.6286 36.5137 53.997 38.1709 54.0625H49.1013L47.8229 61.5H16.18L14.9017 54.0625H25.8319C27.4904 53.9965 27.4892 51.6279 25.8319 51.5625H14.4719L13.1828 44.0625H25.8319C27.4904 43.9965 27.4892 41.6279 25.8319 41.5625H12.7532L9.73466 24H18.7697C22.6544 37.2534 41.3533 37.2456 45.2333 24H54.2684L51.2498 41.5625Z" fill="#0B0B0B"/>
<path fill-rule="evenodd" clip-rule="evenodd" d="M32.0016 57.8125C37.5095 57.8125 42.0017 53.3203 42.0017 47.8125C41.4367 34.5452 22.5646 34.549 22.0016 47.8127C22.0015 53.3203 26.4937 57.8125 32.0016 57.8125Z" fill="#FFAD32"/>
</svg>
