<svg width="65" height="64" viewBox="0 0 65 64" fill="none" xmlns="http://www.w3.org/2000/svg">
<g clip-path="url(#clip0_221_407)">
<path fill-rule="evenodd" clip-rule="evenodd" d="M17.2656 6.25012H52.8124V47.7498H17.2656V6.25012Z" fill="#FFAD32"/>
<path d="M57.8904 0H12.1876C8.68751 0 5.83997 2.80374 5.83997 6.24998V57.75C5.83997 61.1963 8.68751 64 12.1876 64H57.8904C58.5914 64 59.1599 63.4404 59.1599 62.75V1.25C59.1599 0.559623 58.5916 0 57.8904 0ZM56.6209 51.5H13.4571V2.49999H56.6209V51.5ZM8.37902 6.24998C8.37902 4.62036 9.44034 3.23011 10.9181 2.71424V51.6258C9.98053 51.8139 9.1175 52.2062 8.37902 52.753V6.24998ZM12.1876 61.5C7.13374 61.2934 7.13768 54.2048 12.1876 54H56.6209V56.5H12.1876C10.5032 56.5662 10.5045 58.9345 12.1876 59H56.6209V61.5H12.1876Z" fill="#0B0B0B"/>
<path d="M22.3438 27.3126C22.3438 28.9422 23.405 30.3323 24.8827 30.8482V32.3126C24.8827 34.3803 26.5912 36.0626 28.6913 36.0626H41.3867C43.4868 36.0626 45.1952 34.3803 45.1952 32.3126V30.8483C48.5674 29.6637 48.5561 24.9423 45.1812 23.7719C44.9632 20.5187 42.2058 17.9376 38.8477 17.9376H31.2303C27.872 17.9376 25.1145 20.5187 24.8966 23.7721C23.4117 24.2841 22.3438 25.6778 22.3438 27.3126ZM41.3867 33.5624H28.6913C27.9913 33.5624 27.4217 33.0017 27.4217 32.3124V31.0624H42.6561V32.3124C42.6561 33.0018 42.0867 33.5624 41.3867 33.5624ZM43.9258 28.5624H26.1523C24.4678 28.4936 24.4689 26.1308 26.1523 26.0624H43.9258C45.6104 26.1314 45.6092 28.4942 43.9258 28.5624ZM31.2303 20.4376H38.8477C40.7314 20.4376 42.3001 21.7913 42.6032 23.5626H27.4747C27.7779 21.7913 29.3466 20.4376 31.2303 20.4376Z" fill="#0B0B0B"/>
</g>
<defs>
<clipPath id="clip0_221_407">
<rect width="65" height="64" fill="white"/>
</clipPath>
</defs>
</svg>
