<svg width="64" height="64" viewBox="0 0 64 64" fill="none" xmlns="http://www.w3.org/2000/svg">
<g clip-path="url(#clip0_221_445)">
<path fill-rule="evenodd" clip-rule="evenodd" d="M44.4883 34.2609H19.5117C19.504 34.5474 19.5 34.8406 19.5 35.1414V56.5001H44.5C44.5 49.3805 44.5 42.2609 44.5 35.1414C44.5 34.8406 44.4961 34.5472 44.4883 34.2609Z" fill="#FFAD32"/>
<path d="M42.6992 22.6239C41.2225 19.4664 39.6984 16.2078 39.5178 9.99971C40.1999 9.99021 40.7499 9.43434 40.7499 8.74997V3.74999C40.7499 1.68224 39.0677 0 36.9999 0H27C24.9322 0 23.25 1.68224 23.25 3.74999V8.74997C23.25 9.43434 23.8001 9.99021 24.4821 9.99971C24.3015 16.2078 22.7774 19.4663 21.3007 22.6239C19.8009 25.8306 18.25 29.1466 18.25 35.1412V60.25C18.25 62.3178 19.9322 64 22 64H41.9999C44.0676 64 45.7499 62.3178 45.7499 60.25V35.1412C45.7499 29.1466 44.199 25.8306 42.6992 22.6239ZM26.9828 9.99996H37.0169C37.0686 11.8593 37.2347 13.4839 37.48 14.9296C34.7524 15.4956 32.4196 15.1722 30.3367 14.8836C29.0376 14.7036 27.7881 14.5303 26.5751 14.5918C26.7901 13.2319 26.9352 11.716 26.9828 9.99996ZM25.75 3.74999C25.75 3.06074 26.3107 2.49999 27 2.49999H36.9999C37.6892 2.49999 38.2499 3.06074 38.2499 3.74999V7.49997H25.75V3.74999ZM43.2499 60.25C43.2499 60.9393 42.6892 61.5 41.9999 61.5H22C21.3107 61.5 20.75 60.9393 20.75 60.25V35.1412C20.7462 26.4674 24.1654 24.395 26.0502 17.1571C27.1812 16.9702 28.4978 17.1526 29.9935 17.3599C31.2844 17.5389 32.7428 17.7411 34.3712 17.7409C35.5007 17.7409 36.7121 17.6436 38.0057 17.3738C38.6752 19.9213 39.5848 21.8662 40.4345 23.683C41.8823 26.7785 43.2498 29.7024 43.2498 35.1412V60.25H43.2499Z" fill="#0B0B0B"/>
<path d="M35.7471 40.4656C34.8522 39.8593 34.1537 39.6395 33.5381 39.5921C33.5448 39.5718 33.5513 39.5535 33.5576 39.537C33.8864 38.9878 33.7472 38.2687 33.2196 37.8851C32.6612 37.4792 31.8794 37.6025 31.4734 38.1608C31.2668 38.445 31.0962 38.9832 30.9634 39.5683C30.3199 39.522 29.5808 39.6426 28.5047 40.3032C24.2044 42.8757 24.3004 49.298 28.6316 51.7838C29.8881 52.4883 30.4906 52.5402 31.5554 52.4187C31.8807 52.371 32.1056 52.3698 32.4332 52.4175C33.2758 52.5208 34.1466 52.5436 35.5182 51.6937C39.6223 49.238 39.7346 43.0901 35.7471 40.4656ZM34.2013 49.5685C33.4643 50.0252 33.2212 49.9955 32.7378 49.936C32.3377 49.8656 31.6344 49.8687 31.2442 49.9381C30.7832 49.9958 30.5728 50.0223 29.8923 49.6248C27.1774 48.0666 27.1191 44.045 29.8128 42.4336C30.2128 42.188 30.4392 42.0913 30.6328 42.0675C30.8279 43.5271 32.8976 43.5415 33.1148 42.0872C33.4521 42.0592 33.7393 42.1251 34.3449 42.5353C36.8442 44.1806 36.7727 48.03 34.2013 49.5685Z" fill="#0B0B0B"/>
</g>
<defs>
<clipPath id="clip0_221_445">
<rect width="64" height="64" fill="white"/>
</clipPath>
</defs>
</svg>
