<svg width="65" height="64" viewBox="0 0 65 64" fill="none" xmlns="http://www.w3.org/2000/svg">
<g clip-path="url(#clip0_221_425)">
<path fill-rule="evenodd" clip-rule="evenodd" d="M41.5036 56.3862C42.1503 41.0452 45.3268 36.5533 46.2267 22.9613H46.089C45.0471 23.3294 44.4411 23.9348 42.7223 23.9348C40.2526 23.9348 40.081 22.6848 37.6112 22.6848C35.1414 22.6848 34.9698 23.9348 32.5001 23.9348C30.0304 23.9348 29.8587 22.6848 27.389 22.6848C24.9193 22.6848 24.7477 23.9348 22.2779 23.9348C20.5591 23.9348 19.9532 23.3296 18.9113 22.9613H18.7736C19.6735 36.5533 22.85 41.0452 23.4967 56.3862H41.5036Z" fill="#FFAD32"/>
<path d="M47.7342 15.25C47.7342 14.5597 47.1659 14.0001 46.4647 14.0001H46.4153C46.0305 9.29462 43.4603 7.16589 41.3964 5.63454C40.6402 3.31594 38.4004 1.12584 35.6712 0.0844778C35.1227 -0.12477 34.5003 0.064103 34.1669 0.540972C31.471 4.29318 25.2164 2.2712 24.2465 8.05238C23.521 8.16951 22.8348 8.34813 22.2004 8.61713C20.0504 9.52887 18.8649 11.2947 18.595 13.9999H18.5352C17.8341 13.9999 17.2657 14.5596 17.2657 15.2499C17.2318 35.1312 21.3398 38.0005 22.2237 56.3353L21.6533 60.8831C21.5587 61.6374 21.7993 62.3786 22.3306 62.9704C22.9091 63.6147 23.7773 63.9993 24.653 63.9993H40.3468C42.0064 64.0281 43.5895 62.5449 43.3465 60.883L42.7761 56.3352C43.6602 38.0008 47.7683 35.1312 47.7342 15.25ZM24.7083 55.1362C24.5428 51.9885 24.2686 49.2966 23.9331 46.8832C24.5305 46.7317 24.9869 46.5158 25.3831 46.3283C25.9986 46.0371 26.4433 45.8267 27.389 45.8267C28.3346 45.8267 28.7792 46.0371 29.3945 46.3283C31.2221 47.3243 33.7831 47.3218 35.6057 46.3283C36.221 46.0371 36.6656 45.8267 37.6112 45.8267C38.5569 45.8267 39.0016 46.0371 39.6171 46.3283C40.0133 46.5158 40.4697 46.7317 41.0671 46.8832C40.7315 49.2965 40.4574 51.9884 40.2919 55.1362H24.7083ZM45.1897 16.5C45.1225 24.0601 44.4443 29.05 43.5899 33.5528C43.3607 33.5992 43.0804 33.6308 42.7223 33.6308C41.7766 33.6308 41.3321 33.4205 40.7167 33.1292C38.8891 32.1332 36.3283 32.1358 34.5057 33.1292C33.8904 33.4205 33.4458 33.6308 32.5002 33.6308C31.5545 33.6308 31.1099 33.4205 30.4946 33.1292C28.6669 32.1333 26.1062 32.1358 24.2836 33.1292C23.6681 33.4205 23.2236 33.6308 22.2779 33.6308C21.9198 33.6308 21.6394 33.5992 21.4103 33.5528C20.556 29.0501 19.8777 24.0602 19.8105 16.5H45.1897ZM42.7313 37.7872C42.2914 39.8874 41.8452 42.0175 41.4491 44.3891C41.2037 44.3056 40.9769 44.1983 40.7166 44.0752C38.889 43.0793 36.328 43.0818 34.5056 44.0753C33.8903 44.3666 33.4457 44.577 32.5 44.577C31.5544 44.577 31.1098 44.3666 30.4945 44.0753C28.6669 43.0793 26.106 43.082 24.2835 44.0752C24.0233 44.1983 23.7965 44.3056 23.5511 44.3891C23.05 41.3934 22.494 38.8941 21.922 36.1232C23.3662 36.2261 24.7079 35.7444 25.3834 35.3826C25.9988 35.0913 26.4434 34.8809 27.389 34.8809C28.3345 34.8809 28.7792 35.0913 29.3945 35.3826C31.2221 36.3785 33.7831 36.376 35.6057 35.3826C36.221 35.0913 36.6656 34.8809 37.6112 34.8809C38.5569 34.8809 39.0015 35.0913 39.6168 35.3826C40.29 35.7441 41.636 36.2266 43.0783 36.1232C42.9638 36.6777 42.8479 37.2309 42.7313 37.7872ZM30.406 5.55466C32.0535 5.04092 34.05 4.41818 35.5842 2.78832C37.0642 3.55531 38.2775 4.7558 38.8258 5.99603C36.3146 7.96876 32.7338 7.91339 29.2625 7.85939C28.4566 7.84701 27.6763 7.83439 26.8832 7.84826C27.2866 6.58603 28.3981 6.18091 30.406 5.55466ZM29.2225 10.359C32.9568 10.417 37.1488 10.4822 40.3482 7.99988C42.2371 9.48062 43.5811 11.0111 43.8684 14.0001H21.1483C21.609 10.4131 24.2256 10.2812 29.2225 10.359ZM40.7671 61.3146C40.6678 61.4253 40.499 61.4995 40.3469 61.4995H24.6532C24.5011 61.4995 24.3322 61.4251 24.2328 61.3146C24.2027 61.281 24.1679 61.2321 24.1733 61.1896L24.619 57.6362H40.3812L40.8268 61.1896C40.8321 61.2321 40.7973 61.2811 40.7671 61.3146Z" fill="#0B0B0B"/>
</g>
<defs>
<clipPath id="clip0_221_425">
<rect width="65" height="64" fill="white"/>
</clipPath>
</defs>
</svg>
