<svg width="65" height="65" viewBox="0 0 65 65" fill="none" xmlns="http://www.w3.org/2000/svg">
<g clip-path="url(#clip0_221_412)">
<path d="M60.5547 1.43683C59.7684 1.22613 58.9488 1.17815 58.1497 1.29327C57.5151 0.794184 56.7816 0.425958 55.9952 0.215127C52.9026 -0.682399 49.4285 1.32348 48.6597 4.45042C48.2456 5.99567 48.4581 7.60985 49.258 8.99529C50.0579 10.3809 51.3496 11.3719 52.8948 11.786C53.6812 11.9968 54.5004 12.0447 55.2998 11.9295C55.9344 12.4286 56.668 12.797 57.4543 13.0077C60.5609 13.8656 63.9462 11.9881 64.7899 8.77253C65.6447 5.58251 63.7448 2.29171 60.5547 1.43683ZM62.3378 8.11541C61.8453 9.95337 59.9495 11.0479 58.1113 10.5557C57.5251 10.3985 56.9902 10.0902 56.5648 9.66397C56.2436 9.34118 55.7706 9.2173 55.337 9.33496C54.7552 9.49134 54.138 9.49109 53.5519 9.33395C52.6616 9.09544 51.9175 8.52438 51.4566 7.72612C49.9205 5.09053 52.3928 1.87043 55.3382 2.6673C55.9244 2.82444 56.4593 3.13275 56.8848 3.55899C57.2056 3.8805 57.6739 4.00591 58.1127 3.88799C58.6943 3.73161 59.3115 3.73199 59.8977 3.889C61.7357 4.3815 62.8303 6.27746 62.3378 8.11541Z" fill="#0B0B0B"/>
<path d="M13.0045 57.4576C12.794 56.6714 12.4256 55.9376 11.9264 55.3031C12.0414 54.504 11.9935 53.6844 11.7828 52.8982C10.9281 49.7081 7.63765 47.8081 4.44712 48.663C2.90187 49.077 1.61023 50.0681 0.810309 51.4537C0.0103926 52.8393 -0.202216 54.4533 0.211958 55.9986C0.422536 56.7848 0.790889 57.5186 1.29011 58.1531C1.17511 58.9522 1.22296 59.7718 1.43367 60.5579C1.84771 62.1033 2.83879 63.3949 4.22436 64.1948C5.14727 64.7277 6.17148 65 7.20939 65C7.72955 65 8.25339 64.9316 8.76936 64.7933C10.3147 64.3793 11.6064 63.3882 12.4062 62.0026C13.2061 60.6171 13.4186 59.003 13.0045 57.4576ZM10.2076 60.7332C9.74673 61.5316 9.00253 62.1025 8.11212 62.3412C7.2217 62.5797 6.29168 62.4572 5.49354 61.9964C4.69527 61.5355 4.12421 60.7913 3.88571 59.9009C3.72857 59.3149 3.72832 58.6976 3.88469 58.116C4.00261 57.6772 3.87708 57.209 3.55556 56.888C3.12933 56.4625 2.82102 55.9279 2.664 55.3416C2.4255 54.4513 2.54786 53.5213 3.00875 52.723C3.46963 51.9247 4.21383 51.3537 5.10412 51.1152C6.89409 50.6209 8.84451 51.7026 9.33065 53.5554C9.48766 54.1414 9.48804 54.7587 9.33167 55.3403C9.21362 55.7791 9.33916 56.2473 9.66067 56.5684C10.0869 56.9938 10.3952 57.5285 10.5522 58.1147C10.791 59.005 10.6685 59.9349 10.2076 60.7332Z" fill="#0B0B0B"/>
<path fill-rule="evenodd" clip-rule="evenodd" d="M44.4707 14.9873C45.8668 9.76246 51.2342 6.65862 56.459 8.05473C61.6839 9.45084 64.7877 14.8182 63.3916 20.0431C60.5524 30.6391 55.0072 40.0627 47.5333 47.5366C40.0593 55.0105 30.6356 60.5558 20.0397 63.3949C14.8149 64.791 9.44748 61.6872 8.05137 56.4624C6.65527 51.2375 9.7591 45.8701 14.9839 44.474C22.1616 42.5508 28.5665 38.7731 33.6681 33.6716C38.7698 28.5699 42.5474 22.165 44.4707 14.9873Z" fill="#FFAD32"/>
<path d="M39.6133 36.3549C39.2627 35.7477 38.4864 35.5398 37.8794 35.8904C37.2723 36.2408 37.0642 37.0171 37.4148 37.6242L41.5884 44.8531C41.9409 45.4659 42.726 45.665 43.3223 45.3176C43.9294 44.9672 44.1374 44.1909 43.7869 43.5838L39.6133 36.3549Z" fill="#0B0B0B"/>
<path d="M51.6399 33.4858L47.4663 26.257C47.1158 25.6497 46.3394 25.4418 45.7324 25.7924C45.1253 26.1429 44.9173 26.9192 45.2678 27.5263L49.4414 34.7551C49.7939 35.3679 50.579 35.5671 51.1753 35.2197C51.7824 34.8692 51.9905 34.0929 51.6399 33.4858Z" fill="#0B0B0B"/>
<path d="M30.3591 43.6952C30.0086 43.088 29.2323 42.8801 28.6252 43.2306C28.0181 43.5811 27.8101 44.3574 28.1607 44.9645L32.3343 52.1933C32.6868 52.8062 33.4718 53.0053 34.0681 52.6579C34.6753 52.3074 34.8833 51.5311 34.5327 50.924L30.3591 43.6952Z" fill="#0B0B0B"/>
</g>
<defs>
<clipPath id="clip0_221_412">
<rect width="65" height="65" fill="white"/>
</clipPath>
</defs>
</svg>
