<svg width="64" height="65" viewBox="0 0 64 65" fill="none" xmlns="http://www.w3.org/2000/svg">
<g clip-path="url(#clip0_221_440)">
<path fill-rule="evenodd" clip-rule="evenodd" d="M52.6208 42.1486L52.393 37.5237L52.2066 37.633C46.5754 39.2068 43.6544 36.7932 37.9983 38.374L37.8009 38.4898L37.6208 42.1488C37.4148 46.3331 40.9958 49.766 45.1208 49.766C49.2458 49.766 52.8268 46.3328 52.6208 42.1486Z" fill="#FFAD32"/>
<path fill-rule="evenodd" clip-rule="evenodd" d="M21.3708 37.0704C23.4333 37.0704 25.1208 38.7843 25.1208 40.879V45.9573C25.1208 48.052 23.4333 49.7659 21.3708 49.7659C19.3083 49.7659 17.6208 48.052 17.6208 45.9573V40.879C17.6208 38.7842 19.3082 37.0704 21.3708 37.0704Z" fill="#FFAD32"/>
<path d="M26.3708 19.2244V1.26953C26.3708 0.568367 25.8112 0 25.1208 0H17.6208C16.9304 0 16.3708 0.568367 16.3708 1.26953V19.2244C12.5475 21.1545 10.1208 25.081 10.1208 29.4533V63.7305C10.1208 64.4316 10.6805 65 11.3708 65H31.3708C32.0611 65 32.6208 64.4316 32.6208 63.7305V29.4533C32.6208 25.081 30.1941 21.1545 26.3708 19.2244ZM18.8708 8.88668H23.8708V14.2319L21.3708 15.8503L18.8708 14.2318V8.88668ZM23.8708 2.53905V6.34763H18.8708V2.53905H23.8708ZM18.0929 21.2186C18.5633 21.0237 18.8708 20.5591 18.8708 20.0432V17.2431L20.6989 18.4267C21.1087 18.692 21.6329 18.692 22.0427 18.4267L23.8708 17.2432V20.0434C23.8708 20.5593 24.1783 21.0241 24.6487 21.2189C27.579 22.4328 29.5953 25.0884 30.0319 28.184H12.7097C13.1463 25.0881 15.1626 22.4325 18.0929 21.2186ZM12.6208 30.7228H30.1208V56.1133H12.6208V30.7228ZM12.6208 62.4609V58.6524H30.1208V62.4609H12.6208Z" fill="#0B0B0B"/>
<path d="M53.869 42.0851L53.244 29.3898C53.2108 28.7142 52.6618 28.1837 51.9956 28.1837H38.2457C37.5796 28.1837 37.0304 28.7143 36.9973 29.3898L36.3723 42.0851C36.0656 46.4111 39.6828 50.4205 43.8707 50.9442V62.4608H40.1207C38.4622 62.528 38.4634 64.9334 40.1207 64.9999H50.1206C51.7791 64.9327 51.7779 62.5274 50.1206 62.4608H46.3707V50.9442C48.342 50.6565 50.1926 49.6971 51.581 48.2148C53.1676 46.5208 53.9802 44.3439 53.869 42.0851ZM49.7695 46.4649C47.3203 49.1533 42.9207 49.1529 40.4717 46.4649C39.3616 45.2797 38.7923 43.7693 38.8691 42.212L39.4347 30.7228H50.8065L51.3721 42.2119C51.4489 43.7693 50.8796 45.2797 49.7695 46.4649Z" fill="#0B0B0B"/>
</g>
<defs>
<clipPath id="clip0_221_440">
<rect width="64" height="65" fill="white"/>
</clipPath>
</defs>
</svg>
