<svg width="64" height="65" viewBox="0 0 64 65" fill="none" xmlns="http://www.w3.org/2000/svg">
<g clip-path="url(#clip0_221_423)">
<path d="M62.2116 21.0402C60.8364 20.2726 58.742 20.4274 57.3928 22.5811C57.3888 22.5876 57.3848 22.5941 57.3808 22.6007L52.3653 30.9373C51.7612 30.5837 51.0684 30.4267 50.3637 30.4908C49.48 30.571 48.685 30.9921 48.1252 31.6765C47.7665 32.115 46.5812 33.6188 45.3263 35.211C44.1398 36.7164 42.9128 38.2731 42.5703 38.692C41.3801 40.147 39.8618 41.2658 38.2544 42.4503C35.9739 44.131 33.4799 45.969 32 48.967C29.5897 44.0433 24.635 42.4922 21.4297 38.692C21.0866 38.2725 19.8577 36.7134 18.6694 35.2056C17.4165 33.616 16.2331 32.1144 15.8749 31.6767C15.315 30.9923 14.5201 30.5712 13.6365 30.4909C12.9316 30.4266 12.2389 30.5837 11.6347 30.9375L6.61925 22.6008C6.61537 22.5942 6.61137 22.5877 6.60725 22.5813C5.258 20.4274 3.16351 20.2726 1.78851 21.0403C0.159262 21.9499 -0.448737 23.9798 0.374387 25.7619C0.376262 25.7659 0.378012 25.7699 0.380012 25.7739C0.731261 26.5141 1.58576 28.585 2.57526 30.9827C3.96075 34.3401 5.68513 38.5185 7.14625 41.783C9.04949 46.035 9.90312 47.2299 13.2355 50.3061L17.7312 54.4563V57.3072C17.7972 58.9916 20.1657 58.9903 20.2312 57.3072V53.8947C20.2312 53.5369 20.0827 53.1959 19.8221 52.9552L14.9171 48.4272C11.8471 45.5932 11.1796 44.6582 9.42224 40.7322C7.9765 37.5023 6.26 33.3432 4.881 30.0013C3.8395 27.4776 3.01626 25.4826 2.63538 24.6785C2.28601 23.9159 2.69526 23.4317 2.99276 23.2655C3.49163 22.9874 4.05163 23.2372 4.49213 23.9351L10.0675 33.2025C9.96537 33.882 10.0492 34.7261 10.4555 35.7689C11.6224 38.7633 13.0685 41.7543 14.4234 43.9748C14.787 44.5709 15.5572 44.7548 16.1444 44.3853C16.7311 44.016 16.9121 43.2334 16.5484 42.6374C15.2682 40.5391 13.8947 37.6951 12.7801 34.8345C12.3037 33.6118 12.6202 33.3417 12.7394 33.24C12.9315 33.0759 13.171 32.998 13.4137 33.02C13.6295 33.0396 13.8207 33.1388 13.9521 33.2995C14.2957 33.7196 15.5271 35.2817 16.7177 36.7925C17.9682 38.379 19.1494 39.8776 19.507 40.3148C20.8978 42.0151 22.616 43.2812 24.2775 44.5055C27.4975 46.8785 30.2802 48.9293 30.7501 53.6918V59.8707C30.8161 61.5551 33.1846 61.5539 33.2501 59.8707V53.6918C33.8974 46.4177 40.5804 45.1333 44.4934 40.3145C44.8505 39.8778 46.0297 38.3817 47.278 36.7978C48.4707 35.2845 49.7039 33.7198 50.048 33.2992C50.1794 33.1387 50.3707 33.0394 50.5865 33.0197C50.8307 32.9975 51.0688 33.0758 51.261 33.2398C51.38 33.3415 51.6964 33.6116 51.22 34.8344C50.1057 37.6949 48.7322 40.539 47.4518 42.6371C47.0882 43.2331 47.269 44.0156 47.8558 44.385C48.4424 44.7545 49.213 44.5705 49.5768 43.9747C50.9318 41.7541 52.378 38.763 53.5447 35.7686C53.951 34.7258 54.035 33.8816 53.9327 33.202L59.5076 23.9353C59.9481 23.2372 60.5083 22.9867 61.0074 23.2653C61.305 23.4315 61.7145 23.9159 61.3644 24.6791C60.9831 25.4842 60.1599 27.479 59.1186 30.002C57.7398 33.3436 56.0234 37.5023 54.5778 40.7321C52.8204 44.6581 52.1529 45.593 49.0829 48.4271L44.178 52.9551C43.9174 53.1958 43.7689 53.5368 43.7689 53.8946V57.3071C43.8349 58.9915 46.2034 58.9902 46.2689 57.3071V54.4562L50.7647 50.306C54.0969 47.2298 54.9505 46.0349 56.8538 41.7829C58.3148 38.5188 60.039 34.3406 61.4245 30.9836C62.4141 28.5854 63.2689 26.5143 63.6201 25.7739C63.622 25.7698 63.6239 25.7659 63.6258 25.7618C64.4489 23.9796 63.8409 21.9498 62.2116 21.0402Z" fill="#0B0B0B"/>
<path d="M18.536 27.2041H45.4641C47.7287 27.2041 49.5711 25.3328 49.5711 23.0328V21.5819C49.5711 19.2819 47.7287 17.4107 45.4641 17.4107H18.536C16.2713 17.4107 14.4288 19.2819 14.4288 21.5819V23.0328C14.4288 25.3328 16.2713 27.2041 18.536 27.2041ZM16.9288 21.5819C16.9288 20.6819 17.6498 19.9498 18.536 19.9498H45.4641C46.3502 19.9498 47.0711 20.682 47.0711 21.5819V23.0328C47.0711 23.9328 46.3501 24.6651 45.4641 24.6651H18.536C17.6497 24.6651 16.9288 23.9328 16.9288 23.0328V21.5819Z" fill="#0B0B0B"/>
<path fill-rule="evenodd" clip-rule="evenodd" d="M16.375 56.1134H47.625V65.0002H16.375V56.1134Z" fill="#FFAD32"/>
<path fill-rule="evenodd" clip-rule="evenodd" d="M29.9874 20.1995C31.0944 21.3238 32.9058 21.3237 34.0126 20.1995L42.6515 11.4258H21.3486L29.9874 20.1995Z" fill="#FFAD32"/>
<path d="M48.5403 11.2852C49.1816 10.5492 49.5714 9.58191 49.5714 8.52401C49.5715 3.82383 45.8064 0 41.1786 0H22.8216C18.1938 0 14.4286 3.82383 14.4286 8.52401C14.4286 9.58191 14.8184 10.5492 15.4599 11.2854C12.0215 14.1798 14.0156 19.9299 18.5361 19.9498C19.2264 19.9498 19.7861 19.3814 19.7861 18.6803C19.7861 17.9791 19.2264 17.4107 18.5361 17.4107C17.2561 17.4107 16.2148 16.3531 16.2148 15.0531C16.2148 13.7531 17.256 12.6953 18.536 12.6953H45.4641C46.7441 12.6953 47.7855 13.753 47.7855 15.053C47.7855 16.353 46.7441 17.4106 45.4641 17.4106C44.7739 17.4106 44.2141 17.979 44.2141 18.6801C44.2141 19.3813 44.7739 19.9497 45.4641 19.9497C49.9859 19.9297 51.978 14.1777 48.5403 11.2852ZM18.5358 10.1562C17.6495 10.1562 16.9286 9.42398 16.9286 8.52401C16.9286 5.22387 19.5721 2.53906 22.8216 2.53906H41.1786C44.4279 2.53906 47.0715 5.22387 47.0715 8.52401C47.0715 9.42411 46.3505 10.1562 45.4644 10.1562H18.5358Z" fill="#0B0B0B"/>
</g>
<defs>
<clipPath id="clip0_221_423">
<rect width="64" height="65" fill="white"/>
</clipPath>
</defs>
</svg>
