<svg width="64" height="65" viewBox="0 0 64 65" fill="none" xmlns="http://www.w3.org/2000/svg">
<g clip-path="url(#clip0_221_433)">
<path fill-rule="evenodd" clip-rule="evenodd" d="M44.873 0.00104756C55.4338 0.00104756 63.9949 8.69593 63.9949 19.4217C64.1474 34.4613 47.3326 43.9227 34.8904 35.988C32.8431 36.5459 30.7958 37.1038 28.7482 37.6611C27.6553 37.9742 26.6087 36.9588 26.9083 35.8175C27.459 33.7301 28.0098 31.6447 28.5608 29.5593C20.7484 16.9192 30.0677 -0.153929 44.873 0.00104756Z" fill="#FFAD32"/>
<path d="M57.621 19.7454C57.621 18.0521 56.5487 16.6084 55.0574 16.0781C54.8385 12.7085 52.0697 10.035 48.6975 10.035H41.0486C37.6764 10.035 34.9075 12.7085 34.6887 16.0781C31.2978 17.2919 31.2907 22.1819 34.6746 23.4076V24.9242C34.6746 27.0659 36.3903 28.8083 38.499 28.8083H51.2469C53.3557 28.8083 55.0713 27.0659 55.0713 24.9242V23.4076C56.5553 22.8732 57.621 21.4334 57.621 19.7454ZM41.0487 12.6245H48.6976C50.5891 12.6245 52.1644 14.0266 52.4688 15.8612H37.2775C37.5818 14.0266 39.1571 12.6245 41.0487 12.6245ZM51.2471 26.2189H38.4991C37.7962 26.2189 37.2243 25.6381 37.2243 24.9242V23.6295H52.5218V24.9242C52.5218 25.6382 51.95 26.2189 51.2471 26.2189ZM53.7966 21.0401H35.9496C34.2579 20.9687 34.2592 18.5213 35.9496 18.4506H53.7966C55.4882 18.522 55.4869 20.9695 53.7966 21.0401Z" fill="#0B0B0B"/>
<path d="M44.0808 50.451C43.6675 50.1119 38.8399 46.1511 37.6533 45.2295C36.9118 44.6535 35.7396 43.9237 34.1303 44.2336C32.5212 44.5436 30.8805 45.8371 29.1139 48.1879C28.0903 49.5501 27.0237 50.2533 25.8529 50.3373C23.4865 50.5081 20.7763 48.1244 18.6776 46.0263C16.6118 43.8948 14.2656 41.142 14.433 38.7389C14.5158 37.5498 15.208 36.4665 16.5493 35.427C18.864 33.6329 20.1375 31.9664 20.4429 30.3322C20.7482 28.6978 20.0294 27.5074 19.4623 26.7542C18.5549 25.549 14.6547 20.6453 14.3212 20.2261C13.2688 18.7912 11.5651 18.1499 9.64142 18.4662C5.97167 19.0695 2.35063 22.8175 0.835669 27.5804C-0.332168 31.252 -0.268938 35.394 1.01835 39.5586C4.76164 51.1958 18.8083 65.044 31.4222 64.9919C37.6348 65.2147 44.9194 60.8388 45.8136 55.204C46.1251 53.2501 45.4935 51.5196 44.0808 50.451ZM34.6054 46.7777C35.0984 46.6827 35.5048 46.8207 36.1046 47.2866C37.291 48.2079 42.4474 52.4396 42.4994 52.4824C42.5147 52.4949 42.5303 52.5071 42.5461 52.5189C43.206 53.0111 43.4586 53.7753 43.2968 54.7902C43.2031 55.378 42.972 56.0125 42.6125 56.6557L32.3477 48.3162C33.3801 47.2327 34.1231 46.8706 34.6054 46.7777ZM10.0488 21.0226C10.8996 20.8604 11.8102 21.0814 12.2851 21.7851C12.2967 21.8011 12.3088 21.8169 12.321 21.8324C12.3631 21.8853 16.5298 27.1222 17.437 28.3274C17.8957 28.9365 18.0315 29.3491 17.9379 29.8498C17.8461 30.3411 17.4876 31.0991 16.4132 32.1524L8.19988 21.7245C8.83741 21.3555 9.46639 21.1184 10.0488 21.0226ZM36.0559 61.6831C20.6667 67.5923 -7.5211 38.2949 6.19604 23.3258L14.4591 33.8168C9.32896 38.2727 12.7705 43.8022 16.8678 47.8503C16.8724 47.8551 16.877 47.8597 16.8817 47.8644C19.5174 50.5003 22.6663 53.1616 26.0327 52.9204C27.7646 52.7959 29.3349 51.9153 30.7082 50.3003L41.0388 58.6932C39.8147 59.9092 38.1312 61.0023 36.0559 61.6831Z" fill="#0B0B0B"/>
</g>
<defs>
<clipPath id="clip0_221_433">
<rect width="64" height="65" fill="white"/>
</clipPath>
</defs>
</svg>
