<svg width="65" height="65" viewBox="0 0 65 65" fill="none" xmlns="http://www.w3.org/2000/svg">
<g clip-path="url(#clip0_221_432)">
<path fill-rule="evenodd" clip-rule="evenodd" d="M18.368 17.0986H45.3108C46.7357 17.0986 47.9014 18.2644 47.9014 19.6892V44.3004V46.6318H62.4093C63.8341 46.6318 65 45.466 65 44.0412V2.59061C65 1.16581 63.8341 0 62.4093 0H20.9586C19.5337 0 18.368 1.16581 18.368 2.59061V17.0986Z" fill="#FFAD32"/>
<path d="M38.4463 35.9846C40.1307 35.9176 40.1295 33.512 38.4463 33.4456H38.4454C36.7609 33.5128 36.7632 35.9183 38.4463 35.9846Z" fill="#0B0B0B"/>
<path d="M45.3107 15.8292H3.86026C1.73177 15.8292 0 17.5608 0 19.6893V61.1397C0 63.2682 1.73177 65 3.86026 65H32.3576C41.6286 65 49.171 57.4575 49.171 48.1865V19.6893C49.171 17.5608 47.4392 15.8292 45.3107 15.8292ZM2.53906 61.1397V19.6893C2.53906 18.9608 3.13168 18.3682 3.86026 18.3682H45.3107C46.0392 18.3682 46.6319 18.9608 46.6319 19.6893V44.3006C46.6319 47.1719 44.296 49.5078 41.4248 49.5078H37.5388C35.4103 49.5078 33.6786 51.2394 33.6786 53.3679V57.254C33.6786 60.1251 31.3427 62.4611 28.4715 62.4611H3.86026C3.13168 62.461 2.53906 61.8683 2.53906 61.1397ZM34.3213 62.3263C35.5021 60.9663 36.2177 59.192 36.2177 57.2538V53.3678C36.2177 52.6393 36.8103 52.0467 37.5388 52.0467H41.4248C43.363 52.0467 45.1373 51.3311 46.4972 50.1503C45.6262 56.4533 40.6242 61.4552 34.3213 62.3263Z" fill="#0B0B0B"/>
<path d="M22.3574 29.9224C22.3574 29.2212 21.7891 28.6528 21.0879 28.6528H21.087C20.3859 28.6528 19.8179 29.2212 19.8179 29.9224C19.885 31.6061 22.2909 31.606 22.3574 29.9224Z" fill="#0B0B0B"/>
<path d="M22.1243 44.1967H22.1234C21.4222 44.1967 20.8542 44.7651 20.8542 45.4662C20.9213 47.15 23.3272 47.15 23.3938 45.4662C23.3938 44.7651 22.8254 44.1967 22.1243 44.1967Z" fill="#0B0B0B"/>
<path d="M11.6063 37.9534C11.6063 37.2522 11.038 36.6839 10.3368 36.6839H10.3358C9.63463 36.6839 9.06677 37.2522 9.06677 37.9534C9.1338 39.6372 11.5398 39.6371 11.6063 37.9534Z" fill="#0B0B0B"/>
<path d="M11.8911 54.0413H11.8901C11.189 54.0413 10.6211 54.6097 10.6211 55.3108C10.6881 56.9946 13.094 56.9946 13.1607 55.3108C13.1607 54.6097 12.5923 54.0413 11.8911 54.0413Z" fill="#0B0B0B"/>
<path d="M32.2288 9.30072C33.9132 9.23369 33.9119 6.82805 32.2288 6.76166H32.2279C30.5434 6.82894 30.5456 9.23458 32.2288 9.30072Z" fill="#0B0B0B"/>
<path d="M51.1397 7.66849H51.1388C50.4376 7.66849 49.8696 8.23686 49.8696 8.93802C49.9367 10.6218 52.3425 10.6218 52.4092 8.93802C52.4092 8.23686 51.8408 7.66849 51.1397 7.66849Z" fill="#0B0B0B"/>
<path d="M55.4143 34.4818H55.4134C54.7123 34.4818 54.1443 35.0501 54.1443 35.7513C54.2113 37.4351 56.6172 37.4351 56.6839 35.7513C56.6839 35.0501 56.1155 34.4818 55.4143 34.4818Z" fill="#0B0B0B"/>
</g>
<defs>
<clipPath id="clip0_221_432">
<rect width="65" height="65" fill="white"/>
</clipPath>
</defs>
</svg>
