<svg width="64" height="65" viewBox="0 0 64 65" fill="none" xmlns="http://www.w3.org/2000/svg">
<g clip-path="url(#clip0_221_429)">
<path fill-rule="evenodd" clip-rule="evenodd" d="M31.9355 43.1684C41.5752 43.1684 49.4372 35.1835 49.4372 25.3932C48.4485 1.81016 15.4188 1.81701 14.4336 25.3933C14.4337 35.1834 22.2959 43.1684 31.9355 43.1684Z" fill="#FFAD32"/>
<path d="M41.9228 22.1143C41.7082 18.8099 38.9929 16.1881 35.686 16.1881H28.1851C24.8781 16.1881 22.1629 18.8099 21.9482 22.1143C18.623 23.3046 18.616 28.0999 21.9345 29.3019V30.7892C21.9345 32.8895 23.6169 34.5982 25.6848 34.5982H38.1861C40.254 34.5982 41.9365 32.8895 41.9365 30.7892V29.3019C45.2572 28.0987 45.246 23.3033 41.9228 22.1143ZM28.1851 18.7275H35.686C37.541 18.7275 39.0858 20.1025 39.3842 21.9016H24.4868C24.7852 20.1025 26.33 18.7275 28.1851 18.7275ZM38.1862 32.0589H25.685C24.9956 32.0589 24.4348 31.4893 24.4348 30.7892V29.5195H39.4363V30.7892C39.4363 31.4893 38.8755 32.0589 38.1862 32.0589ZM40.6865 26.9802H23.1847C21.5258 26.9103 21.527 24.5102 23.1847 24.4409H40.6865C42.3452 24.5109 42.344 26.9109 40.6865 26.9802Z" fill="#0B0B0B"/>
<path d="M56.938 25.3932C56.938 11.3914 45.7219 0 31.9355 0C1.37806 0.91263 -2.12079 44.2243 27.56 50.3969V63.7371C27.6261 65.4217 29.9949 65.4204 30.0603 63.7371V50.7155C31.2959 50.8097 32.5752 50.8097 33.8107 50.7155V63.7371C33.8767 65.4217 36.2454 65.4204 36.3109 63.7371V50.3969C48.0186 48.2895 56.938 37.8794 56.938 25.3932ZM31.9355 48.247C19.5277 48.247 9.43337 37.9948 9.43337 25.3932C10.6694 -4.92564 53.2062 -4.91675 54.4377 25.3933C54.4377 37.9948 44.3433 48.247 31.9355 48.247Z" fill="#0B0B0B"/>
</g>
<defs>
<clipPath id="clip0_221_429">
<rect width="64" height="65" fill="white"/>
</clipPath>
</defs>
</svg>
