<svg width="65" height="65" viewBox="0 0 65 65" fill="none" xmlns="http://www.w3.org/2000/svg">
<g clip-path="url(#clip0_221_420)">
<path fill-rule="evenodd" clip-rule="evenodd" d="M44.7495 20.3346C45.8199 21.4051 46.8984 21.976 47.8922 23.6973C48.886 25.4187 48.8413 26.6381 49.233 28.1004C49.6248 29.5628 50.2733 30.5965 50.2733 32.584C50.2733 34.5717 49.6248 35.6052 49.233 37.0676C48.8413 38.53 48.886 39.7494 47.8922 41.4707C46.8984 43.1921 45.8199 43.763 44.7495 44.8334C43.679 45.9039 43.1081 46.9824 41.3867 47.9761C39.6654 48.9701 38.446 48.9252 36.9836 49.317C35.5213 49.7088 34.4876 50.3573 32.5001 50.3573C30.5125 50.3573 29.4788 49.7088 28.0165 49.317C26.5541 48.9252 25.3347 48.9699 23.6134 47.9761C21.892 46.9824 21.3211 45.9039 20.2507 44.8334C19.1802 43.763 18.1017 43.1921 17.1079 41.4707C16.1142 39.7494 16.1588 38.53 15.7671 37.0676C15.375 35.6054 14.7266 34.5717 14.7266 32.584C14.7266 30.5963 15.375 29.5627 15.7668 28.1004C16.1586 26.6381 16.1139 25.4187 17.1077 23.6973C18.1015 21.976 19.1799 21.4051 20.2504 20.3346C21.3209 19.2642 21.8918 18.1857 23.6131 17.1919C25.3345 16.1981 26.5539 16.2428 28.0162 15.851C29.4786 15.4593 30.5121 14.8108 32.4998 14.8108C34.4875 14.8108 35.5211 15.4593 36.9834 15.851C38.4458 16.2428 39.6651 16.1981 41.3865 17.1919C43.1081 18.1857 43.6789 19.264 44.7495 20.3346Z" fill="#FFAD32"/>
<path d="M32.4999 0.0840454C14.5794 0.0840454 0 14.6635 0 32.584C1.78521 75.6998 63.2214 75.687 65 32.5838C65 14.6635 50.4205 0.0840454 32.4999 0.0840454ZM32.4999 62.545C15.9794 62.545 2.53905 49.1045 2.53905 32.5842C4.18474 -7.1633 60.8212 -7.15149 62.4609 32.5844C62.4609 49.1045 49.0205 62.545 32.4999 62.545Z" fill="#0B0B0B"/>
<path d="M32.4999 6.4317C18.0795 6.4317 6.34753 18.1636 6.34753 32.5841C7.78413 67.2787 57.221 67.2687 58.6523 32.5838C58.6523 18.1636 46.9203 6.4317 32.4999 6.4317ZM32.4999 56.1974C19.4794 56.1974 8.88659 45.6045 8.88659 32.5841C10.1837 1.25787 54.821 1.26689 56.1132 32.5843C56.1132 45.6045 45.5204 56.1974 32.4999 56.1974Z" fill="#0B0B0B"/>
<path d="M33.3978 21.9114C32.9019 21.4156 32.0983 21.4156 31.6023 21.9114L21.8273 31.6864C21.3315 32.1822 21.3315 32.986 21.8273 33.4819C22.3231 33.9777 23.1269 33.9777 23.6228 33.4819L33.3978 23.7069C33.8936 23.211 33.8936 22.4071 33.3978 21.9114Z" fill="#0B0B0B"/>
<path d="M38.2851 26.7988C37.7893 26.3032 36.9855 26.3031 36.4896 26.7988L26.7146 36.5738C26.2188 37.0696 26.2188 37.8735 26.7146 38.3693C27.2105 38.8651 28.0142 38.8651 28.5101 38.3693L38.2851 28.5943C38.781 28.0986 38.781 27.2947 38.2851 26.7988Z" fill="#0B0B0B"/>
<path d="M41.3773 31.6862L31.6023 41.4612C31.1065 41.957 31.1065 42.7609 31.6023 43.2567C32.0982 43.7525 32.9019 43.7525 33.3978 43.2567L43.1728 33.4817C43.6685 32.986 43.6685 32.1821 43.1728 31.6862C42.6768 31.1905 41.8732 31.1905 41.3773 31.6862Z" fill="#0B0B0B"/>
</g>
<defs>
<clipPath id="clip0_221_420">
<rect width="65" height="65" fill="white"/>
</clipPath>
</defs>
</svg>
