<svg width="65" height="64" viewBox="0 0 65 64" fill="none" xmlns="http://www.w3.org/2000/svg">
<g clip-path="url(#clip0_221_419)">
<path fill-rule="evenodd" clip-rule="evenodd" d="M21.829 14.0157H63.7303V20.2667H21.829V14.0157Z" fill="#FFAD32"/>
<path d="M61.1908 6.51443H24.3684C22.268 6.51443 20.5592 8.19696 20.5592 10.265V30.6955H9.23989C4.53907 30.6955 0.714497 34.4611 0.714497 39.0897C0.714497 40.1315 1.1104 41.084 1.76203 41.8089C-0.587872 43.6741 -0.586857 47.3656 1.76216 49.2297C1.11078 49.9546 0.714751 50.907 0.714751 51.9488V53.3777C0.714751 55.6426 2.58622 57.4854 4.8866 57.4854H32.24C34.5404 57.4854 36.4119 55.6426 36.4119 53.3777V51.9488C36.4119 50.9071 36.016 49.9547 35.3646 49.2297C37.7148 47.3647 37.7139 43.6731 35.3647 41.8088C36.7028 40.3895 36.5684 38.276 35.9999 36.5192H61.1907C63.2911 36.5192 64.9999 34.8366 64.9999 32.7686V10.2649C65 8.19696 63.2912 6.51443 61.1908 6.51443ZM7.86464 43.1976L12.5807 47.8411H4.88673C1.75784 47.7132 1.76025 43.3244 4.88673 43.1976H7.86464ZM32.2402 43.1976C35.3692 43.3255 35.3669 47.7144 32.2402 47.8411H24.5463L29.2624 43.1976H32.2402ZM19.5877 49.1872C19.0539 49.7363 18.0728 49.7363 17.539 49.1872L11.456 43.1978H25.6708L19.5877 49.1872ZM33.8725 51.9489V53.3778C33.8725 54.264 33.1402 54.9852 32.2402 54.9852H4.88673C3.98661 54.9852 3.25435 54.264 3.25435 53.3778V51.9489C3.25435 51.0627 3.98674 50.3415 4.88673 50.3415H15.1202L15.7434 50.9551C17.2227 52.4744 19.9042 52.4743 21.3835 50.9551L22.0068 50.3414H32.2402C33.1403 50.3415 33.8725 51.0625 33.8725 51.9489ZM33.8728 39.0897C33.8728 39.9761 33.1404 40.6971 32.2403 40.6971H4.8866C3.98636 40.6971 3.2541 39.976 3.2541 39.0897C3.2541 35.8398 5.93934 33.1959 9.24002 33.1959H20.5838C20.7998 35.0636 22.4148 36.5193 24.3686 36.5193H33.2692C33.6698 37.3243 33.8728 38.1883 33.8728 39.0897ZM62.4605 32.7688C62.4605 33.4582 61.8909 34.019 61.1908 34.019H24.3684C23.6683 34.019 23.0987 33.4582 23.0987 32.7688V10.2652C23.0987 9.57581 23.6683 9.01497 24.3684 9.01497H61.1908C61.8909 9.01497 62.4605 9.57581 62.4605 10.2652V32.7688Z" fill="#0B0B0B"/>
<path d="M57.3816 27.7679H42.7796C41.095 27.834 41.0962 30.2028 42.7796 30.2683H57.3816C59.0663 30.2022 59.065 27.8334 57.3816 27.7679Z" fill="#0B0B0B"/>
</g>
<defs>
<clipPath id="clip0_221_419">
<rect width="65" height="64" fill="white"/>
</clipPath>
</defs>
</svg>
