<svg width="64" height="64" viewBox="0 0 64 64" fill="none" xmlns="http://www.w3.org/2000/svg">
<g clip-path="url(#clip0_221_424)">
<path fill-rule="evenodd" clip-rule="evenodd" d="M19.4241 17.1681C19.3518 17.4377 19.2728 17.6959 19.1906 17.9481C20.7059 17.4534 22.0014 16.8377 24.2026 16.8377C26.7703 16.8377 28.1056 17.6754 29.9946 18.1816C31.8837 18.6878 33.4588 18.6299 35.6825 19.9137C37.9061 21.1976 38.6437 22.5906 40.0266 23.9736C41.4095 25.3565 42.8027 26.0939 44.0865 28.3177C45.3702 30.5413 45.3125 32.1165 45.8185 34.0056C46.3247 35.8947 47.1625 37.23 47.1625 39.7977C47.1625 41.9989 46.5468 43.2944 46.0521 44.8096C46.3042 44.7274 46.5625 44.6483 46.832 44.5761C48.7211 44.0699 50.2963 44.1278 52.52 42.844C54.7436 41.5601 55.4812 40.1671 56.864 38.7842C58.2469 37.4013 59.64 36.6638 60.9238 34.44C62.2076 32.2164 62.1498 30.6412 62.6559 28.7521C63.1621 26.863 63.9998 25.5277 63.9998 22.9601C63.9998 20.3924 63.1621 19.0571 62.6559 17.1681C62.1497 15.279 62.2076 13.7039 60.9238 11.4801C59.6399 9.25646 58.2469 8.51887 56.864 7.13596C55.4811 5.75305 54.7436 4.36001 52.5198 3.07611C50.2962 1.79233 48.7209 1.85009 46.8319 1.34403C44.9428 0.837845 43.6075 0.00012207 41.0399 0.00012207C38.4722 0.00012207 37.1369 0.837845 35.2478 1.34403C33.3587 1.85021 31.7835 1.79233 29.5599 3.07611C27.3363 4.36001 26.5987 5.75305 25.2158 7.13596C23.8328 8.51887 22.4397 9.25633 21.1559 11.4801C19.8724 13.7039 19.9303 15.279 19.4241 17.1681Z" fill="#FFAD32"/>
<path d="M24.1846 25.3842C23.6965 24.8962 22.9049 24.8962 22.4166 25.3842C21.9284 25.8724 21.9284 26.664 22.4166 27.1523L36.8479 41.5836C37.3362 42.0718 38.1276 42.0718 38.6159 41.5836C39.1041 41.0954 39.1041 40.3039 38.6159 39.8155L24.1846 25.3842Z" fill="#0B0B0B"/>
<path d="M17.8712 31.698C17.383 31.2099 16.5914 31.2099 16.1031 31.698C15.6149 32.1862 15.6149 32.9778 16.1031 33.4661L30.5343 47.8973C31.0226 48.3854 31.814 48.3854 32.3023 47.8973C32.7905 47.4091 32.7905 46.6175 32.3023 46.1292L17.8712 31.698Z" fill="#0B0B0B"/>
<path d="M11.5574 38.0116C11.0693 37.5235 10.2777 37.5235 9.78935 38.0116C9.30117 38.4998 9.30117 39.2914 9.78935 39.7797L24.2205 54.211C24.7089 54.6992 25.5003 54.6992 25.9886 54.211C26.4768 53.7228 26.4768 52.9312 25.9886 52.4429L11.5574 38.0116Z" fill="#0B0B0B"/>
<path d="M55.4535 21.1742C54.9653 20.6862 54.1737 20.6862 53.6854 21.1742L45.8345 29.025C45.6568 28.6032 45.4398 28.1612 45.1691 27.6925C44.1551 25.9362 43.0884 25.0173 42.0568 24.1286C41.9814 24.0636 41.9068 23.9993 41.8329 23.9353L49.1397 16.6285C49.6279 16.1403 49.6279 15.3487 49.1397 14.8604C48.6516 14.3723 47.86 14.3723 47.3717 14.8604L40.0648 22.1672C40.0008 22.0934 39.9365 22.0187 39.8716 21.9435C38.9829 20.9118 38.0639 19.8452 36.3075 18.8311C35.8388 18.5606 35.3967 18.3435 34.9751 18.1659L42.8259 10.315C43.314 9.82679 43.314 9.0352 42.8259 8.54689C42.3377 8.05883 41.5461 8.05883 41.0578 8.54689L32.2279 17.3768C32.0946 17.3508 31.9621 17.3257 31.8301 17.3007C31.3138 17.2027 30.8262 17.1101 30.3179 16.974C29.8097 16.8379 29.3412 16.6742 28.8451 16.5009C25.8197 15.2927 22.5805 15.2947 19.5598 16.5009C19.0637 16.6742 18.5952 16.8379 18.087 16.974C17.5788 17.1101 17.0911 17.2027 16.5748 17.3007C15.237 17.5544 13.8537 17.8171 12.0974 18.831C10.3411 19.8451 9.42208 20.9118 8.53335 21.9433C7.87077 22.7413 7.14619 23.4658 6.34822 24.1285C5.3166 25.0172 4.24985 25.9362 3.23585 27.6925C2.22186 29.4487 1.95933 30.832 1.70542 32.1697C1.60741 32.6861 1.5149 33.1736 1.37876 33.6821C1.24262 34.1903 1.07885 34.6588 0.905581 35.155C-0.302686 38.1865 -0.301686 41.4114 0.905581 44.44C1.07885 44.9363 1.24262 45.4048 1.37876 45.9133C1.5149 46.4215 1.60754 46.9091 1.70542 47.4254C2.17485 50.6551 3.78842 53.4474 6.34822 55.4666C6.74639 55.8096 7.12231 56.1336 7.49435 56.5055C7.86627 56.8777 8.19018 57.2536 8.53322 57.6518C10.5492 60.2109 13.3554 61.8289 16.5747 62.2946C17.091 62.3926 17.5785 62.4851 18.0868 62.6212C18.595 62.7575 19.0636 62.921 19.5598 63.0944C22.5852 64.3027 25.8241 64.3007 28.845 63.0944C29.341 62.921 29.8097 62.7575 30.3179 62.6212C30.8261 62.4851 31.3138 62.3926 31.8301 62.2946C35.0546 61.8283 37.8585 60.2069 39.8715 57.6518C40.5342 56.8537 41.2587 56.1293 42.0567 55.4666C43.0881 54.578 44.1549 53.659 45.169 51.9027C46.183 50.1464 46.4455 48.7632 46.6993 47.4254C46.7973 46.9091 46.8898 46.4216 47.026 45.9133C47.1621 45.4051 47.3259 44.9365 47.4992 44.4403C48.7074 41.4086 48.7063 38.1839 47.4992 35.1551C47.3259 34.659 47.1623 34.1904 47.026 33.6823C46.8555 33.0469 46.749 32.4179 46.6232 31.7724L55.4532 22.9425C55.9417 22.454 55.9417 21.6624 55.4535 21.1742ZM45.139 43.6156C44.9584 44.1332 44.7715 44.6681 44.6112 45.2661C44.4509 45.8639 44.3453 46.4206 44.2432 46.9591C44.0085 48.1957 43.8059 49.2635 43.004 50.6525C42.202 52.0414 41.3786 52.7508 40.4251 53.5722C40.0099 53.9298 39.5806 54.2998 39.1428 54.7374C38.7051 55.1752 38.3353 55.6045 37.9775 56.0197C36.2576 58.1965 34.1066 59.4371 31.3643 59.8379C30.8258 59.94 30.2691 60.0458 29.6712 60.2059C29.0733 60.3661 28.5383 60.553 28.0209 60.7339C25.4431 61.7588 22.96 61.7579 20.3847 60.7338C19.8673 60.5531 19.3324 60.3662 18.7344 60.2059C18.1365 60.0458 17.5798 59.94 17.0413 59.8379C14.2909 59.4341 12.152 58.1983 10.4281 56.0197C10.0704 55.6045 9.70061 55.1752 9.26293 54.7374C7.81689 53.2958 6.53899 52.6368 5.40173 50.6523C4.59976 49.2634 4.39711 48.1957 4.16246 46.9591C4.06033 46.4206 3.95456 45.8638 3.79442 45.2659C3.63428 44.668 3.44738 44.1329 3.26661 43.6154C2.24161 41.0377 2.24274 38.5547 3.26661 35.9795C3.44738 35.462 3.63428 34.927 3.79442 34.329C3.95469 33.7311 4.06033 33.1744 4.16246 32.6358C4.39711 31.3993 4.59976 30.3314 5.40173 28.9425C6.2037 27.5536 7.02717 26.8442 7.98066 26.0228C8.39583 25.6651 8.82513 25.2952 9.26293 24.8576C9.70061 24.4199 10.0704 23.9905 10.4281 23.5753C11.2495 22.6218 11.959 21.7983 13.3479 20.9962C14.737 20.1944 15.805 19.9917 17.0413 19.7571C17.5798 19.6549 18.1365 19.5492 18.7344 19.389C19.3322 19.2289 19.8673 19.042 20.3846 18.8612C22.9625 17.8362 25.4457 17.8374 28.0211 18.8612C28.5384 19.0419 29.0734 19.2288 29.6713 19.389C30.2693 19.5492 30.826 19.6549 31.3644 19.7571C32.6009 19.9917 33.6688 20.1944 35.0577 20.9962C36.4467 21.7983 37.1562 22.6218 37.9777 23.5753C38.3353 23.9905 38.7051 24.4199 39.1428 24.8576C39.5805 25.2952 40.0099 25.6651 40.4251 26.0228C41.3786 26.8442 42.202 27.5536 43.004 28.9425C43.806 30.3314 44.0086 31.3994 44.2433 32.636C44.3454 33.1744 44.4511 33.7312 44.6113 34.329C44.7715 34.927 44.9584 35.4619 45.1391 35.9792C46.1636 38.5552 46.1631 41.0413 45.139 43.6156Z" fill="#0B0B0B"/>
</g>
<defs>
<clipPath id="clip0_221_424">
<rect width="64" height="64" fill="white"/>
</clipPath>
</defs>
</svg>
