<svg width="65" height="64" viewBox="0 0 65 64" fill="none" xmlns="http://www.w3.org/2000/svg">
<g clip-path="url(#clip0_221_418)">
<path fill-rule="evenodd" clip-rule="evenodd" d="M32.5001 49.5001C42.2894 49.5001 50.2736 41.6387 50.2736 32.0001C49.2695 8.78212 15.7271 8.789 14.7266 32.0001C14.7266 41.6387 22.7108 49.5001 32.5001 49.5001Z" fill="#FFAD32"/>
<path d="M62.6698 26.3921L59.7405 25.9113C59.0421 22.8626 57.8321 19.9868 56.1341 17.3403L57.8605 14.9605C58.669 13.8461 58.6134 12.4571 57.7252 11.5824L53.2367 7.16299C52.3484 6.28861 50.9376 6.23399 49.8058 7.02974L47.3888 8.72973C44.7021 7.05824 41.7811 5.86674 38.6838 5.17886L38.1955 2.29462C37.9669 0.943498 36.93 0 35.6739 0H29.3261C28.07 0 27.0331 0.943498 26.8044 2.29425L26.3162 5.17849C23.219 5.86636 20.2979 7.05786 17.6112 8.72936L15.1941 7.02936C14.0622 6.23336 12.6515 6.28836 11.7633 7.16261L7.27465 11.5824C6.38662 12.4569 6.33089 13.846 7.13932 14.9603L8.86588 17.3402C7.16789 19.9867 5.95803 22.8625 5.25953 25.9112L2.33022 26.3919C0.958113 26.6172 -0.00012694 27.6383 1.2613e-08 28.8749V35.1249C-0.00012694 36.3619 0.958113 37.3829 2.33022 37.6079L5.25953 38.0887C5.95803 41.1374 7.16827 44.0134 8.86588 46.6597L7.13932 49.0397C6.33101 50.1543 6.38675 51.5433 7.27478 52.4176L11.7632 56.8369C12.6514 57.7118 14.0623 57.7664 15.1941 56.9703L17.6112 55.2704C20.298 56.9418 23.219 58.1333 26.3162 58.8211L26.8044 61.7054C27.0331 63.0563 28.07 63.9996 29.3261 63.9996H35.6739C36.93 63.9996 37.9669 63.0561 38.1955 61.7054L38.6838 58.8211C41.781 58.1333 44.7021 56.9418 47.3888 55.2704L49.8056 56.9701C50.9377 57.7663 52.3484 57.7116 53.2367 56.837L57.7251 52.4176C58.6131 51.5433 58.6689 50.1541 57.8604 49.0395L56.134 46.6597C57.8319 44.0133 59.0418 41.1374 59.7402 38.0887L62.6694 37.6079C64.0415 37.3829 64.9997 36.3619 64.9997 35.1251V28.8749C65 27.6382 64.0418 26.6172 62.6698 26.3921ZM62.4609 35.0709C62.4248 35.0931 62.3559 35.1249 62.2524 35.1418L58.4669 35.7631C57.9433 35.8491 57.5295 36.2464 57.429 36.7596C56.7793 40.0792 55.4726 43.1849 53.5452 45.9908C53.248 46.4235 53.2553 46.9927 53.5637 47.4177L55.7944 50.4926C55.8555 50.5769 55.8814 50.6473 55.891 50.6883L51.4802 55.0311C51.4386 55.0216 51.3672 54.9963 51.2816 54.936L48.1584 52.7396C47.7265 52.436 47.1485 52.4288 46.7091 52.7215C43.8608 54.6189 40.7066 55.9055 37.3339 56.5455C36.8129 56.6444 36.4092 57.052 36.322 57.5674L35.691 61.2945C35.6738 61.3965 35.6414 61.4643 35.6188 61.5H29.381C29.3585 61.4644 29.3261 61.3966 29.3088 61.2945L28.6779 57.5674C28.5907 57.052 28.187 56.6444 27.666 56.5455C24.2934 55.9055 21.139 54.6189 18.2907 52.7215C17.8512 52.4286 17.2731 52.4361 16.8414 52.7396L13.718 54.9361C13.6326 54.9961 13.5612 55.0216 13.5197 55.0311L9.109 50.6883C9.11864 50.6473 9.14442 50.5768 9.20548 50.4928L11.4363 47.4177C11.7447 46.9927 11.752 46.4235 11.4548 45.9908C9.52756 43.185 8.22071 40.0792 7.57096 36.7596C7.47054 36.2466 7.05655 35.8491 6.53312 35.7631L2.74751 35.1418C2.64405 35.1248 2.57537 35.0929 2.53906 35.0709V28.9291C2.57537 28.9068 2.64405 28.8749 2.74764 28.8581L6.53299 28.2368C7.05655 28.1508 7.47041 27.7534 7.57083 27.2403C8.22071 23.9208 9.52743 20.8151 11.4547 18.0092C11.7519 17.5765 11.7445 17.0075 11.4362 16.5823L9.20535 13.5071C9.14429 13.4228 9.11852 13.3526 9.10887 13.3116L13.5196 8.96886C13.5612 8.97836 13.6327 9.00361 13.7181 9.06386L16.8413 11.2604C17.273 11.5639 17.8511 11.5711 18.2906 11.2785C21.1389 9.38098 24.2932 8.09436 27.6658 7.45436C28.1868 7.35549 28.5905 6.94786 28.6778 6.43249L29.3087 2.70537C29.326 2.60337 29.3584 2.53562 29.3808 2.49987H35.6187C35.6413 2.5355 35.6736 2.60325 35.6909 2.70524L36.3219 6.43249C36.4091 6.94786 36.8128 7.35549 37.3338 7.45436C40.7064 8.09448 43.8608 9.38098 46.7089 11.2785C47.1485 11.5714 47.7265 11.5639 48.1583 11.2604L51.2815 9.06386C51.367 9.00373 51.4385 8.97836 51.4802 8.96873L55.8909 13.3116C55.8812 13.3525 55.8555 13.423 55.7944 13.5071L53.5636 16.5823C53.2552 17.0075 53.2478 17.5765 53.545 18.0092C55.4724 20.815 56.7792 23.9208 57.4289 27.2403C57.5293 27.7533 57.9433 28.1508 58.4667 28.2368L62.2521 28.8581C62.3557 28.8751 62.4245 28.9069 62.4608 28.9291V35.0709H62.4609Z" fill="#0B0B0B"/>
<path d="M42.6423 28.772C42.4243 25.5187 39.6669 22.9376 36.3086 22.9376H28.6914C25.333 22.9376 22.5756 25.5187 22.3577 28.772C18.9809 29.9438 18.9738 34.665 22.3438 35.8483V37.3126C22.3438 39.3803 24.0523 41.0626 26.1523 41.0626H38.8477C40.9477 41.0626 42.6563 39.3803 42.6563 37.3126V35.8483C46.0285 34.6637 46.0171 29.9425 42.6423 28.772ZM28.6914 25.4376H36.3086C38.1923 25.4376 39.7611 26.7913 40.0643 28.5626H24.9358C25.2388 26.7913 26.8075 25.4376 28.6914 25.4376ZM38.8477 38.5626H26.1523C25.4523 38.5626 24.8828 38.0018 24.8828 37.3126V36.0626H40.1172V37.3126C40.1172 38.0018 39.5477 38.5626 38.8477 38.5626ZM41.3867 33.5626H23.6133C21.9286 33.4937 21.93 31.1308 23.6133 31.0626H41.3867C43.0714 31.1315 43.0701 33.4943 41.3867 33.5626Z" fill="#0B0B0B"/>
</g>
<defs>
<clipPath id="clip0_221_418">
<rect width="65" height="64" fill="white"/>
</clipPath>
</defs>
</svg>
