<svg width="64" height="64" viewBox="0 0 64 64" fill="none" xmlns="http://www.w3.org/2000/svg">
<g clip-path="url(#clip0_221_415)">
<path fill-rule="evenodd" clip-rule="evenodd" d="M49.5007 28.5514C31.8248 24.3329 30.476 32.3644 14.499 28.5514V57.7497C14.499 60.4999 16.7491 62.75 19.4993 62.75H44.5004C47.2506 62.75 49.5007 60.4999 49.5007 57.7497V28.5514Z" fill="#FFAD32"/>
<path d="M45.7505 19.1235V12.7476C45.7505 12.0573 45.1908 11.4975 44.5005 11.4975H33.2501V5.16612L43.3708 2.45437C44.956 1.96122 44.3412 -0.32639 42.7238 0.0395018L31.6764 2.99964C31.1299 3.14602 30.7498 3.6413 30.7498 4.20707V11.4977H19.4993C18.8089 11.4977 18.2493 12.0574 18.2493 12.7477V19.1236C15.3997 19.7043 13.249 22.2299 13.249 25.2483V57.7498C13.249 61.1961 16.0529 64 19.4993 64H44.5004C47.9468 64 50.7508 61.1961 50.7508 57.7498V25.2483C50.7509 22.2298 48.6001 19.7043 45.7505 19.1235ZM43.2504 13.9978V18.998H20.7495V13.9978H43.2504ZM48.2508 57.7498C48.2508 59.8176 46.5685 61.4999 44.5005 61.4999H19.4994C17.4316 61.4999 15.7493 59.8176 15.7493 57.7498V25.2483C15.7493 23.1805 17.4316 21.4981 19.4994 21.4981H44.5005C46.5685 21.4981 48.2508 23.1805 48.2508 25.2483V57.7498Z" fill="#0B0B0B"/>
<path d="M40.5653 36.7606C40.4499 36.3285 40.1124 35.9908 39.6801 35.8754C35.5737 34.7789 31.1577 35.9624 28.1554 38.9648C25.3268 41.7933 24.1125 45.8768 24.8985 49.774L23.3958 51.2767C22.2689 52.4946 23.9472 54.1709 25.1638 53.0446L26.6664 51.5421C35.2495 53.3303 42.8803 45.2511 40.5653 36.7606ZM35.7078 46.5173C33.8978 48.3273 31.4379 49.3011 28.9316 49.2767L32.8838 45.3245C33.3719 44.8364 33.3719 44.0448 32.8838 43.5566C32.3958 43.0683 31.6041 43.0685 31.116 43.5566L27.1638 47.5087C27.1395 45.0026 28.1133 42.5426 29.9233 40.7327C32.1214 38.5343 35.2788 37.5696 38.3124 38.1282C38.8709 41.1622 37.906 44.3192 35.7078 46.5173Z" fill="#0B0B0B"/>
<path d="M21.0618 35.0299H21.0609C20.3705 35.0299 19.8113 35.5897 19.8113 36.2799C19.8773 37.9378 22.2462 37.9378 22.3118 36.2799C22.3118 35.5895 21.7522 35.0299 21.0618 35.0299Z" fill="#0B0B0B"/>
<path d="M40.0003 54.5309H39.9994C39.3091 54.5309 38.7498 55.0907 38.7498 55.7809C38.8159 57.4388 41.1846 57.4388 41.2503 55.7809C41.2503 55.0906 40.6905 54.5309 40.0003 54.5309Z" fill="#0B0B0B"/>
<path d="M43.7035 31.8893H43.7026C43.0124 31.8893 42.453 32.449 42.453 33.1392C42.5191 34.7971 44.8879 34.7971 44.9535 33.1392C44.9535 32.4489 44.3938 31.8893 43.7035 31.8893Z" fill="#0B0B0B"/>
</g>
<defs>
<clipPath id="clip0_221_415">
<rect width="64" height="64" fill="white"/>
</clipPath>
</defs>
</svg>
