<svg width="64" height="64" viewBox="0 0 64 64" fill="none" xmlns="http://www.w3.org/2000/svg">
<g clip-path="url(#clip0_221_417)">
<path fill-rule="evenodd" clip-rule="evenodd" d="M47.2733 34.747L36.6732 24.1468C35.5075 22.981 33.5989 22.981 32.4331 24.1468L13.3527 43.2271C12.1869 44.3929 12.1867 46.3011 13.3527 47.4672L23.9528 58.0674L47.2733 34.747Z" fill="#FFAD32"/>
<path d="M63.6338 3.54628L60.4537 0.366123C60.0292 -0.0584313 59.363 -0.121189 58.8667 0.216354L45.8408 9.07385L44.5532 7.78631C42.8967 6.12985 40.2015 6.12985 38.545 7.78631L35.3651 10.9663C35.0752 11.2563 34.9574 11.6532 35.0118 12.03C33.2155 12.0736 31.4325 12.7791 30.0649 14.1464L1.23241 42.9792C-0.410802 44.5546 -0.410802 47.4118 1.23241 48.9873L15.0127 62.7677C16.5881 64.4109 19.4453 64.4109 21.0208 62.7677L49.8535 33.935C51.2211 32.5673 51.9267 30.7844 51.9702 28.9881C52.3539 29.0421 52.7431 28.9235 53.0335 28.6348L56.2136 25.4547C57.87 23.7982 57.87 21.103 56.2136 19.4465L54.926 18.159L63.7836 5.13323C64.121 4.63691 64.0581 3.97071 63.6338 3.54628ZM32.7929 47.4592L27.4969 42.1631C26.8153 41.4816 26.8153 40.3726 27.4969 39.6911L33.3171 33.8708C33.9986 33.1894 35.1076 33.1892 35.789 33.8708L41.0851 39.1669L32.7929 47.4592ZM48.0854 32.1668L42.8532 37.3989L37.557 32.1028C35.9006 30.4463 33.2055 30.4466 31.549 32.1028L25.7288 37.9231C24.0724 39.5796 24.0724 42.2748 25.7288 43.9313L31.0248 49.2274L28.3729 51.8794L20.9567 44.4632C20.4683 43.9752 19.677 43.9752 19.1886 44.4632C18.7004 44.9514 18.7004 45.743 19.1886 46.2313L26.6048 53.6475L19.2526 60.9997C18.5711 61.6812 17.4621 61.6812 16.7806 60.9997L3.00051 47.2192C2.32717 46.5744 2.32717 45.392 3.00051 44.7473L31.833 15.9146C33.6822 14.0651 36.6923 14.0641 38.5429 15.9122L48.0952 25.4646C49.9357 27.316 49.9325 30.3198 48.0854 32.1668ZM54.4455 23.6866L52.1495 25.9826L38.0172 11.8505L40.3132 9.55441C40.9947 8.87295 42.1037 8.87295 42.7852 9.55441L54.4455 21.2148C55.1271 21.8961 55.1271 23.0051 54.4455 23.6866ZM53.1261 16.3592L47.6407 10.8737L59.4172 2.86569L61.1341 4.58266L53.1261 16.3592Z" fill="#0B0B0B"/>
</g>
<defs>
<clipPath id="clip0_221_417">
<rect width="64" height="64" fill="white"/>
</clipPath>
</defs>
</svg>
