<svg width="65" height="64" viewBox="0 0 65 64" fill="none" xmlns="http://www.w3.org/2000/svg">
<g clip-path="url(#clip0_221_410)">
<path d="M63.7304 55.25H62.4608V35.8751C62.3937 34.2166 59.9883 34.2179 59.9218 35.8751V45.25H51.0351C49.3507 45.3161 49.3519 47.6844 51.0351 47.7499H59.9218V50.2499H51.0351C49.3507 50.3161 49.3519 52.6844 51.0351 52.7499H59.9218V55.25H5.07811V52.7499H13.9648C15.6492 52.6838 15.6479 50.3154 13.9648 50.2499H5.07811V47.7499H13.9648C15.6492 47.6838 15.6479 45.3155 13.9648 45.25H5.07811V35.8751C5.01095 34.2166 2.60558 34.2179 2.53905 35.8751V55.25H1.26953C0.568494 55.25 0 55.8098 0 56.5V62.75C0 63.4403 0.568494 64 1.26953 64H63.7304C64.4314 64 64.9999 63.4403 64.9999 62.75V56.5C64.9999 55.8097 64.4315 55.25 63.7304 55.25ZM62.4608 61.5H2.53905V57.75H62.4608V61.5Z" fill="#0B0B0B"/>
<path d="M37.5779 17.7502H27.4217C25.3217 17.7502 23.6131 19.4324 23.6131 21.5002V27.7501H15.869C14.1846 27.8163 14.1859 30.1846 15.869 30.2501H23.6131V36.5001C23.6131 37.1904 24.1816 37.7501 24.8827 37.7501H31.2303V41.5C31.2975 43.1585 33.7028 43.1572 33.7694 41.5V37.7501H40.117C40.818 37.7501 41.3865 37.1904 41.3865 36.5001V30.2501H49.1307C50.8152 30.184 50.8139 27.8156 49.1307 27.7501H41.3865V21.5002C41.3865 19.4324 39.678 17.7502 37.5779 17.7502ZM38.8475 35.2501H26.1522V21.5002C26.1522 20.8109 26.7217 20.2502 27.4217 20.2502H37.5779C38.2779 20.2502 38.8475 20.8109 38.8475 21.5002V35.2501Z" fill="#0B0B0B"/>
<path d="M10.1562 41.5V35.8751C10.0891 34.2166 7.68371 34.2179 7.61719 35.8751V41.5C7.68422 43.1585 10.0897 43.1572 10.1562 41.5Z" fill="#0B0B0B"/>
<path d="M57.3827 41.5V35.8751C57.3155 34.2166 54.9102 34.2179 54.8436 35.8751V41.5C54.9108 43.1585 57.3162 43.1572 57.3827 41.5Z" fill="#0B0B0B"/>
<path d="M63.7303 0H1.26953C0.568494 0 0 0.559748 0 1.25V12.7502C0 13.4404 0.568494 14.0002 1.26953 14.0002H2.53905V19.6648C2.60621 21.3233 5.01158 21.322 5.0781 19.6648V14.0002H59.9219V19.6648C59.989 21.3233 62.3944 21.322 62.4609 19.6648V14.0002H63.7305C64.4315 14.0002 65 13.4404 65 12.7502V1.25C64.9999 0.559748 64.4315 0 63.7303 0ZM2.53905 2.49999H53.5622C47.7047 4.62911 40.1742 4.87261 32.8066 5.60185C25.8369 6.40385 10.3232 6.68997 7.3908 11.5002H2.53905V2.49999ZM62.4608 11.5002H11.2462C17.2012 9.08834 25.4248 8.86059 33.0237 8.09272C46.7343 6.93435 55.5433 6.00998 57.6026 2.49999H62.4608V11.5002Z" fill="#0B0B0B"/>
<path d="M37.578 50.2499H27.4218C25.7374 50.3161 25.7386 52.6844 27.4218 52.7499H37.578C39.2624 52.6838 39.2612 50.3154 37.578 50.2499Z" fill="#0B0B0B"/>
<path d="M37.578 45.2499H27.4218C25.7374 45.3161 25.7386 47.6844 27.4218 47.7499H37.578C39.2624 47.6838 39.2612 45.3154 37.578 45.2499Z" fill="#0B0B0B"/>
<path fill-rule="evenodd" clip-rule="evenodd" d="M3.80859 19.0002H13.9648C15.3613 19.0002 16.5039 20.1253 16.5039 21.5002V36.5002H1.26953V21.5002C1.26953 20.1252 2.41211 19.0002 3.80859 19.0002Z" fill="#FFAD32"/>
<path fill-rule="evenodd" clip-rule="evenodd" d="M51.0353 19.0002H61.1915C62.588 19.0002 63.7306 20.1253 63.7306 21.5002V36.5002H48.4962V21.5002C48.4962 20.1252 49.6388 19.0002 51.0353 19.0002Z" fill="#FFAD32"/>
</g>
<defs>
<clipPath id="clip0_221_410">
<rect width="65" height="64" fill="white"/>
</clipPath>
</defs>
</svg>
