<svg width="64" height="64" viewBox="0 0 64 64" fill="none" xmlns="http://www.w3.org/2000/svg">
<path d="M62.7636 34.0882C61.4442 30.7103 59.0729 27.1521 56.2579 24.326C53.4773 21.5346 53.2288 18.4479 52.9656 15.1798C52.6655 11.4517 52.355 7.59661 47.8962 5.00486C42.2514 1.72383 37.382 3.67305 32.2267 5.73665C29.9491 6.64831 27.5945 7.59086 25.0067 8.17014C21.5059 8.68178 18.9018 7.94625 16.3831 7.23497C13.4114 6.39605 10.3385 5.52839 6.36397 7.04758C3.10182 8.29489 1.03772 11.0028 0.394566 14.8786C-0.0707061 17.6832 0.239684 21.1641 1.24611 24.4293C1.98739 26.8338 1.44987 30.7117 0.880838 34.8173C-0.114833 42.0017 -1.24339 50.1445 3.50134 55.2923C6.84687 58.922 10.6068 60.7511 14.7077 60.7508C15.5148 60.7508 16.3356 60.68 17.1685 60.5381C21.4183 59.8138 25.3165 57.3919 28.4486 55.4461C30.1276 54.4029 31.5776 53.502 32.738 53.0585C34.4302 52.4117 37.4162 52.6757 40.5774 52.9552C44.1715 53.2727 48.2453 53.6328 52.0914 52.9077C61.0294 51.3102 66.6148 43.124 62.7636 34.0882ZM60.2472 44.7308C55.8822 51.7979 47.868 51.0895 40.7973 50.4646C37.1908 50.1457 34.0759 49.8703 31.8453 50.723C30.4615 51.2518 28.9172 52.2112 27.1291 53.3221C24.0289 55.2482 20.515 57.4313 16.7483 58.0733C12.513 58.7948 8.78096 57.3313 5.33967 53.5978C1.39511 49.3182 2.43754 41.7966 3.35733 35.1604C3.96548 30.7722 4.53989 26.6274 3.63522 23.6927C3.27033 22.5092 0.272685 12.0531 7.25664 9.38294C10.2749 8.20401 12.6784 8.75991 15.7035 9.64108C18.3569 10.3902 21.3642 11.2392 25.418 10.6368C25.4472 10.6324 25.4762 10.627 25.5051 10.6206C28.3084 9.9981 30.7726 9.01167 33.1556 8.05788C38.1242 6.06904 42.0486 4.49821 46.6396 7.16646C49.9679 9.10105 50.1909 11.8722 50.4734 15.3805C50.7477 18.7876 51.0587 22.6493 54.4865 26.0906C58.1745 29.7928 64.1245 38.4532 60.2472 44.7308Z" fill="#0B0B0B"/>
<path fill-rule="evenodd" clip-rule="evenodd" d="M16.9045 26.8001C11.357 30.003 9.12598 36.5247 11.9216 41.3668C19.1553 52.6937 38.2036 41.6907 32.011 29.768C29.2155 24.926 22.452 23.5972 16.9045 26.8001Z" fill="#FFAD32"/>
</svg>
