<svg width="65" height="64" viewBox="0 0 65 64" fill="none" xmlns="http://www.w3.org/2000/svg">
<path fill-rule="evenodd" clip-rule="evenodd" d="M21.7091 19.9167C21.7091 21.7616 20.1762 23.2708 18.3026 23.2708C16.4289 23.2708 14.8959 21.7615 14.8959 19.9167C14.8959 21.7616 13.363 23.2708 11.4894 23.2708C9.61568 23.2708 8.08272 21.7615 8.08272 19.9167C8.08272 20.5307 7.91286 21.1076 7.61719 21.604V33.2708H35.8009V21.604C35.5052 21.1076 35.3354 20.5307 35.3354 19.9167C35.3354 21.7616 33.8024 23.2708 31.9288 23.2708C30.0551 23.2708 28.5222 21.7615 28.5222 19.9167C28.5222 21.7616 26.9892 23.2708 25.1156 23.2708C23.2421 23.271 21.7091 21.7616 21.7091 19.9167Z" fill="#FFAD32"/>
<path fill-rule="evenodd" clip-rule="evenodd" d="M49.7656 23.271H63.7305V33.271H49.7656V23.271Z" fill="#FFAD32"/>
<path d="M58.6524 15.7709H43.418V12.021C43.418 9.95324 41.7095 8.271 39.6094 8.271H3.80859C1.70853 8.271 0 9.95324 0 12.021V47.0208C0 47.711 0.568368 48.2708 1.26953 48.2708H6.43816C8.12651 58.2187 22.3462 58.2115 24.0307 48.2708H40.9695C42.6578 58.2188 56.8777 58.2114 58.562 48.2708H63.7305C64.4316 48.2708 65 47.711 65 47.0208V22.0208C65 18.5746 62.1526 15.7709 58.6524 15.7709ZM43.4181 18.2709H58.6525C60.7525 18.2709 62.4611 19.9531 62.4611 22.0208V39.5208H54.3393C51.7071 37.8716 47.8245 37.8716 45.1924 39.5208H43.4181V18.2709ZM40.9695 45.7708H24.0307C23.8294 44.3916 23.3003 43.1151 22.5236 42.0208H42.4764C41.7 43.1151 41.1708 44.3916 40.9695 45.7708ZM10.6611 39.5208H2.53906V24.0112C4.31932 24.9656 6.76303 24.5218 8.08271 23.0676C9.84964 24.9913 13.1296 24.9907 14.8959 23.0676C16.6628 24.9913 19.9428 24.9907 21.7091 23.0676C23.476 24.9913 26.756 24.9907 28.5222 23.0676C30.2892 24.9913 33.5691 24.9907 35.3354 23.0676C36.655 24.5218 39.0991 24.9655 40.8791 24.0112V39.5208H19.8078C17.1757 37.8716 13.2931 37.8717 10.6611 39.5208ZM34.0659 19.9167C33.9476 22.7117 29.9029 22.7052 29.7918 19.912V10.771H34.0659V19.9167ZM27.2527 19.92C27.1311 22.7097 23.095 22.7048 22.9786 19.9169V10.771H27.2527V19.9167C27.2526 19.9178 27.2527 19.9188 27.2527 19.92ZM20.4395 19.9167C20.3221 22.707 16.286 22.7076 16.1654 19.9198C16.1654 19.9187 16.1654 19.9177 16.1654 19.9167V10.771H20.4395V19.9167ZM13.6264 19.912C13.5145 22.707 9.46954 22.71 9.35224 19.9167V10.771H13.6264V19.912ZM40.8791 12.021V19.9167C40.7613 22.7088 36.7218 22.7066 36.605 19.9167V10.771H39.6096C40.3096 10.771 40.8791 11.3319 40.8791 12.021ZM2.53906 12.021C2.53906 11.3317 3.10857 10.771 3.80859 10.771H6.81318V19.9167C6.69537 22.7088 2.65573 22.7066 2.53906 19.9167V12.021ZM2.53906 42.0208H7.94522C7.16865 43.1151 6.63938 44.3916 6.43816 45.7708H2.53906V42.0208ZM15.2345 53.2708C11.7344 53.2708 8.88683 50.467 8.88683 47.0208C9.23544 38.7293 21.2348 38.7317 21.5822 47.0208C21.5821 50.4672 18.7346 53.2708 15.2345 53.2708ZM49.7658 53.2708C46.2657 53.2708 43.4181 50.467 43.4181 47.0208C43.7668 38.7293 55.7661 38.7318 56.1135 47.0208C56.1134 50.4672 53.2659 53.2708 49.7658 53.2708ZM58.5621 45.7708C58.3609 44.3916 57.8317 43.1151 57.055 42.0208H62.4609V45.7708H58.5621Z" fill="#0B0B0B"/>
<path d="M49.7661 45.7708H49.7652C49.0641 45.7708 48.4961 46.3305 48.4961 47.0208C48.5633 48.6787 50.969 48.6787 51.0357 47.0208C51.0357 46.3305 50.4673 45.7708 49.7661 45.7708Z" fill="#0B0B0B"/>
<path d="M15.2349 45.7708H15.234C14.5328 45.7708 13.9648 46.3305 13.9648 47.0208C14.0319 48.6787 16.4378 48.6787 16.5044 47.0208C16.5044 46.3305 15.936 45.7708 15.2349 45.7708Z" fill="#0B0B0B"/>
<path d="M38.34 33.2708C38.34 32.5806 37.7716 32.0208 37.0705 32.0208H6.34767C4.66326 32.0868 4.66453 34.4553 6.34767 34.5208H37.0705C37.7716 34.5208 38.34 33.9612 38.34 33.2708Z" fill="#0B0B0B"/>
</svg>
