<svg width="65" height="64" viewBox="0 0 65 64" fill="none" xmlns="http://www.w3.org/2000/svg">
<path fill-rule="evenodd" clip-rule="evenodd" d="M23.6968 33.434C23.0506 33.834 22.341 34.1875 21.1504 34.1875C18.4082 34.1875 18.2178 32.3125 15.4756 32.3125C12.7334 32.3125 12.543 34.1875 9.80078 34.1875C7.48414 34.1875 6.98864 32.8492 5.23732 32.434C2.97362 32.9362 1.26953 34.9378 1.26953 37.3126C1.26953 40.0626 3.55469 42.3126 6.34766 42.3126H32.7142L23.6968 33.434Z" fill="#FFAD32"/>
<path fill-rule="evenodd" clip-rule="evenodd" d="M52.6528 33.434L43.6356 42.3125H58.6524C64.7241 42.1396 65.6013 33.8767 59.7627 32.434C58.0113 32.8494 57.5159 34.1875 55.1993 34.1875C54.0086 34.1875 53.299 33.8341 52.6528 33.434Z" fill="#FFAD32"/>
<path d="M58.6523 41.0625H46.7005L52.8812 34.9769C54.9439 35.8761 57.2494 35.3805 58.7279 34.2984C59.3962 33.8711 59.8788 33.5625 60.8739 33.5625C64.9827 33.5282 66.5165 28.3073 63.1381 26.1054C64.2879 24.9736 65 23.4109 65 21.6875C65 14.1058 58.7354 7.9375 51.0352 7.9375H13.9648C6.26463 7.9375 0 14.1058 0 21.6875C0 23.4109 0.71208 24.9735 1.86164 26.1052C-1.51798 28.3092 0.0184083 33.5282 4.12585 33.5625C5.12091 33.5625 5.60371 33.8712 6.27187 34.2984C8.3704 35.8205 11.2364 35.8167 13.3293 34.2984C13.9976 33.8711 14.4803 33.5625 15.4753 33.5625C16.4704 33.5625 16.9532 33.8711 17.6213 34.2984C19.1029 35.3829 21.4091 35.8749 23.468 34.9769L29.6488 41.0625H6.34766C2.84756 41.0625 0 43.8662 0 47.3125V49.8125C0 53.2588 2.84756 56.0625 6.34766 56.0625H58.6523C62.1524 56.0625 65 53.2588 65 49.8125V47.3125C65 43.8662 62.1524 41.0625 58.6523 41.0625ZM25.7785 33.7159C26.0703 33.6185 26.4013 33.5625 26.8252 33.5625C27.8203 33.5625 28.3031 33.8711 28.9712 34.2984C31.0697 35.8205 33.9357 35.8167 36.0288 34.2984C36.6969 33.8712 37.1796 33.5625 38.1748 33.5625C39.1697 33.5625 39.6525 33.8711 40.3207 34.2984C42.4194 35.8205 45.2852 35.8167 47.3783 34.2984C48.0466 33.8711 48.5292 33.5625 49.5243 33.5625C49.9482 33.5625 50.2791 33.6185 50.571 33.7159L39.0724 45.0376C38.6048 45.5185 37.7446 45.5185 37.277 45.0376L25.7785 33.7159ZM13.9648 10.4375H51.0352C57.3353 10.4375 62.4609 15.4843 62.4609 21.6875C62.4609 23.7552 60.7524 25.4375 58.6523 25.4375H6.34766C4.2476 25.4375 2.53906 23.7552 2.53906 21.6875C2.53906 15.4843 7.66467 10.4375 13.9648 10.4375ZM19.0042 32.2016C16.9057 30.6795 14.0397 30.6833 11.9467 32.2016C11.2785 32.6289 10.7957 32.9375 9.80065 32.9375C8.80572 32.9375 8.32279 32.6289 7.65464 32.2016C6.86093 31.694 5.87298 31.0625 4.12585 31.0625C2.02084 30.9767 2.02122 28.023 4.12585 27.9375H60.874C62.9793 28.0235 62.9784 30.977 60.874 31.0625C59.1269 31.0625 58.1391 31.6941 57.3452 32.2016C56.677 32.6289 56.1943 32.9375 55.1992 32.9375C54.2042 32.9375 53.7214 32.6289 53.0532 32.2016C50.9545 30.6795 48.0887 30.6833 45.9956 32.2016C45.3273 32.6289 44.8447 32.9375 43.8496 32.9375C42.8545 32.9375 42.3717 32.6288 41.7036 32.2016C39.6051 30.6794 36.739 30.6833 34.646 32.2016C33.9779 32.6289 33.4952 32.9375 32.5 32.9375C31.5049 32.9375 31.0221 32.6289 30.354 32.2016C28.2554 30.6795 25.3895 30.6833 23.2964 32.2016C22.6283 32.6289 22.1455 32.9375 21.1504 32.9375C20.1553 32.9375 19.6725 32.6289 19.0042 32.2016ZM62.4609 49.8125C62.4609 51.8802 60.7524 53.5625 58.6523 53.5625H6.34766C4.2476 53.5625 2.53906 51.8802 2.53906 49.8125V47.3125C2.53906 45.2448 4.2476 43.5625 6.34766 43.5625H32.1881L35.4816 46.8054C36.9667 48.2675 39.3829 48.2675 40.8679 46.8054L44.1614 43.5625H58.6523C60.7524 43.5625 62.4609 45.2448 62.4609 47.3125V49.8125Z" fill="#0B0B0B"/>
<path d="M17.266 16.6876C18.9504 16.6216 18.9491 14.2531 17.266 14.1876H17.2651C15.5807 14.2539 15.5828 16.6224 17.266 16.6876Z" fill="#0B0B0B"/>
<path d="M32.5003 16.6876C34.1849 16.6215 34.1836 14.2531 32.5003 14.1876H32.4995C30.815 14.2539 30.8172 16.6224 32.5003 16.6876Z" fill="#0B0B0B"/>
<path d="M47.7348 16.6876C49.4192 16.6215 49.4179 14.2531 47.7348 14.1876H47.7339C46.0493 14.254 46.0516 16.6222 47.7348 16.6876Z" fill="#0B0B0B"/>
<path d="M9.64878 21.6874C11.3332 21.6214 11.3319 19.2529 9.64878 19.1874H9.64789C7.96347 19.2536 7.96563 21.6221 9.64878 21.6874Z" fill="#0B0B0B"/>
<path d="M24.8832 21.6874C26.5676 21.6214 26.5663 19.2529 24.8832 19.1874H24.8823C23.1978 19.2536 23.2 21.6221 24.8832 21.6874Z" fill="#0B0B0B"/>
<path d="M40.1176 21.6874C41.802 21.6213 41.8007 19.2529 40.1176 19.1874H40.1167C38.4321 19.2538 38.4344 21.622 40.1176 21.6874Z" fill="#0B0B0B"/>
<path d="M55.3519 21.6874C57.0364 21.6213 57.0351 19.2529 55.3519 19.1874H55.3511C53.6665 19.2538 53.6688 21.622 55.3519 21.6874Z" fill="#0B0B0B"/>
</svg>
