<svg width="64" height="64" viewBox="0 0 64 64" fill="none" xmlns="http://www.w3.org/2000/svg">
<g clip-path="url(#clip0_221_413)">
<path fill-rule="evenodd" clip-rule="evenodd" d="M32 41.5219C41.3692 41.5219 49.0108 33.8803 49.0108 24.5112C48.0499 1.94237 15.9467 1.94912 14.9891 24.5113C14.9891 33.8803 22.6308 41.5219 32 41.5219Z" fill="#FFAD32"/>
<path d="M32 0C18.4844 0 7.48865 10.9957 7.48865 24.5112C7.48865 36.8241 20.4237 51.5012 28.983 61.2134C29.7166 62.0459 30.4096 62.8322 31.0575 63.5755C31.5286 64.1416 32.4711 64.1415 32.9422 63.5755C42.0373 53.1254 56.3517 37.9706 56.5113 24.5113C56.5113 10.9957 45.5156 0 32 0ZM33.1407 59.5607C32.7487 60.0055 32.3684 60.4371 31.9999 60.8564C31.6313 60.437 31.2508 60.0051 30.8587 59.5603C22.5481 50.1305 9.98881 35.8798 9.98881 24.5112C9.98881 12.3743 19.8631 2.50016 32 2.50016C44.137 2.50016 54.0111 12.3743 54.0111 24.5112C54.0111 35.8799 41.4516 50.1307 33.1407 59.5607Z" fill="#0B0B0B"/>
<path d="M41.9868 21.2829C41.7722 18.0294 39.057 15.4481 35.7503 15.4481H28.2497C24.9427 15.4481 22.2276 18.0295 22.0131 21.2829C18.688 22.4548 18.681 27.1763 21.9993 28.3597V29.824C21.9993 31.8919 23.6817 33.5743 25.7496 33.5743H38.2505C40.3184 33.5743 42.0006 31.8919 42.0006 29.824V28.3597C45.3211 27.1751 45.3098 22.4534 41.9868 21.2829ZM28.2497 17.9483H35.7503C37.6052 17.9483 39.1499 19.3021 39.4483 21.0735H24.5515C24.8499 19.3021 26.3946 17.9483 28.2497 17.9483ZM38.2504 31.0741H25.7496C25.0603 31.0741 24.4995 30.5133 24.4995 29.824V28.574H39.5004V29.824C39.5004 30.5133 38.9397 31.0741 38.2504 31.0741ZM40.7505 26.0738H23.2494C21.5904 26.0049 21.5917 23.6419 23.2494 23.5736H40.7505C42.4093 23.6425 42.408 26.0056 40.7505 26.0738Z" fill="#0B0B0B"/>
</g>
<defs>
<clipPath id="clip0_221_413">
<rect width="64" height="64" fill="white"/>
</clipPath>
</defs>
</svg>
