<svg width="65" height="64" viewBox="0 0 65 64" fill="none" xmlns="http://www.w3.org/2000/svg">
<path d="M19.6463 12.6334C18.7452 11.5053 17.5151 10.684 16.0822 10.2721C14.2155 9.73538 12.259 9.96751 10.5736 10.9258C8.88828 11.8838 7.70596 13.4358 7.24449 15.2959C6.89181 16.7179 6.99668 18.1715 7.5328 19.4996C2.9456 22.3923 3.59141 29.5049 8.55947 31.6219C8.72692 31.6951 8.90186 31.7299 9.07414 31.7299C9.56062 31.7298 10.0248 31.4529 10.2351 30.987C10.5198 30.3561 10.2312 29.6175 9.59033 29.3373C7.62662 28.4783 6.94234 26.6353 6.95656 25.1969C6.97459 23.3868 8.00672 21.8826 9.71754 21.1734C10.0625 21.0304 10.3256 20.7449 10.437 20.3933C10.5483 20.0415 10.4964 19.6593 10.295 19.3488C9.62258 18.3114 9.41526 17.0828 9.71132 15.8891C10.251 13.4809 12.9828 11.9284 15.3706 12.6721C16.5684 13.0165 17.5453 13.8076 18.1215 14.8996C18.2939 15.2265 18.6041 15.462 18.9691 15.5429C19.3342 15.624 19.717 15.5421 20.015 15.3195C21.9545 13.872 24.7777 14.3173 26.0989 15.6228C26.5939 16.1116 27.3977 16.1131 27.8943 15.6256C28.3909 15.1384 28.3923 14.3469 27.8974 13.8579C25.8481 11.8333 22.3317 11.3819 19.6463 12.6334Z" fill="#0B0B0B"/>
<path d="M15.3358 16.5472C14.4354 15.144 12.3529 16.3294 13.1369 17.7972L18.1605 26.3644C18.513 26.9677 19.2982 27.164 19.8947 26.8219C20.5019 26.4766 20.7099 25.7122 20.3593 25.1144L15.3358 16.5472Z" fill="#0B0B0B"/>
<path d="M48.6017 14.1476C46.5113 14.1476 44.4482 14.6893 42.6354 15.7142C42.0275 16.058 41.8176 16.822 42.1667 17.4206C42.5157 18.0192 43.2917 18.2261 43.8998 17.8821C51.9866 13.3831 61.1126 21.8108 57.0764 30.0438C56.7672 30.6635 57.0267 31.4126 57.656 31.717C58.2716 32.0185 59.045 31.7721 59.3553 31.1462C63.3035 23.4697 57.3455 14.0463 48.6017 14.1476Z" fill="#0B0B0B"/>
<path d="M52.3725 21.5408C51.7791 21.1728 50.9953 21.3484 50.6218 21.9326C49.7262 23.3329 48.1047 24.3882 45.6643 25.1583C44.9967 25.3691 44.6289 26.0727 44.8429 26.7302C45.0553 27.3936 45.7897 27.7494 46.4394 27.5389C49.4724 26.5818 51.5431 25.1836 52.7703 23.2647C53.144 22.6803 52.9659 21.9086 52.3725 21.5408Z" fill="#0B0B0B"/>
<path fill-rule="evenodd" clip-rule="evenodd" d="M60.4715 40.2607H4.52856C7.45661 44.0519 12.0837 46.5107 17.2656 46.5107H47.7344C52.9164 46.5107 57.5434 44.0519 60.4715 40.2607Z" fill="#FFAD32"/>
<path fill-rule="evenodd" clip-rule="evenodd" d="M18.5027 30.7607H43.5104L44.2976 30.4795C48.7218 28.5442 48.9583 22.0155 44.1477 20.0212C45.9244 17.2807 45.0272 13.6359 42.164 12.0082C39.3009 10.3806 35.6465 11.438 34.1245 14.3232C29.732 11.0445 23.7049 15.0931 24.9944 20.2319C20.1005 18.8672 16.9843 23.01 17.9184 27.7079C18.1006 28.6239 18.2739 29.5491 18.4261 30.4795L18.5027 30.7607Z" fill="#FFAD32"/>
<path d="M65 30.7607C65 30.0704 64.4315 29.5107 63.7305 29.5107H33.3669L34.3509 27.8326L40.6711 26.6942C42.3166 26.3305 41.8815 24.0015 40.2142 24.235L36.017 24.991L40.2353 17.7971C40.5859 17.1992 40.3779 16.4349 39.7707 16.0896C39.1632 15.7445 38.387 15.9494 38.0365 16.5471L33.8182 23.7408L32.3845 19.784C32.1489 19.1337 31.4226 18.7951 30.7622 19.0266C30.1019 19.2586 29.7575 19.9737 29.993 20.624L32.152 26.5823L30.435 29.5105H26.3516L25.2799 26.5527C25.0444 25.9025 24.3179 25.564 23.6575 25.7953C22.9973 26.0273 22.6528 26.7425 22.8883 27.3927L23.6556 29.5103H1.26953C0.568495 29.5103 0 30.0701 0 30.7603C0 39.7138 7.06632 47.0728 15.9961 47.7148V52.7604C15.9961 53.4507 16.5646 54.0104 17.2656 54.0104H47.7343C48.4353 54.0104 49.0038 53.4507 49.0038 52.7604V47.7148C57.9337 47.0732 65 39.7142 65 30.7607ZM46.4648 51.5108H18.5351V47.7608H46.4648V51.5108ZM47.7343 45.2608H17.2656C9.57301 45.2608 3.2392 39.4231 2.59327 32.0107H62.4067C61.7608 39.4229 55.4269 45.2608 47.7343 45.2608Z" fill="#0B0B0B"/>
</svg>
