<svg width="64" height="64" viewBox="0 0 64 64" fill="none" xmlns="http://www.w3.org/2000/svg">
<g clip-path="url(#clip0_221_405)">
<path d="M22.4329 47.2573C22.113 47.2573 21.793 47.1351 21.549 46.8911C21.0609 46.403 21.0609 45.6115 21.549 45.1233L41.5866 25.0856C41.976 24.6964 42.5745 24.6078 43.06 24.8673C46.7863 26.8596 51.4681 26.1718 54.4458 23.1941L61.1796 16.4601C57.8083 10.913 53.0868 6.19138 47.5396 2.82026L40.8058 9.55413C37.828 12.5318 37.14 17.2136 39.1326 20.9398C39.3924 21.4254 39.3036 22.0238 38.9143 22.4131L18.8766 42.4509C18.3885 42.9389 17.597 42.9389 17.1088 42.4509C16.6206 41.9628 16.6206 41.1713 17.1088 40.683L36.5183 21.2735C34.5188 16.8119 35.5205 11.2083 39.0378 7.7865L46.4581 0.366255C46.8583 -0.03362 47.477 -0.11537 47.967 0.16763C51.2459 2.0605 54.2663 4.37813 56.944 7.05575C59.6218 9.73363 61.9394 12.7539 63.8323 16.0328C64.1151 16.5228 64.0336 17.1416 63.6336 17.5416L56.2133 24.962C52.7918 28.4793 47.1875 29.4808 42.7263 27.4815L23.3169 46.8911C23.0728 47.1351 22.7529 47.2573 22.4329 47.2573Z" fill="#0B0B0B"/>
<path fill-rule="evenodd" clip-rule="evenodd" d="M17.1222 39.5462L24.4538 46.8777L8.84425 62.4872C6.82712 64.5043 3.52987 64.5043 1.51275 62.4872C-0.50425 60.4701 -0.50425 57.1728 1.51275 55.1557L17.1222 39.5462Z" fill="#FFAD32"/>
</g>
<defs>
<clipPath id="clip0_221_405">
<rect width="64" height="64" fill="white"/>
</clipPath>
</defs>
</svg>
