<svg width="64" height="64" viewBox="0 0 64 64" fill="none" xmlns="http://www.w3.org/2000/svg">
<path fill-rule="evenodd" clip-rule="evenodd" d="M13.75 15.1251H50.2504C50.2504 18.5769 53.0486 21.3751 56.5004 21.3751V42.6252C53.0486 42.6252 50.2504 45.4235 50.2504 48.8752H13.75C13.75 45.4235 10.9518 42.6252 7.5 42.6252V21.375C10.9518 21.375 13.75 18.5769 13.75 15.1251Z" fill="#FFAD32"/>
<path d="M62.75 7.62512H1.25C0.559624 7.62512 0 8.18487 0 8.87512V55.125C0 55.8153 0.559624 56.375 1.25 56.375H62.75C63.4404 56.375 64 55.8153 64 55.125V8.87512C64 8.18475 63.4404 7.62512 62.75 7.62512ZM61.5 53.875H2.49999V10.1251H61.5V53.875Z" fill="#0B0B0B"/>
<path d="M21.9999 33.0358V34.5001C21.9999 36.5678 23.6822 38.2501 25.7499 38.2501H38.2499C40.3177 38.2501 41.9999 36.5678 41.9999 34.5001V33.0358C45.3203 31.8512 45.309 27.13 41.9862 25.9595C41.7715 22.7062 39.0565 20.1251 35.7499 20.1251H28.2499C24.9433 20.1251 22.2283 22.7062 22.0137 25.9595C18.6889 27.1313 18.6819 31.8525 21.9999 33.0358ZM38.25 35.7501H25.7499C25.0607 35.7501 24.4999 35.1893 24.4999 34.5001V33.2501H39.4999V34.5001C39.4999 35.1892 38.9393 35.7501 38.25 35.7501ZM40.75 30.7501H23.25C21.5913 30.6812 21.5927 28.3183 23.25 28.2501H40.75C42.4088 28.319 42.4074 30.6818 40.75 30.7501ZM28.2499 22.6251H35.7499C37.6047 22.6251 39.1493 23.9788 39.4478 25.7501H24.552C24.8505 23.9787 26.3952 22.6251 28.2499 22.6251Z" fill="#0B0B0B"/>
<path d="M40.75 41.375H23.25C21.5915 41.441 21.5927 43.8095 23.25 43.875H40.75C42.4085 43.8089 42.4072 41.4404 40.75 41.375Z" fill="#0B0B0B"/>
</svg>
