<svg width="65" height="64" viewBox="0 0 65 64" fill="none" xmlns="http://www.w3.org/2000/svg">
<g clip-path="url(#clip0_221_403)">
<path d="M11.0649 63.9995C8.2053 64.035 5.50248 62.1857 4.51099 59.5515C3.59058 59.2064 2.74901 58.6709 2.04709 57.9799C-0.672988 55.4101 -0.672861 50.7865 2.04709 48.2169C4.19437 46.1029 7.42695 45.6121 10.0787 46.8907L22.7453 34.4192C23.9841 33.2933 25.6838 34.9688 24.5408 36.1871L11.1817 49.3402C10.7469 49.7686 10.0625 49.828 9.55785 49.4817C7.78102 48.2616 5.37731 48.4734 3.84245 49.9846C2.1074 51.6236 2.1074 54.5732 3.84245 56.2121C4.39851 56.7596 5.09116 57.1538 5.84564 57.3523C6.28451 57.4677 6.62741 57.8053 6.74459 58.2374C6.94606 58.9802 7.34647 59.6622 7.90252 60.2097C9.56725 61.918 12.5627 61.9179 14.2273 60.2097C15.7623 58.6984 15.9771 56.3318 14.7381 54.5822C14.3864 54.0853 14.4468 53.4117 14.8817 52.9833L28.8429 39.2369C29.3387 38.7489 30.1425 38.7489 30.6384 39.2369C31.1342 39.725 31.1342 40.5165 30.6384 41.0048L17.3696 54.0696C18.6682 56.6806 18.1698 59.8637 16.0228 61.9777C14.6984 63.2815 12.9377 63.9995 11.0649 63.9995Z" fill="#0B0B0B"/>
<path fill-rule="evenodd" clip-rule="evenodd" d="M54.2297 0.0163877C58.016 -0.275986 60.7752 3.39624 59.508 6.8386C61.9098 7.45447 63.1154 10.1085 61.9919 12.2773C63.5962 12.6464 64.8452 14.0013 64.9808 15.7047C65.1516 17.8499 63.4941 19.7125 61.3051 19.8249C62.1824 23.0328 59.7634 26.219 56.3569 26.2579C57.6611 28.9267 55.609 32.062 52.5448 31.9212C53.7272 36.1748 48.0757 38.7105 45.5774 35.1198C44.2158 36.7009 42.0011 37.3265 39.9805 36.6597C40.2758 39.6887 37.0512 41.7874 34.3571 40.4409C34.2154 42.2905 32.7222 43.8131 30.7858 43.9626C28.5205 44.1375 26.5867 42.3709 26.5961 40.1284C23.6022 40.5983 20.8456 38.4589 20.6093 35.4901C20.4501 33.4913 21.4836 31.6717 23.1208 30.7088C20.7363 28.855 21.3461 25.133 24.1953 24.1106C22.3196 21.8409 22.7699 18.4782 25.1826 16.7584C24.793 13.9223 27.5652 11.7279 30.2571 12.6088C30.3996 10.9582 31.6187 9.57458 33.2644 9.20671C32.9476 5.9526 35.7728 3.26549 39.0493 3.65574C40.0344 1.28126 43.0685 0.515135 45.0902 2.12363C46.5271 0.480635 49.0595 0.341011 50.6748 1.81275C51.537 0.806758 52.7916 0.127387 54.2297 0.0163877Z" fill="#FFAD32"/>
<path d="M38.571 27.1486C38.0611 27.1486 37.5447 27.0737 37.037 26.9188C36.3674 26.7146 35.9925 26.0144 36.2 25.3549C36.4075 24.6956 37.1188 24.3263 37.7884 24.5308C38.8623 24.8586 40.0604 24.4528 40.7028 23.5446C40.925 23.2303 41.2815 23.0337 41.6697 23.0111C42.058 22.9881 42.4353 23.1423 42.6936 23.4287C43.2951 24.0953 44.1924 24.4026 45.0941 24.2519C46.0008 24.0999 46.7217 23.5304 47.0718 22.6893C47.2493 22.2632 47.6506 21.9676 48.116 21.9202C49.1994 21.8099 50.1611 21.2806 50.8239 20.4296C51.4846 19.5812 51.7537 18.5339 51.5818 17.4808C51.4705 16.7992 51.9415 16.1578 52.6336 16.0482C53.3255 15.9382 53.9774 16.4021 54.0886 17.0838C54.3726 18.8227 53.9288 20.5512 52.8388 21.9508C51.8945 23.1632 50.5822 23.9794 49.0902 24.2957C48.3261 25.5762 47.0358 26.4624 45.5203 26.7164C44.2173 26.9354 42.9174 26.6634 41.8483 25.9811C40.9265 26.7367 39.7669 27.1484 38.571 27.1486Z" fill="#0B0B0B"/>
</g>
<defs>
<clipPath id="clip0_221_403">
<rect width="65" height="64" fill="white"/>
</clipPath>
</defs>
</svg>
