<svg width="64" height="64" viewBox="0 0 64 64" fill="none" xmlns="http://www.w3.org/2000/svg">
<g clip-path="url(#clip0_221_411)">
<path fill-rule="evenodd" clip-rule="evenodd" d="M39.8675 56.5002C44.1423 38.8319 27.6173 32.9536 32.6443 13.7505H25.2719C18.4308 30.6688 33.3325 37.797 25.2719 56.5002H39.8675Z" fill="#FFAD32"/>
<path d="M48.8748 55.4321V14.8184C53.642 13.2918 52.6851 6.37167 47.6248 6.25042H37.311L37.6145 3.91133C37.7355 2.97921 37.4443 2.05847 36.7943 1.31873C36.0691 0.493242 34.9777 0.000498207 33.875 0.000498207H30.125C28.074 -0.0370014 26.0734 1.81685 26.3854 3.91133L26.689 6.25042H16.3752C11.3111 6.37305 10.3611 13.2941 15.1252 14.8184V55.4321C10.358 56.9587 11.3148 63.8789 16.3752 64.0001H47.6248C52.6889 63.8774 53.6389 56.9563 48.8748 55.4321ZM17.6251 55.2501V15.0003H46.3748V55.2501H17.6251ZM28.8646 3.58971C28.8368 3.37483 28.9105 3.16596 29.0838 2.96871C29.3376 2.67984 29.7366 2.50047 30.125 2.50047H33.875C34.4527 2.49059 35.2039 2.96709 35.1353 3.58958L34.7901 6.25042H33.25V5.62543C33.1838 3.96695 30.8155 3.9682 30.75 5.62543V6.25042H29.21L28.8646 3.58971ZM14.5002 10.6254C14.5002 9.59151 15.3413 8.75039 16.3752 8.75039H47.6248C50.1129 8.85364 50.1109 12.3981 47.6248 12.5003H16.3752C15.3413 12.5003 14.5002 11.6594 14.5002 10.6254ZM47.6248 61.5H16.3752C13.8871 61.3968 13.8891 57.8523 16.3752 57.7501H47.6248C50.1129 57.8533 50.1109 61.3978 47.6248 61.5Z" fill="#0B0B0B"/>
</g>
<defs>
<clipPath id="clip0_221_411">
<rect width="64" height="64" fill="white"/>
</clipPath>
</defs>
</svg>
