<svg width="65" height="64" viewBox="0 0 65 64" fill="none" xmlns="http://www.w3.org/2000/svg">
<g clip-path="url(#clip0_221_402)">
<path d="M27.0874 64C24.0935 64.0001 21.0831 63.1354 18.4655 61.3687C17.8874 60.9786 17.7399 60.2007 18.1363 59.6316C18.5325 59.0623 19.3225 58.9173 19.9006 59.3074C24.9483 62.7142 31.75 62.0978 36.0731 57.8413L58.7451 35.5181C63.0681 31.2618 63.6944 24.5648 60.2341 19.5943C59.8377 19.025 59.9852 18.2473 60.5634 17.8572C61.1413 17.4671 61.9313 17.6119 62.3275 18.1814C66.4785 24.1441 65.7267 32.1784 60.5398 37.2854L37.8678 59.6086C34.923 62.508 31.0196 64 27.0874 64Z" fill="#0B0B0B"/>
<path d="M20.355 61.809C19.188 61.809 18.1084 61.3763 17.3011 60.5812L15.5381 58.8455C15.0426 58.3575 15.0424 57.5664 15.538 57.0783C16.0334 56.5903 16.8372 56.5904 17.3327 57.0782L19.0959 58.8141C19.4367 59.1496 19.9052 59.3232 20.4242 59.3089C20.9711 59.2914 21.4935 59.064 21.8955 58.6681C23.2854 57.2996 24.5631 56.9937 25.5895 56.7478C26.4905 56.532 27.2021 56.3616 28.0886 55.4888C28.9751 54.6157 29.1484 53.915 29.3674 53.028C29.8838 50.2284 32.1758 47.9773 35.0119 47.4704C35.9128 47.2546 36.6244 47.0841 37.511 46.2112C38.3976 45.3384 38.5708 44.6376 38.7898 43.7506C39.3061 40.9511 41.5982 38.6999 44.4342 38.1931C45.3351 37.9773 46.0467 37.8068 46.9333 36.9339C47.8198 36.0609 47.9931 35.3602 48.2121 34.4732C48.7285 31.6736 51.0205 29.4225 53.8566 28.9156C54.7575 28.6998 55.4691 28.5294 56.3557 27.6564C57.2423 26.7836 57.4155 26.0829 57.6345 25.1958C57.8843 24.185 58.195 22.9272 59.5849 21.5587C59.9869 21.163 60.2179 20.6484 60.2356 20.11C60.2523 19.602 60.0738 19.1376 59.7332 18.8022L57.9701 17.0661C56.8269 15.8471 58.5282 14.174 59.7649 15.2991L61.5279 17.0351C63.2774 18.6932 63.1238 21.684 61.3797 23.3257C60.4931 24.1986 60.32 24.8994 60.1009 25.7865C59.8511 26.7972 59.5404 28.055 58.1504 29.4235C56.7606 30.7921 55.4829 31.0979 54.4565 31.3439C53.5556 31.5597 52.844 31.7301 51.9574 32.603C51.0708 33.476 50.8976 34.1767 50.6786 35.0637C50.1622 37.8633 47.8702 40.1144 45.0341 40.6213C44.1332 40.8371 43.4216 41.0075 42.5351 41.8805C41.6486 42.7533 41.4753 43.4541 41.2563 44.3411C40.74 47.1407 38.4479 49.3918 35.6118 49.8986C34.7109 50.1144 33.9993 50.2849 33.1127 51.1578C32.2262 52.0308 32.0529 52.7315 31.8339 53.6184C31.3162 56.4204 29.026 58.6684 26.1894 59.176C25.2886 59.3918 24.5769 59.5622 23.6903 60.4353C22.8306 61.2816 21.6998 61.7687 20.5061 61.8067C20.4556 61.8083 20.405 61.809 20.355 61.809Z" fill="#0B0B0B"/>
<path fill-rule="evenodd" clip-rule="evenodd" d="M5.35434 47.0514C2.09394 50.2616 2.09394 55.5146 5.35446 58.725C8.61486 61.9352 13.9499 61.9352 17.2103 58.725L59.6424 16.9457C62.9029 13.7355 62.9029 8.48235 59.6424 5.27212C56.382 2.06188 51.0468 2.06188 47.7864 5.27212L48.7744 6.2449C49.9971 7.44872 49.9304 9.48437 48.6262 10.7685C46.3496 13.01 47.6735 14.625 45.397 16.8664C43.1205 19.1078 41.4803 17.8044 39.2039 20.0459C36.9274 22.2873 38.2512 23.9022 35.9747 26.1437C33.6981 28.3851 32.0579 27.0817 29.7815 29.3232C27.505 31.5648 28.8289 33.1797 26.5523 35.4212C24.2758 37.6626 22.6357 36.3591 20.3592 38.6006C18.0827 40.8421 19.4065 42.4571 17.13 44.6985C14.8535 46.9401 13.2134 45.6365 10.9369 47.878C9.63253 49.1621 7.56533 49.2279 6.34257 48.0239L5.35434 47.0514Z" fill="#FFAD32"/>
<path d="M49.672 5.3615L48.684 4.38859C42.7411 -1.46258 33.0716 -1.4627 27.129 4.38847L4.45705 26.7117C-1.48554 32.5628 -1.48554 42.0837 4.45718 47.935L5.44516 48.9076C6.2844 49.7375 7.43787 50.1741 8.64997 50.1332C9.84366 50.0952 10.9744 49.6083 11.8342 48.7618C12.7208 47.8888 13.4325 47.7182 14.3334 47.5025C17.1767 46.9942 19.463 44.7374 19.9778 41.945C20.1969 41.0578 20.37 40.3573 21.2566 39.4844C22.1432 38.6114 22.8549 38.4409 23.7557 38.2252C24.7823 37.9793 26.0598 37.6734 27.4497 36.305C28.8396 34.9364 29.1503 33.6783 29.4001 32.6677C29.6192 31.7805 29.7923 31.08 30.6788 30.207C31.5654 29.3342 32.2769 29.1637 33.1779 28.948C36.0212 28.4395 38.3075 26.1828 38.8223 23.3903C39.0415 22.5033 39.2146 21.8027 40.1012 20.9297C40.9878 20.0568 41.6994 19.8862 42.6003 19.6705C45.4435 19.1622 47.7299 16.9054 48.2446 14.113C48.4638 13.2258 48.6369 12.5252 49.5236 11.6521C51.2678 10.0106 51.4214 7.01916 49.672 5.3615ZM6.25179 28.4789L28.9238 6.15559C33.5516 1.59684 40.9332 1.2787 45.9472 5.31589L5.39896 45.2403C1.31735 40.3319 1.60162 33.0575 6.25179 28.4789ZM48.3795 8.43628C48.3619 8.97471 48.1308 9.48916 47.7289 9.88489C46.339 11.2534 46.0282 12.5115 45.7784 13.5221C45.5593 14.4093 45.3862 15.1098 44.4996 15.9827C43.6131 16.8557 42.9014 17.0262 42.0005 17.2419C39.1571 17.7502 36.8709 20.007 36.3561 22.7995C36.137 23.6866 35.9639 24.3872 35.0773 25.2602C34.1907 26.1331 33.479 26.3037 32.5782 26.5194C31.5517 26.7653 30.2741 27.0712 28.8842 28.4395C27.4944 29.8081 27.1836 31.0661 26.934 32.0768C26.7148 32.9639 26.5417 33.6646 25.6551 34.5375C24.7687 35.4103 24.057 35.5809 23.1561 35.7966C20.3128 36.3049 18.0263 38.5616 17.5116 41.3541C17.2924 42.2413 17.1193 42.9419 16.2327 43.8147C15.3461 44.6876 14.6346 44.8582 13.7336 45.0739C12.7071 45.3198 11.4295 45.6258 10.0396 46.9943C9.63769 47.3902 9.11521 47.6176 8.56836 47.6351C8.05045 47.65 7.58089 47.4758 7.24002 47.1403L7.14941 47.0511L47.7868 7.03903L47.8774 7.12825C48.2179 7.46388 48.3963 7.92834 48.3795 8.43628Z" fill="#0B0B0B"/>
</g>
<defs>
<clipPath id="clip0_221_402">
<rect width="65" height="64" fill="white"/>
</clipPath>
</defs>
</svg>
