<svg width="65" height="65" viewBox="0 0 65 65" fill="none" xmlns="http://www.w3.org/2000/svg">
<g clip-path="url(#clip0_221_401)">
<path fill-rule="evenodd" clip-rule="evenodd" d="M23.5771 28.2454C21.1233 28.2454 19.1156 26.2377 19.1156 23.7839C19.1156 26.2377 17.108 28.2454 14.6541 28.2454C12.2002 28.2454 10.1926 26.2377 10.1926 23.7839C10.1926 26.2377 8.18496 28.2454 5.73108 28.2454V57.3194H59.2692V28.2454C56.8163 28.2454 54.8093 26.2393 54.8077 23.7867C54.8062 26.2393 52.7992 28.2454 50.3462 28.2454C47.8923 28.2454 45.8847 26.2377 45.8847 23.7839C45.8847 26.2377 43.8771 28.2454 41.4232 28.2454C38.9712 28.2454 36.9648 26.2408 36.9618 23.7894C36.9588 26.2408 34.9524 28.2454 32.5003 28.2454C30.0464 28.2454 28.0388 26.2377 28.0388 23.7839C28.0386 26.2377 26.031 28.2454 23.5771 28.2454Z" fill="#FFAD32"/>
<path d="M26.1523 51.9865H38.8477C40.9477 51.9865 42.6563 50.2779 42.6563 48.1779V46.6907C46.0284 45.4876 46.0171 40.6925 42.6423 39.5038C42.4243 36.1997 39.6669 33.5783 36.3086 33.5783H28.6914C25.3331 33.5783 22.5757 36.1997 22.3577 39.5038C18.9809 40.694 18.9738 45.4889 22.3438 46.6907V48.1779C22.3438 50.2779 24.0523 51.9865 26.1523 51.9865ZM38.8477 49.4474H26.1523C25.4523 49.4474 24.8828 48.8779 24.8828 48.1779V46.9083H40.1172V48.1779C40.1172 48.8779 39.5478 49.4474 38.8477 49.4474ZM28.6914 36.1173H36.3087C38.1925 36.1173 39.7612 37.4922 40.0644 39.2912H24.9358C25.2389 37.4921 26.8077 36.1173 28.6914 36.1173ZM23.6134 41.8302H41.3868C43.0714 41.9002 43.0701 44.3 41.3868 44.3693H23.6134C21.9287 44.2993 21.93 41.8995 23.6134 41.8302Z" fill="#0B0B0B"/>
<path d="M61.1914 56.0498H3.80859C1.70853 56.0498 0 57.7584 0 59.8584V63.667C0 64.368 0.568368 64.9365 1.26953 64.9365H63.7303C64.4315 64.9365 64.9999 64.368 64.9999 63.667V59.8584C64.9999 57.7584 63.2915 56.0498 61.1914 56.0498ZM62.4608 62.3975H2.53906V59.8584C2.53906 59.1584 3.10857 58.5889 3.80859 58.5889H61.1913C61.8913 58.5889 62.4608 59.1584 62.4608 59.8584V62.3975Z" fill="#0B0B0B"/>
<path d="M64.8653 18.7531L59.1602 7.38002V3.87206C59.1602 1.772 57.4516 0.0635986 55.3516 0.0635986H9.64842C7.54836 0.0635986 5.83983 1.772 5.83983 3.87206V7.38002L0.134824 18.7531C0.0460839 18.9298 0 19.1247 0 19.3223V23.7839C0.026914 29.2019 6.83844 31.5407 10.1925 27.3774C12.4136 30.2111 16.8955 30.21 19.1155 27.3774C21.3366 30.2111 25.8185 30.21 28.0386 27.3774C30.2602 30.2113 34.7408 30.21 36.9616 27.3765C39.1834 30.211 43.6639 30.2102 45.8846 27.3774C48.106 30.2112 52.5872 30.21 54.8076 27.3769C58.164 31.5427 64.9741 29.1989 65.0001 23.7839V19.3223C65 19.1247 64.9539 18.9298 64.8653 18.7531ZM20.6875 18.0528L22.6471 8.95017H27.51L26.8569 18.0528H20.6875ZM11.9969 18.0528L15.2629 8.95017H20.0499L18.0903 18.0528H11.9969ZM3.32667 18.0528L7.89291 8.95017H12.5654L9.2993 18.0528H3.32667ZM30.0557 8.95017H34.9443L35.5976 18.0528H29.4025L30.0557 8.95017ZM38.1431 18.0528L37.4899 8.95017H42.3529L44.3125 18.0528H38.1431ZM46.9097 18.0528L44.9501 8.95017H49.7371L53.0032 18.0528H46.9097ZM55.7008 18.0528L52.4347 8.95017H57.1072L61.6733 18.0528H55.7008ZM8.37889 3.87206C8.37889 3.17204 8.9484 2.60266 9.64842 2.60266H55.3514C56.0515 2.60266 56.621 3.17204 56.621 3.87206V6.41112H8.37889V3.87206ZM5.73103 26.9758C3.97096 26.9758 2.53906 25.5439 2.53906 23.7839V20.5919H8.92301V23.7839C8.92301 25.5439 7.49111 26.9758 5.73103 26.9758ZM14.654 26.9758C12.894 26.9758 11.4621 25.5439 11.4621 23.7837V20.5917H17.846V23.7837C17.846 25.5439 16.4141 26.9758 14.654 26.9758ZM23.577 26.9758C21.817 26.9758 20.3851 25.5439 20.3851 23.7837V20.5917H26.769V23.7837C26.769 25.5439 25.3371 26.9758 23.577 26.9758ZM32.5001 26.9758C30.74 26.9758 29.3081 25.5439 29.3081 23.7837V20.5917H35.6919V23.7837C35.6919 23.7863 35.692 23.7888 35.692 23.7913C35.6878 25.5476 34.2567 26.9758 32.5001 26.9758ZM41.4231 26.9758C39.6651 26.9758 38.2334 25.5456 38.2311 23.7878C38.2311 23.7849 38.231 23.7818 38.231 23.7789V20.5919H44.6149V23.7839V23.787C44.6133 25.5456 43.182 26.9758 41.4231 26.9758ZM50.3461 26.9758C48.5842 26.976 47.1514 25.5408 47.154 23.7789V20.5919H53.5379V23.7839V23.786C53.5369 25.5448 52.105 26.9758 50.3461 26.9758ZM59.269 26.9758C57.51 26.9758 56.0781 25.5448 56.077 23.7859C56.077 23.7852 56.077 23.7845 56.077 23.7837V20.5917H62.4609V23.7837C62.4609 25.5439 61.029 26.9758 59.269 26.9758Z" fill="#0B0B0B"/>
</g>
<defs>
<clipPath id="clip0_221_401">
<rect width="65" height="65" fill="white"/>
</clipPath>
</defs>
</svg>
