<svg width="64" height="65" viewBox="0 0 64 65" fill="none" xmlns="http://www.w3.org/2000/svg">
<g clip-path="url(#clip0_221_400)">
<path fill-rule="evenodd" clip-rule="evenodd" d="M26.614 52.3034L19.3204 44.8959L17.7346 43.2853C17.0983 43.6916 16.3995 44.0506 15.2271 44.0506C12.94 44.0506 12.4555 42.6842 10.7199 42.2663L10.7015 42.2771C4.97885 43.7754 5.86806 52.1305 11.8269 52.3034H24.5907H26.614Z" fill="#FFAD32"/>
<path fill-rule="evenodd" clip-rule="evenodd" d="M41.293 48.3176L37.3685 52.3034H52.1558C58.1261 52.129 59.0002 43.7523 53.2635 42.2729L53.2552 42.2681C51.5257 42.6883 51.0394 44.0507 48.7555 44.0507C47.583 44.0507 46.8844 43.6916 46.248 43.2853L41.293 48.3176Z" fill="#FFAD32"/>
<path fill-rule="evenodd" clip-rule="evenodd" d="M47.618 7.7863L31.9913 1.26292V14.3097L47.618 7.7863Z" fill="#FFAD32"/>
<path d="M52.1558 51.0338H40.3866L46.4729 44.8524C48.5041 45.7658 50.7743 45.2625 52.2303 44.1633C52.8883 43.7293 53.3637 43.4158 54.3435 43.4158C58.3897 43.381 59.9 38.0778 56.5731 35.8413C60.2779 32.076 57.8515 25.0305 54.3003 22.0602C51.794 19.8658 48.3687 18.6574 44.6551 18.6574H33.2414V1.26293C33.1753 -0.421652 30.8067 -0.420382 30.7412 1.26293V18.6575H19.3275C11.9902 18.5371 5.48391 23.7519 5.57629 31.3542C5.57616 33.1045 6.27736 34.6917 7.40947 35.8413C4.08152 38.08 5.59442 43.381 9.63907 43.4158C10.6188 43.4158 11.0942 43.7293 11.7522 44.1633C13.2112 45.2648 15.482 45.7646 17.5096 44.8524L23.5958 51.0338H11.8268C8.38019 51.0338 5.57616 53.8816 5.57616 57.3819V58.6517C5.57616 62.1522 8.38019 65 11.8268 65H52.1558C55.6024 65 58.4064 62.1522 58.4064 58.6517V57.3819C58.4064 53.8816 55.6024 51.0338 52.1558 51.0338ZM19.7846 43.5716C20.072 43.4728 20.3978 43.4158 20.8152 43.4158C21.795 43.4158 22.2705 43.7293 22.9284 44.1633C24.9949 45.7093 27.817 45.7055 29.8781 44.1633C30.536 43.7293 31.0114 43.4158 31.9913 43.4158C32.9711 43.4158 33.4466 43.7293 34.1045 44.1633C36.1708 45.7093 38.9931 45.7056 41.0542 44.1633C41.7121 43.7293 42.1876 43.4158 43.1674 43.4158C43.5848 43.4158 43.9106 43.4727 44.198 43.5716L32.8751 55.0713C32.4146 55.5598 31.5678 55.5598 31.1072 55.0713L19.7846 43.5716ZM19.3275 21.1968H44.6552C51.1745 21.1968 55.9063 25.4686 55.9063 31.3539C55.9063 33.4543 54.2239 35.163 52.1559 35.163H11.8269C9.75896 35.163 8.07654 33.4543 8.07654 31.3541C8.07641 25.4686 12.8081 21.1968 19.3275 21.1968ZM13.1139 42.0335C12.3323 41.5179 11.3595 40.8765 9.63907 40.8765C7.56624 40.7894 7.56661 37.7892 9.63907 37.7024H54.3435C56.4166 37.7897 56.4159 40.7897 54.3435 40.8765C52.6231 40.8765 51.6504 41.5181 50.8687 42.0335C50.2107 42.4675 49.7353 42.781 48.7555 42.781C47.7756 42.781 47.3002 42.4675 46.6423 42.0335C44.5758 40.4875 41.7536 40.4913 39.6926 42.0335C39.0345 42.4675 38.5592 42.781 37.5794 42.781C36.5995 42.781 36.1241 42.4674 35.466 42.0335C33.3996 40.4875 30.5774 40.4913 28.5165 42.0335C27.8584 42.4675 27.3831 42.781 26.4032 42.781C25.4234 42.781 24.948 42.4675 24.29 42.0335C22.2236 40.4875 19.4014 40.4913 17.3403 42.0335C16.6824 42.4675 16.207 42.781 15.2271 42.781C14.2473 42.781 13.7719 42.4675 13.1139 42.0335ZM55.9062 58.6517C55.9062 60.752 54.2238 62.4607 52.1558 62.4607H11.8268C9.75883 62.4607 8.07641 60.752 8.07641 58.6517V57.3819C8.07641 55.2818 9.75883 53.5731 11.8268 53.5731H26.0962L29.3394 56.8668C30.7305 58.3404 33.2523 58.3404 34.6433 56.8668L37.8865 53.5731H52.1559C54.2239 53.5731 55.9063 55.2818 55.9063 57.3819V58.6517H55.9062Z" fill="#0B0B0B"/>
<path d="M24.4911 26.9103C26.1498 26.8432 26.1485 24.4375 24.4911 24.371H24.4902C22.8314 24.4382 22.8337 26.844 24.4911 26.9103Z" fill="#0B0B0B"/>
<path d="M39.4925 26.9103C41.1512 26.8432 41.15 24.4375 39.4925 24.371H39.4917C37.8329 24.4382 37.8351 26.844 39.4925 26.9103Z" fill="#0B0B0B"/>
<path d="M16.9903 31.9888C18.649 31.9217 18.6477 29.516 16.9903 29.4495H16.9894C15.3308 29.5168 15.3329 31.9225 16.9903 31.9888Z" fill="#0B0B0B"/>
<path d="M31.9918 31.9888C33.6505 31.9217 33.6492 29.516 31.9918 29.4495H31.9909C30.3322 29.5168 30.3344 31.9225 31.9918 31.9888Z" fill="#0B0B0B"/>
<path d="M46.9933 31.9888C48.6519 31.9217 48.6507 29.516 46.9933 29.4495H46.9924C45.3336 29.5168 45.3359 31.9225 46.9933 31.9888Z" fill="#0B0B0B"/>
</g>
<defs>
<clipPath id="clip0_221_400">
<rect width="64" height="65" fill="white"/>
</clipPath>
</defs>
</svg>
