<svg width="65" height="65" viewBox="0 0 65 65" fill="none" xmlns="http://www.w3.org/2000/svg">
<g clip-path="url(#clip0_221_399)">
<path d="M43.4857 42.0365C42.7944 41.9298 42.1441 42.4034 42.0364 43.0963L39.0296 62.4609H25.9704L22.9635 43.0963C22.8559 42.4032 22.2071 41.9294 21.5142 42.0365C20.8213 42.1441 20.3469 42.793 20.4544 43.4858L23.6282 63.9252C23.7243 64.5437 24.2568 65 24.8828 65H40.1172C40.7432 65 41.2756 64.5437 41.3717 63.9252L44.5455 43.4858C44.6532 42.793 44.1786 42.144 43.4857 42.0365Z" fill="#0B0B0B"/>
<path d="M44.3479 20.3425C44.0673 15.8686 41.5495 13.5993 40.3529 12.766C39.8107 8.67026 38.1042 3.38368 33.1896 0.203634C32.8656 -0.00596529 32.4641 -0.0567465 32.0981 0.0651285C31.7322 0.187257 31.4416 0.46922 31.3084 0.831164C30.6443 2.63656 28.9335 4.54188 27.2791 6.38422C24.4067 9.58293 21.1814 13.1746 22.7081 17.2239C20.6722 18.925 19.1741 22.0921 19.7258 26.1892C18.0333 27.1832 15.9961 29.4163 15.9961 34.4043C15.9961 35.1053 16.5645 35.6738 17.2656 35.6738C17.9668 35.6738 18.5352 35.1053 18.5352 34.4043C18.5352 32.0633 19.0646 29.0706 21.5847 28.1023C23.3731 27.4456 26.1361 26.9783 29.0611 26.4836C33.945 25.6576 39.4236 24.7307 42.9336 22.545C45.3229 25.1687 46.4648 27.9235 46.4648 34.4043C46.4648 35.1053 47.0333 35.6738 47.7344 35.6738C48.4354 35.6738 49.0039 35.1053 49.0039 34.4043C49.0039 27.5027 47.8627 23.9991 44.3479 20.3425ZM29.1682 8.0807C30.5759 6.51308 32.0206 4.9042 32.9865 3.20519C36.1371 5.85648 37.3623 9.74492 37.8084 12.9002C34.6708 14.2708 28.3364 14.5878 24.9735 15.9555C24.3902 13.6426 26.2369 11.345 29.1682 8.0807ZM28.6377 23.9801C26.2757 24.3796 24.0153 24.762 22.1824 25.2577C21.9435 22.0229 23.3448 19.6667 24.9314 18.7544C26.5663 17.8615 29.4422 17.3539 32.2236 16.8628C35.066 16.3611 37.5851 15.9162 39.1744 15.0445C40.0229 15.7111 41.5342 17.2962 41.7954 20.2598C38.7672 22.2666 33.4026 23.174 28.6377 23.9801Z" fill="#0B0B0B"/>
<path fill-rule="evenodd" clip-rule="evenodd" d="M14.0918 33.7695H50.9082V38.8477C50.9082 41.6405 48.6229 43.9258 45.8301 43.9258H19.1699C16.3771 43.9258 14.0918 41.6406 14.0918 38.8477V33.7695Z" fill="#FFAD32"/>
</g>
<defs>
<clipPath id="clip0_221_399">
<rect width="65" height="65" fill="white"/>
</clipPath>
</defs>
</svg>
