<svg width="64" height="65" viewBox="0 0 64 65" fill="none" xmlns="http://www.w3.org/2000/svg">
<path d="M42.6245 18.5352C43.3147 18.5352 43.8745 17.9667 43.8745 17.2657V3.80858C43.8745 1.70853 42.1922 0 40.1246 0H8.87462C6.80688 0 5.12463 1.70853 5.12463 3.80858V61.1914C5.12463 63.2915 6.80688 65 8.87462 65H40.1246C42.1922 65 43.8745 63.2915 43.8745 61.1914V47.7343C43.8084 46.0499 41.44 46.0512 41.3745 47.7343V56.1133H7.62462V8.88668H15.964C16.4798 10.3645 17.87 11.4257 19.4996 11.4257H29.4997C31.1293 11.4257 32.5194 10.3645 33.0353 8.88668H41.3745V17.2657C41.3745 17.9667 41.9342 18.5352 42.6245 18.5352ZM41.3745 58.6524V61.1914C41.3745 61.8914 40.8139 62.4609 40.1246 62.4609H8.87462C8.18537 62.4609 7.62462 61.8914 7.62462 61.1914V58.6524H41.3745ZM31.9995 6.34763C31.3093 6.34763 30.7495 6.91612 30.7495 7.61716C30.7495 8.31717 30.1889 8.88668 29.4997 8.88668H19.4996C18.8103 8.88668 18.2497 8.31717 18.2497 7.61716C18.2497 6.91612 17.69 6.34763 16.9997 6.34763H7.62462V3.80858C7.62462 3.10856 8.18537 2.53905 8.87462 2.53905H40.1246C40.8139 2.53905 41.3745 3.10856 41.3745 3.80858V6.34763H31.9995Z" fill="#0B0B0B"/>
<path fill-rule="evenodd" clip-rule="evenodd" d="M42.6246 15.9962C51.5992 15.9962 58.8746 23.3852 58.8746 32.5C59.0041 45.2808 44.7149 53.3212 34.1413 46.5783C32.4014 47.0525 30.6617 47.5265 28.9217 48C27.9929 48.2662 27.1036 47.4033 27.3581 46.4333C27.8261 44.6594 28.2942 42.8873 28.7624 41.115C22.1232 30.3733 30.0429 15.8644 42.6246 15.9962Z" fill="#FFAD32"/>
<path d="M55.1245 32.8174C55.1245 31.157 54.073 29.7415 52.6108 29.2215C52.3961 25.9174 49.6811 23.2959 46.3746 23.2959H38.8745C35.5679 23.2959 32.8529 25.9174 32.6383 29.2215C29.3134 30.4117 29.3064 35.2065 32.6245 36.4084V37.8955C32.6245 39.9956 34.3068 41.7041 36.3745 41.7041H48.8745C50.9423 41.7041 52.6245 39.9956 52.6245 37.8955V36.4085C54.0796 35.8845 55.1245 34.4726 55.1245 32.8174ZM38.8745 25.835H46.3746C48.2294 25.835 49.774 27.2099 50.0724 29.0088H35.1766C35.4751 27.2099 37.0196 25.835 38.8745 25.835ZM48.8745 39.1651H36.3745C35.6853 39.1651 35.1245 38.5956 35.1245 37.8955V36.626H50.1245V37.8955C50.1245 38.5956 49.5638 39.1651 48.8745 39.1651ZM51.3746 34.0869H33.8746C32.2158 34.017 32.217 31.6172 33.8746 31.5479H51.3746C53.0333 31.6178 53.0319 34.0176 51.3746 34.0869Z" fill="#0B0B0B"/>
</svg>
