<svg width="64" height="65" viewBox="0 0 64 65" fill="none" xmlns="http://www.w3.org/2000/svg">
<g clip-path="url(#clip0_221_421)">
<path d="M53.2437 12.5689L52.6187 6.22131C52.5548 5.57233 52.0172 5.0781 51.3749 5.0781H45.6034L45.1153 1.11211C45.0371 0.476834 44.5053 0 43.8749 0H20.125C19.4947 0 18.9629 0.476834 18.8847 1.11211L18.3965 5.0781H12.6251C11.9828 5.0781 11.4452 5.57233 11.3813 6.22131L10.7563 12.5689C10.7212 12.9259 10.8363 13.2811 11.0732 13.5471C11.3102 13.8131 11.6469 13.9648 12.0001 13.9648H13.3399L17.0036 63.8249C17.0523 64.4876 17.5958 65 18.2502 65H45.7501C46.4043 65 46.9479 64.4876 46.9967 63.8249L50.6602 13.9648H51.9999C52.353 13.9648 52.6898 13.8131 52.9268 13.5471C53.1638 13.2811 53.2788 12.9258 53.2437 12.5689ZM13.7563 7.61716H22.75C24.4085 7.55 24.4073 5.14463 22.75 5.0781H20.916L21.2285 2.53905H42.7715L43.084 5.0781H34.5625C32.904 5.14526 32.9052 7.55063 34.5625 7.61716H50.2437L50.6187 11.4257H13.3813L13.7563 7.61716ZM33.25 62.4609V47.8845C33.1839 46.2001 30.8155 46.2014 30.75 47.8845V62.4609H26.2396L24.4141 13.9648H30.75V28.5412C30.8161 30.2256 33.1845 30.2244 33.25 28.5412V13.9648H39.5858L37.7605 62.4609H33.25ZM15.8469 13.9648H21.9123L23.7378 62.4609H19.4103L15.8469 13.9648ZM44.5898 62.4609H40.2623L42.0877 13.9648H48.1531L44.5898 62.4609Z" fill="#0B0B0B"/>
<path fill-rule="evenodd" clip-rule="evenodd" d="M32 48.3692C37.5079 48.3692 42 43.8067 42 38.2129C41.435 24.7382 22.5629 24.7422 21.9999 38.213C22 43.8067 26.4923 48.3692 32 48.3692Z" fill="#FFAD32"/>
</g>
<defs>
<clipPath id="clip0_221_421">
<rect width="64" height="65" fill="white"/>
</clipPath>
</defs>
</svg>
