<svg width="65" height="65" viewBox="0 0 65 65" fill="none" xmlns="http://www.w3.org/2000/svg">
<path fill-rule="evenodd" clip-rule="evenodd" d="M43.3923 9.5066C48.434 11.0809 50.6656 17.8201 46.5695 22.0798C53.0576 23.7202 53.8405 30.5643 49.6373 35.3866C44.1636 41.6662 38.8517 48.6792 38.8517 57.4174C40.9839 51.5965 50.496 46.0038 57.7956 41.99C63.4011 38.9079 65.02 32.2119 59.4919 28.44C65.8492 25.3387 64.916 15.7844 57.848 14.1592C59.5224 10.1502 57.5237 5.55451 53.4392 4.05829C49.3547 2.56219 44.8603 4.77934 43.5491 8.92147L43.3923 9.5066Z" fill="#FFAD32"/>
<path fill-rule="evenodd" clip-rule="evenodd" d="M21.6076 9.5066C16.566 11.081 14.3343 17.8201 18.4305 22.0798C11.9424 23.7202 11.1595 30.5643 15.3627 35.3866C20.8364 41.6662 26.1483 48.6792 26.1483 57.4174C24.0161 51.5965 14.5039 46.0038 7.20433 41.99C1.59888 38.9079 -0.0200648 32.212 5.50802 28.44C-0.849227 25.3386 0.083977 15.7843 7.15186 14.159C5.47741 10.15 7.47619 5.55439 11.5608 4.05816C15.6452 2.56207 20.1396 4.77922 21.4509 8.92135L21.6076 9.5066Z" fill="#FFAD32"/>
<path d="M53.1326 26.3923C52.4371 24.1687 50.8737 22.4626 48.6524 21.4609C52.2462 15.8401 48.0649 7.9682 41.3395 7.90569C41.1294 5.97247 40.2959 4.17542 38.9243 2.74131C33.7337 -2.7042 24.4761 0.452763 23.6604 7.90544C16.9326 7.96909 12.7549 15.842 16.3475 21.4608C10.4085 24.0759 10.1534 31.4912 14.405 36.2212C19.4719 42.0341 24.8778 48.9452 24.8778 57.4172C25.2956 67.5274 39.7042 67.5276 40.1221 57.4172C40.1221 48.9452 45.528 42.0342 50.5948 36.2213C53.1424 33.2987 54.1147 29.5326 53.1326 26.3923ZM48.6798 34.5517C43.3101 40.7118 37.5815 48.0669 37.5815 57.4172C37.5815 60.2191 35.302 62.4987 32.5001 62.4987C29.6982 62.4987 27.4187 60.2191 27.4187 57.4172C27.4187 48.0669 21.69 40.7118 16.3203 34.5517C12.7782 30.5726 13.1979 24.6175 18.7419 23.3114C19.6736 23.0923 20.0211 21.8777 19.3462 21.1992C17.0625 18.8243 17.2975 15.8879 18.279 13.9318C19.1976 11.9278 21.7984 10.0309 24.7275 10.4961C25.0986 10.5433 25.4721 10.4232 25.7474 10.1695C26.0225 9.91553 26.1717 9.55309 26.155 9.1791C26.0769 7.42614 26.7008 5.76336 27.9118 4.49733C30.2856 1.90186 34.7143 1.90199 37.0881 4.49733C38.2992 5.76349 38.923 7.42626 38.8449 9.1791C38.8283 9.55309 38.9774 9.91553 39.2526 10.1695C39.5278 10.4233 39.9012 10.5435 40.2724 10.4961C43.5492 10.0842 45.7521 12.0007 46.721 13.9316C47.7025 15.8877 47.9375 18.8243 45.6538 21.1994C44.9788 21.8776 45.3268 23.0928 46.2581 23.3114C48.5659 23.8949 50.1046 25.2226 50.7076 27.1507C51.4282 29.4543 50.6511 32.2902 48.6798 34.5517Z" fill="#0B0B0B"/>
<path d="M42.2798 29.5119L33.7703 36.7451V24.5353L40.3524 18.9405C40.887 18.4862 40.952 17.6844 40.4976 17.1498C40.0431 16.6153 39.2415 16.5502 38.7069 17.0046L33.7703 21.2007V9.23563C33.7031 7.55012 31.2961 7.55139 31.2296 9.23563V21.2007L26.2931 17.0046C25.7587 16.5502 24.9568 16.6153 24.5024 17.1498C24.048 17.6844 24.113 18.4862 24.6476 18.9405L31.2296 24.5353V36.7451L22.7202 29.5119C22.1858 29.0574 21.3839 29.1226 20.9295 29.6571C20.4751 30.1917 20.5402 30.9934 21.0747 31.4478L31.2297 40.0796V57.4174C31.2969 59.1029 33.7039 59.1016 33.7704 57.4174V40.0796L43.9254 31.4478C44.46 30.9934 44.525 30.1917 44.0706 29.6571C43.6161 29.1226 42.8143 29.0575 42.2798 29.5119Z" fill="#0B0B0B"/>
</svg>
