<svg width="64" height="65" viewBox="0 0 64 65" fill="none" xmlns="http://www.w3.org/2000/svg">
<g clip-path="url(#clip0_221_406)">
<path d="M62.75 56.1133H57.5444L60.7268 12.8036H61.8124C62.5308 12.8197 63.1436 12.1321 63.0561 11.4077L62.4948 5.70525C62.4309 5.05627 61.8931 4.56204 61.2509 4.56204H56.178L55.7535 1.11211C55.6754 0.476707 55.1437 0 54.5132 0H33.177C32.5466 0 32.0149 0.476834 31.9366 1.11211L31.512 4.56204H26.4391C25.7969 4.56204 25.2593 5.05627 25.1953 5.70525L24.6338 11.4077C24.5987 11.7647 24.7138 12.1199 24.9508 12.3859C25.1878 12.6518 25.5244 12.8036 25.8776 12.8036H26.9635L27.9151 25.7539C27.9641 26.4548 28.5754 26.9801 29.2546 26.9255C29.9431 26.8733 30.4595 26.2642 30.4081 25.565L29.4704 12.8036H34.6604L35.1409 25.5728C35.1659 26.2744 35.753 26.8212 36.4377 26.793C37.1276 26.7662 37.6655 26.1765 37.6391 25.4758L37.1622 12.8036H42.5952V25.7697C42.6613 27.4541 45.0297 27.4529 45.0952 25.7697V12.8036H50.5282L48.8979 56.1133H45.3808C45.7803 55.3935 46.0084 54.5631 46.0084 53.6795V51.8278C46.0084 49.0857 43.812 46.8549 41.1121 46.8549H6.74547C4.04561 46.8549 1.84912 49.0857 1.84912 51.8278V53.6795C1.84912 54.563 2.07724 55.3934 2.47674 56.1133H1.25C0.559623 56.1133 0 56.6818 0 57.3828V60.5567C0 63.0067 1.96262 65 4.37498 65H59.625C62.0374 65 64 63.0067 64 60.5567V57.3828C64 56.6817 63.4404 56.1133 62.75 56.1133ZM27.5705 7.10109H35.5352C37.1937 7.03406 37.1925 4.62857 35.5352 4.56204H34.0315L34.2806 2.53905H53.4098L53.6588 4.56204H46.1472C44.4887 4.62907 44.4899 7.03457 46.1472 7.10109H60.1198L60.4313 10.2645H27.259L27.5705 7.10109ZM53.0299 12.8036H58.2199L55.0375 56.1133H51.3997L53.0299 12.8036ZM4.34911 53.6795V51.8278C4.34911 50.4858 5.4241 49.394 6.74547 49.394H41.112C42.4333 49.394 43.5083 50.4858 43.5083 51.8278V53.6795C43.5083 55.0215 42.4333 56.1133 41.112 56.1133H6.74547C5.4241 56.1133 4.34911 55.0215 4.34911 53.6795ZM61.5 60.5567C61.5 61.6067 60.6589 62.4609 59.625 62.4609H4.37498C3.34111 62.4609 2.49999 61.6067 2.49999 60.5567V58.6524H61.5V60.5567Z" fill="#0B0B0B"/>
<path fill-rule="evenodd" clip-rule="evenodd" d="M51.3735 29.3506C48.8938 25.3625 43.2509 23.934 39.1768 26.4289C42.432 27.9688 44.7026 31.3272 44.7026 35.198C44.7026 37.3246 42.9896 39.0644 40.8955 39.0644C43.3948 39.0644 45.46 41.0475 45.6411 43.541C47.7926 43.0808 49.665 41.8517 50.9669 40.1498C53.3318 37.2038 53.5196 32.4896 51.3735 29.3506Z" fill="#FFAD32"/>
<path fill-rule="evenodd" clip-rule="evenodd" d="M37.0793 38.8662H10.7782L21.4439 49.6986C22.8106 51.0867 25.0469 51.0867 26.4136 49.6986L37.0793 38.8662Z" fill="#FFAD32"/>
<path d="M44.5251 38.7254C45.4397 37.8213 46.0086 36.5583 46.0086 35.1628C46.0086 29.3578 41.3585 24.635 35.6426 24.635H12.2148C6.49896 24.635 1.84885 29.3578 1.84885 35.1628C1.84885 36.5583 2.41773 37.8213 3.33235 38.7254C-1.16301 42.0575 1.10811 49.356 6.74559 49.394C7.43583 49.394 7.99546 48.8256 7.99546 48.1244C7.99546 47.4233 7.43583 46.8549 6.74546 46.8549C2.3566 46.6702 2.35885 40.3193 6.74546 40.1357H41.112C45.5018 40.321 45.4978 46.6715 41.112 46.8549C40.4216 46.8549 39.862 47.4233 39.862 48.1244C39.862 48.8256 40.4216 49.394 41.112 49.394C46.7511 49.3558 49.0194 42.0551 44.5251 38.7254ZM6.74521 37.5966C5.42384 37.5966 4.34872 36.5047 4.34872 35.1627C4.34872 30.7577 7.87733 27.174 12.2147 27.174H35.6426C39.9798 27.174 43.5086 30.7577 43.5086 35.1627C43.5086 36.5047 42.4336 37.5966 41.1122 37.5966H6.74521Z" fill="#0B0B0B"/>
</g>
<defs>
<clipPath id="clip0_221_406">
<rect width="64" height="65" fill="white"/>
</clipPath>
</defs>
</svg>
