<svg width="65" height="65" viewBox="0 0 65 65" fill="none" xmlns="http://www.w3.org/2000/svg">
<g clip-path="url(#clip0_221_443)">
<path fill-rule="evenodd" clip-rule="evenodd" d="M13.6003 54.0821H51.4728V60.4365H13.6003V54.0821Z" fill="#FFAD32"/>
<path d="M52.0142 12.8371C50.7248 12.8371 49.4615 13.0228 48.2444 13.3901C43.3275 1.74531 27.1519 -0.31632 19.4798 9.77071C10.0365 6.63695 -0.122241 14.048 0.00192429 24.0101C-0.11792 31.075 5.37498 37.6064 12.3294 38.7223V60.4366C12.3294 61.1384 12.8984 61.7075 13.6003 61.7075H51.4727C52.1745 61.7075 52.7436 61.1384 52.7436 60.4366V38.9307C69.5148 37.3911 68.8854 13.4556 52.0142 12.8371ZM52.0142 36.409C51.8571 36.409 51.6941 36.4053 51.5298 36.3978C50.826 36.3522 50.1876 36.9631 50.2018 37.6674V59.1656H14.8712V37.6143C14.8712 36.9602 14.3746 36.4129 13.7236 36.3494C7.34994 35.7281 2.54357 30.4233 2.54357 24.01C2.41902 15.4152 11.5402 9.21381 19.4813 12.4678C20.0317 12.6842 20.6594 12.4924 20.9944 12.0044C27.515 2.36589 42.576 4.4007 46.3064 15.416C46.4208 15.7469 46.6668 16.0164 46.9863 16.16C47.3058 16.3038 47.6705 16.3093 47.994 16.1752C54.7825 13.2763 62.612 18.5054 62.5293 25.8941C62.5293 31.692 57.8123 36.409 52.0142 36.409Z" fill="#0B0B0B"/>
<path d="M21.1748 40.5315C20.4729 40.5315 19.9039 41.1006 19.9039 41.8024V47.7276C19.9712 49.4138 22.3791 49.4126 22.4457 47.7276V41.8024C22.4457 41.1005 21.8767 40.5315 21.1748 40.5315Z" fill="#0B0B0B"/>
<path d="M28.7493 40.5315C28.0474 40.5315 27.4784 41.1006 27.4784 41.8024V47.7276C27.5456 49.4138 29.9536 49.4126 30.0202 47.7276V41.8024C30.0202 41.1005 29.4511 40.5315 28.7493 40.5315Z" fill="#0B0B0B"/>
<path d="M36.3236 40.5315C35.6218 40.5315 35.0527 41.1006 35.0527 41.8024V47.7276C35.12 49.4138 37.5279 49.4126 37.5945 47.7276V41.8024C37.5945 41.1005 37.0255 40.5315 36.3236 40.5315Z" fill="#0B0B0B"/>
<path d="M43.8983 40.5315C43.1965 40.5315 42.6274 41.1006 42.6274 41.8024V47.7276C42.6947 49.4138 45.1026 49.4126 45.1692 47.7276V41.8024C45.1692 41.1005 44.6001 40.5315 43.8983 40.5315Z" fill="#0B0B0B"/>
</g>
<defs>
<clipPath id="clip0_221_443">
<rect width="65" height="65" fill="white"/>
</clipPath>
</defs>
</svg>
