<svg width="65" height="64" viewBox="0 0 65 64" fill="none" xmlns="http://www.w3.org/2000/svg">
<g clip-path="url(#clip0_221_397)">
<path fill-rule="evenodd" clip-rule="evenodd" d="M45.1834 34.2609H19.8166C19.8087 34.5474 19.8047 34.8406 19.8047 35.1412V56.5001H45.1953C45.1953 49.3805 45.1953 42.2609 45.1953 35.1412C45.1953 34.8406 45.1912 34.5472 45.1834 34.2609Z" fill="#FFAD32"/>
<path d="M43.3663 22.6238C41.8666 19.4663 40.3187 16.2078 40.1353 9.99971C40.828 9.99021 41.3866 9.43434 41.3866 8.74997V3.74999C41.3866 1.68224 39.6781 0 37.5779 0H27.4217C25.3217 0 23.6131 1.68224 23.6131 3.74999V8.74997C23.6131 9.43434 24.1719 9.99021 24.8645 9.99971C24.6811 16.2078 23.1331 19.4663 21.6333 22.6238C20.1103 25.8306 18.535 29.1466 18.535 35.1412V60.25C18.535 62.3178 20.2436 64 22.3436 64H42.6562C44.7562 64 46.4647 62.3178 46.4647 60.25V35.1412C46.4647 29.1466 44.8896 25.8306 43.3663 22.6238ZM27.4045 9.99996H37.5954C37.6479 11.8593 37.8166 13.4839 38.0658 14.9297C35.2958 15.4958 32.9264 15.1723 30.8107 14.8837C29.4914 14.7036 28.2223 14.5304 26.9903 14.5918C27.2086 13.2318 27.3561 11.716 27.4045 9.99996ZM26.1522 3.74999C26.1522 3.06074 26.7217 2.49999 27.4217 2.49999H37.5779C38.2781 2.49999 38.8476 3.06074 38.8476 3.74999V7.49997H26.1522V3.74999ZM43.9257 60.25C43.9257 60.9393 43.3562 61.5 42.6562 61.5H22.3436C21.6436 61.5 21.0741 60.9393 21.0741 60.25V35.1412C21.0703 26.4674 24.5428 24.395 26.4571 17.1571C27.6057 16.9701 28.943 17.1526 30.4621 17.3599C31.7733 17.5389 33.2544 17.7411 34.9081 17.7409C36.0554 17.7409 37.2858 17.6436 38.5996 17.3737C40.5429 24.4657 43.929 26.5644 43.9258 35.1412V60.25H43.9257Z" fill="#0B0B0B"/>
<path d="M39.9385 38.9056C39.3309 38.563 38.5552 38.7702 38.2061 39.3681C38.113 39.5276 37.8893 39.8792 37.6196 40.2294C36.8676 39.8596 36.0475 39.7336 35.1977 39.8635C32.8982 40.2157 30.9107 42.3496 29.8177 44.229V44.2291C28.3604 46.735 27.2135 47.7162 25.5866 47.8496C25.0728 47.8917 24.6359 48.2357 24.4811 48.7199C24.3262 49.2041 24.4841 49.7325 24.8806 50.0567C26.1943 51.1313 27.852 51.8145 29.5488 51.9803C31.6052 52.1735 33.5901 51.6535 35.455 50.4851C39.0201 48.235 39.9222 46.0073 40.0514 44.5347C40.1332 43.6001 39.931 42.7006 39.4845 41.9401C39.9954 41.3136 40.3563 40.7016 40.4096 40.6097C40.7575 40.0109 40.5463 39.2486 39.9385 38.9056ZM37.5219 44.32C37.4564 45.0676 36.9228 46.5894 34.0852 48.3804C32.1701 49.589 30.318 49.7202 28.7902 49.3059C30.1706 48.3791 31.1597 46.9529 32.0212 45.4714C32.8179 44.1012 34.2741 42.5351 35.5882 42.3337C36.0914 42.2562 36.5306 42.4057 36.9705 42.8029C37.161 42.9752 37.5967 43.4677 37.5219 44.32Z" fill="#0B0B0B"/>
</g>
<defs>
<clipPath id="clip0_221_397">
<rect width="65" height="64" fill="white"/>
</clipPath>
</defs>
</svg>
