<svg width="65" height="64" viewBox="0 0 65 64" fill="none" xmlns="http://www.w3.org/2000/svg">
<path fill-rule="evenodd" clip-rule="evenodd" d="M60.4715 40.2607H4.52856C7.45661 44.0519 12.0837 46.5107 17.2656 46.5107H47.7344C52.9164 46.5107 57.5434 44.0519 60.4715 40.2607Z" fill="#FFAD32"/>
<path d="M65 30.7607C65 30.0704 64.4315 29.5107 63.7305 29.5107C35.0841 29.5107 32.3784 29.5103 1.26953 29.5103C0.568495 29.5103 0 30.0701 0 30.7603C0 39.7138 7.06632 47.0728 15.9961 47.7148V52.7604C15.9961 53.4506 16.5646 54.0104 17.2656 54.0104H47.7343C48.4353 54.0104 49.0038 53.4506 49.0038 52.7604V47.7148C57.9337 47.0732 65 39.7142 65 30.7607ZM46.4648 51.5108H18.5351V47.7608H46.4648V51.5108ZM47.7343 45.2608H17.2656C9.57301 45.2608 3.2392 39.423 2.59327 32.0107H62.4067C61.7608 39.4229 55.4269 45.2608 47.7343 45.2608Z" fill="#0B0B0B"/>
<path fill-rule="evenodd" clip-rule="evenodd" d="M31.16 11.2L28.9074 10.6369L26.0526 11.7788L22.6326 12.9188L20.8243 15.9327L19.599 19.2H17.8399L15.4662 19.7934L13.5625 21.0626L11.4897 24.1718L9.69995 25.9615V30.5H12.3V27.0385L13.5102 25.8282L15.4374 22.9374L16.5337 22.2066L18.16 21.8H20.289L23.0012 22.7041L24.8739 23.6404L26.9556 24.8894L27.813 27.033L28.1221 27.6512L27.7 29.34V30.5H30.2999V29.7L30.7611 29.8153L31.1738 28.1646L32.1079 27.2306L33.1079 24.7306L36.2305 21.6079L38.3719 20.7513L40.6287 20.3H43.3712L45.5743 20.7406L47.2299 21.5684L48.9897 23.3282L49.8432 24.6085L50.7351 26.8381L51.213 30.1838L53.7869 29.8162L53.2649 26.1619L52.1567 23.3915L51.0102 21.6718L48.77 19.4316L46.4256 18.2594L43.6287 17.7H41.7999V15.6064L40.4374 13.5626L38.5762 12.3218L35.2109 11.2H31.16ZM39.1999 17.9343V16.3936L38.5625 15.4374L37.4237 14.6782L34.789 13.8H30.8399L29.0925 13.3631L26.9473 14.2212L24.3673 15.0812L23.1756 17.0673L22.1909 19.6933L23.9987 20.2959L26.126 21.3596L29.0443 23.1106L30 25.4996L30.892 23.2694L34.7694 19.3921L37.628 18.2486L39.1999 17.9343Z" fill="#0B0B0B"/>
</svg>
