<svg width="64" height="64" viewBox="0 0 64 64" fill="none" xmlns="http://www.w3.org/2000/svg">
<path fill-rule="evenodd" clip-rule="evenodd" d="M53.2132 35.3932C64.6209 15.6346 43.6431 2.50396 32.0222 14.1247C20.4015 2.50409 -0.576324 15.6347 10.8313 35.3932C16.0815 44.4868 26.6703 52.824 32.0222 54.258C37.3741 52.824 47.963 44.4868 53.2132 35.3932Z" fill="#FFAD32"/>
<path d="M62.928 17.2529C60.9195 10.9843 56.2348 6.01849 50.0748 3.62896C44.1495 1.33037 37.6108 1.74796 32.0222 4.75796C15.6116 -3.96648 -3.05286 10.3873 0.421577 28.5291C1.0293 32.0475 2.34742 35.5807 4.33909 39.0305C9.22084 47.2735 19.4299 58.0125 30.0823 61.3885L31.6989 61.8217C31.9106 61.8785 32.1337 61.8785 32.3454 61.8217L33.9621 61.3885C41.5316 59.3602 50.1075 51.3367 53.9815 46.9155C56.2605 44.3144 58.1864 41.6614 59.7052 39.0305C63.6117 32.2989 65.2581 24.476 62.928 17.2529ZM57.5417 37.7813C52.5564 46.3063 42.1733 56.3085 33.3155 58.9753L32.0222 59.3219L30.7288 58.9753C24.6107 57.3361 16.8847 50.9102 11.9418 45.269C5.10496 37.8223 0.417455 26.987 3.4959 18.0151C7.07015 6.48118 20.9664 1.05455 31.3944 7.26928C31.7826 7.49501 32.2617 7.49501 32.65 7.26928C37.7126 4.32699 43.7344 3.84906 49.1714 5.95828C61.9598 11.0058 64.7722 25.9612 57.5417 37.7813Z" fill="#0B0B0B"/>
<path d="M42.0018 27.4242C41.7873 24.1732 39.0741 21.5938 35.7697 21.5938H28.2747C24.9703 21.5938 22.2571 24.1732 22.0426 27.4242C18.7199 28.5953 18.713 33.3133 22.0289 34.4959V35.9592C22.0289 38.0256 23.71 39.7067 25.7764 39.7067H38.2681C40.3344 39.7067 42.0156 38.0256 42.0156 35.9592V34.4959C45.3336 33.3119 45.3225 28.594 42.0018 27.4242ZM28.2747 24.092H35.7697C37.6234 24.092 39.167 25.4448 39.4651 27.2149H24.5793C24.8776 25.4448 26.4211 24.092 28.2747 24.092ZM38.2681 37.2082H25.7764C25.0876 37.2082 24.5272 36.6479 24.5272 35.9591V34.7099H39.5172V35.9591C39.5172 36.6479 38.9568 37.2082 38.2681 37.2082ZM40.7664 32.2116H23.278C21.6204 32.1427 21.6218 29.7814 23.278 29.7132H40.7664C42.424 29.7822 42.4228 32.1434 40.7664 32.2116Z" fill="#0B0B0B"/>
</svg>
