<svg width="118" height="51" viewBox="0 0 118 51" fill="none" xmlns="http://www.w3.org/2000/svg">
<path fill-rule="evenodd" clip-rule="evenodd" d="M33.6693 25.7904C37.4927 28.605 38.6853 28.8234 36.9943 33.6986C36.5975 34.8418 37.4712 36.0884 37.5983 36.2233C38.3362 37.0425 35.7834 35.2173 35.6603 35.1126C33.6764 33.461 33.8874 31.1265 33.6693 25.7904ZM34.4076 27.2903C34.3504 27.2751 35.0558 28.2878 35.3097 29.1861C35.3638 29.3774 35.4618 29.7223 35.4661 31.627C35.4773 33.8348 36.4489 35.1311 36.525 35.0784C36.5598 35.0546 36.4845 34.9798 36.4834 34.9786C35.3024 33.2976 35.8147 30.7486 35.4577 29.3196C35.24 28.4633 34.4076 27.2903 34.4076 27.2903Z" fill="#18181B"/>
<path fill-rule="evenodd" clip-rule="evenodd" d="M36.2562 35.8983C35.6603 35.8068 35.5531 35.8779 35.0873 35.8212C34.6973 35.7745 35.0469 35.0639 35.3421 35.2686C35.3796 35.2935 35.4115 35.3152 35.4389 35.3345C35.5912 35.4394 35.6278 35.4549 35.8308 35.6051C35.9033 35.6578 36.2202 35.8788 36.2562 35.8983Z" fill="#18181B"/>
<path fill-rule="evenodd" clip-rule="evenodd" d="M41.7315 37.5314L37.9831 36.799C35.8275 37.9628 35.7896 39.649 33.8535 40.5847C31.8084 41.577 29.559 40.6551 27.9142 40.2639C33.5384 36.6335 34.3156 34.6542 41.7315 37.5314ZM29.0289 40.2035C29.0394 40.2188 29.0596 40.2008 29.0766 40.2005C29.2271 40.2146 29.2953 40.2517 29.6847 40.2219C30.9727 40.1109 31.7153 39.9354 32.6368 39.4423C34.3194 38.5329 35.4612 37.4264 35.8657 37.2024C36.5678 36.8119 38.0096 36.7555 37.224 36.7342C35.7164 36.697 35.3392 37.4759 34.0513 38.3488C32.1824 39.6199 31.5222 39.7438 31.14 39.8353C30.1234 40.084 30.0841 39.9372 29.0727 40.1694C29.0496 40.1761 28.9839 40.1694 29.0289 40.2035Z" fill="#18181B"/>
<path fill-rule="evenodd" clip-rule="evenodd" d="M13.2923 23.1552C9.60442 22.769 6.7118 21.7302 4.53647 19.6871C1.78417 17.0962 0.408081 13.4204 0.408081 8.65946C0.408081 6.30763 1.32814 4.50557 3.16821 3.2533C4.86793 2.08708 7.14453 1.50383 10.0021 1.50383L13.351 1.5326C15.117 1.5326 16.3449 1.3699 17.0427 1.04509C17.3351 0.901473 17.5846 0.71997 17.7874 0.5C18.1031 0.95903 18.2629 1.58987 18.2629 2.3928C18.2629 3.19603 18.2318 3.84596 18.1694 4.34317C18.1031 4.83068 18.0095 5.3088 17.8808 5.77723C17.6157 6.77135 17.2025 7.54581 16.645 8.10029C16.1616 6.1884 15.5614 4.86887 14.8363 4.1423C14.0254 3.33936 12.7544 2.93789 11.0313 2.93789C8.8482 2.93789 7.30437 3.5975 6.40383 4.91673C5.75669 5.88237 5.43322 7.34493 5.43322 9.30499C5.43322 11.9913 5.9868 14.5675 7.09006 17.0342C7.86195 18.7646 8.82873 19.9931 9.98267 20.7197C10.5791 21.102 11.195 21.2932 11.8304 21.2932C12.4776 21.2932 12.8871 21.1546 13.0664 20.8774C13.1872 20.6879 13.269 20.4075 13.3158 20.0356L13.3548 19.2177C13.3782 18.0154 13.3898 17.0868 13.3898 16.4318L13.3704 14.5675C13.3704 13.4874 13.2301 12.7705 12.9533 12.4166C12.6726 12.0533 12.3803 11.7904 12.0762 11.628C11.7721 11.4559 11.3977 11.2838 10.9533 11.1117L19.2142 9.21159C18.4112 9.76607 17.9511 11.8924 17.7874 13.2339C17.6314 14.5056 17.5767 14.1928 17.4832 17.0486C17.4715 17.3464 17.4677 17.6407 17.4638 17.9296L17.5846 20.6022C17.9472 28.7405 15.768 31.9079 10.9301 31.9079C9.48374 31.9079 7.88524 31.5619 6.20891 30.9467C4.26749 30.216 2.89915 29.216 3.20323 27.1778C3.39425 25.9088 4.49751 25.1014 5.63976 25.1014C6.05689 25.1014 6.51699 25.1781 6.89514 25.4474C8.68452 26.601 7.12518 31.1772 11.3121 30.2544C13.1522 29.8536 13.2845 23.7904 13.2923 23.1552Z" fill="#18181B"/>
<path d="M28.8394 9.71415C27.6972 9.71415 26.8707 10.1444 26.3639 11.0046C25.8688 11.8651 25.6232 13.3136 25.6232 15.3497C25.6232 19.7188 26.6953 21.9033 28.8394 21.9033C29.9817 21.9033 30.8003 21.32 31.2954 20.1538C31.8022 18.9873 32.0556 17.3861 32.0556 15.3497C32.0556 13.3136 31.8022 11.8651 31.2954 11.0046C30.8003 10.1444 29.9817 9.71415 28.8394 9.71415ZM20.8242 14.8049C20.8242 10.4551 23.4947 8.28009 28.8394 8.28009C34.1803 8.28009 36.8546 10.4551 36.8546 14.8049C36.8546 17.4434 36.1177 19.5323 34.6441 21.0716C33.2094 22.582 31.276 23.3373 28.8394 23.3373C26.4029 23.3373 24.4653 22.582 23.0346 21.0716C21.561 19.5323 20.8242 17.4434 20.8242 14.8049Z" fill="#18181B"/>
<path fill-rule="evenodd" clip-rule="evenodd" d="M40.0787 21.0771C40.0787 20.6601 40.0631 16.6254 40.0631 15.0307C40.0631 13.3482 40.0552 12.2202 40.0435 11.6466L40.0044 9.89712C39.9304 7.82252 39.7978 7.30534 39.6068 6.76995C39.4275 6.22487 39.256 5.83309 39.0923 5.59403C38.9402 5.34528 38.7609 5.12061 38.5581 4.92003L37.9305 4.26042L44.8775 3.07892C44.5227 4.04456 44.3162 4.97171 44.2499 5.86099C44.1992 6.74058 44.1564 7.51974 44.1174 8.19844C44.0901 8.87715 44.0667 9.97846 44.0394 10.7144C44.016 11.9382 44.0043 13.3961 44.0043 15.0883L44.1018 21.0572L44.2617 28.3041C44.2617 28.3041 44.2031 31.1632 44.2031 32.3244C45.2089 30.8812 46.5343 29.9262 48.1834 29.4598C48.7681 29.2859 49.4193 29.1993 50.1444 29.1993C50.8656 29.1993 51.5204 29.335 52.1052 29.606C52.7017 29.8665 53.1968 30.241 53.5905 30.7294C54.4014 31.7168 54.8069 33.0677 54.8069 34.7823V36.5238C54.8069 37.5267 54.8107 38.3188 54.8107 38.9355L54.8147 38.9344C54.8147 39.1297 54.8147 39.3191 54.8147 39.5027C54.8186 40.4935 54.8263 40.8507 54.8263 40.8507V40.851C54.8458 42.4172 54.8809 43.3423 54.8809 43.5796C54.8809 44.6741 54.9706 47.6031 56.2064 48.0539C57.7385 48.601 58.7405 46.9593 59.4734 46.1226C59.797 45.7364 60.2413 45.5755 60.713 45.5755C61.5668 45.5755 62.4478 46.1546 62.5648 47.0882C62.8026 48.794 61.7695 49.8242 60.2413 50.2424C59.5942 50.4034 58.9158 50.5 58.2102 50.5C56.8263 50.5 55.3838 50.1461 54.3234 49.4057C53.4969 48.8263 50.6941 46.1634 50.6941 41.2709C50.6941 41.2709 50.846 38.2395 50.846 37.1261C50.846 35.379 50.7407 34.2181 50.5224 33.6428C50.308 33.0568 50.0352 32.6336 49.7077 32.3731C49.388 32.1021 48.9553 31.9664 48.4095 31.9664C47.8793 31.9664 47.3881 32.053 46.9476 32.2266C46.5149 32.4005 46.1289 32.6284 45.7859 32.9103C45.1387 33.4313 44.6085 34.1256 44.2031 34.9937V36.9215C44.2031 39.9705 44.2733 39.4959 44.4136 40.2231C44.5773 41.1778 44.749 41.9103 44.9283 42.4204L39.3144 43.9954C39.6185 43.0841 39.8212 41.8742 39.9226 40.3658C40.1487 36.5896 40.2658 35.7805 40.2658 34.001C40.2658 32.2104 40.2579 30.9896 40.2462 30.3385C40.2345 29.6768 40.215 29.0201 40.1878 28.369C40.1254 26.0034 40.0747 21.0771 40.0747 21.0771H40.0787Z" fill="#18181B"/>
<path d="M59.6137 23.4928C58.2298 24.439 56.4715 24.9124 54.339 24.9124C52.3859 24.9124 50.8461 24.4869 49.7155 23.6361C48.546 22.7565 47.9652 21.5186 47.9652 19.9219C47.9652 18.316 48.273 16.9154 48.8968 15.7204C49.5167 14.5157 50.3354 13.5072 51.3529 12.6946C53.3567 11.0884 55.8166 10.2423 58.7366 10.1562C58.6352 7.21174 58.5026 6.70601 58.3389 6.27576C58.1869 5.83582 58.0269 5.49163 57.8632 5.24317C57.7112 4.98502 57.532 4.75095 57.3293 4.54038L56.6821 3.86668L63.629 2.68518C63.2743 3.65082 63.0638 4.58768 63.0014 5.49575C62.9507 6.40412 62.9117 7.20235 62.8884 7.89075C62.8611 8.57885 62.8416 9.30072 62.8299 10.0561C62.7909 11.318 62.7715 12.575 62.7715 13.8273V16.6525C62.7871 17.2931 62.8026 17.9001 62.8299 18.4737C62.8923 20.6247 63.4576 21.0743 63.6096 21.323C63.7772 21.5621 63.9604 21.7868 64.1631 21.997L64.8104 22.6567L59.8787 24.6255L59.6137 23.4928ZM58.756 19.3627C58.8183 17.8904 58.8534 16.5139 58.8534 15.2329C58.8534 13.9421 58.834 12.7136 58.795 11.5474C56.9549 11.7577 55.4813 12.575 54.378 13.9994C53.2748 15.4144 52.7212 17.1973 52.7212 19.3483C52.7212 20.6199 52.8498 21.5089 53.1032 22.0156C53.3683 22.5225 53.6803 22.8951 54.035 23.1342C54.4015 23.3636 54.842 23.4784 55.3488 23.4784C55.8673 23.4784 56.3194 23.4017 56.7015 23.249C57.0952 23.0863 57.4382 22.8522 57.7267 22.5462C58.3622 21.896 58.7053 20.8349 58.756 19.3627Z" fill="#18181B"/>
<path d="M81.2928 19.356C81.7528 19.5857 81.979 19.9871 81.979 20.5607C81.979 21.1249 81.8776 21.6218 81.6749 22.052C81.4721 22.4823 81.1175 22.8837 80.6068 23.2567C79.4684 24.0978 77.7297 24.5187 75.3945 24.5187C72.6773 24.5187 70.6073 23.7633 69.1882 22.2529C67.9329 20.9049 67.3013 19.0838 67.3013 16.7892C67.3013 14.4758 68.1551 12.6594 69.8549 11.3402C71.4649 10.0876 73.6481 9.46146 76.4004 9.46146C78.3184 9.46146 79.8153 9.88201 80.8952 10.7234C81.745 11.3927 82.17 12.1669 82.17 13.0465C82.17 13.9164 81.9401 14.7052 81.4839 15.4127C81.0395 16.1105 80.3806 16.7128 79.5035 17.2194C77.7024 18.2711 75.1841 18.8256 71.9484 18.8829C72.2135 20.8045 73.0126 22.0902 74.3459 22.7404C74.8293 22.9698 75.4685 23.0846 76.2677 23.0846C77.0669 23.0846 77.9168 22.7692 78.8213 22.1381C79.7218 21.5073 80.5443 20.5798 81.2928 19.356ZM71.8353 17.5205C75.8429 17.3199 77.8505 15.857 77.8505 13.1325C77.8505 12.1096 77.4412 11.4212 76.6303 11.0676C76.3496 10.9528 75.9831 10.8955 75.527 10.8955C75.0709 10.8955 74.6071 11.0007 74.1353 11.2109C73.6792 11.4212 73.2815 11.7654 72.9384 12.2435C72.2016 13.2855 71.8353 14.8964 71.8353 17.0761V17.5205Z" fill="#18181B"/>
<path fill-rule="evenodd" clip-rule="evenodd" d="M105.685 26.7486C104.301 25.9741 103.104 25.1762 102.321 24.6255H96.7811C97.362 23.1151 97.6545 18.1568 97.6545 14.4761C97.6545 13.0038 97.5297 11.9953 97.2725 11.4505C97.0346 10.9054 96.7422 10.5184 96.3991 10.289C96.056 10.0499 95.6078 9.93039 95.0465 9.93039C94.0212 9.93039 93.0854 10.2364 92.2511 10.8482C91.526 11.3739 90.9724 12.0432 90.5943 12.8558C90.567 13.1139 90.5554 13.3815 90.5554 13.6587V14.4761C90.5554 18.1568 90.6879 20.1292 91.2727 21.6396L85.967 23.0505C86.5517 21.5398 86.8441 18.1568 86.8441 14.4761C86.8441 11.8567 86.54 10.8567 85.928 9.90044C85.7759 9.66168 85.6044 9.43701 85.4172 9.22644L84.7856 8.56681L91.3936 7.77945C91.2026 8.25728 91.0739 8.70661 91.0115 9.12717L90.8594 10.1598C92.3954 8.3815 94.3486 7.49252 96.7227 7.49252C98.2587 7.49252 99.4555 7.94185 100.321 8.84053C101.159 9.72012 101.576 10.9101 101.576 12.4112V13.9457C101.576 16.5747 101.607 20.5433 101.67 21.1266C101.736 21.7098 101.787 22.1542 101.826 22.4602C101.849 22.6464 101.872 22.8199 101.9 22.9812C103.256 23.5095 105.732 24.3788 107.689 24.7521C109.322 23.4279 111.264 22.5512 113.509 22.5512C115.201 22.5512 116.499 23.6373 116.687 25.3221C116.687 25.333 116.69 25.3439 116.69 25.3548C116.994 27.3929 115.7 28.8543 113.681 29.1233C112.044 29.3468 110.083 28.8088 108.211 28.0035C104.601 29.2925 102.835 33.3395 101.604 36.6014C101.635 40.313 101.927 41.98 102.477 43.6017L99.9818 44.0396L96.863 44.3894C97.4478 42.6748 97.7363 40.1224 97.7363 35.9448C97.7363 32.9715 97.4595 30.9424 96.902 29.8572C96.672 29.4123 96.2666 28.9078 95.6819 28.3433H102.438C102.212 29.027 101.888 31.1594 101.888 31.1594L101.639 34.1797C102.368 32.0314 103.709 29.1204 105.685 26.7486ZM113.272 24.8161C112.215 25.2758 111.209 25.9797 111.209 25.9797C112.009 25.9627 114.164 26.6934 115.166 26.2752C115.517 26.1183 115.716 25.8132 115.654 25.2734C115.517 24.1427 114.371 24.3436 113.272 24.8161Z" fill="#18181B"/>
<path d="M65.7181 28.0701C64.5759 28.0701 63.7493 28.5585 63.2425 29.5349C62.7474 30.5116 62.5019 32.1557 62.5019 34.4668C62.5019 39.426 63.574 41.9055 65.7181 41.9055C66.8603 41.9055 67.6789 41.2435 68.174 39.9197C68.6808 38.5957 68.9343 36.7782 68.9343 34.4668C68.9343 32.1557 68.6808 30.5116 68.174 29.5349C67.6789 28.5585 66.8603 28.0701 65.7181 28.0701ZM57.7029 33.8484C57.7029 28.9112 60.3733 26.4424 65.7181 26.4424C71.059 26.4424 73.7333 28.9112 73.7333 33.8484C73.7333 36.8432 72.9963 39.2144 71.5227 40.9615C70.0881 42.6759 68.1546 43.5332 65.7181 43.5332C63.2816 43.5332 61.344 42.6759 59.9133 40.9615C58.4397 39.2144 57.7029 36.8432 57.7029 33.8484Z" fill="#18181B"/>
<path d="M91.9587 28.2981L91.6741 35.9675C91.6741 38.93 91.9781 40.9644 92.5863 42.0715C92.8046 42.4728 93.1826 42.9829 93.7284 43.6012L88.4383 43.2075C88.1459 42.4698 87.9549 41.9301 87.8692 40.8018C86.3955 42.8852 84.497 43.9269 82.1774 43.9269C80.5751 43.9269 79.3511 43.4169 78.5013 42.3968C77.6631 41.4094 77.2459 40.053 77.2459 38.3276V34.6328L77.2069 33.9391C77.1952 32.995 77.1562 32.2627 77.0938 31.742C77.0431 31.2103 76.9809 30.7706 76.9029 30.4236C76.8405 30.0652 76.7587 29.7505 76.6573 29.4792C76.5521 29.1972 76.4389 28.9368 76.3141 28.6981L75.8931 27.9494L81.3433 26.6414C81.3589 26.8147 81.4133 28.2858 81.4133 28.4374V28.9095C81.4133 28.9095 81.308 30.8456 81.0897 36.2932C81.0897 37.8883 81.2106 38.9733 81.4523 39.5483C81.694 40.1237 81.9787 40.5357 82.3101 40.7854C82.6531 41.0351 83.1014 41.1598 83.6589 41.1598C85.1715 41.1598 86.3955 40.4544 87.335 39.044C87.5884 38.6423 87.7991 38.2353 87.9628 37.8229C87.9862 37.2156 88.0016 36.5262 88.0016 35.7558C88.0016 31.7953 87.6587 28.7861 86.9726 27.5167L86.5553 26.768L91.9781 25.3283C91.9664 25.5996 91.9587 27.2887 91.9587 27.5167V28.2981Z" fill="#18181B"/>
<path d="M25.1137 36.1939C27.8403 36.1939 30.0507 33.9612 30.0507 31.207C30.0507 28.4527 27.8403 26.22 25.1137 26.22C22.387 26.22 20.1766 28.4527 20.1766 31.207C20.1766 33.9612 22.387 36.1939 25.1137 36.1939Z" fill="#D8A472"/>
<path fill-rule="evenodd" clip-rule="evenodd" d="M67.4947 46.5775L67.6116 46.5814L67.6272 46.9469L67.6194 47.4198C67.6662 47.4222 67.6973 47.4238 67.7128 47.4238C67.7752 47.4238 67.9039 47.4186 68.0871 47.4084C68.2079 47.4005 68.3211 47.3966 68.4303 47.3966C68.481 47.3966 68.5589 47.3982 68.6602 47.4005C68.6641 47.4517 68.668 47.4927 68.668 47.5238C68.668 47.5569 68.6602 47.6096 68.6446 47.6813H68.5784L67.9896 47.7006L67.6972 47.7081L67.6272 47.7159C67.6077 47.7801 67.596 47.8542 67.596 47.9388L67.6076 48.5157L67.5998 49.5309C67.5998 49.7975 67.6349 49.9743 67.705 50.0617C67.7674 50.1515 67.8689 50.1964 68.0014 50.1964C68.0677 50.1964 68.1925 50.1759 68.3719 50.1346C68.4303 50.122 68.5042 50.0794 68.5978 50.0078H68.633C68.6564 50.0078 68.6719 50.0157 68.6875 50.031C68.6992 50.0436 68.7071 50.0617 68.7071 50.0846L68.7031 50.1117C68.5939 50.2322 68.4692 50.3204 68.3288 50.3771C68.1885 50.4307 68.0014 50.4579 67.7675 50.4579C67.6037 50.4579 67.4674 50.4193 67.3582 50.3425C67.2491 50.2653 67.1827 50.1743 67.1515 50.0692C67.1203 49.9641 67.1049 49.7349 67.1049 49.3809L67.1203 48.5157L67.1165 48.1003V47.9467C67.1165 47.8746 67.1165 47.803 67.1087 47.7313L67.0462 47.7274L66.7304 47.7388L66.7032 47.7427C66.6759 47.7427 66.6526 47.7364 66.637 47.7234C66.6253 47.7108 66.6176 47.6955 66.6176 47.6774C66.6176 47.6466 66.6292 47.6222 66.6448 47.6045C66.6643 47.584 66.7226 47.5529 66.8201 47.512C66.8864 47.484 66.9606 47.4312 67.0502 47.3544C67.136 47.2749 67.2139 47.1879 67.2724 47.093C67.3036 47.0418 67.3465 46.9441 67.401 46.8008C67.4439 46.6956 67.4752 46.6212 67.4947 46.5775Z" fill="#18181B"/>
<path fill-rule="evenodd" clip-rule="evenodd" d="M72.7692 48.3464L71.241 48.3582H70.9524C70.8355 48.3582 70.7186 48.3633 70.5938 48.3735C70.5743 48.4503 70.5626 48.5031 70.5626 48.5311V48.5697V48.6079V48.7965C70.5626 48.9528 70.6094 49.145 70.7069 49.3734C70.8043 49.599 70.9446 49.7719 71.124 49.8924C71.3072 50.0105 71.5333 50.0731 71.8062 50.081C71.9504 50.0731 72.0674 50.0554 72.1532 50.0271C72.239 49.9987 72.3599 49.9333 72.5158 49.8309L72.7926 49.6041L72.816 49.7577C72.816 49.7758 72.812 49.7951 72.812 49.8156C72.6951 49.9617 72.5508 50.0897 72.3753 50.1999C72.1999 50.3102 72.0245 50.3909 71.8452 50.4425C71.7594 50.4653 71.6152 50.4772 71.4163 50.4772C71.237 50.4772 71.0616 50.4397 70.8862 50.3653C70.625 50.2527 70.4223 50.0719 70.2702 49.8231C70.126 49.5718 70.0519 49.2682 70.0519 48.9118C70.0519 48.7988 70.0715 48.6543 70.1105 48.4771C70.1534 48.3003 70.2313 48.1121 70.3405 47.912C70.4145 47.7762 70.5042 47.6647 70.6094 47.5773C70.7615 47.4545 70.8978 47.3686 71.0109 47.3198C71.1746 47.2505 71.3657 47.2158 71.584 47.2158C71.8218 47.2158 72.013 47.2595 72.165 47.3466C72.3677 47.4619 72.5157 47.6108 72.6171 47.7927C72.7184 47.9746 72.7692 48.1416 72.7692 48.2928V48.3464ZM70.6445 48.2082H70.8238C70.9524 48.2082 71.3384 48.1877 71.9817 48.1467C72.083 48.1416 72.1454 48.131 72.1688 48.1156C72.2117 48.0672 72.235 48.0235 72.235 47.9849C72.235 47.9057 72.2117 47.8159 72.161 47.7159C72.1103 47.6131 72.0324 47.5352 71.9232 47.4812C71.8219 47.4249 71.6972 47.3966 71.5568 47.3966C71.2644 47.3966 71.0266 47.508 70.8512 47.7313C70.7147 47.9006 70.6445 48.0593 70.6445 48.2082Z" fill="#18181B"/>
<path fill-rule="evenodd" clip-rule="evenodd" d="M77.1744 49.8538C77.1861 49.8873 77.194 49.9117 77.194 49.927C77.194 49.9656 77.1667 50.0333 77.1043 50.131C77.0264 50.259 76.9367 50.3527 76.8432 50.4118C76.7808 50.45 76.6949 50.4693 76.5896 50.4693C76.4064 50.4693 76.27 50.413 76.1804 50.2999C76.1219 50.2334 76.0829 50.1141 76.0595 49.9424L75.6346 50.2425C75.4826 50.3295 75.3696 50.3846 75.2916 50.4078C75.163 50.4409 75.0108 50.4579 74.8353 50.4579C74.7067 50.4579 74.6014 50.4192 74.5273 50.3425C74.4533 50.2629 74.4145 50.1617 74.4145 50.0385C74.4145 49.8617 74.5235 49.6502 74.7379 49.4041C74.9523 49.158 75.2448 48.9567 75.6112 48.8004C75.8724 48.6902 76.0282 48.6197 76.0867 48.5889C76.0906 48.5043 76.0945 48.4117 76.0945 48.3117C76.0945 47.9865 76.0479 47.7659 75.9582 47.6506C75.8686 47.5352 75.7398 47.4773 75.5722 47.4773C75.3968 47.4773 75.2331 47.5466 75.0811 47.6852C74.9875 47.7722 74.9173 47.9364 74.8705 48.1774C74.855 48.244 74.8238 48.3157 74.7809 48.3928C74.6717 48.4645 74.5858 48.5003 74.5195 48.5003C74.4611 48.5003 74.4105 48.4838 74.3676 48.4503C74.3403 48.4322 74.3286 48.4117 74.3286 48.3889C74.3286 48.3224 74.3988 48.1723 74.5391 47.9388C74.6795 47.7029 74.8588 47.5273 75.0693 47.4119C75.2876 47.2942 75.4748 47.2351 75.6346 47.2351C75.8529 47.2351 76.0167 47.2556 76.1219 47.2965C76.2272 47.3351 76.3206 47.4044 76.4025 47.5045C76.4844 47.6045 76.5352 47.7132 76.5508 47.8313C76.5625 47.8876 76.5662 48.0888 76.5662 48.435L76.5546 49.0465L76.5586 49.4927C76.5586 49.5514 76.5585 49.6014 76.5546 49.6423C76.5546 49.7168 76.5508 49.7719 76.5508 49.8077C76.5508 49.8924 76.5742 49.9605 76.6248 50.0117C76.6716 50.0629 76.7301 50.0885 76.7964 50.0885C76.8938 50.0885 76.9756 50.0396 77.0419 49.9424L77.0887 49.8809C77.1004 49.8731 77.1276 49.8644 77.1744 49.8538ZM76.0517 49.7423C76.0712 49.4167 76.0789 49.1875 76.0789 49.054C76.0789 48.9847 76.0751 48.8914 76.0673 48.7732C75.8997 48.8351 75.7165 48.9284 75.5294 49.054C75.3383 49.1796 75.1863 49.3245 75.0733 49.4887C74.9953 49.6065 74.9524 49.7179 74.9524 49.8231C74.9524 49.9231 74.9875 50.0066 75.0499 50.0731C75.12 50.1397 75.2057 50.1731 75.307 50.1731C75.385 50.1731 75.4825 50.1448 75.5916 50.0885C75.7397 50.0141 75.8919 49.8987 76.0517 49.7423Z" fill="#18181B"/>
<path fill-rule="evenodd" clip-rule="evenodd" d="M78.4648 50.2846C78.7611 50.2311 78.9327 50.1897 78.9795 50.1617C79.0068 50.1436 79.0224 50.1027 79.0224 50.0385L79.0184 49.7849L79.0224 49.3348L79.0146 48.1889L79.0184 47.762V47.4584L79.0302 47.0851C79.0302 46.5007 79.0223 46.1518 79.0106 46.0392C78.9989 45.9238 78.9794 45.8522 78.9443 45.8238C78.8819 45.7647 78.7182 45.7033 78.4414 45.6391V45.6202C78.4414 45.6021 78.4453 45.5765 78.4492 45.543C78.4843 45.5379 78.5194 45.5316 78.5545 45.5238C78.5857 45.5163 78.6169 45.5112 78.6481 45.5084C78.9483 45.4214 79.1705 45.3367 79.3069 45.2548H79.4941C79.498 45.3265 79.5019 45.5533 79.5019 45.9353L79.4979 46.4239L79.5019 47.0544L79.4862 47.8313C79.4862 47.8774 79.4902 47.9286 79.4941 47.9849C79.6539 47.7979 79.7708 47.6734 79.8449 47.612C79.9774 47.5045 80.1178 47.4198 80.2659 47.3584C80.4141 47.2942 80.5739 47.2619 80.7376 47.2619C81.0495 47.2619 81.3068 47.3954 81.5017 47.662C81.6187 47.8183 81.6732 48.04 81.6732 48.3275L81.6616 48.7197L81.6654 48.9386L81.6538 49.3194C81.6421 49.6349 81.6382 49.8219 81.6382 49.881C81.6382 49.9475 81.6382 50.0373 81.646 50.1499L81.8603 50.1999C82.0046 50.231 82.1178 50.259 82.1957 50.2846L82.1917 50.4039L81.3808 50.3807C81.3341 50.3807 81.2132 50.3858 81.0066 50.3961C80.8857 50.4012 80.8118 50.4039 80.7923 50.4039H80.7064C80.6947 50.3807 80.687 50.3618 80.687 50.346V50.3118C80.726 50.2653 80.7922 50.2346 80.8857 50.2192L81.1159 50.1657C81.1471 50.1397 81.1625 50.1129 81.1703 50.0846C81.1781 50.018 81.1898 49.6872 81.2015 49.0926L81.2093 48.8079C81.221 48.5082 81.1977 48.2594 81.1431 48.0621C81.1041 47.9262 81.0262 47.8183 80.8975 47.7388C80.7728 47.6569 80.6284 47.6159 80.4647 47.6159C80.3282 47.6159 80.1957 47.6455 80.0748 47.7045C79.993 47.7478 79.8918 47.8234 79.7748 47.9313C79.6579 48.0389 79.576 48.131 79.5331 48.2082C79.5019 48.2594 79.4862 48.344 79.4862 48.4618L79.4901 48.7311L79.4824 49.0119C79.4824 49.0347 79.4863 49.195 79.4941 49.4927L79.4901 49.7388L79.4979 50.0078C79.4979 50.0464 79.5019 50.0743 79.5097 50.0924L80.0438 50.2232C80.075 50.2311 80.1138 50.2464 80.1723 50.2693L80.1841 50.3118C80.1841 50.3244 80.1764 50.3449 80.1647 50.3732C80.0906 50.3756 80.0321 50.3771 79.997 50.3771L79.7006 50.3732L79.0458 50.3807L78.5545 50.3961C78.5272 50.3937 78.4883 50.3909 78.4376 50.3886L78.4336 50.3618C78.4336 50.3409 78.4453 50.3153 78.4648 50.2846Z" fill="#18181B"/>
<path fill-rule="evenodd" clip-rule="evenodd" d="M83.6536 48.8312C83.6536 48.6567 83.6887 48.4708 83.7588 48.2736C83.8329 48.0735 83.9421 47.8955 84.0902 47.7388C84.2384 47.5801 84.3942 47.462 84.5579 47.3852C84.7918 47.2777 85.0727 47.2237 85.4041 47.2237C85.8797 47.2237 86.2733 47.3875 86.593 47.716C86.9127 48.044 87.0725 48.4389 87.0725 48.9005C87.0725 49.3104 86.9049 49.677 86.5696 50.0003C86.2382 50.3205 85.8134 50.4807 85.3066 50.4807C84.9908 50.4807 84.6945 50.3976 84.4138 50.2311C84.2072 50.1055 84.0277 49.9196 83.8757 49.6735C83.7276 49.4273 83.6536 49.1466 83.6536 48.8312ZM85.3376 50.3307C85.5286 50.3307 85.7159 50.2783 85.8914 50.1732C86.0707 50.068 86.2148 49.9003 86.32 49.6695C86.4292 49.436 86.4799 49.167 86.4799 48.8619C86.4799 48.6618 86.441 48.4299 86.3553 48.1657C86.2734 47.9018 86.1486 47.7045 85.977 47.5734C85.8055 47.4403 85.6028 47.3738 85.3728 47.3738C85.2052 47.3738 85.0336 47.4135 84.8581 47.4927C84.6866 47.5722 84.5385 47.725 84.4176 47.9507C84.3007 48.1759 84.2383 48.4964 84.2383 48.9119C84.2383 49.3785 84.3437 49.7321 84.5503 49.9731C84.7608 50.2118 85.0218 50.3307 85.3376 50.3307Z" fill="#18181B"/>
<path fill-rule="evenodd" clip-rule="evenodd" d="M88.554 47.3584H88.8387L88.9672 47.3658L89.0647 47.3584C89.3259 47.3584 89.4896 47.3607 89.552 47.3658L89.556 47.4391C89.556 47.8006 89.5521 48.1503 89.5404 48.4889C89.5326 48.689 89.5286 48.8028 89.5286 48.8311C89.5286 49.2824 89.5443 49.5643 89.5716 49.677C89.6028 49.79 89.669 49.881 89.7781 49.9503C89.8873 50.0168 90.0159 50.0503 90.168 50.0503C90.3551 50.0503 90.5305 50.0117 90.6981 49.9349C90.8696 49.8554 91.014 49.7593 91.131 49.6462C91.1466 49.549 91.1504 49.4411 91.1504 49.3234C91.1504 48.9414 91.1544 48.6835 91.1622 48.5504C91.1661 48.4708 91.166 48.4015 91.166 48.3428C91.166 47.9274 91.1465 47.6927 91.1075 47.6387C91.0647 47.5852 90.9087 47.5442 90.6397 47.5159C90.5539 47.5056 90.4877 47.4966 90.4487 47.4891C90.4253 47.4556 90.4175 47.43 90.4175 47.4119L90.4291 47.3698C90.4954 47.3619 90.5578 47.3584 90.624 47.3584L91.2284 47.3658C91.4428 47.3607 91.5558 47.3584 91.5714 47.3584C91.5987 47.3584 91.6261 47.3596 91.6495 47.3619L91.6573 47.6427C91.6417 48.0325 91.63 48.5145 91.6261 49.0887L91.6183 49.4001L91.6339 49.9231C91.6573 49.964 91.6766 49.9885 91.6961 49.9963C91.7273 50.0089 91.7897 50.0156 91.8832 50.0156H91.9185C91.9496 50.0156 92.0431 50.0231 92.199 50.0385C92.199 50.0719 92.203 50.0963 92.203 50.1117V50.1538C91.8639 50.2283 91.587 50.3027 91.3765 50.3771C91.2908 50.4051 91.2207 50.4256 91.1622 50.4386C91.1505 50.3488 91.1426 50.2936 91.1426 50.2732V49.9617C91.1426 49.9487 91.1427 49.914 91.1388 49.8577C91.1076 49.881 91.0686 49.9089 91.0257 49.9424C90.8269 50.0987 90.6125 50.231 90.3903 50.3385C90.2422 50.4129 90.0939 50.45 89.9574 50.45C89.6884 50.45 89.4741 50.35 89.3064 50.1499C89.1349 49.9503 89.0491 49.6092 89.0491 49.1272C89.0491 49.1016 89.0492 49.0552 89.0531 48.9886C89.0648 48.8658 89.0687 48.7799 89.0687 48.7311C89.0687 48.713 89.0686 48.6567 89.0647 48.5618C89.0647 48.5208 89.0609 48.485 89.0609 48.4543C89.0609 48.431 89.0647 48.3798 89.0647 48.3003C89.0686 48.2184 89.0687 48.1605 89.0687 48.1274C89.0687 48.0837 89.0686 48.0451 89.0647 48.0121L89.0569 47.8081L89.0609 47.7006C89.0609 47.6596 89.0413 47.6222 88.9984 47.5891C88.8386 47.5454 88.7373 47.521 88.6866 47.5159C88.636 47.508 88.5929 47.4966 88.554 47.4812V47.3584Z" fill="#18181B"/>
<path fill-rule="evenodd" clip-rule="evenodd" d="M93.8754 49.4002C93.969 49.6439 94.039 49.8014 94.0897 49.8731C94.1872 50.0192 94.3003 50.1334 94.4367 50.2153C94.5693 50.2948 94.7175 50.3346 94.8734 50.3346C95.0177 50.3346 95.1617 50.272 95.3021 50.1464C95.4034 50.0515 95.4542 49.9412 95.4542 49.8156C95.4542 49.649 95.3956 49.4951 95.2787 49.3541C95.1578 49.2155 94.9317 49.0836 94.5964 48.9579C94.2612 48.83 94.0391 48.6941 93.926 48.5504C93.8091 48.4066 93.7545 48.2428 93.7545 48.0581C93.7545 47.8837 93.8012 47.7301 93.8948 47.5966C93.9884 47.4635 94.117 47.3635 94.2847 47.2966C94.4484 47.2276 94.6004 47.193 94.7407 47.193C94.9201 47.193 95.08 47.2068 95.2242 47.2351C95.3685 47.2635 95.4931 47.3068 95.5945 47.3659C95.6179 47.4966 95.6336 47.6888 95.6453 47.9428L95.6531 48.0656C95.6219 48.0684 95.5945 48.0696 95.5711 48.0696H95.5166C95.4425 47.8569 95.3217 47.6888 95.1658 47.5659C95.0099 47.4403 94.8578 47.3773 94.7057 47.3773C94.5537 47.3773 94.4288 47.4249 94.3353 47.5198C94.2417 47.612 94.195 47.7337 94.195 47.8849C94.195 48.0003 94.2339 48.103 94.3119 48.1928C94.3859 48.2826 94.5654 48.385 94.8422 48.5004C95.1229 48.6157 95.3294 48.7232 95.4542 48.8233C95.5867 48.9209 95.6804 49.0398 95.7428 49.1812C95.8012 49.3222 95.8324 49.4565 95.8324 49.5848C95.8324 49.7616 95.7739 49.927 95.6569 50.081C95.5439 50.2346 95.3997 50.3425 95.2242 50.4039C95.0527 50.4681 94.8968 50.5 94.7603 50.5C94.4368 50.5 94.1405 50.4398 93.8676 50.3193C93.8442 50.2988 93.8285 50.2602 93.8246 50.2039C93.8246 50.181 93.8247 50.1436 93.8208 50.0924C93.7779 49.7463 93.7583 49.5411 93.7583 49.4769C93.7583 49.4462 93.7623 49.4257 93.7779 49.4155C93.7896 49.4053 93.8247 49.4002 93.8754 49.4002Z" fill="#18181B"/>
<path fill-rule="evenodd" clip-rule="evenodd" d="M100.257 48.3464L98.7329 48.3582H98.4443C98.3273 48.3582 98.2065 48.3633 98.0857 48.3735C98.0623 48.4503 98.0506 48.5031 98.0506 48.5311L98.0544 48.5697V48.6079L98.0506 48.7965C98.0506 48.9528 98.0975 49.145 98.1949 49.3734C98.2924 49.599 98.4326 49.7719 98.6158 49.8924C98.7951 50.0105 99.0252 50.0731 99.2942 50.081C99.4424 50.0731 99.5555 50.0554 99.6412 50.0271C99.727 49.9987 99.8517 49.9333 100.008 49.8309L100.28 49.6041L100.304 49.7577C100.304 49.7758 100.304 49.7951 100.3 49.8156C100.187 49.9617 100.043 50.0897 99.8672 50.1999C99.6917 50.3102 99.5126 50.3909 99.3332 50.4425C99.2475 50.4653 99.107 50.4772 98.9082 50.4772C98.7288 50.4772 98.5497 50.4397 98.3742 50.3653C98.1169 50.2527 97.9102 50.0719 97.7621 49.8231C97.6139 49.5718 97.5399 49.2682 97.5399 48.9118C97.5399 48.7988 97.5595 48.6543 97.6024 48.4771C97.6452 48.3003 97.7191 48.1121 97.8283 47.912C97.9024 47.7762 97.9921 47.6647 98.1013 47.5773C98.2533 47.4545 98.3859 47.3686 98.4989 47.3198C98.6666 47.2505 98.8576 47.2158 99.0759 47.2158C99.3098 47.2158 99.5047 47.2595 99.6528 47.3466C99.8556 47.4619 100.008 47.6108 100.105 47.7927C100.206 47.9746 100.257 48.1416 100.257 48.2928V48.3464ZM98.1363 48.2082H98.3118C98.4443 48.2082 98.8302 48.1877 99.4695 48.1467C99.5709 48.1416 99.6334 48.131 99.6568 48.1156C99.7036 48.0672 99.7269 48.0235 99.7269 47.9849C99.7269 47.9057 99.6997 47.8159 99.649 47.7159C99.5984 47.6131 99.5203 47.5352 99.4151 47.4812C99.3098 47.4249 99.189 47.3966 99.0487 47.3966C98.7524 47.3966 98.5183 47.508 98.339 47.7313C98.2026 47.9006 98.1363 48.0593 98.1363 48.2082Z" fill="#18181B"/>
</svg>
