<svg width="334" height="253" viewBox="0 0 334 253" fill="none" xmlns="http://www.w3.org/2000/svg">
<g filter="url(#filter0_dd_224_274)">
<rect x="11" y="41.6519" width="288" height="192.722" rx="12" transform="rotate(-8.11454 11 41.6519)" fill="#FCFCFC"/>
<path fill-rule="evenodd" clip-rule="evenodd" d="M72.3208 51.5009L239.992 27.5944C242.243 43.3802 256.921 54.3447 272.778 52.0839L286.634 149.267C270.778 151.527 259.748 166.157 261.999 181.943L94.3279 205.85C92.0771 190.064 77.3983 179.099 61.542 181.36L47.6856 84.1769C63.5419 81.9161 74.5716 67.2868 72.3208 51.5009Z" fill="#FFAD32"/>
<g clip-path="url(#clip0_224_274)">
<path d="M145.384 174.71L149.232 174.161L149.377 175.178L146.639 175.568L146.793 176.647L149.204 176.304L149.349 177.317L146.937 177.66L147.217 179.624L146.104 179.782L145.38 174.707L145.384 174.71Z" fill="#0B0B0B"/>
<path d="M154.158 173.423L155.184 173.277L158.077 178.079L156.915 178.245L156.29 177.172L154.153 177.476L153.853 178.681L152.719 178.843L154.154 173.424L154.158 173.423ZM155.756 176.243L154.85 174.693L154.413 176.434L155.756 176.243Z" fill="#0B0B0B"/>
<path d="M161.024 172.48L162.137 172.321L162.716 176.38L165.235 176.021L165.38 177.038L161.747 177.555L161.024 172.48Z" fill="#0B0B0B"/>
<path d="M170.11 171.149L171.136 171.003L174.029 175.804L172.867 175.97L172.242 174.897L170.106 175.202L169.805 176.407L168.671 176.568L170.106 171.149L170.11 171.149ZM171.705 173.969L170.799 172.419L170.362 174.16L171.705 173.969Z" fill="#0B0B0B"/>
<path d="M177.648 171.161L176.111 171.38L175.964 170.35L180.153 169.753L180.3 170.783L178.762 171.002L179.338 175.047L178.225 175.206L177.648 171.161Z" fill="#0B0B0B"/>
<path d="M183.818 171.835L183.816 171.821C183.611 170.379 184.577 169.036 186.135 168.814C187.694 168.592 188.981 169.599 189.186 171.041L189.188 171.055C189.394 172.498 188.428 173.84 186.869 174.063C185.311 174.285 184.024 173.278 183.818 171.835ZM188.028 171.235L188.026 171.221C187.902 170.351 187.162 169.719 186.268 169.846C185.374 169.974 184.852 170.772 184.976 171.642L184.978 171.656C185.102 172.525 185.843 173.161 186.737 173.034C187.631 172.906 188.152 172.105 188.028 171.235Z" fill="#0B0B0B"/>
<path d="M192.901 172.247L195.218 168.602L192.525 168.986L192.386 168.008L196.508 167.421L196.629 168.269L194.313 171.914L197.093 171.518L197.232 172.496L193.022 173.096L192.901 172.247Z" fill="#0B0B0B"/>
<path d="M200.341 169.479L200.339 169.465C200.134 168.023 201.1 166.68 202.658 166.458C204.217 166.236 205.504 167.243 205.709 168.685L205.711 168.699C205.917 170.142 204.951 171.484 203.393 171.707C201.834 171.929 200.547 170.922 200.341 169.479ZM204.548 168.88L204.546 168.866C204.422 167.996 203.682 167.364 202.788 167.491C201.894 167.619 201.372 168.416 201.496 169.286L201.498 169.3C201.622 170.17 202.362 170.806 203.257 170.678C204.151 170.551 204.672 169.749 204.548 168.88ZM202.859 164.876L203.864 165.153L202.986 166.019L202.148 166.139L202.859 164.876Z" fill="#0B0B0B"/>
<path d="M132.524 169.59L131.208 169.425C130.911 169.303 130.887 169.139 131.494 168.464L131.554 168.385C131.999 167.872 132.232 167.368 132.226 166.849C132.24 166.305 132.065 164.726 131.686 162.068L130.905 156.591L130.576 156.424C130.305 156.345 130.17 156.364 129.916 156.4C129.184 156.694 129.114 156.704 129.038 156.173C129.002 155.918 129.063 155.699 129.224 155.508C129.364 155.346 129.757 154.962 130.397 154.35C131.347 153.438 131.892 152.982 132.052 152.935C132.261 152.905 132.534 153.03 132.904 153.308C133.292 153.56 133.592 153.848 133.798 154.147L134.155 154.684L134.793 159.333C135.207 162.411 135.399 164.083 135.32 164.351C135.286 165.112 133.953 166.788 134.343 166.733C134.537 166.776 135.322 166.853 136.725 166.96L139.028 167.127C139.188 167.104 139.356 166.962 139.574 166.671C139.893 166.273 139.914 166.27 140.33 166.374C140.6 166.453 140.711 166.58 140.716 166.768C140.718 166.957 140.574 167.59 140.281 168.669L140.284 168.694C139.988 169.752 139.761 170.301 139.604 170.348C139.448 170.396 138.065 170.261 135.413 169.955C134.312 169.806 133.354 169.682 132.517 169.591L132.524 169.59Z" fill="#0B0B0B"/>
<path d="M141.518 167.413C141.354 167.084 141.222 166.653 141.128 166.171C141.035 165.689 140.87 164.533 140.616 162.755L140.333 160.767C140.211 159.912 140.095 158.773 140.122 158.463C140.123 158.299 140.163 158.104 140.227 157.881C140.345 157.394 140.45 157.308 140.77 156.909C141.718 155.641 143.556 154.441 144.822 154.008C147.046 153.249 147.088 158.122 147.806 159.199C148.039 159.519 148.295 159.247 148.472 159.34C148.724 159.468 148.859 159.591 148.819 159.811C148.815 159.954 148.702 160.134 148.429 160.362L146.514 161.768L143.863 163.618L143.761 162.898C143.965 164.331 144.121 165.253 144.223 165.641C144.348 166.022 144.531 166.306 144.772 166.529C145.432 167.048 146.327 166.731 147.5 165.573C148.302 164.774 148.616 164.658 148.954 165.059C149.294 165.481 149.122 165.744 147.327 167.319C145.829 168.666 144.644 169.092 143.297 168.884C142.506 168.762 141.919 168.279 141.515 167.417L141.518 167.413ZM144.784 161.633C145.144 161.368 145.48 161.085 145.491 160.991C145.499 160.872 144.916 157.131 144.721 156.735C144.543 156.311 144.365 156.055 144.23 155.931C143.94 155.713 143.171 155.95 143.016 156.329C142.885 156.558 142.907 156.886 143.026 157.718C143.128 158.434 143.703 162.294 143.748 162.287L144.784 161.633Z" fill="#0B0B0B"/>
<path d="M162.794 164.38C162.63 164.05 162.497 163.62 162.404 163.138C162.31 162.656 162.145 161.5 161.892 159.722L161.608 157.734C161.486 156.878 161.37 155.74 161.397 155.43C161.398 155.266 161.438 155.071 161.502 154.848C161.621 154.361 161.726 154.274 162.045 153.876C162.993 152.607 164.831 151.408 166.097 150.974C168.321 150.215 168.363 155.089 169.081 156.166C169.315 156.486 169.571 156.214 169.747 156.306C170 156.434 170.135 156.558 170.095 156.777C170.09 156.92 169.978 157.1 169.705 157.328L167.79 158.735L165.139 160.584L165.036 159.865C165.24 161.297 165.397 162.219 165.498 162.608C165.624 162.989 165.806 163.273 166.047 163.495C166.707 164.014 167.603 163.698 168.776 162.539C169.578 161.741 169.891 161.625 170.229 162.026C170.57 162.448 170.398 162.711 168.602 164.286C167.105 165.633 165.919 166.058 164.573 165.851C163.781 165.729 163.194 165.246 162.791 164.384L162.794 164.38ZM166.059 158.6C166.419 158.335 166.755 158.052 166.766 157.957C166.774 157.839 166.191 154.097 165.996 153.701C165.819 153.277 165.64 153.021 165.505 152.898C165.215 152.679 164.447 152.917 164.291 153.296C164.161 153.524 164.182 153.853 164.301 154.684C164.403 155.4 164.978 159.26 165.024 159.254L166.059 158.6Z" fill="#0B0B0B"/>
<path d="M151.499 169.668C150.86 169.146 150.592 168.735 150.692 168.461C150.741 168.311 151.043 167.962 151.572 167.391C152.126 166.817 152.406 166.495 152.466 166.415C152.526 166.335 152.336 166.152 151.866 165.841C151.396 165.509 151.041 165.157 150.8 164.789C150.618 164.508 150.485 164.221 150.411 163.878C150.337 163.536 150.195 162.54 149.965 160.923C149.708 159.121 149.561 157.916 149.544 157.326C149.528 156.716 149.637 156.158 149.846 155.655C150.389 154.187 152.038 153.079 153.882 152.816C154.317 152.729 155.137 152.73 156.394 152.81C157.652 152.891 158.517 152.861 159.04 152.74C159.806 152.513 159.837 152.555 159.992 152.818C160.217 153.256 160.108 153.461 159.57 153.822L159.507 153.878C159.144 154.119 158.96 154.498 158.96 154.993C158.959 155.488 159.166 157.088 159.558 159.837L160.415 165.848L160.058 166.63C159.825 167.134 159.536 167.578 159.193 167.979C158.891 168.329 158.384 168.733 157.724 169.205C157.063 169.677 156.501 170.017 156.034 170.201C155.211 170.532 154.015 170.703 153.247 170.599C152.716 170.51 152.135 170.215 151.492 169.669L151.499 169.668ZM157.318 166.81C157.289 166.105 157.03 164.139 156.544 160.883C156.128 158.134 155.866 156.45 155.753 155.832C155.64 155.21 155.535 154.801 155.391 154.611C155.119 154.2 154.666 153.984 154.075 153.95C153.485 153.917 153.035 154.074 152.695 154.478C152.513 154.693 152.416 155.156 152.448 155.882C152.478 156.587 152.655 157.834 152.94 159.658C153.172 161.111 153.322 162.009 153.395 162.351C153.469 162.694 153.599 162.96 153.75 163.196C154.331 163.986 154.869 164.119 155.634 163.565L156.04 163.272L156.288 163.518C156.433 163.711 156.519 163.816 156.528 163.883C156.551 164.044 155.941 164.722 154.681 165.914L153.378 167.162L153.64 167.502C154.306 168.541 155.137 168.939 156.035 168.811C156.473 168.749 156.672 168.674 156.914 168.379C157.215 168.03 157.355 167.514 157.325 166.809L157.318 166.81Z" fill="#0B0B0B"/>
<path d="M172.038 158.981C171.491 155.142 171.163 153.16 171.07 153.01C170.871 152.757 170.453 152.791 169.86 153.09C169.452 153.362 169.313 153.214 169.126 152.724C169.008 152.388 169.025 152.339 169.43 152.067C169.619 151.898 170.708 151.318 171.647 150.807C171.671 150.803 171.692 150.8 171.713 150.772C172.742 150.248 173.342 149.998 173.533 150.018C173.724 150.037 173.888 150.366 174.005 151.012C174.009 151.037 174.012 151.058 174.039 151.079C174.149 151.676 174.213 151.973 174.237 151.97C174.262 151.967 175.094 151.377 176.093 150.643C176.862 150.11 177.4 149.748 177.725 149.562C178.049 149.374 178.335 149.24 178.631 149.173C179.428 148.988 179.841 149.093 180.229 149.676C180.343 149.824 180.472 150.229 180.585 150.851C180.699 151.473 180.94 153.017 181.314 155.466L181.416 156.182C181.852 159.067 182.146 160.654 182.307 160.938C182.407 161.138 182.594 161.132 182.828 160.956C182.849 160.928 182.954 160.846 183.02 160.811C183.594 160.377 183.851 160.386 184.077 160.803C184.177 161.003 184.178 161.188 184.042 161.375C183.922 161.535 183.527 161.897 182.834 162.467C181.001 163.954 180.135 164.124 179.516 163.246C179.396 163.05 179.27 162.668 179.16 162.071C179.05 161.474 178.836 159.972 178.496 157.589C177.995 154.075 177.683 152.209 177.584 152.01C177.429 151.75 177.353 151.711 176.904 151.846C176.566 151.941 176.067 152.226 175.406 152.719L174.455 153.468L175.037 157.726L175.619 161.984L175.93 161.847C176.111 161.796 176.415 161.614 176.607 161.491C177.06 161.212 177.341 161.361 177.417 161.895L177.473 162.287L175.332 163.583C173.276 164.82 172.881 165.016 172.879 164.827C172.845 164.761 172.568 162.818 172.045 158.98L172.038 158.981Z" fill="#0B0B0B"/>
<path d="M185.09 161.532C184.932 161.248 184.782 160.867 184.692 160.384C184.598 159.902 184.404 158.54 184.077 156.248L183.409 151.557L183.693 150.761C184.354 148.803 185.574 147.969 187.099 148.458C187.369 148.537 187.857 148.82 188.507 149.273C189.157 149.722 189.503 150.004 189.519 150.119C189.529 150.189 189.461 150.363 189.328 150.596C189.198 150.828 189.096 150.935 189.026 150.945C188.957 150.955 188.728 150.824 188.317 150.576C187.902 150.304 187.649 150.176 187.534 150.192C187.259 150.231 186.795 150.935 186.683 151.468C186.65 151.733 186.758 152.99 187.029 155.214C187.3 157.439 187.491 158.78 187.627 159.232C187.746 159.567 187.928 159.848 188.163 160.028C188.425 160.226 188.694 160.242 188.969 160.077C189.251 159.919 189.626 159.584 190.099 159.114L190.82 158.398L189.255 147.42L188.903 147.092C188.658 146.867 188.363 146.77 188.057 146.764C187.797 146.754 187.627 146.707 187.589 146.616C187.558 146.575 187.545 146.48 187.528 146.365C187.475 145.995 187.518 145.967 187.97 145.831L190.041 145.041C190.77 144.723 191.219 144.566 191.4 144.516C191.605 144.461 191.745 144.466 191.852 144.544C191.931 144.604 192.044 144.894 192.182 145.865C192.249 146.162 192.312 146.602 192.394 147.179C192.587 148.356 192.785 149.6 193.105 151.843C193.812 156.625 194.251 159.06 194.407 159.156C194.642 159.311 194.712 159.326 195.25 158.964C195.812 158.624 195.833 158.6 196.029 158.828C196.418 159.243 196.319 159.543 195.566 160.192C194.377 161.234 193.493 161.81 192.926 161.937C192.473 162.048 192.146 162.073 191.948 162.005C191.578 161.869 191.234 161.28 191.139 160.609C191.096 160.309 191.014 160.06 190.994 160.088C190.969 160.092 190.577 160.454 190.15 160.918C189.641 161.461 189.208 161.879 188.799 162.147C188.132 162.574 187.114 162.858 186.58 162.745C185.997 162.615 185.493 162.216 185.088 161.518L185.09 161.532Z" fill="#0B0B0B"/>
<path d="M197.525 160.087C197.272 159.628 197.056 158.764 196.868 157.443C196.68 156.123 196.613 155.334 196.685 155.017C196.803 154.199 197.573 153.501 200.068 151.727L202.374 150.1L202.275 149.405C202.147 148.504 201.831 147.936 201.404 147.901C200.876 147.833 200.412 148.042 198.901 148.967C198.013 149.493 197.466 149.784 197.316 149.877C197.166 149.97 197.051 149.986 196.975 149.951C196.871 149.873 196.845 149.688 196.711 149.422C196.631 149.034 196.638 148.912 196.953 148.656C197.43 148.211 199.619 146.908 200.631 146.436C202.043 145.785 203.119 145.585 203.826 145.791C203.85 145.788 203.871 145.785 203.899 145.806C204.388 145.95 204.712 146.231 204.851 146.707C204.99 147.183 205.259 148.748 205.666 151.427L205.722 151.819C206.237 155.259 206.515 157.059 206.587 157.237C206.703 157.552 207.047 157.503 207.603 157.118C208.158 156.732 208.412 156.696 208.572 157.168C208.754 157.449 208.656 157.58 208.372 157.906C208.112 158.225 207.566 158.68 206.752 159.245C205.963 159.807 205.422 160.119 205.129 160.207C204.68 160.343 204.558 160.314 204.223 160.101C203.86 159.872 203.822 159.759 203.682 159.095C203.591 158.638 203.5 158.319 203.479 158.322C203.458 158.325 202.972 158.726 202.454 159.199C200.788 160.687 199.801 161.181 198.829 160.967C198.225 160.839 197.783 160.549 197.529 160.09L197.525 160.087ZM203.331 156.832L202.961 154.244C202.682 152.281 202.55 151.683 202.456 151.696C202.296 151.719 201.8 152.05 201.021 152.656C200.241 153.263 199.821 153.629 199.729 153.806C199.637 153.983 199.57 154.182 199.585 154.44C199.594 154.674 199.673 155.229 199.798 156.106C200.207 158.974 200.442 159.129 202.274 157.663L203.33 156.829L203.331 156.832ZM200.966 145.329L200.392 145.411L200.521 142.73L202.984 142.379L200.966 145.329Z" fill="#0B0B0B"/>
<path d="M210.908 158.486C209.96 157.936 209.977 157.887 209.635 158.125C209.464 158.242 209.37 158.234 209.159 158.075C208.976 157.938 208.863 157.811 208.867 157.668C208.847 157.528 209.163 157.105 209.812 156.379C210.46 155.648 210.856 155.285 211.016 155.262C211.176 155.24 211.539 155.469 212.123 155.953C213.328 156.986 213.909 157.277 214.553 157.185C214.897 157.136 215.162 157.006 215.341 156.791C215.626 156.469 215.621 156.113 215.329 155.709C215.058 155.299 214.305 154.629 213.107 153.645C211.014 151.987 209.872 150.899 209.244 149.952C208.769 149.264 208.698 149.085 208.705 148.638C208.718 147.906 209.029 147.131 209.641 146.313C210.41 145.284 211.29 144.709 212.306 144.564C213.245 144.405 213.72 144.598 214.555 145.352C214.99 145.761 215.173 145.902 215.521 145.874C215.917 145.864 215.945 145.885 215.997 146.255C216.05 146.625 216.053 146.646 214.858 147.501L213.663 148.356L213.28 147.986C213.011 147.743 212.711 147.454 212.407 147.145C211.832 146.567 211.351 146.329 210.943 146.434C210.717 146.491 210.597 146.647 210.619 146.95C210.601 147.495 211.214 148.163 213.249 149.737C214.783 150.933 215.829 151.846 216.39 152.497C216.976 153.144 217.298 153.757 217.366 154.385C217.495 155.287 217.231 156.08 216.441 157.137C215.335 158.617 213.758 159.405 212.314 159.165C211.954 159.099 211.472 158.861 210.902 158.493L210.908 158.486Z" fill="#0B0B0B"/>
<path d="M154.829 86.3329L155.346 90.6846L155.521 90.6639L155.004 86.3122L154.829 86.3329Z" fill="#0B0B0B"/>
<path d="M154.412 86.3832L154.93 90.7346L155.939 90.6145L155.42 86.2631L154.412 86.3832Z" fill="#0B0B0B"/>
<path d="M156.04 90.6924L154.856 90.8327L154.317 86.3047L155.501 86.1645L156.04 90.6924ZM155.009 90.6362L155.844 90.5386L155.344 86.3614L154.51 86.4625L155.01 90.6397L155.009 90.6362Z" fill="#0B0B0B"/>
<path d="M153.841 78.7311L152.835 78.8745C152.346 75.4408 153.014 73.2569 154.65 71.1881C157.024 68.1909 160.726 67.8412 160.881 67.8298L160.969 68.8473C160.935 68.8522 157.534 69.1802 155.438 71.8349C153.99 73.6739 153.393 75.5909 153.841 78.7311Z" fill="#0B0B0B"/>
<path d="M153.94 78.8061L152.761 78.9742L152.748 78.8869C152.282 75.6139 152.813 73.3675 154.582 71.1337C156.655 68.5179 159.73 67.8977 160.624 67.7703C160.767 67.7499 160.854 67.741 160.876 67.7415L160.962 67.7291L161.066 68.9262L160.979 68.9386C160.979 68.9386 160.922 68.9396 160.832 68.9525C160.264 69.0333 157.349 69.5523 155.506 71.8894C153.97 73.837 153.513 75.8125 153.928 78.7187L153.94 78.8061ZM152.91 78.7748L153.741 78.6562C153.34 75.7445 153.816 73.7486 155.37 71.7805C157.208 69.4549 159.996 68.8934 160.807 68.7778C160.831 68.7743 160.855 68.7709 160.873 68.7684L160.799 67.9271C160.206 67.9974 156.894 68.4981 154.715 71.2466C152.995 73.4201 152.469 75.6051 152.906 78.7753L152.91 78.7748Z" fill="#0B0B0B"/>
<path d="M155.49 79.968L154.485 80.1113L155.095 84.3904L156.1 84.247L155.49 79.968Z" fill="#0B0B0B"/>
<path d="M156.2 84.3219L155.021 84.4901L154.385 80.0364L155.565 79.8682L156.2 84.3219ZM155.17 84.2906L156.001 84.1721L155.416 80.0677L154.584 80.1862L155.17 84.2906Z" fill="#0B0B0B"/>
<path d="M157.849 80.0058L156.844 80.1492L157.644 85.7626L158.65 85.6192L157.849 80.0058Z" fill="#0B0B0B"/>
<path d="M158.749 85.6941L157.57 85.8623L156.745 80.0742L157.924 79.9061L158.749 85.6941ZM157.719 85.6628L158.55 85.5443L157.775 80.1055L156.943 80.2241L157.719 85.6628Z" fill="#0B0B0B"/>
<path d="M160.357 78.4223L159.352 78.5657L160.509 86.6836L161.515 86.5403L160.357 78.4223Z" fill="#0B0B0B"/>
<path d="M161.614 86.6152L160.435 86.7833L159.252 78.4907L160.432 78.3226L161.614 86.6152ZM160.584 86.5839L161.415 86.4653L160.283 78.522L159.451 78.6406L160.584 86.5839Z" fill="#0B0B0B"/>
<path d="M164.018 90.0324L152.414 85.9025L151.433 79.0246L161.717 73.8909L173.026 75.946L174.006 82.8238L164.018 90.0324ZM153.332 85.1478L163.856 88.8937L172.914 82.3559L172.124 76.8194L161.869 74.9563L152.543 79.6113L153.332 85.1478Z" fill="#0B0B0B"/>
<path d="M164.032 90.1303L163.988 90.1153L152.331 85.9678L151.334 78.9746L161.7 73.8006L161.73 73.8071L173.104 75.8742L174.101 82.8674L174.059 82.8983L164.033 90.1338L164.032 90.1303ZM152.49 85.8382L164.001 89.9352L173.908 82.7844L172.944 76.0218L161.726 73.9822L151.526 79.0756L152.49 85.8382ZM163.87 88.9915L163.825 88.9765L153.253 85.2127L152.447 79.5608L161.856 74.8655L161.885 74.872L172.203 76.7476L173.008 82.3995L172.967 82.4304L163.87 88.995L163.87 88.9915ZM153.411 85.0796L163.842 88.7924L172.819 82.3125L172.046 76.8912L161.881 75.0436L152.638 79.6583L153.411 85.0796Z" fill="#0B0B0B"/>
<path d="M165.782 102.401L165.308 101.938C159.433 96.1892 151.33 96.5782 151.249 96.5826L150.126 96.6465L155.265 90.0616L164.522 93.5889L172.424 87.615L179.199 92.5014L178.106 92.7534C178.027 92.7718 170.13 94.6748 166.104 101.824L165.779 102.402L165.782 102.401ZM152.269 95.5641C154.683 95.6439 160.668 96.3125 165.549 100.767C168.991 95.1294 174.55 92.8114 176.846 92.0598L172.446 88.8843L164.69 94.7446L155.606 91.2853L152.269 95.5641Z" fill="#0B0B0B"/>
<path d="M171.803 83.9087L171.63 83.9375L172.348 88.2606L172.521 88.2318L171.803 83.9087Z" fill="#0B0B0B"/>
<path d="M172.217 83.8437L171.215 84.0103L171.933 88.3333L172.934 88.1667L172.217 83.8437Z" fill="#0B0B0B"/>
<path d="M171.863 88.4363L171.116 83.9381L172.291 83.742L173.039 88.2402L171.863 88.4363ZM171.317 84.0805L172.008 88.2303L172.837 88.0908L172.149 83.9405L171.32 84.0765L171.317 84.0805Z" fill="#0B0B0B"/>
<path d="M170.396 77.8427L169.39 77.9861L170 82.2651L171.006 82.1218L170.396 77.8427Z" fill="#0B0B0B"/>
<path d="M171.105 82.1967L169.926 82.3648L169.291 77.9111L170.47 77.743L171.105 82.1967ZM170.075 82.1654L170.906 82.0468L170.321 77.9424L169.49 78.061L170.075 82.1654Z" fill="#0B0B0B"/>
<path d="M168.141 78.5385L167.136 78.6819L167.936 84.2953L168.942 84.1519L168.141 78.5385Z" fill="#0B0B0B"/>
<path d="M169.045 84.2263L167.865 84.3945L167.04 78.6064L168.219 78.4383L169.045 84.2263ZM168.011 84.1955L168.842 84.077L168.067 78.6382L167.235 78.7568L168.011 84.1955Z" fill="#0B0B0B"/>
<path d="M165.291 77.7187L164.285 77.8621L165.443 85.98L166.448 85.8366L165.291 77.7187Z" fill="#0B0B0B"/>
<path d="M166.551 85.9111L165.372 86.0792L164.189 77.7866L165.369 77.6185L166.551 85.9111ZM165.517 85.8803L166.349 85.7617L165.216 77.8184L164.385 77.937L165.517 85.8803Z" fill="#0B0B0B"/>
<path d="M162.587 76.4113L161.582 76.5547L163.143 87.5055L164.149 87.3622L162.587 76.4113Z" fill="#0B0B0B"/>
<path d="M164.248 87.4371L163.069 87.6052L161.482 76.4797L162.662 76.3116L164.248 87.4371ZM163.218 87.4058L164.049 87.2872L162.513 76.511L161.681 76.6296L163.218 87.4058Z" fill="#0B0B0B"/>
<path d="M171.637 76.1938L170.632 76.3371C170.184 73.1968 169.076 71.5229 167.171 70.1622C164.42 68.1985 161.06 68.8344 161.025 68.8394L158.632 69.3124L160.167 68.2454C159.915 68.0531 159.652 68.0943 158.945 68.195C158.434 68.2679 157.731 68.3681 156.756 68.4002C153.267 68.5056 152.265 66.9091 151.98 65.9519C151.403 64.0205 152.666 61.3811 154.797 60.0651L155.795 59.4487L155.562 60.6011C155.443 61.1883 155.276 62.8801 155.909 63.631C156.139 63.9012 156.462 64.0262 156.907 64.0091C157.571 63.9857 158.084 63.7735 158.576 63.5644C159.34 63.2452 160.131 62.915 161.142 63.5121C162.057 64.0518 162.605 64.9538 162.646 65.9887C162.669 66.5984 162.508 67.1915 162.199 67.7097C163.576 67.6844 165.771 67.9167 167.746 69.3209C169.895 70.8465 171.147 72.7566 171.637 76.1938ZM158.923 67.1681C159.769 67.0476 160.351 66.9967 160.984 67.6299C161.415 67.1941 161.65 66.6225 161.629 66.0303C161.603 65.3497 161.238 64.7566 160.629 64.3944C160.079 64.0701 159.7 64.2025 158.966 64.5067C158.44 64.7243 157.79 64.9987 156.942 65.027C156.19 65.0523 155.564 64.7958 155.133 64.287C154.526 63.568 154.407 62.4872 154.429 61.643C153.258 62.7936 152.596 64.4705 152.95 65.6568C153.398 67.1576 155.249 67.421 156.724 67.3784C157.639 67.3512 158.279 67.2599 158.797 67.1825C158.839 67.1765 158.884 67.1701 158.926 67.1641L158.923 67.1681Z" fill="#0B0B0B"/>
<path d="M171.737 76.2688L170.557 76.437L170.545 76.3496C170.131 73.4469 169.14 71.6743 167.12 70.2336C164.698 68.5082 161.754 68.8211 161.187 68.902C161.096 68.9149 161.044 68.9223 161.041 68.9228L158.233 69.4763L160.003 68.2474C159.818 68.1634 159.573 68.1911 159.058 68.2645L158.735 68.3107C158.265 68.3776 157.613 68.4599 156.757 68.4857C153.208 68.5925 152.187 66.9561 151.89 65.9719C151.305 64.006 152.583 61.3217 154.747 59.9868L155.918 59.2638L155.646 60.6177C155.529 61.1939 155.364 62.8498 155.975 63.5718C156.184 63.82 156.488 63.9335 156.902 63.9209C157.018 63.9185 157.134 63.9056 157.249 63.8892C157.736 63.8198 158.144 63.6475 158.543 63.4836C158.905 63.3322 159.284 63.1749 159.687 63.1173C160.206 63.0434 160.696 63.1481 161.189 63.4379C162.131 63.995 162.693 64.9236 162.734 65.9869C162.755 66.5542 162.625 67.1144 162.353 67.6201C163.818 67.6144 165.904 67.9015 167.8 69.2492C170.123 70.8997 171.261 72.9079 171.728 76.181L171.74 76.2683L171.737 76.2688ZM170.703 76.238L171.534 76.1194C171.069 72.9532 169.952 70.9989 167.693 69.3963C165.769 68.0276 163.642 67.7749 162.198 67.8026L162.038 67.804L162.118 67.6678C162.425 67.1572 162.573 66.5765 162.551 65.9952C162.514 64.9918 161.981 64.1162 161.093 63.5905C160.632 63.3177 160.189 63.224 159.705 63.293C159.323 63.3476 158.957 63.4994 158.602 63.6498C158.197 63.8181 157.775 63.9959 157.267 64.0683C157.145 64.0857 157.022 64.0961 156.902 64.099C156.432 64.1161 156.083 63.9805 155.835 63.688C155.182 62.9115 155.347 61.1843 155.468 60.5861L155.662 59.6318L154.836 60.1416C152.738 61.4351 151.49 64.0331 152.054 65.9271C152.334 66.8639 153.315 68.4169 156.747 68.3125C157.595 68.2878 158.237 68.207 158.707 68.14L159.03 68.0939C159.674 68.0021 159.946 67.9704 160.214 68.1782L160.31 68.2536L159.024 69.1462L161.003 68.7571C161.003 68.7571 161.062 68.7487 161.156 68.7353C161.966 68.6197 164.8 68.3761 167.215 70.099C169.258 71.5541 170.272 73.3412 170.7 76.2455L170.703 76.238ZM160.984 67.7512L160.921 67.6888C160.318 67.0905 159.774 67.1325 158.935 67.2521L158.598 67.3002C158.121 67.3681 157.524 67.4425 156.726 67.4673C155.223 67.5104 153.331 67.2384 152.865 65.6833C152.506 64.4905 153.125 62.8021 154.367 61.5807L154.522 61.4266L154.518 61.6446C154.499 62.4315 154.601 63.5183 155.199 64.2278C155.613 64.7176 156.212 64.9636 156.94 64.9382C157.088 64.9314 157.243 64.92 157.389 64.8992C158.008 64.8109 158.521 64.5953 158.933 64.426C159.292 64.2751 159.567 64.168 159.825 64.1313C160.121 64.0892 160.381 64.1483 160.671 64.3171C161.307 64.6934 161.687 65.3164 161.714 66.0254C161.737 66.6387 161.498 67.2287 161.046 67.6889L160.984 67.7512ZM158.911 67.0809C159.777 66.9574 160.358 66.9244 160.98 67.5022C161.361 67.0879 161.56 66.5677 161.541 66.0323C161.516 65.3836 161.168 64.813 160.583 64.4723C160.087 64.1795 159.72 64.2889 158.999 64.5912C158.577 64.7655 158.055 64.9861 157.411 65.0778C157.258 65.0997 157.1 65.115 156.945 65.1194C156.164 65.1452 155.512 64.8817 155.063 64.3469C154.482 63.6599 154.343 62.6569 154.34 61.8625C153.261 63.0107 152.716 64.5675 153.035 65.634C153.469 67.0834 155.28 67.3348 156.722 67.2931C157.51 67.2698 158.1 67.1965 158.573 67.129L158.911 67.0809Z" fill="#0B0B0B"/>
<path d="M195.187 68.3952L172.046 68.3051L172.284 69.9748L193.862 70.0596C194.545 73.3268 196.144 82.704 194.964 94.2418C194.102 102.637 191.952 110.492 188.572 117.586C184.49 126.155 178.583 133.644 171.009 139.856C162.023 136.016 154.274 130.495 147.971 123.435C142.746 117.587 138.485 110.663 135.308 102.865C130.922 92.0961 129.822 82.5692 129.562 79.2275L150.254 73.1195L150.016 71.4498L127.822 78.0036C127.822 78.0036 129.071 124.43 171.287 141.784C206.968 113.323 195.195 68.3977 195.195 68.3977L195.187 68.3952Z" fill="#0B0B0B"/>
<path d="M172.441 88.7745L164.672 94.6437L155.573 91.1794L152.089 95.6467L152.263 95.6503C153.861 95.7005 157.135 96.0321 160.599 97.6196C160.589 97.5532 160.587 97.4894 160.588 97.4215C157.248 95.9054 154.095 95.5495 152.441 95.4823L155.635 91.3915L164.705 94.8458L172.447 88.9945L176.657 92.0297C175.058 92.5677 172.043 93.8281 169.213 96.313C169.281 96.321 169.351 96.3361 169.421 96.3546C172.303 93.8622 175.359 92.6353 176.875 92.1411L177.042 92.0889L172.447 88.7735L172.441 88.7745Z" fill="#0B0B0B"/>
<path d="M183.951 96.1756C183.659 95.0302 182.884 94.0751 181.824 93.5598C181 93.157 180.16 92.799 179.308 92.475L172.478 87.5466L172.427 87.5077L164.511 93.4906L155.239 89.9583L149.942 96.7476L149.983 96.7417C149.308 97.2585 148.647 97.8018 148.012 98.3771C147.138 99.1682 146.661 100.302 146.701 101.483C146.742 102.664 147.296 103.761 148.224 104.495C149.076 105.165 150.176 105.464 151.248 105.311C151.477 105.279 151.704 105.225 151.921 105.155L152.166 105.526C152.211 105.466 152.263 105.412 152.313 105.359C152.184 104.704 152.372 103.985 152.928 103.575C152.968 103.334 153.061 103.089 153.218 102.849C153.265 102.778 153.315 102.707 153.362 102.636C153.11 102.861 152.859 103.093 152.616 103.331C152.404 103.539 152.166 103.708 151.907 103.834C151.904 103.835 151.897 103.836 151.894 103.84C151.638 103.965 151.363 104.051 151.074 104.092C150.322 104.199 149.577 103.999 148.981 103.528C148.34 103.021 147.955 102.263 147.927 101.444C147.899 100.624 148.231 99.8392 148.835 99.2934C149.891 98.3338 151.013 97.4645 152.186 96.6771C153.548 96.7217 156.251 96.9779 159.207 98.1424C159.295 98.112 159.381 98.0892 159.469 98.0588C156.586 96.8874 153.915 96.5803 152.439 96.5092C152.685 96.3458 152.932 96.1823 153.183 96.0288L151.044 95.9667C150.835 96.1142 150.628 96.2612 150.423 96.4152L155.295 90.1714L164.537 93.6937L172.426 87.7287L178.702 92.2549C178.623 92.2269 178.544 92.1954 178.462 92.1679L176.447 92.8224C176.636 92.8774 176.822 92.9399 177.011 92.995C175.617 93.4718 173.06 94.5385 170.557 96.5312C170.659 96.5238 170.761 96.5164 170.863 96.509C173.433 94.5138 176.022 93.4996 177.301 93.082C178.658 93.5123 179.992 94.0348 181.285 94.663C182.022 95.0214 182.556 95.6795 182.758 96.474C182.96 97.2685 182.802 98.1036 182.329 98.7698C181.888 99.3886 181.228 99.7892 180.477 99.8964C180.188 99.9376 179.903 99.9318 179.619 99.8832C179.616 99.8837 179.609 99.8847 179.605 99.8817C179.32 99.8296 179.044 99.7335 178.783 99.5961C178.022 99.1913 177.244 98.8389 176.451 98.5279C176.457 98.5698 176.46 98.6157 176.459 98.6586C176.785 99.0291 176.946 99.5622 176.906 100.053C177.342 100.247 177.777 100.456 178.203 100.684C178.38 100.776 178.558 100.858 178.742 100.924L178.567 101.491C178.567 101.491 178.579 101.5 178.586 101.502C178.964 101.834 179.255 102.259 179.468 102.735L179.957 101.154C180.185 101.16 180.417 101.149 180.647 101.116C181.719 100.963 182.695 100.368 183.322 99.4871C184.009 98.5267 184.234 97.3184 183.943 96.1696L183.951 96.1756Z" fill="#0B0B0B"/>
<path d="M154.401 115.422C154.774 115.604 155.112 115.777 155.457 115.934C156.251 116.299 157.087 116.436 157.96 116.383C158.604 116.345 159.216 116.204 159.814 115.969C159.905 115.935 160.021 115.947 160.122 115.961C161.625 116.195 163.126 116.463 164.596 116.866C165.524 117.122 166.446 117.393 167.357 117.706C168.645 118.149 169.889 118.706 171.075 119.382C171.199 119.453 171.276 119.449 171.39 119.351C172.524 118.391 173.6 117.371 174.592 116.264C175.26 115.517 175.89 114.735 176.426 113.886C176.472 113.811 176.584 113.753 176.675 113.74C177.541 113.616 178.354 113.34 179.072 112.828C179.414 112.583 179.719 112.283 180.038 112.009C180.073 111.979 180.111 111.949 180.171 111.894L180.755 115.991C181.234 115.962 181.664 116.065 182.043 116.332C182.679 116.786 182.968 117.422 182.922 118.195C182.858 119.313 182.535 120.357 181.931 121.302C181.241 122.384 180.303 123.18 179.119 123.659C178.713 123.824 178.279 123.947 177.848 124.008C171.914 124.865 165.979 125.718 160.037 126.547C158.503 126.763 157.096 126.361 155.835 125.457C154.728 124.663 153.966 123.603 153.527 122.315C153.16 121.234 153.705 120.03 154.864 119.694C155.007 119.652 154.988 119.569 154.974 119.471C154.793 118.2 154.611 116.925 154.43 115.653C154.421 115.587 154.411 115.52 154.396 115.412L154.401 115.422ZM168.697 123.495C171.658 123.073 174.624 122.661 177.582 122.218C178.003 122.158 178.437 122.014 178.808 121.807C180.26 121.005 180.993 119.728 181.117 118.082C181.132 117.884 181.034 117.794 180.839 117.822C178.814 118.111 176.792 118.399 174.767 118.688C174.701 118.697 174.629 118.736 174.579 118.782C173.683 119.573 172.796 120.373 171.897 121.161C171.566 121.454 171.214 121.479 170.833 121.245C170.012 120.738 169.157 120.297 168.269 119.921C168.058 119.833 167.824 119.688 167.619 119.718C163.563 120.278 159.51 120.859 155.461 121.437C155.255 121.466 155.196 121.571 155.263 121.772C155.605 122.749 156.196 123.531 157.065 124.099C157.915 124.658 158.849 124.885 159.848 124.746C162.8 124.336 165.746 123.909 168.696 123.488L168.697 123.495Z" fill="#0B0B0B"/>
<path d="M176.566 112.732C175.497 112.899 174.52 112.643 173.591 112.13C173.125 111.872 172.648 111.666 172.095 111.695C171.341 111.734 170.715 112.027 170.193 112.575C169.647 113.149 169.017 113.616 168.244 113.844C166.98 114.213 165.751 114.16 164.578 113.501C164.192 113.285 163.802 113.066 163.355 113.019C162.444 112.928 161.672 113.216 161.037 113.891C160.501 114.46 159.877 114.916 159.12 115.138C157.898 115.501 156.702 115.479 155.552 114.859C155.299 114.724 155.042 114.593 154.777 114.477C154.367 114.293 153.939 114.276 153.497 114.336C153.051 114.399 152.654 114.178 152.451 113.775C152.149 113.173 152.543 112.429 153.236 112.331C154.189 112.195 155.098 112.347 155.958 112.801C156.273 112.967 156.587 113.154 156.923 113.248C157.767 113.488 158.561 113.357 159.254 112.788C159.664 112.448 160.043 112.069 160.469 111.748C160.934 111.397 161.475 111.209 162.047 111.092C162.707 110.959 163.358 110.944 164.01 111.09C164.582 111.215 165.09 111.489 165.597 111.759C166.327 112.15 167.067 112.134 167.818 111.848C168.249 111.687 168.56 111.354 168.878 111.041C169.526 110.411 170.262 109.967 171.163 109.789C172.012 109.621 172.843 109.624 173.655 109.94C174.031 110.086 174.394 110.269 174.751 110.457C175.666 110.947 176.832 110.809 177.614 110.117C178.026 109.751 178.439 109.386 178.879 109.056C179.279 108.753 179.754 108.599 180.244 108.498C180.502 108.443 180.752 108.375 181.022 108.451C181.447 108.568 181.749 108.921 181.775 109.349C181.804 109.801 181.553 110.211 181.127 110.357C180.921 110.429 180.696 110.45 180.485 110.509C180.02 110.636 179.665 110.936 179.332 111.265C178.778 111.811 178.175 112.289 177.416 112.515C177.133 112.598 176.846 112.653 176.558 112.723L176.566 112.732Z" fill="#0B0B0B"/>
<path d="M168.331 101.083C168.197 100.592 168.663 100.027 169.156 99.9706C169.687 99.9091 170.194 100.279 170.269 100.81C170.347 101.355 169.978 101.831 169.442 101.926C168.887 102.023 168.348 101.572 168.335 101.082L168.331 101.083Z" fill="#0B0B0B"/>
<path d="M158.125 106.683C157.571 106.762 157.11 106.411 157.029 105.848C156.952 105.303 157.318 104.813 157.858 104.736C158.404 104.658 158.898 105.037 158.973 105.586C159.046 106.127 158.678 106.604 158.124 106.68L158.125 106.683Z" fill="#0B0B0B"/>
<path d="M173.771 104.452C173.231 104.529 172.729 104.166 172.662 103.619C172.587 103.024 173.023 102.57 173.5 102.505C174.044 102.431 174.541 102.806 174.615 103.355C174.696 103.917 174.267 104.42 173.77 104.449L173.771 104.452Z" fill="#0B0B0B"/>
<path d="M165.939 105.569C165.486 105.676 164.905 105.288 164.853 104.722C164.801 104.184 165.147 103.696 165.675 103.621C166.215 103.544 166.723 103.924 166.797 104.463C166.878 105.032 166.449 105.535 165.942 105.565L165.939 105.569Z" fill="#0B0B0B"/>
<path d="M161.606 103.04C161.053 103.118 160.578 102.755 160.502 102.192C160.425 101.654 160.799 101.162 161.342 101.088C161.874 101.013 162.365 101.395 162.443 101.937C162.52 102.481 162.153 102.965 161.609 103.039L161.606 103.04Z" fill="#0B0B0B"/>
<path d="M180.789 102.985C180.543 102.104 180.022 101.365 179.481 100.655C178.8 99.7612 177.991 98.9926 177.064 98.3477C176.206 97.7537 175.289 97.275 174.308 96.9194C172.994 96.4403 171.635 96.1742 170.245 96.0553C170.245 96.0553 170.241 96.0558 170.238 96.0563C170.102 96.3466 169.89 96.6049 169.635 96.8088C169.554 96.9165 169.463 97.0187 169.347 97.1064C169.116 97.3282 168.809 97.4896 168.405 97.5472C168.353 97.5546 168.303 97.5511 168.254 97.5545C168.254 97.5545 168.254 97.5545 168.25 97.555C168.225 97.5765 168.2 97.6014 168.178 97.6223C168.444 97.6166 168.71 97.6178 168.977 97.6225C169.964 97.6493 170.943 97.7449 171.909 97.9423C173.368 98.2404 174.741 98.7574 175.989 99.5917C176.872 100.182 177.646 100.884 178.263 101.748C178.582 102.194 178.921 102.652 179.121 103.158C179.546 104.224 179.392 105.237 178.599 106.098C178.31 106.414 177.931 106.589 177.503 106.65C173.79 107.179 170.078 107.709 166.366 108.238C162.653 108.767 159.061 109.265 155.414 109.807C154.392 109.96 153.567 109.379 153.137 108.649C152.643 107.803 152.664 106.927 152.946 106.017C153.33 104.779 153.911 103.648 154.742 102.653C155.469 101.78 156.328 101.055 157.288 100.444C158.333 99.7781 159.45 99.2696 160.615 98.8789C160.95 98.7669 161.287 98.6619 161.628 98.5669C161.076 98.3285 160.545 98.0656 160.152 97.5513C160.143 97.5383 160.138 97.5284 160.129 97.5154C160.049 97.5018 159.969 97.4848 159.89 97.4568C159.865 97.4533 159.846 97.4418 159.823 97.4343C159.82 97.4348 159.813 97.4358 159.809 97.4363C159.785 97.4398 159.761 97.4432 159.736 97.4432C159.108 97.6682 158.492 97.9341 157.888 98.227C156.832 98.7411 155.846 99.3664 154.95 100.129C153.984 100.951 153.164 101.898 152.515 102.992C151.991 103.876 151.599 104.812 151.321 105.8C151.153 106.39 151.075 106.99 151.134 107.601C151.217 108.48 151.522 109.275 152.078 109.962C152.986 111.08 154.136 111.625 155.587 111.418C159.261 110.894 162.939 110.37 166.613 109.846C170.287 109.322 174.048 108.786 177.767 108.256C178.352 108.172 178.881 107.954 179.346 107.603C180.006 107.106 180.452 106.444 180.72 105.66C181.023 104.773 181.04 103.875 180.788 102.974L180.789 102.985Z" fill="#0B0B0B"/>
<path d="M136.097 89.1808L137.405 87.7468C137.892 87.2069 138.073 86.9351 138.02 86.5613C137.967 86.1876 137.687 86.0172 137.339 86.0668C136.991 86.1164 136.789 86.3413 136.513 86.7976L135.745 86.3404C136.098 85.6771 136.479 85.2877 137.272 85.1746C138.194 85.0432 138.884 85.4973 139.007 86.3351L139.009 86.3491C139.115 87.0966 138.785 87.5215 138.087 88.2484L137.44 88.9144L139.381 88.6376L139.502 89.4864L136.204 89.9567L136.093 89.1812L136.097 89.1808Z" fill="#0B0B0B"/>
<path d="M142.434 86.7979L142.432 86.7839C142.247 85.4845 142.903 84.3539 144.085 84.1853C145.268 84.0166 146.205 84.906 146.389 86.2019L146.391 86.2159C146.577 87.5153 145.928 88.6449 144.738 88.8146C143.549 88.9843 142.619 88.0938 142.434 86.7979ZM145.388 86.3733L145.386 86.3593C145.27 85.5489 144.786 84.9907 144.202 85.074C143.617 85.1573 143.319 85.8057 143.436 86.6266L143.438 86.6406C143.555 87.458 144.031 88.0102 144.622 87.9259C145.214 87.8415 145.504 87.1871 145.388 86.3733Z" fill="#0B0B0B"/>
<path d="M180.981 79.9548L180.233 80.2576L179.912 79.4799L181.138 78.9131L181.806 78.8179L182.452 83.3235L181.485 83.4614L180.981 79.9513L180.981 79.9548Z" fill="#0B0B0B"/>
<path d="M185.931 82.3534L186.339 81.5325C186.7 81.7484 186.992 81.8279 187.368 81.7744C187.914 81.6965 188.147 81.2391 188.124 80.6294C187.934 80.8453 187.653 81.0102 187.266 81.0653C186.299 81.2032 185.6 80.7575 185.471 79.8528L185.469 79.8388C185.341 78.9376 185.938 78.1752 186.94 78.0323C187.539 77.947 187.908 78.0441 188.293 78.3313C188.658 78.6036 188.936 79.0593 189.062 79.9396L189.064 79.9536C189.271 81.4032 188.733 82.4885 187.471 82.6721C186.824 82.7643 186.351 82.6108 185.934 82.3529L185.931 82.3534ZM187.974 79.4532L187.972 79.4392C187.916 79.0445 187.582 78.7998 187.092 78.8697C186.601 78.9397 186.377 79.2603 186.433 79.655L186.435 79.669C186.492 80.0637 186.823 80.298 187.307 80.229C187.791 80.1601 188.029 79.8375 187.974 79.4567L187.974 79.4532Z" fill="#0B0B0B"/>
</g>
</g>
<defs>
<filter id="filter0_dd_224_274" x="0.572266" y="0.572021" width="333.175" height="252.3" filterUnits="userSpaceOnUse" color-interpolation-filters="sRGB">
<feFlood flood-opacity="0" result="BackgroundImageFix"/>
<feColorMatrix in="SourceAlpha" type="matrix" values="0 0 0 0 0 0 0 0 0 0 0 0 0 0 0 0 0 0 127 0" result="hardAlpha"/>
<feMorphology radius="2" operator="erode" in="SourceAlpha" result="effect1_dropShadow_224_274"/>
<feOffset dy="4"/>
<feGaussianBlur stdDeviation="3"/>
<feColorMatrix type="matrix" values="0 0 0 0 0 0 0 0 0 0 0 0 0 0 0 0 0 0 0.05 0"/>
<feBlend mode="normal" in2="BackgroundImageFix" result="effect1_dropShadow_224_274"/>
<feColorMatrix in="SourceAlpha" type="matrix" values="0 0 0 0 0 0 0 0 0 0 0 0 0 0 0 0 0 0 127 0" result="hardAlpha"/>
<feMorphology radius="3" operator="erode" in="SourceAlpha" result="effect2_dropShadow_224_274"/>
<feOffset dy="10"/>
<feGaussianBlur stdDeviation="7.5"/>
<feColorMatrix type="matrix" values="0 0 0 0 0 0 0 0 0 0 0 0 0 0 0 0 0 0 0.1 0"/>
<feBlend mode="normal" in2="effect1_dropShadow_224_274" result="effect2_dropShadow_224_274"/>
<feBlend mode="normal" in="SourceGraphic" in2="effect2_dropShadow_224_274" result="shape"/>
</filter>
<clipPath id="clip0_224_274">
<rect width="87.6992" height="118.015" fill="white" transform="translate(116.032 64.9541) rotate(-8.11454)"/>
</clipPath>
</defs>
</svg>
