<svg width="48" height="48" viewBox="0 0 48 48" fill="none" xmlns="http://www.w3.org/2000/svg">
<path d="M42.5304 16.4583C42.3523 16.247 42.09 16.1249 41.8136 16.1249H39.0012V6.5625C39.0012 6.04472 38.5814 5.625 38.0637 5.625H33.3761V3.75C33.3761 3.23222 32.9563 2.8125 32.4386 2.8125H27.7511V0.9375C27.7511 0.419719 27.3313 0 26.8136 0H21.1885C20.6707 0 20.251 0.419719 20.251 0.9375V2.8125H15.5635C15.0457 2.8125 14.626 3.23222 14.626 3.75V5.625H9.93853C9.42074 5.625 9.00103 6.04472 9.00103 6.5625V16.125H6.18853C5.62434 16.1115 5.15568 16.6676 5.26462 17.2213L10.4209 47.2213C10.4982 47.6712 10.8883 48 11.3448 48H36.6572C37.1137 48 37.5037 47.6712 37.5811 47.2213L42.7374 17.2213C42.7844 16.9489 42.7087 16.6697 42.5304 16.4583ZM37.1262 7.5V16.125H33.3761V7.5H37.1262ZM16.1857 18.3729L14.9763 13.8592L18.5985 12.8886L21.3612 23.199C19.0352 22.4282 17.1226 20.6666 16.1857 18.3729ZM26.4372 8.60513L30.1262 9.27881L27.6593 22.7861C26.4615 23.3679 25.0825 23.6723 23.6951 23.6194L26.4372 8.60513ZM31.5011 12.1866V19.0553C31.071 19.8858 30.5077 20.6324 29.8422 21.2697L31.5011 12.1866ZM31.5011 4.6875V7.63172C31.4633 7.61972 31.4247 7.60997 31.3853 7.60284L27.7511 6.93919V4.6875H31.5011ZM25.8761 1.875V6.59662L25.8518 6.59222C25.3425 6.49922 24.8541 6.83663 24.7611 7.34606L22.4481 20.0111L22.126 18.8093V1.875H25.8761ZM20.251 4.6875V11.8117L20.1669 11.4977C20.1025 11.2575 19.9455 11.0527 19.7302 10.9284C19.5149 10.804 19.2591 10.7704 19.0188 10.8348L16.5011 11.5094V4.6875H20.251ZM10.8759 7.5H14.6259V12.0118L13.5852 12.2906C13.0962 12.4114 12.7823 12.9549 12.9223 13.4389L13.6422 16.125H10.8759V7.5ZM38.4373 31.1719H28.6282C27.3844 31.2215 27.3853 32.9978 28.6282 33.0469H38.115L37.1482 38.6719H28.6282C27.3843 38.7215 27.3852 40.4978 28.6282 40.5469H36.8259L35.8672 46.125H12.135L11.1762 40.5469H19.3739C20.6178 40.4974 20.6168 38.7209 19.3739 38.6719H10.8539L9.88706 33.0469H19.3739C20.6178 32.9974 20.6168 31.2209 19.3739 31.1719H9.56484L7.30096 18H14.0772C16.9908 27.94 31.0149 27.9342 33.9249 18H40.7013L38.4373 31.1719Z" fill="#0B0B0B"/>
<path fill-rule="evenodd" clip-rule="evenodd" d="M24.0012 43.3594C28.1321 43.3594 31.5013 39.9902 31.5013 35.8594C31.0776 25.9088 16.9235 25.9118 16.5012 35.8595C16.5011 39.9902 19.8703 43.3594 24.0012 43.3594Z" fill="#FFAD32"/>
</svg>
