<svg width="48" height="48" viewBox="0 0 48 48" fill="none" xmlns="http://www.w3.org/2000/svg">
<g clip-path="url(#clip0_261_50)">
<path d="M47.0625 41.4375H43.1583L45.5451 9.45493H46.3593C46.8981 9.46684 47.3577 8.95909 47.2921 8.42415L46.8711 4.21311C46.8232 3.73386 46.4199 3.36889 45.9382 3.36889H42.1335L41.8151 0.821247C41.7566 0.35203 41.3577 0 40.8849 0H24.8827C24.41 0 24.0112 0.352124 23.9525 0.821247L23.634 3.36889H19.8294C19.3477 3.36889 18.9445 3.73386 18.8965 4.21311L18.4753 8.42415C18.449 8.68778 18.5353 8.95009 18.7131 9.1465C18.8908 9.3429 19.1433 9.45493 19.4082 9.45493H20.2226L20.9364 19.0182C20.9731 19.5358 21.4315 19.9238 21.941 19.8835C22.4573 19.8449 22.8446 19.3951 22.8061 18.8787L22.1028 9.45493H25.9953L26.3556 18.8846C26.3744 19.4026 26.8147 19.8064 27.3283 19.7856C27.8457 19.7658 28.2491 19.3303 28.2293 18.8129L27.8717 9.45493H31.9464V19.03C31.996 20.2738 33.7723 20.2729 33.8214 19.03V9.45493H37.8961L36.6735 41.4375H34.0356C34.3352 40.906 34.5063 40.2927 34.5063 39.6403V38.2728C34.5063 36.2479 32.859 34.6006 30.8341 34.6006H5.05911C3.03421 34.6006 1.38684 36.2479 1.38684 38.2728V39.6403C1.38684 40.2927 1.55793 40.9059 1.85756 41.4375H0.937496C0.419717 41.4375 0 41.8573 0 42.375V44.7188C0 46.528 1.47196 48 3.28124 48H44.7188C46.528 48 48 46.528 48 44.7188V42.375C48 41.8572 47.5803 41.4375 47.0625 41.4375ZM20.6779 5.24389H26.6514C27.8953 5.19439 27.8944 3.41802 26.6514 3.36889H25.5236L25.7105 1.87499H40.0573L40.2441 3.36889H34.6104C33.3665 3.41839 33.3675 5.19476 34.6104 5.24389H45.0898L45.3234 7.57994H20.4443L20.6779 5.24389ZM39.7724 9.45493H43.6649L41.2782 41.4375H38.5498L39.7724 9.45493ZM3.26183 39.6403V38.2728C3.26183 37.2818 4.06808 36.4755 5.05911 36.4755H30.834C31.825 36.4755 32.6312 37.2818 32.6312 38.2728V39.6403C32.6312 40.6313 31.825 41.4375 30.834 41.4375H5.05911C4.06808 41.4375 3.26183 40.6313 3.26183 39.6403ZM46.125 44.7188C46.125 45.4942 45.4942 46.125 44.7188 46.125H3.28124C2.50583 46.125 1.87499 45.4942 1.87499 44.7188V43.3125H46.125V44.7188Z" fill="#0B0B0B"/>
<path fill-rule="evenodd" clip-rule="evenodd" d="M38.5301 21.6743C36.6703 18.7292 32.4382 17.6744 29.3826 19.5167C31.824 20.6539 33.527 23.134 33.527 25.9924C33.527 27.5628 32.2422 28.8476 30.6716 28.8476C32.5461 28.8476 34.095 30.3121 34.2308 32.1534C35.8445 31.8136 37.2488 30.9059 38.2252 29.6491C39.9988 27.4736 40.1397 23.9924 38.5301 21.6743Z" fill="#FFAD32"/>
<path fill-rule="evenodd" clip-rule="evenodd" d="M27.8096 28.7012H8.08374L16.0831 36.7005C17.108 37.7255 18.7853 37.7255 19.8103 36.7005L27.8096 28.7012Z" fill="#FFAD32"/>
<path d="M33.3937 28.5972C34.0797 27.9296 34.5064 26.9969 34.5064 25.9664C34.5064 21.6796 31.0188 18.192 26.7319 18.192H9.16105C4.87416 18.192 1.38658 21.6796 1.38658 25.9664C1.38658 26.9969 1.81323 27.9296 2.4992 28.5972C-0.872318 31.0578 0.83102 36.4475 5.05913 36.4755C5.57681 36.4755 5.99653 36.0558 5.99653 35.538C5.99653 35.0203 5.57681 34.6005 5.05903 34.6005C1.76739 34.4641 1.76908 29.7742 5.05903 29.6387H30.8339C34.1263 29.7755 34.1233 34.4651 30.8339 34.6005C30.3161 34.6005 29.8964 35.0203 29.8964 35.538C29.8964 36.0558 30.3161 36.4755 30.8339 36.4755C35.0632 36.4473 36.7645 31.0561 33.3937 28.5972ZM5.05885 27.7637C4.06782 27.7637 3.26148 26.9573 3.26148 25.9663C3.26148 22.7134 5.90794 20.0669 9.16096 20.0669H26.7319C29.9848 20.0669 32.6314 22.7134 32.6314 25.9663C32.6314 26.9573 31.8251 27.7637 30.8341 27.7637H5.05885Z" fill="#0B0B0B"/>
</g>
<defs>
<clipPath id="clip0_261_50">
<rect width="48" height="48" fill="white"/>
</clipPath>
</defs>
</svg>
