<svg width="340" height="252" viewBox="0 0 340 252" fill="none" xmlns="http://www.w3.org/2000/svg">
<g filter="url(#filter0_dd_224_278)">
<rect x="33.4453" width="288" height="192.722" rx="12" transform="rotate(4.00049 33.4453 0)" fill="#FCFCFC"/>
<path fill-rule="evenodd" clip-rule="evenodd" d="M91.3333 22.4996L260.287 34.3154C259.175 50.2221 271.226 64.023 287.203 65.1404L280.355 163.067C264.377 161.949 250.523 173.939 249.41 189.845L80.4562 178.029C81.5687 162.123 69.5179 148.322 53.5403 147.204L60.3889 49.2775C76.3664 50.3949 90.2208 38.4062 91.3333 22.4996Z" fill="#FFAD32"/>
<g clip-path="url(#clip0_224_278)">
<path d="M136.911 158.299L140.788 158.57L140.717 159.594L137.958 159.401L137.882 160.489L140.311 160.659L140.24 161.679L137.81 161.51L137.672 163.488L136.55 163.409L136.908 158.295L136.911 158.299Z" fill="#0B0B0B"/>
<path d="M145.759 158.882L146.793 158.955L148.614 164.257L147.443 164.175L147.057 162.995L144.904 162.844L144.357 163.959L143.215 163.879L145.755 158.882L145.759 158.882ZM146.73 161.974L146.169 160.269L145.377 161.88L146.73 161.974Z" fill="#0B0B0B"/>
<path d="M152.67 159.401L153.792 159.479L153.506 163.569L156.044 163.747L155.972 164.771L152.312 164.515L152.67 159.401Z" fill="#0B0B0B"/>
<path d="M161.833 160.006L162.868 160.079L164.688 165.381L163.517 165.299L163.131 164.119L160.978 163.968L160.432 165.083L159.289 165.003L161.83 160.006L161.833 160.006ZM162.801 163.098L162.24 161.393L161.448 163.003L162.801 163.098Z" fill="#0B0B0B"/>
<path d="M169.201 161.601L167.652 161.492L167.724 160.454L171.945 160.749L171.873 161.787L170.323 161.679L170.038 165.755L168.916 165.677L169.201 161.601Z" fill="#0B0B0B"/>
<path d="M175.092 163.555L175.093 163.541C175.195 162.087 176.421 160.977 177.992 161.087C179.562 161.197 180.609 162.451 180.507 163.905L180.506 163.919C180.405 165.373 179.178 166.483 177.608 166.373C176.037 166.263 174.991 165.008 175.092 163.555ZM179.334 163.851L179.335 163.837C179.397 162.961 178.806 162.187 177.905 162.124C177.004 162.061 176.326 162.732 176.265 163.608L176.264 163.622C176.203 164.499 176.793 165.276 177.694 165.339C178.595 165.402 179.273 164.728 179.334 163.851Z" fill="#0B0B0B"/>
<path d="M183.886 165.864L186.917 162.786L184.203 162.597L184.272 161.611L188.426 161.902L188.367 162.757L185.336 165.835L188.138 166.03L188.069 167.016L183.827 166.719L183.886 165.864Z" fill="#0B0B0B"/>
<path d="M191.742 164.719L191.743 164.705C191.844 163.251 193.071 162.141 194.641 162.251C196.212 162.361 197.258 163.616 197.157 165.069L197.156 165.083C197.054 166.537 195.828 167.647 194.257 167.537C192.687 167.427 191.64 166.173 191.742 164.719ZM195.98 165.015L195.981 165.001C196.043 164.125 195.452 163.351 194.551 163.288C193.65 163.225 192.972 163.896 192.911 164.772L192.91 164.787C192.849 165.663 193.439 166.44 194.34 166.503C195.241 166.566 195.919 165.892 195.98 165.015ZM195.169 160.746L196.094 161.228L195.054 161.891L194.209 161.832L195.169 160.746Z" fill="#0B0B0B"/>
<path d="M125.412 150.594L124.16 150.156C123.894 149.975 123.906 149.809 124.641 149.277L124.716 149.212C125.259 148.804 125.593 148.36 125.695 147.851C125.824 147.323 125.984 145.742 126.171 143.064L126.557 137.544L126.27 137.312C126.022 137.178 125.886 137.169 125.63 137.151C124.852 137.284 124.782 137.279 124.82 136.744C124.838 136.487 124.943 136.286 125.141 136.133C125.312 136.004 125.776 135.711 126.531 135.247C127.65 134.554 128.279 134.223 128.446 134.21C128.656 134.225 128.897 134.405 129.201 134.755C129.526 135.082 129.759 135.427 129.898 135.762L130.134 136.362L129.783 141.042C129.541 144.138 129.378 145.813 129.245 146.059C129.053 146.795 127.397 148.154 127.789 148.182C127.97 148.265 128.722 148.505 130.071 148.904L132.288 149.55C132.449 149.562 132.643 149.458 132.917 149.219C133.313 148.897 133.334 148.898 133.719 149.088C133.967 149.222 134.048 149.369 134.014 149.554C133.976 149.739 133.702 150.328 133.189 151.322L133.187 151.346C132.675 152.319 132.338 152.808 132.175 152.821C132.012 152.835 130.689 152.413 128.159 151.557C127.115 151.18 126.204 150.858 125.405 150.593L125.412 150.594Z" fill="#0B0B0B"/>
<path d="M134.662 150.353C134.571 149.996 134.532 149.548 134.542 149.057C134.551 148.566 134.633 147.401 134.758 145.609L134.898 143.607C134.958 142.744 135.084 141.607 135.175 141.309C135.211 141.149 135.291 140.967 135.4 140.763C135.618 140.311 135.739 140.249 136.135 139.926C137.328 138.885 139.377 138.098 140.706 137.94C143.04 137.664 142.058 142.438 142.534 143.642C142.695 144.003 143.002 143.791 143.155 143.919C143.375 144.097 143.481 144.246 143.396 144.452C143.362 144.591 143.214 144.743 142.899 144.909L140.732 145.882L137.752 147.134L137.802 146.409C137.701 147.853 137.661 148.787 137.679 149.188C137.721 149.587 137.84 149.903 138.029 150.171C138.565 150.817 139.507 150.695 140.897 149.809C141.849 149.197 142.18 149.149 142.426 149.612C142.671 150.096 142.447 150.317 140.361 151.48C138.614 152.483 137.366 152.65 136.093 152.165C135.345 151.879 134.872 151.284 134.659 150.356L134.662 150.353ZM139.068 145.387C139.476 145.204 139.863 144.997 139.894 144.907C139.927 144.793 140.142 141.013 140.035 140.584C139.95 140.133 139.829 139.845 139.723 139.696C139.485 139.421 138.684 139.492 138.453 139.83C138.277 140.026 138.23 140.352 138.171 141.19C138.12 141.911 137.873 145.806 137.918 145.809L139.068 145.387Z" fill="#0B0B0B"/>
<path d="M156.101 151.852C156.01 151.496 155.97 151.047 155.98 150.556C155.99 150.065 156.071 148.9 156.197 147.109L156.337 145.106C156.397 144.243 156.522 143.106 156.614 142.808C156.649 142.648 156.729 142.466 156.839 142.262C157.057 141.81 157.177 141.748 157.573 141.425C158.767 140.384 160.816 139.597 162.144 139.439C164.478 139.164 163.496 143.937 163.972 145.141C164.134 145.503 164.441 145.291 164.594 145.418C164.814 145.596 164.92 145.745 164.835 145.951C164.801 146.09 164.652 146.243 164.338 146.408L162.17 147.381L159.19 148.634L159.241 147.909C159.14 149.352 159.099 150.286 159.117 150.687C159.16 151.086 159.278 151.402 159.467 151.67C160.004 152.316 160.946 152.195 162.336 151.308C163.288 150.696 163.619 150.648 163.865 151.111C164.109 151.595 163.886 151.817 161.8 152.979C160.053 153.982 158.804 154.149 157.531 153.664C156.783 153.378 156.311 152.783 156.097 151.855L156.101 151.852ZM160.507 146.887C160.914 146.703 161.302 146.496 161.333 146.407C161.366 146.292 161.581 142.512 161.473 142.084C161.388 141.632 161.268 141.344 161.162 141.195C160.924 140.92 160.123 140.992 159.891 141.329C159.715 141.526 159.668 141.851 159.609 142.689C159.559 143.411 159.311 147.305 159.357 147.308L160.507 146.887Z" fill="#0B0B0B"/>
<path d="M143.948 154.652C143.433 154.008 143.257 153.55 143.412 153.303C143.492 153.167 143.86 152.888 144.497 152.441C145.159 151.996 145.501 151.74 145.576 151.675C145.651 151.609 145.504 151.391 145.11 150.988C144.72 150.565 144.446 150.146 144.288 149.735C144.169 149.423 144.099 149.113 144.099 148.763C144.099 148.413 144.169 147.41 144.283 145.78C144.41 143.964 144.519 142.755 144.627 142.175C144.739 141.575 144.963 141.053 145.272 140.604C146.111 139.283 147.956 138.546 149.814 138.676C150.258 138.682 151.06 138.855 152.272 139.198C153.485 139.541 154.337 139.692 154.873 139.684C155.67 139.623 155.692 139.67 155.788 139.96C155.916 140.436 155.767 140.613 155.165 140.854L155.092 140.895C154.686 141.054 154.427 141.386 154.322 141.87C154.218 142.354 154.085 143.962 153.891 146.732L153.467 152.789L152.954 153.478C152.62 153.922 152.245 154.295 151.825 154.616C151.456 154.895 150.876 155.183 150.131 155.506C149.386 155.829 148.765 156.043 148.27 156.125C147.396 156.277 146.19 156.192 145.462 155.929C144.961 155.731 144.454 155.321 143.941 154.652L143.948 154.652ZM150.237 153.08C150.356 152.384 150.516 150.408 150.725 147.122C150.894 144.347 150.992 142.645 151.011 142.017C151.031 141.385 151.014 140.963 150.913 140.747C150.734 140.289 150.336 139.982 149.766 139.825C149.195 139.669 148.723 139.728 148.305 140.052C148.082 140.224 147.89 140.656 147.769 141.373C147.65 142.068 147.562 143.325 147.458 145.168C147.38 146.637 147.337 147.547 147.338 147.897C147.338 148.247 147.409 148.535 147.507 148.796C147.91 149.691 148.407 149.935 149.272 149.553L149.73 149.352L149.921 149.644C150.022 149.864 150.084 149.985 150.079 150.052C150.068 150.214 149.329 150.749 147.847 151.65L146.311 152.596L146.496 152.984C146.929 154.139 147.658 154.703 148.562 154.766C149.004 154.797 149.214 154.766 149.512 154.529C149.881 154.25 150.125 153.776 150.244 153.08L150.237 153.08Z" fill="#0B0B0B"/>
<path d="M166.273 148.514C166.543 144.646 166.638 142.64 166.579 142.473C166.437 142.183 166.022 142.13 165.379 142.297C164.923 142.477 164.819 142.304 164.739 141.785C164.693 141.432 164.721 141.388 165.174 141.207C165.394 141.081 166.58 140.743 167.605 140.44C167.63 140.442 167.651 140.443 167.677 140.42C168.794 140.123 169.433 140.005 169.615 140.064C169.798 140.123 169.889 140.479 169.868 141.136C169.866 141.16 169.865 141.182 169.888 141.208C169.87 141.815 169.87 142.119 169.894 142.121C169.919 142.123 170.856 141.721 171.987 141.213C172.851 140.853 173.452 140.612 173.809 140.499C174.166 140.382 174.474 140.312 174.777 140.308C175.595 140.295 175.977 140.484 176.234 141.135C176.314 141.304 176.355 141.727 176.335 142.359C176.316 142.991 176.228 144.552 176.079 147.024L176.029 147.746C175.85 150.659 175.804 152.272 175.902 152.583C175.957 152.799 176.142 152.833 176.407 152.71C176.434 152.687 176.554 152.628 176.626 152.609C177.278 152.304 177.527 152.367 177.661 152.822C177.716 153.039 177.679 153.22 177.506 153.374C177.356 153.505 176.893 153.777 176.096 154.188C173.992 155.258 173.109 155.242 172.688 154.254C172.612 154.036 172.569 153.637 172.587 153.03C172.605 152.423 172.711 150.909 172.879 148.509C173.126 144.968 173.213 143.078 173.157 142.862C173.061 142.576 172.995 142.522 172.527 142.56C172.177 142.581 171.629 142.755 170.879 143.099L169.792 143.631L169.468 147.917L169.143 152.202L169.476 152.133C169.663 152.122 169.999 152.007 170.212 151.927C170.714 151.75 170.957 151.954 170.92 152.493L170.892 152.887L168.527 153.705C166.257 154.483 165.83 154.591 165.868 154.406C165.848 154.334 165.985 152.377 166.28 148.514L166.273 148.514Z" fill="#0B0B0B"/>
<path d="M178.498 153.747C178.404 153.437 178.337 153.032 178.35 152.542C178.36 152.051 178.456 150.678 178.617 148.369L178.948 143.642L179.393 142.923C180.45 141.147 181.818 140.588 183.206 141.386C183.454 141.52 183.871 141.899 184.412 142.478C184.953 143.054 185.232 143.402 185.224 143.518C185.219 143.589 185.116 143.744 184.937 143.944C184.761 144.144 184.639 144.227 184.569 144.222C184.498 144.217 184.303 144.041 183.952 143.712C183.604 143.359 183.384 143.181 183.268 143.173C182.991 143.153 182.39 143.745 182.168 144.242C182.08 144.494 181.922 145.746 181.72 147.978C181.518 150.209 181.424 151.561 181.461 152.031C181.507 152.384 181.626 152.696 181.818 152.922C182.033 153.171 182.292 153.243 182.596 153.139C182.905 153.044 183.342 152.795 183.903 152.435L184.758 151.886L185.532 140.823L185.257 140.429C185.064 140.158 184.797 140.001 184.499 139.931C184.246 139.867 184.09 139.785 184.072 139.688C184.051 139.641 184.057 139.546 184.065 139.43C184.091 139.057 184.138 139.039 184.61 139.001L186.8 138.663C187.579 138.505 188.052 138.446 188.239 138.434C188.451 138.424 188.586 138.459 188.675 138.557C188.74 138.632 188.789 138.94 188.72 139.918C188.724 140.222 188.693 140.666 188.652 141.247C188.593 142.438 188.526 143.696 188.368 145.956C188.056 150.78 187.974 153.254 188.106 153.38C188.304 153.581 188.369 153.61 188.97 153.369C189.591 153.154 189.617 153.135 189.761 153.4C190.054 153.887 189.894 154.159 189.023 154.636C187.641 155.406 186.656 155.782 186.074 155.788C185.608 155.801 185.284 155.757 185.105 155.649C184.771 155.438 184.559 154.79 184.606 154.114C184.627 153.812 184.6 153.552 184.573 153.575C184.549 153.573 184.089 153.845 183.574 154.209C182.963 154.633 182.451 154.951 181.995 155.127C181.253 155.404 180.199 155.469 179.7 155.246C179.158 154.996 178.748 154.501 178.499 153.733L178.498 153.747Z" fill="#0B0B0B"/>
<path d="M190.96 154.944C190.808 154.442 190.779 153.552 190.872 152.222C190.965 150.891 191.066 150.106 191.202 149.811C191.489 149.036 192.389 148.515 195.2 147.304L197.797 146.198L197.846 145.497C197.909 144.589 197.72 143.968 197.31 143.844C196.808 143.667 196.31 143.774 194.638 144.361C193.66 144.688 193.064 144.859 192.898 144.918C192.731 144.977 192.616 144.969 192.549 144.918C192.464 144.82 192.477 144.634 192.402 144.346C192.405 143.95 192.438 143.832 192.8 143.648C193.359 143.313 195.772 142.498 196.861 142.249C198.378 141.909 199.472 141.94 200.12 142.289C200.145 142.291 200.166 142.292 200.189 142.319C200.637 142.562 200.895 142.906 200.93 143.4C200.966 143.894 200.901 145.481 200.737 148.186L200.709 148.58C200.491 152.053 200.385 153.87 200.417 154.06C200.465 154.392 200.812 154.417 201.436 154.156C202.06 153.896 202.316 153.913 202.373 154.409C202.492 154.722 202.368 154.83 202.023 155.088C201.702 155.345 201.072 155.676 200.158 156.058C199.268 156.441 198.673 156.633 198.369 156.658C197.901 156.696 197.788 156.642 197.505 156.364C197.198 156.063 197.185 155.946 197.187 155.267C197.195 154.8 197.172 154.47 197.151 154.468C197.13 154.467 196.571 154.757 195.965 155.11C194.024 156.216 192.955 156.492 192.05 156.078C191.486 155.827 191.115 155.45 190.963 154.948L190.96 154.944ZM197.319 152.98L197.501 150.372C197.64 148.394 197.637 147.782 197.542 147.775C197.381 147.764 196.826 147.983 195.937 148.413C195.047 148.842 194.559 149.112 194.432 149.266C194.305 149.42 194.198 149.6 194.159 149.855C194.118 150.086 194.079 150.646 194.017 151.529C193.815 154.419 194.012 154.62 196.111 153.571L197.319 152.977L197.319 152.98ZM197.421 141.237L196.843 141.197L197.532 138.603L200.014 138.777L197.421 141.237Z" fill="#0B0B0B"/>
<path d="M204.38 156.187C203.569 155.451 203.596 155.407 203.212 155.568C203.019 155.646 202.93 155.619 202.757 155.419C202.607 155.246 202.522 155.099 202.557 154.96C202.566 154.819 202.964 154.472 203.751 153.897C204.539 153.319 205.001 153.047 205.163 153.059C205.324 153.07 205.631 153.371 206.1 153.966C207.061 155.229 207.568 155.636 208.217 155.681C208.564 155.705 208.851 155.633 209.071 155.461C209.416 155.206 209.487 154.857 209.286 154.401C209.107 153.943 208.512 153.13 207.547 151.917C205.848 149.856 204.96 148.552 204.544 147.494C204.225 146.722 204.192 146.532 204.293 146.097C204.459 145.384 204.927 144.691 205.696 144.02C206.664 143.175 207.645 142.798 208.669 142.87C209.621 142.911 210.045 143.199 210.703 144.112C211.042 144.602 211.192 144.779 211.538 144.825C211.927 144.898 211.95 144.924 211.924 145.297C211.898 145.67 211.896 145.692 210.548 146.276L209.2 146.861L208.903 146.42C208.692 146.125 208.459 145.78 208.227 145.414C207.785 144.728 207.365 144.395 206.944 144.411C206.711 144.42 206.561 144.547 206.519 144.849C206.387 145.377 206.847 146.159 208.506 148.125C209.754 149.616 210.586 150.729 210.998 151.482C211.435 152.238 211.621 152.905 211.556 153.534C211.492 154.442 211.068 155.162 210.074 156.03C208.682 157.245 206.974 157.684 205.613 157.147C205.274 157.007 204.854 156.673 204.373 156.194L204.38 156.187Z" fill="#0B0B0B"/>
<path d="M164.694 73.8723L164.286 78.2356L164.461 78.252L164.869 73.8887L164.694 73.8723Z" fill="#0B0B0B"/>
<path d="M164.275 73.8336L163.869 78.197L164.88 78.2913L165.286 73.9279L164.275 73.8336Z" fill="#0B0B0B"/>
<path d="M164.962 78.3886L163.776 78.2773L164.199 73.7371L165.386 73.8484L164.962 78.3886ZM163.967 78.1174L164.803 78.1971L165.191 74.0081L164.355 73.9319L163.967 78.1209L163.967 78.1174Z" fill="#0B0B0B"/>
<path d="M165.323 66.2323L164.31 66.1614C164.552 62.7014 165.664 60.7065 167.698 59.0272C170.647 56.5948 174.341 57.03 174.494 57.0513L174.367 58.0646C174.332 58.0622 170.939 57.6692 168.332 59.825C166.53 61.3189 165.544 63.068 165.323 66.2323Z" fill="#0B0B0B"/>
<path d="M165.404 66.3263L164.216 66.2432L164.222 66.1552C164.453 62.8572 165.444 60.7724 167.642 58.9596C170.218 56.8371 173.354 56.876 174.256 56.9391C174.399 56.9491 174.487 56.9588 174.507 56.9638L174.595 56.9699L174.445 58.162L174.357 58.1558C174.357 58.1558 174.302 58.1449 174.21 58.1385C173.639 58.0985 170.68 57.9942 168.387 59.8924C166.477 61.4742 165.615 63.3099 165.411 66.2383L165.404 66.3263ZM164.404 66.0795L165.241 66.1381C165.461 63.2071 166.344 61.3553 168.277 59.7574C170.562 57.8692 173.406 57.9054 174.223 57.9625C174.247 57.9642 174.272 57.9659 174.289 57.9672L174.394 57.1291C173.799 57.0734 170.456 56.8679 167.749 59.0979C165.61 60.8619 164.637 62.8877 164.4 66.0792L164.404 66.0795Z" fill="#0B0B0B"/>
<path d="M166.676 67.7879L165.663 67.717L165.362 72.0288L166.375 72.0997L166.676 67.7879Z" fill="#0B0B0B"/>
<path d="M166.456 72.1937L165.268 72.1106L165.582 67.6228L166.77 67.7059L166.456 72.1937ZM165.455 71.9468L166.293 72.0054L166.582 67.8697L165.745 67.8111L165.455 71.9468Z" fill="#0B0B0B"/>
<path d="M168.975 68.3201L167.961 68.2493L167.566 73.9056L168.579 73.9765L168.975 68.3201Z" fill="#0B0B0B"/>
<path d="M168.66 74.0705L167.472 73.9874L167.88 68.155L169.068 68.2381L168.66 74.0705ZM167.66 73.8236L168.498 73.8822L168.881 68.4019L168.043 68.3433L167.66 73.8236Z" fill="#0B0B0B"/>
<path d="M171.759 67.2979L170.746 67.2271L170.174 75.4071L171.187 75.478L171.759 67.2979Z" fill="#0B0B0B"/>
<path d="M171.268 75.572L170.08 75.4889L170.664 67.1328L171.853 67.2159L171.268 75.572ZM170.267 75.3251L171.105 75.3837L171.665 67.3797L170.827 67.3211L170.267 75.3251Z" fill="#0B0B0B"/>
<path d="M172.902 79.418L162.422 72.9445L162.907 66.014L174.039 63.1529L184.665 67.5356L184.18 74.4661L172.902 79.418ZM163.479 72.3994L172.982 78.2705L183.21 73.7793L183.6 68.2004L173.964 64.2264L163.869 66.8205L163.479 72.3994Z" fill="#0B0B0B"/>
<path d="M172.895 79.5165L172.854 79.4925L162.328 72.9909L162.82 65.9442L174.042 63.0611L174.069 63.0736L184.756 67.4819L184.264 74.5286L184.216 74.55L172.895 79.5201L172.895 79.5165ZM162.51 72.8976L172.905 79.3192L184.092 74.407L184.569 67.5926L174.029 63.2442L162.987 66.0832L162.51 72.8976ZM172.975 78.3691L172.934 78.345L163.387 72.4461L163.786 66.751L173.97 64.1349L173.998 64.1474L183.692 68.1467L183.293 73.8417L183.246 73.8632L172.975 78.3726L172.975 78.3691ZM163.57 72.3492L172.989 78.1685L183.126 73.7168L183.508 68.2541L173.958 64.3144L163.952 66.8864L163.57 72.3492Z" fill="#0B0B0B"/>
<path d="M172.03 91.8816L171.664 91.3289C167.126 84.4751 159.123 83.1549 159.042 83.1423L157.931 82.969L164.337 77.6092L172.648 83.0008L181.628 78.8185L187.226 85.0178L186.104 85.0348C186.023 85.0362 177.903 85.2394 172.467 91.385L172.027 91.8813L172.03 91.8816ZM160.253 82.3603C162.597 82.9452 168.308 84.8549 172.145 90.2343C176.694 85.4449 182.615 84.3452 185.018 84.0923L181.382 80.064L172.57 84.1661L164.414 78.8773L160.253 82.3603Z" fill="#0B0B0B"/>
<path d="M181.799 75.0644L181.623 75.0562L181.418 79.4336L181.593 79.4418L181.799 75.0644Z" fill="#0B0B0B"/>
<path d="M182.216 75.0874L181.202 75.04L180.996 79.4175L182.011 79.4649L182.216 75.0874Z" fill="#0B0B0B"/>
<path d="M180.907 79.5038L181.12 74.9488L182.31 75.0038L182.097 79.5587L180.907 79.5038ZM181.287 75.1303L181.092 79.3328L181.931 79.3702L182.13 75.168L181.291 75.127L181.287 75.1303Z" fill="#0B0B0B"/>
<path d="M181.695 68.8382L180.682 68.7673L180.381 73.0791L181.394 73.15L181.695 68.8382Z" fill="#0B0B0B"/>
<path d="M181.475 73.244L180.287 73.1609L180.601 68.6731L181.789 68.7562L181.475 73.244ZM180.474 72.9971L181.312 73.0557L181.601 68.9199L180.764 68.8613L180.474 72.9971Z" fill="#0B0B0B"/>
<path d="M179.345 69.0452L178.332 68.9744L177.936 74.6307L178.949 74.7016L179.345 69.0452Z" fill="#0B0B0B"/>
<path d="M179.035 74.7958L177.846 74.7127L178.254 68.8804L179.442 68.9635L179.035 74.7958ZM178.03 74.5487L178.868 74.6073L179.251 69.127L178.413 69.0684L178.03 74.5487Z" fill="#0B0B0B"/>
<path d="M176.73 67.6456L175.717 67.5747L175.145 75.7548L176.158 75.8256L176.73 67.6456Z" fill="#0B0B0B"/>
<path d="M176.243 75.9199L175.055 75.8368L175.639 67.4807L176.827 67.5638L176.243 75.9199ZM175.239 75.6728L176.077 75.7314L176.636 67.7273L175.798 67.6687L175.239 75.6728Z" fill="#0B0B0B"/>
<path d="M174.362 65.7999L173.348 65.729L172.577 76.7636L173.59 76.8345L174.362 65.7999Z" fill="#0B0B0B"/>
<path d="M173.671 76.9285L172.483 76.8454L173.267 65.6348L174.455 65.7179L173.671 76.9285ZM172.67 76.6817L173.508 76.7403L174.268 65.8816L173.43 65.823L172.67 76.6817Z" fill="#0B0B0B"/>
<path d="M183.255 67.4865L182.242 67.4156C182.464 64.2513 181.731 62.382 180.154 60.6518C177.877 58.1545 174.458 58.0711 174.423 58.0686L171.984 58.0289L173.708 57.3077C173.503 57.067 173.236 57.0518 172.525 57.0021C172.009 56.966 171.301 56.9165 170.341 56.7432C166.908 56.1141 166.264 54.3429 166.185 53.3471C166.026 51.3375 167.816 49.0221 170.175 48.1826L171.281 47.7895L170.811 48.8673C170.572 49.4165 170.053 51.0356 170.514 51.9025C170.682 52.2149 170.972 52.405 171.411 52.4816C172.065 52.5981 172.611 52.4984 173.136 52.3971C173.95 52.2454 174.792 52.0885 175.656 52.8846C176.437 53.6042 176.783 54.6011 176.606 55.6215C176.5 56.2225 176.219 56.7688 175.808 57.2104C177.16 57.4748 179.257 58.1626 180.894 59.9501C182.674 61.8927 183.498 64.0229 183.255 67.4865ZM172.719 55.9934C173.571 56.053 174.15 56.1254 174.637 56.8774C175.15 56.5419 175.499 56.0322 175.603 55.4489C175.721 54.7779 175.488 54.1215 174.969 53.6395C174.499 53.2069 174.101 53.2569 173.319 53.4003C172.759 53.5026 172.066 53.6346 171.231 53.4842C170.49 53.351 169.932 52.9689 169.617 52.381C169.175 51.5507 169.286 50.469 169.484 49.6482C168.098 50.5274 167.098 52.028 167.195 53.2621C167.319 54.8235 169.074 55.4697 170.524 55.7374C171.425 55.903 172.07 55.9481 172.593 55.9811C172.635 55.984 172.68 55.9872 172.722 55.9902L172.719 55.9934Z" fill="#0B0B0B"/>
<path d="M183.337 67.5805L182.148 67.4974L182.154 67.4094C182.359 64.4844 181.762 62.5433 180.09 60.7109C178.084 58.5156 175.139 58.2035 174.568 58.1636C174.477 58.1572 174.424 58.1535 174.421 58.1533L171.56 58.1053L173.548 57.2752C173.384 57.1541 173.139 57.1299 172.62 57.0936L172.294 57.0708C171.821 57.0377 171.166 56.9813 170.324 56.8269C166.832 56.1865 166.177 54.3722 166.094 53.3477C165.934 51.3027 167.747 48.9466 170.142 48.0954L171.439 47.6343L170.889 48.901C170.654 49.4399 170.145 51.0243 170.591 51.8583C170.743 52.1449 171.017 52.3196 171.424 52.3941C171.538 52.4163 171.654 52.4279 171.769 52.436C172.26 52.4703 172.696 52.3876 173.12 52.3111C173.506 52.2391 173.909 52.1647 174.316 52.1931C174.838 52.2297 175.296 52.435 175.716 52.8216C176.521 53.5641 176.875 54.5898 176.693 55.6382C176.594 56.1972 176.349 56.7177 175.977 57.155C177.411 57.4569 179.39 58.1754 180.961 59.8911C182.886 61.9923 183.577 64.1947 183.346 67.4928L183.34 67.5808L183.337 67.5805ZM182.332 67.3334L183.17 67.392C183.38 64.1986 182.698 62.0535 180.826 60.0125C179.232 58.2705 177.205 57.577 175.787 57.3009L175.631 57.2688L175.738 57.1525C176.145 56.7176 176.412 56.1809 176.512 55.6078C176.686 54.6191 176.349 53.6511 175.591 52.9508C175.197 52.5873 174.784 52.4027 174.297 52.3686C173.911 52.3417 173.522 52.4135 173.143 52.4861C172.712 52.5655 172.262 52.6508 171.75 52.615C171.627 52.6064 171.505 52.5908 171.387 52.5684C170.924 52.4865 170.611 52.2806 170.43 51.9426C169.954 51.0462 170.478 49.3922 170.721 48.8327L171.112 47.9403L170.197 48.2655C167.874 49.0899 166.109 51.368 166.263 53.3384C166.34 54.3128 166.973 56.0372 170.351 56.6554C171.185 56.8093 171.83 56.865 172.303 56.8981L172.629 56.9209C173.278 56.9663 173.551 56.9924 173.768 57.2517L173.846 57.3456L172.402 57.9485L174.418 57.9834C174.418 57.9834 174.478 57.9875 174.573 57.9941C175.389 58.0513 178.211 58.4078 180.21 60.5991C181.902 62.4505 182.519 64.4108 182.328 67.3402L182.332 67.3334ZM174.611 56.9958L174.563 56.9218C174.098 56.2101 173.557 56.1369 172.713 56.0779L172.373 56.0541C171.892 56.0205 171.293 55.968 170.507 55.8246C169.029 55.5514 167.236 54.8884 167.107 53.27C167.007 52.0286 167.966 50.5075 169.437 49.574L169.621 49.4561L169.571 49.6683C169.387 50.4336 169.258 51.5176 169.694 52.3368C169.996 52.9026 170.531 53.269 171.248 53.3969C171.394 53.4213 171.548 53.4426 171.695 53.4529C172.319 53.4966 172.865 53.3933 173.304 53.3143C173.686 53.242 173.978 53.1953 174.238 53.2134C174.536 53.2342 174.778 53.3467 175.026 53.5727C175.569 54.074 175.81 54.7629 175.687 55.4617C175.581 56.0662 175.224 56.593 174.685 56.9479L174.611 56.9958ZM172.725 55.9054C173.598 55.9664 174.173 56.0562 174.659 56.7516C175.119 56.4265 175.423 55.9597 175.516 55.4321C175.628 54.7927 175.408 54.1618 174.908 53.7059C174.484 53.3155 174.102 53.3454 173.334 53.4898C172.884 53.5715 172.327 53.6776 171.679 53.6322C171.524 53.6214 171.367 53.6033 171.214 53.575C170.445 53.4363 169.863 53.0419 169.537 52.4248C169.113 51.6312 169.187 50.6212 169.351 49.8439C168.055 50.7401 167.196 52.1479 167.284 53.2576C167.404 54.7657 169.121 55.3916 170.54 55.6536C171.316 55.7963 171.908 55.8483 172.385 55.8816L172.725 55.9054Z" fill="#0B0B0B"/>
<path d="M207.917 64.804L185.311 59.8593L185.193 61.5418L206.273 66.1534C206.254 69.491 205.85 78.9951 202.274 90.0282C199.67 98.0555 195.919 105.285 191.126 111.511C185.337 119.032 177.988 125.115 169.279 129.599C161.3 123.958 154.882 116.934 150.201 108.709C146.32 101.894 143.608 94.2302 142.137 85.9392C140.109 74.4894 141.034 64.9439 141.481 61.6221L162.994 59.9928L163.111 58.3103L140.036 60.0603C140.036 60.0603 131.513 105.715 169.147 131.542C210.006 111.204 207.924 64.8081 207.924 64.8081L207.917 64.804Z" fill="#0B0B0B"/>
<path d="M181.4 79.9557L172.573 84.0639L164.404 78.7671L160.059 82.4035L160.229 82.4437C161.781 82.8281 164.912 83.8394 167.966 86.1186C167.97 86.0517 167.982 85.9888 167.997 85.9227C165.05 83.7393 162.041 82.7296 160.439 82.3169L164.42 78.9875L172.562 84.2683L181.36 80.1722L184.84 84.0233C183.163 84.2138 179.951 84.8133 176.662 86.6489C176.728 86.6712 176.793 86.7005 176.857 86.7333C180.198 84.9013 183.443 84.3431 185.03 84.1781L185.203 84.162L181.407 79.9562L181.4 79.9557Z" fill="#0B0B0B"/>
<path d="M191.101 89.6075C191.056 88.4266 190.499 87.33 189.57 86.6037C188.849 86.0368 188.104 85.5107 187.339 85.0151L181.695 78.7631L181.653 78.7141L172.658 82.9025L164.334 77.5029L157.729 83.0292L157.771 83.0322C157.002 83.3958 156.242 83.7883 155.5 84.2174C154.48 84.8075 153.775 85.8158 153.567 86.979C153.359 88.1423 153.67 89.3313 154.424 90.2435C155.116 91.0771 156.129 91.6007 157.209 91.6763C157.44 91.6924 157.673 91.6875 157.9 91.6645L158.061 92.079C158.118 92.0299 158.181 91.9883 158.24 91.9464C158.251 91.2787 158.587 90.616 159.216 90.3311C159.306 90.1039 159.448 89.884 159.652 89.6825C159.713 89.623 159.777 89.5639 159.837 89.5044C159.544 89.6714 159.25 89.8453 158.962 90.0268C158.712 90.1862 158.443 90.3018 158.163 90.3706C158.16 90.3704 158.153 90.3699 158.149 90.3732C157.873 90.4423 157.586 90.4682 157.295 90.4478C156.538 90.3949 155.85 90.0427 155.367 89.457C154.847 88.8265 154.63 88.0048 154.774 87.1979C154.919 86.3909 155.408 85.693 156.113 85.286C157.347 84.5694 158.626 83.955 159.938 83.4313C161.261 83.7608 163.849 84.5785 166.495 86.3375C166.588 86.3263 166.676 86.3219 166.769 86.3106C164.196 84.5603 161.649 83.6995 160.221 83.3202C160.496 83.2121 160.771 83.104 161.049 83.0068L158.971 82.4971C158.735 82.5973 158.503 82.6978 158.27 82.8053L164.343 77.7229L172.64 83.1064L181.606 78.9301L186.792 84.6727C186.721 84.6288 186.65 84.5814 186.576 84.5373L184.468 84.7542C184.641 84.8477 184.81 84.9479 184.983 85.0414C183.52 85.2149 180.796 85.7212 177.931 87.1444C178.032 87.1585 178.133 87.1727 178.235 87.1868C181.166 85.7754 183.91 85.3271 185.248 85.1872C186.484 85.8927 187.68 86.6837 188.812 87.5693C189.457 88.0742 189.841 88.8297 189.872 89.6489C189.902 90.4681 189.573 91.2515 188.971 91.8036C188.41 92.3162 187.68 92.5693 186.923 92.5164C186.632 92.496 186.355 92.4307 186.088 92.3235C186.084 92.3233 186.077 92.3228 186.074 92.319C185.807 92.2084 185.557 92.0565 185.33 91.8674C184.672 91.312 183.985 90.8041 183.274 90.3335C183.272 90.3758 183.265 90.4213 183.255 90.463C183.496 90.8937 183.542 91.4487 183.4 91.9198C183.785 92.2014 184.166 92.4969 184.535 92.8092C184.688 92.9366 184.846 93.0537 185.011 93.1573L184.721 93.6746C184.721 93.6746 184.731 93.6859 184.738 93.6899C185.037 94.0929 185.233 94.5699 185.342 95.0798L186.151 93.6367C186.372 93.6911 186.602 93.7284 186.834 93.7446C187.914 93.8201 188.993 93.4428 189.791 92.7134C190.664 91.9185 191.138 90.7844 191.094 89.6L191.101 89.6075Z" fill="#0B0B0B"/>
<path d="M158.169 102.224C158.497 102.48 158.79 102.72 159.095 102.946C159.795 103.469 160.583 103.779 161.448 103.91C162.086 104.008 162.713 103.999 163.348 103.894C163.444 103.88 163.554 103.916 163.65 103.951C165.071 104.496 166.482 105.072 167.835 105.775C168.688 106.22 169.533 106.679 170.358 107.175C171.524 107.88 172.623 108.685 173.641 109.595C173.747 109.69 173.824 109.703 173.956 109.631C175.266 108.93 176.532 108.159 177.735 107.285C178.544 106.694 179.324 106.062 180.026 105.344C180.087 105.281 180.209 105.247 180.301 105.253C181.174 105.314 182.026 105.215 182.836 104.865C183.221 104.697 183.583 104.468 183.952 104.267C183.993 104.245 184.037 104.224 184.106 104.183L183.818 108.311C184.292 108.383 184.691 108.574 185.005 108.914C185.532 109.492 185.681 110.175 185.474 110.921C185.177 112 184.641 112.953 183.853 113.75C182.951 114.663 181.867 115.245 180.608 115.465C180.176 115.541 179.727 115.57 179.292 115.539C173.311 115.132 167.329 114.72 161.346 114.284C159.8 114.173 158.509 113.485 157.466 112.336C156.55 111.328 156.028 110.131 155.868 108.78C155.736 107.646 156.522 106.583 157.726 106.497C157.875 106.486 157.874 106.401 157.881 106.303C157.97 105.022 158.06 103.737 158.15 102.456C158.154 102.389 158.159 102.322 158.167 102.213L158.169 102.224ZM170.453 113.117C173.437 113.326 176.423 113.545 179.408 113.733C179.832 113.763 180.287 113.713 180.693 113.589C182.281 113.11 183.266 112.015 183.733 110.431C183.788 110.24 183.711 110.133 183.515 110.119C181.475 109.976 179.438 109.834 177.397 109.691C177.331 109.686 177.252 109.709 177.193 109.744C176.151 110.329 175.116 110.925 174.071 111.506C173.686 111.723 173.337 111.674 173.014 111.365C172.317 110.697 171.574 110.087 170.785 109.533C170.597 109.403 170.399 109.212 170.192 109.198C166.109 108.894 162.024 108.612 157.943 108.327C157.737 108.312 157.656 108.402 157.68 108.613C157.809 109.64 158.223 110.529 158.953 111.266C159.667 111.992 160.533 112.409 161.539 112.483C164.511 112.702 167.481 112.902 170.454 113.11L170.453 113.117Z" fill="#0B0B0B"/>
<path d="M180.406 104.246C179.326 104.184 178.424 103.729 177.623 103.032C177.222 102.682 176.799 102.381 176.252 102.293C175.506 102.173 174.833 102.328 174.208 102.755C173.553 103.2 172.84 103.526 172.036 103.586C170.722 103.682 169.532 103.372 168.523 102.481C168.191 102.189 167.856 101.893 167.429 101.754C166.557 101.473 165.742 101.593 164.98 102.12C164.336 102.563 163.63 102.878 162.844 102.936C161.572 103.035 160.408 102.762 159.414 101.915C159.194 101.729 158.971 101.548 158.736 101.379C158.374 101.113 157.959 101.006 157.514 100.972C157.065 100.94 156.723 100.64 156.609 100.205C156.44 99.5525 156.982 98.9077 157.679 98.9565C158.64 99.0237 159.497 99.3631 160.242 99.9882C160.515 100.216 160.783 100.465 161.093 100.628C161.867 101.039 162.671 101.078 163.468 100.667C163.94 100.42 164.39 100.13 164.874 99.9054C165.402 99.6593 165.971 99.5894 166.555 99.5949C167.227 99.603 167.867 99.7256 168.475 100.005C169.007 100.247 169.446 100.621 169.885 100.992C170.517 101.527 171.244 101.667 172.038 101.545C172.493 101.478 172.867 101.218 173.244 100.979C174.01 100.498 174.822 100.219 175.741 100.234C176.606 100.248 177.418 100.425 178.146 100.904C178.483 101.126 178.799 101.381 179.109 101.64C179.9 102.311 181.069 102.421 181.979 101.908C182.459 101.637 182.94 101.367 183.439 101.136C183.894 100.924 184.391 100.874 184.891 100.877C185.155 100.878 185.413 100.864 185.661 100.995C186.052 101.199 186.274 101.607 186.209 102.031C186.142 102.479 185.811 102.827 185.364 102.88C185.147 102.908 184.923 102.881 184.704 102.894C184.223 102.921 183.813 103.14 183.418 103.392C182.762 103.809 182.072 104.15 181.282 104.211C180.989 104.233 180.697 104.227 180.4 104.235L180.406 104.246Z" fill="#0B0B0B"/>
<path d="M174.799 91.1275C174.771 90.6197 175.346 90.1647 175.839 90.2133C176.371 90.2647 176.789 90.7325 176.752 91.2675C176.713 91.8166 176.253 92.2053 175.708 92.1849C175.146 92.1633 174.713 91.6095 174.803 91.1277L174.799 91.1275Z" fill="#0B0B0B"/>
<path d="M163.645 94.4608C163.087 94.4218 162.709 93.9816 162.749 93.4149C162.787 92.8658 163.249 92.463 163.792 92.501C164.343 92.5395 164.746 93.0134 164.704 93.5658C164.663 94.1111 164.202 94.4998 163.645 94.4573L163.645 94.4608Z" fill="#0B0B0B"/>
<path d="M179.411 95.5634C178.867 95.5254 178.452 95.0648 178.501 94.5165C178.553 93.9189 179.075 93.5662 179.555 93.6034C180.101 93.6451 180.509 94.1157 180.467 94.6681C180.427 95.2348 179.902 95.6367 179.411 95.5599L179.411 95.5634Z" fill="#0B0B0B"/>
<path d="M171.519 95.0114C171.053 95.0213 170.567 94.5204 170.634 93.9557C170.697 93.4189 171.137 93.0146 171.67 93.0519C172.213 93.0899 172.631 93.5683 172.589 94.1101C172.549 94.6838 172.024 95.0857 171.522 95.0082L171.519 95.0114Z" fill="#0B0B0B"/>
<path d="M167.813 91.6292C167.256 91.5902 166.868 91.1351 166.911 90.5687C166.949 90.0266 167.418 89.6243 167.964 89.6661C168.501 89.7036 168.901 90.1808 168.863 90.7263C168.824 91.2754 168.363 91.6712 167.817 91.6294L167.813 91.6292Z" fill="#0B0B0B"/>
<path d="M186.581 95.6016C186.525 94.6887 186.171 93.8575 185.79 93.0492C185.312 92.0324 184.682 91.1112 183.912 90.2863C183.197 89.5253 182.401 88.8648 181.517 88.3113C180.332 87.5671 179.06 87.0218 177.725 86.6137C177.725 86.6137 177.722 86.6134 177.718 86.6132C177.524 86.8684 177.263 87.0765 176.971 87.2223C176.87 87.3108 176.758 87.3914 176.627 87.453C176.355 87.6214 176.021 87.7147 175.614 87.6863C175.561 87.6826 175.513 87.6686 175.464 87.6617C175.464 87.6617 175.464 87.6617 175.461 87.6614C175.431 87.6771 175.402 87.6962 175.376 87.7121C175.637 87.7622 175.897 87.8193 176.157 87.8799C177.117 88.1132 178.054 88.4122 178.956 88.8078C180.32 89.4055 181.554 90.1992 182.599 91.2768C183.338 92.0394 183.948 92.8885 184.37 93.8624C184.588 94.3658 184.823 94.8845 184.913 95.4213C185.105 96.5524 184.742 97.5104 183.786 98.1863C183.437 98.4342 183.029 98.526 182.598 98.4958C178.857 98.2342 175.116 97.9726 171.376 97.711C167.635 97.4494 164.018 97.1822 160.339 96.9462C159.307 96.8811 158.623 96.14 158.355 95.336C158.05 94.4057 158.254 93.5534 158.721 92.723C159.357 91.5931 160.162 90.6096 161.183 89.8109C162.078 89.1094 163.069 88.581 164.136 88.1852C165.297 87.7536 166.496 87.4907 167.717 87.3533C168.069 87.3143 168.42 87.2822 168.774 87.261C168.284 86.9119 167.82 86.5435 167.544 85.9582C167.538 85.9436 167.535 85.9328 167.529 85.9183C167.453 85.8882 167.378 85.8547 167.307 85.8108C167.283 85.8021 167.267 85.7868 167.247 85.7747C167.243 85.7745 167.236 85.774 167.232 85.7737C167.208 85.772 167.183 85.7703 167.159 85.7651C166.498 85.8532 165.84 85.9841 165.188 86.1436C164.048 86.4247 162.952 86.8291 161.916 87.3862C160.8 87.9873 159.799 88.7414 158.934 89.6748C158.237 90.429 157.657 91.2621 157.178 92.1694C156.89 92.7117 156.688 93.2811 156.617 93.8916C156.513 94.7686 156.645 95.609 157.044 96.3974C157.698 97.6811 158.708 98.4556 160.17 98.5578C163.872 98.8168 167.578 99.0759 171.28 99.3348C174.982 99.5937 178.772 99.8588 182.52 100.121C183.109 100.162 183.672 100.06 184.2 99.814C184.95 99.4668 185.525 98.9127 185.951 98.2033C186.434 97.3988 186.639 96.5253 186.581 95.591L186.581 95.6016Z" fill="#0B0B0B"/>
<path d="M145.781 72.7249L147.361 71.5974C147.951 71.1718 148.185 70.9441 148.211 70.5675C148.238 70.1909 148 69.9656 147.649 69.9411C147.299 69.9165 147.054 70.094 146.688 70.4822L146.033 69.874C146.517 69.2995 146.972 68.9988 147.771 69.0547C148.7 69.1197 149.279 69.7084 149.223 70.5534L149.222 70.5675C149.17 71.3207 148.758 71.6669 147.922 72.2309L147.15 72.7464L149.106 72.8832L149.047 73.7385L145.723 73.5061L145.778 72.7247L145.781 72.7249Z" fill="#0B0B0B"/>
<path d="M152.478 71.7254L152.479 71.7113C152.57 70.402 153.448 69.4341 154.64 69.5174C155.832 69.6008 156.561 70.6669 156.47 71.9727L156.469 71.9868C156.377 73.2962 155.506 74.2646 154.307 74.1807C153.108 74.0969 152.387 73.0313 152.478 71.7254ZM155.455 71.93L155.456 71.916C155.513 71.0994 155.156 70.4519 154.567 70.4107C153.978 70.3695 153.551 70.9409 153.493 71.7681L153.492 71.7822C153.434 72.6058 153.784 73.2457 154.38 73.2874C154.976 73.3291 155.397 72.7502 155.455 71.93Z" fill="#0B0B0B"/>
<path d="M191.602 73.1244L190.806 73.2633L190.657 72.4358L191.974 72.1388L192.647 72.1859L192.333 76.7267L191.358 76.6585L191.602 73.1209L191.602 73.1244Z" fill="#0B0B0B"/>
<path d="M195.938 76.5086L196.509 75.7916C196.817 76.0784 197.086 76.2174 197.464 76.2439C198.015 76.2824 198.338 75.8842 198.444 75.2832C198.214 75.4545 197.903 75.5566 197.514 75.5294C196.54 75.4612 195.95 74.8788 196.013 73.9672L196.014 73.9531C196.078 73.045 196.822 72.425 197.832 72.4956C198.435 72.5378 198.775 72.7102 199.092 73.0718C199.392 73.4147 199.568 73.9187 199.506 74.8057L199.505 74.8197C199.403 76.2805 198.65 77.2288 197.377 77.1433C196.725 77.0977 196.295 76.8483 195.941 76.5088L195.938 76.5086ZM198.544 74.1017L198.545 74.0876C198.573 73.6899 198.299 73.3807 197.804 73.3461C197.31 73.3115 197.024 73.578 196.996 73.9758L196.995 73.9898C196.967 74.3876 197.242 74.6862 197.729 74.7203C198.217 74.7544 198.517 74.4889 198.544 74.1052L198.544 74.1017Z" fill="#0B0B0B"/>
</g>
</g>
<defs>
<filter id="filter0_dd_224_278" x="0.807617" y="0.807373" width="339.128" height="250.73" filterUnits="userSpaceOnUse" color-interpolation-filters="sRGB">
<feFlood flood-opacity="0" result="BackgroundImageFix"/>
<feColorMatrix in="SourceAlpha" type="matrix" values="0 0 0 0 0 0 0 0 0 0 0 0 0 0 0 0 0 0 127 0" result="hardAlpha"/>
<feMorphology radius="5" operator="erode" in="SourceAlpha" result="effect1_dropShadow_224_278"/>
<feOffset/>
<feGaussianBlur stdDeviation="2.4"/>
<feColorMatrix type="matrix" values="0 0 0 0 0 0 0 0 0 0 0 0 0 0 0 0 0 0 0.08 0"/>
<feBlend mode="normal" in2="BackgroundImageFix" result="effect1_dropShadow_224_278"/>
<feColorMatrix in="SourceAlpha" type="matrix" values="0 0 0 0 0 0 0 0 0 0 0 0 0 0 0 0 0 0 127 0" result="hardAlpha"/>
<feMorphology radius="5" operator="erode" in="SourceAlpha" result="effect2_dropShadow_224_278"/>
<feOffset dy="20"/>
<feGaussianBlur stdDeviation="12.5"/>
<feColorMatrix type="matrix" values="0 0 0 0 0 0 0 0 0 0 0 0 0 0 0 0 0 0 0.1 0"/>
<feBlend mode="normal" in2="effect1_dropShadow_224_278" result="effect2_dropShadow_224_278"/>
<feBlend mode="normal" in="SourceGraphic" in2="effect2_dropShadow_224_278" result="shape"/>
</filter>
<clipPath id="clip0_224_278">
<rect width="87.6992" height="118.015" fill="white" transform="translate(131.248 44.8271) rotate(4.00049)"/>
</clipPath>
</defs>
</svg>
