<svg width="49" height="48" viewBox="0 0 49 48" fill="none" xmlns="http://www.w3.org/2000/svg">
<g clip-path="url(#clip0_261_85)">
<path fill-rule="evenodd" clip-rule="evenodd" d="M10.8125 11.3439H38.1878C38.1878 13.9327 40.2865 16.0314 42.8753 16.0314V31.969C40.2865 31.969 38.1878 34.0677 38.1878 36.6565H10.8125C10.8125 34.0677 8.71381 31.969 6.125 31.969V16.0313C8.71381 16.0313 10.8125 13.9327 10.8125 11.3439Z" fill="#FFAD32"/>
<path d="M47.5625 5.71887H1.4375C0.919718 5.71887 0.5 6.13868 0.5 6.65637V41.3438C0.5 41.8615 0.919718 42.2813 1.4375 42.2813H47.5625C48.0803 42.2813 48.5 41.8615 48.5 41.3438V6.65637C48.5 6.13859 48.0803 5.71887 47.5625 5.71887ZM46.625 40.4063H2.375V7.59387H46.625V40.4063Z" fill="#0B0B0B"/>
<path d="M17.0001 24.7769V25.8751C17.0001 27.4259 18.2618 28.6876 19.8126 28.6876H29.1876C30.7384 28.6876 32.0001 27.4259 32.0001 25.8751V24.7769C34.4904 23.8885 34.4819 20.3475 31.9898 19.4697C31.8288 17.0297 29.7926 15.0939 27.3126 15.0939H21.6876C19.2076 15.0939 17.1714 17.0297 17.0104 19.4697C14.5168 20.3486 14.5116 23.8894 17.0001 24.7769ZM29.1877 26.8126H19.8126C19.2956 26.8126 18.8751 26.3921 18.8751 25.8751V24.9376H30.1251V25.8751C30.1251 26.392 29.7046 26.8126 29.1877 26.8126ZM31.0627 23.0626H17.9377C16.6936 23.011 16.6946 21.2388 17.9377 21.1876H31.0627C32.3067 21.2393 32.3057 23.0114 31.0627 23.0626ZM21.6876 16.9689H27.3126C28.7036 16.9689 29.8621 17.9842 30.086 19.3126H18.9142C19.1381 17.9841 20.2965 16.9689 21.6876 16.9689Z" fill="#0B0B0B"/>
<path d="M31.0624 31.0314H17.9374C16.6936 31.0809 16.6945 32.8572 17.9374 32.9064H31.0624C32.3063 32.8568 32.3054 31.0804 31.0624 31.0314Z" fill="#0B0B0B"/>
</g>
<defs>
<clipPath id="clip0_261_85">
<rect width="48" height="48" fill="white" transform="translate(0.5)"/>
</clipPath>
</defs>
</svg>
