<svg width="36" height="36" viewBox="0 0 36 36" fill="none" xmlns="http://www.w3.org/2000/svg">
<g clip-path="url(#clip0_206_24)">
<path d="M16.32 29.9752C16.4703 30.1876 16.4208 30.4821 16.2088 30.6323C16.1254 30.6912 16.0303 30.72 15.9361 30.72C15.7886 30.72 15.6435 30.6512 15.5516 30.5212C14.2858 28.7381 14.0536 26.3906 14.9454 24.3951L16.32 29.9752ZM15.47 30.5789C15.5815 30.7366 15.7577 30.82 15.9361 30.82C16.0508 30.82 16.1661 30.7849 16.2665 30.714L16.2667 30.7139C16.524 30.5315 16.5836 30.1746 16.4016 29.9174L16.4015 29.9173C15.3479 28.4334 15.1552 26.4802 15.8969 24.8203L15.8969 24.8201C16.0254 24.5313 15.8962 24.195 15.6087 24.0655L15.6087 24.0655C15.3186 23.9351 14.9828 24.0671 14.8541 24.3542L14.8541 24.3543C13.9479 26.3821 14.1838 28.767 15.47 30.5789Z" fill="white" stroke="white" stroke-width="0.2"/>
<path d="M19.5075 30.7287L19.5077 30.7288C19.6024 30.7895 19.7093 30.82 19.816 30.82C20.0039 30.82 20.1876 30.7276 20.2963 30.5574C22.9161 26.4882 22.1304 21.0346 18.4696 17.8702L18.4696 17.8702L18.4693 17.87C18.231 17.6653 17.8706 17.6895 17.6637 17.9296L17.7395 17.9949L17.6638 17.9295C17.4575 18.1683 17.4845 18.5287 17.7225 18.7347L17.7226 18.7348C20.9561 21.5287 21.6496 26.3464 19.3362 29.9399C19.1654 30.2046 19.2421 30.558 19.5075 30.7287ZM19.816 30.72C19.7284 30.72 19.6403 30.695 19.5616 30.6446L20.2122 30.5033C20.1227 30.6437 19.9715 30.72 19.816 30.72Z" fill="white" stroke="white" stroke-width="0.2"/>
<path d="M14.854 24.3542L14.854 24.3543C14.7256 24.642 14.8544 24.9793 15.142 25.108C15.2184 25.143 15.2976 25.1583 15.375 25.1583C15.5932 25.1583 15.8019 25.033 15.8968 24.8208L15.8968 24.8207C16.4556 23.5694 16.7394 22.2407 16.7394 20.8713C16.7394 20.5556 16.484 20.3002 16.1683 20.3002C15.8525 20.3002 15.5972 20.5556 15.5972 20.8713C15.5972 22.0788 15.3472 23.2511 14.854 24.3542Z" fill="white" stroke="white" stroke-width="0.2"/>
<path d="M17.1393 25.0928L17.1393 25.093L17.666 24.5718L17.7655 24.5819C17.7655 24.5819 17.7655 24.5818 17.7655 24.5818C17.9131 23.1288 17.5075 21.6874 16.622 20.5253L16.6219 20.5252C16.4307 20.2746 16.0731 20.2254 15.8213 20.4173L15.8213 20.4173C15.571 20.6082 15.5226 20.9672 15.7133 21.2178L15.7134 21.2179C16.423 22.1484 16.748 23.3027 16.629 24.466L16.629 24.4662C16.5976 24.7805 16.8259 25.0603 17.1393 25.0928ZM16.7285 24.4761C16.85 23.2876 16.5179 22.108 15.7929 21.1573L17.1497 24.9934C16.891 24.9665 16.7026 24.7357 16.7285 24.4761Z" fill="white" stroke="white" stroke-width="0.2"/>
<path d="M18.6275 18.0916C18.5112 17.7997 18.1786 17.6541 17.8854 17.7725C17.5922 17.8896 17.4494 18.2217 17.5664 18.5143C18.3196 20.4041 18.0062 22.572 16.7488 24.1716C16.5534 24.4191 16.5964 24.7782 16.8445 24.9734C16.9495 25.0565 17.0744 25.0953 17.1972 25.0953C17.3664 25.0953 17.5338 25.0205 17.6468 24.8779L17.647 24.8776C19.1553 22.9591 19.5315 20.3587 18.6275 18.0916ZM18.6275 18.0916L18.5346 18.1286M18.6275 18.0916L18.5346 18.1286M18.5346 18.1286C18.4385 17.8875 18.1638 17.7678 17.9226 17.8653L17.5684 24.8158C19.0547 22.9253 19.4254 20.3626 18.5346 18.1286Z" fill="white" stroke="white" stroke-width="0.2"/>
<path d="M23.3798 9.82111C23.2503 9.53482 22.9119 9.40525 22.6241 9.53771C22.3368 9.66709 22.2097 10.0062 22.3403 10.2928C22.887 11.4984 22.7225 12.8952 21.9106 13.9404C21.7168 14.1891 21.7622 14.5483 22.0115 14.7422L22.0116 14.7423C22.1156 14.8229 22.2392 14.8617 22.3612 14.8617C22.5316 14.8617 22.7002 14.7859 22.8127 14.6413L22.8128 14.6412C23.8856 13.2604 24.1027 11.4128 23.3798 9.82111ZM23.3798 9.82111C23.3799 9.82113 23.3799 9.82116 23.3799 9.82118L23.2888 9.86239M23.3798 9.82111C23.3798 9.82108 23.3798 9.82106 23.3798 9.82103L23.2888 9.86239M23.2888 9.86239C23.9963 11.4203 23.7839 13.2283 22.7338 14.5799M23.2888 9.86239C23.1818 9.6259 22.9025 9.51943 22.6655 9.62873C22.4285 9.73519 22.3235 10.015 22.4314 10.2515L22.7338 14.5799M22.7338 14.5799C22.641 14.6991 22.502 14.7617 22.3612 14.7617C22.2604 14.7617 22.1586 14.7297 22.0729 14.6633C21.867 14.5031 21.8298 14.2068 21.9895 14.0019L22.7338 14.5799Z" fill="white" stroke="white" stroke-width="0.2"/>
<path d="M16.5852 5.25374L16.5852 5.25374C19.9423 7.14099 22.2533 10.3987 22.9242 14.1913C22.9794 14.5022 22.7721 14.7976 22.4622 14.8525C22.4265 14.8596 22.3922 14.8618 22.3612 14.8618C22.089 14.8618 21.8483 14.6678 21.7996 14.3901C21.1882 10.9359 19.0841 7.96863 16.0255 6.24969L16.5852 5.25374ZM16.5852 5.25374L16.5848 5.25354M16.5852 5.25374L16.5848 5.25354M16.5848 5.25354C16.3094 5.10017 15.9622 5.197 15.8074 5.47231L16.5848 5.25354ZM15.8074 5.47233C15.6531 5.74659 15.7507 6.09541 16.0255 6.24966L15.8074 5.47233Z" fill="white" stroke="white" stroke-width="0.2"/>
<path d="M12.5324 15.4476C12.5867 15.719 12.825 15.9062 13.0916 15.9062C13.1284 15.9062 13.1658 15.9028 13.203 15.8962L13.203 15.8962L13.2053 15.8957C13.5146 15.833 13.7145 15.5321 13.6523 15.223L13.6523 15.223C13.4182 14.0632 12.8996 12.9672 12.153 12.0511L12.1529 12.051C11.9545 11.8081 11.5959 11.7684 11.3496 11.9683L11.3496 11.9683L11.3495 11.9685C11.1052 12.1677 11.0679 12.5279 11.2673 12.7724L11.2674 12.7725C11.8982 13.5447 12.3354 14.47 12.5324 15.4476ZM12.5324 15.4476C12.5324 15.4476 12.5324 15.4476 12.5324 15.4475L12.6304 15.4279M12.5324 15.4476C12.5324 15.4476 12.5324 15.4476 12.5324 15.4477L12.6304 15.4279M12.6304 15.4279C12.6752 15.6517 12.8716 15.8062 13.0916 15.8062C13.1223 15.8062 13.1538 15.8034 13.1854 15.7977L12.6304 15.4279Z" fill="white" stroke="white" stroke-width="0.2"/>
<path d="M16.8759 5.75377C16.8765 5.43818 16.6214 5.18156 16.3058 5.18156H16.3049C15.9897 5.18156 15.7343 5.43576 15.7338 5.75152V5.75153C15.7282 9.06334 14.6281 12.3456 12.6357 14.9918L12.6357 14.9918C12.4462 15.2436 12.4963 15.6017 12.7483 15.7914L12.7486 15.7917C12.8515 15.8684 12.9719 15.9062 13.0916 15.9062C13.265 15.9062 13.4363 15.8269 13.5482 15.679L13.5483 15.6788C15.6883 12.836 16.8703 9.31142 16.8759 5.75377ZM16.8759 5.75377L16.7759 5.75359M16.8759 5.75377C16.8759 5.75376 16.8759 5.75375 16.8759 5.75375L16.7759 5.75359M16.7759 5.75359C16.7703 9.28959 15.5954 12.7931 13.4684 15.6187L12.8084 15.7115C12.6007 15.5551 12.5592 15.2597 12.7156 15.052C14.7211 12.3884 15.8281 9.08514 15.8338 5.7517C15.8342 5.49119 16.0448 5.28156 16.3049 5.28156H16.3058C16.5658 5.28156 16.7764 5.49307 16.7759 5.75359Z" fill="white" stroke="white" stroke-width="0.2"/>
<path d="M26.8984 21.1201L26.8984 21.1202H26.9026H26.9026H26.9027H26.9027H26.9028H26.9028H26.9028H26.9029H26.9029H26.903H26.903H26.9031H26.9031H26.9031H26.9032H26.9032H26.9033H26.9033H26.9033H26.9034H26.9034H26.9035H26.9035H26.9035H26.9036H26.9036H26.9037H26.9037H26.9037H26.9038H26.9038H26.9039H26.9039H26.904H26.904H26.904H26.9041H26.9041H26.9042H26.9042H26.9042H26.9043H26.9043H26.9044H26.9044H26.9044H26.9045H26.9045H26.9046H26.9046H26.9046H26.9047H26.9047H26.9048H26.9048H26.9048H26.9049H26.9049H26.905H26.905H26.905H26.9051H26.9051H26.9052H26.9052H26.9052H26.9053H26.9053H26.9054H26.9054H26.9054H26.9055H26.9055H26.9056H26.9056H26.9056H26.9057H26.9057H26.9058H26.9058H26.9058H26.9059H26.9059H26.906H26.906H26.906H26.9061H26.9061H26.9062H26.9062H26.9062H26.9063H26.9063H26.9064H26.9064H26.9064H26.9065H26.9065H26.9066H26.9066H26.9066H26.9067H26.9067H26.9068H26.9068H26.9068H26.9069H26.9069H26.907H26.907H26.907H26.9071H26.9071H26.9072H26.9072H26.9072H26.9073H26.9073H26.9074H26.9074H26.9074H26.9075H26.9075H26.9076H26.9076H26.9076H26.9077H26.9077H26.9078H26.9078H26.9078H26.9079H26.9079H26.9079H26.908H26.908H26.9081H26.9081H26.9081H26.9082H26.9082H26.9083H26.9083H26.9083H26.9084H26.9084H26.9085H26.9085H26.9085H26.9086H26.9086H26.9087H26.9087H26.9087H26.9088H26.9088H26.9088H26.9089H26.9089H26.909H26.909H26.909H26.9091H26.9091H26.9092H26.9092H26.9092H26.9093H26.9093H26.9094H26.9094H26.9094H26.9095H26.9095H26.9096H26.9096H26.9096H26.9097H26.9097H26.9097H26.9098H26.9098H26.9099H26.9099H26.9099H26.91H26.91H26.9101H26.9101H26.9101H26.9102H26.9102H26.9103H26.9103H26.9103H26.9104H26.9104H26.9104H26.9105H26.9105H26.9106H26.9106H26.9106H26.9107H26.9107H26.9108H26.9108H26.9108H26.9109H26.9109H26.9109H26.911H26.911H26.9111H26.9111H26.9111H26.9112H26.9112H26.9113H26.9113H26.9113H26.9114H26.9114H26.9115H26.9115H26.9115H26.9116H26.9116H26.9116H26.9117H26.9117H26.9118H26.9118H26.9118H26.9119H26.9119H26.912H26.912H26.912H26.9121H26.9121H26.9121H26.9122H26.9122H26.9123H26.9123H26.9123H26.9124H26.9124H26.9125H26.9125H26.9125H26.9126H26.9126H26.9127H26.9127H26.9127H26.9128H26.9128H26.9128H26.9129H26.9129H26.913H26.913H26.913H26.9131H26.9131H26.9132H26.9132H26.9132H26.9133H26.9133H26.9133H26.9134H26.9134H26.9135H26.9135H26.9135H26.9136H26.9136H26.9137H26.9137H26.9137H26.9138H26.9138H26.9138H26.9139H26.9139H26.914H26.914H26.914H26.9141H26.9141H26.9142H26.9142H26.9142H26.9143H26.9143H26.9144H26.9144H26.9144H26.9145H26.9145H26.9145H26.9146H26.9146H26.9147H26.9147H26.9147H26.9148H26.9148H26.9149H26.9149H26.9149H26.915H26.915H26.915H26.9151H26.9151H26.9152H26.9152H26.9152H26.9153H26.9153H26.9154H26.9154H26.9154H26.9155H26.9155H26.9156H26.9156H26.9156H26.9157H26.9157H26.9157H26.9158H26.9158H26.9159H26.9159H26.9159H26.916H26.916H26.9161H26.9161H26.9161H26.9162H26.9162H26.9163H26.9163H26.9163H26.9164H26.9164H26.9165H26.9165H26.9165H26.9166H26.9166H26.9166H26.9167H26.9167H26.9168H26.9168H26.9168H26.9169H26.9169H26.917H26.917H26.917H26.9171H26.9171H26.9172H26.9172H26.9172H26.9173H26.9173H26.9174H26.9174H26.9174H26.9175H26.9175H26.9175H26.9176H26.9176H26.9177H26.9177H26.9177H26.9178H26.9178H26.9179H26.9179H26.9179H26.918H26.918H26.9181H26.9181H26.9181H26.9182H26.9182H26.9183H26.9183H26.9183H26.9184H26.9184H26.9185H26.9185H26.9185H26.9186H26.9186H26.9187H26.9187H26.9187H26.9188H26.9188H26.9188H26.9189H26.9189H26.919H26.919H26.919H26.9191H26.9191H26.9192H26.9192H26.9192H26.9193H26.9193H26.9194H26.9194H26.9194H26.9195H26.9195H26.9196H26.9196H26.9196H26.9197H26.9197H26.9198H26.9198H26.9198H26.9199H26.9199H26.92H26.92H26.92H26.9201H26.9201H26.9202H26.9202H26.9202H26.9203H26.9203H26.9204H26.9204H26.9204H26.9205H26.9205H26.9206H26.9206H26.9207H26.9207H26.9207H26.9208H26.9208H26.9209H26.9209H26.9209H26.921H26.921H26.9211H26.9211H26.9211H26.9212H26.9212H26.9213H26.9213H26.9213H26.9214H26.9214H26.9215H26.9215H26.9215H26.9216H26.9216H26.9217H26.9217H26.9217H26.9218H26.9218H26.9219H26.9219H26.922H26.922H26.922H26.9221H26.9221H26.9222H26.9222H26.9222H26.9223H26.9223H26.9224H26.9224H26.9224H26.9225H26.9225H26.9226H26.9226H26.9226H26.9227H26.9227H26.9228H26.9228H26.9229C27.2276 21.1202 27.4803 20.8805 27.4929 20.574C27.6623 16.5189 26.1212 12.539 23.2657 9.65497L23.2657 9.65497L23.2654 9.65471C23.043 9.4317 22.6827 9.42929 22.4578 9.65135L22.4578 9.65135L22.4576 9.65153C22.2339 9.87353 22.2315 10.2345 22.4537 10.459L22.4537 10.459C25.0868 13.1174 26.5076 16.7866 26.3519 20.5256C26.3387 20.8402 26.5831 21.107 26.8984 21.1201Z" fill="white" stroke="white" stroke-width="0.2"/>
<path d="M19.6221 29.7116L19.622 29.7116C19.3253 29.8195 19.1721 30.1461 19.2795 30.4431C19.3635 30.6763 19.5831 30.82 19.8163 30.82C19.8818 30.82 19.9473 30.8085 20.0108 30.786L20.0115 30.7857C24.3639 29.2079 27.3008 25.1983 27.4933 20.574C27.5063 20.2595 27.2634 19.9929 26.9487 19.9796C26.6283 19.9536 26.3651 20.2162 26.3522 20.5261L26.3522 20.5261C26.1791 24.6868 23.5373 28.2919 19.6221 29.7116Z" fill="white" stroke="white" stroke-width="0.2"/>
<path d="M15.8089 30.8057L15.8092 30.8058L16.3949 30.3521L16.4924 30.3741C16.4924 30.3741 16.4924 30.374 16.4925 30.374C16.562 30.0662 16.369 29.7609 16.062 29.6907L16.0618 29.6906C13.4417 29.0968 11.199 27.1763 10.2096 24.6805L10.2096 24.6805C9.30767 22.4065 9.47576 19.7695 10.6588 17.6306L10.6588 17.6305C10.8113 17.3541 10.7107 17.0075 10.4357 16.8546L10.4357 16.8546L10.4353 16.8544C10.1584 16.702 9.8124 16.8026 9.65947 17.0776L9.65935 17.0778C8.31215 19.5141 8.12127 22.5132 9.14796 25.1019C10.2743 27.9445 12.8258 30.1295 15.8089 30.8057Z" fill="white" stroke="white" stroke-width="0.2"/>
<path d="M9.88313 17.8543L9.88352 17.8545C9.97033 17.9021 10.0646 17.9257 10.1587 17.9257C10.3602 17.9257 10.5549 17.8184 10.6592 17.6308L10.6594 17.6306C11.5459 16.0279 12.0908 14.2907 12.2787 12.4703L12.2787 12.4701C12.3107 12.1557 12.0828 11.8758 11.7688 11.8433L11.7688 11.8433L11.7671 11.8431C11.4514 11.816 11.175 12.0377 11.1418 12.353L11.1418 12.3532C10.9703 14.0197 10.4713 15.6093 9.65945 17.0782C9.50683 17.3539 9.60765 17.7014 9.88313 17.8543Z" fill="white" stroke="white" stroke-width="0.2"/>
<circle cx="18" cy="18" r="17.35" stroke="white" stroke-width="1.3"/>
</g>
<defs>
<clipPath id="clip0_206_24">
<rect width="36" height="36" fill="white"/>
</clipPath>
</defs>
</svg>
