<svg width="36" height="36" viewBox="0 0 36 36" fill="none" xmlns="http://www.w3.org/2000/svg">
<g clip-path="url(#clip0_206_53)">
<path d="M18.0001 0C8.05875 0 0 8.05875 0 18.0001C0 27.9412 8.05875 35.9999 18.0001 35.9999C27.9412 35.9999 35.9999 27.9412 35.9999 18.0001C35.9888 8.06349 27.9364 0.0111694 18.0001 0ZM18.0001 34.8001C8.72165 34.8001 1.19988 27.2783 1.19988 18.0001C1.19988 8.72165 8.72165 1.19988 18.0001 1.19988C27.2783 1.19988 34.8001 8.72165 34.8001 18.0001C34.7897 27.2741 27.2741 34.7897 18.0001 34.8001Z" fill="white"/>
<path d="M19.0333 2.43659L19.0104 2.38689C18.832 1.98842 18.4363 1.73236 17.9998 1.73236C17.5634 1.73236 17.1674 1.98842 16.989 2.38689L16.9614 2.44665C13.6362 2.65384 10.4686 3.93497 7.9345 6.09765C7.92724 6.10324 7.92473 6.11162 7.9183 6.11748C7.9116 6.12362 7.90378 6.1253 7.89792 6.13144C7.87865 6.15574 7.86134 6.1817 7.84626 6.20879C7.82085 6.24006 7.79851 6.27385 7.77952 6.30959C7.76556 6.34478 7.75523 6.38136 7.74853 6.41878C7.73792 6.45536 7.73066 6.49305 7.72675 6.53103C7.72703 6.56873 7.73122 6.60642 7.73931 6.64328C7.74266 6.68154 7.74992 6.71951 7.76109 6.75665C7.77645 6.79239 7.79516 6.82646 7.8175 6.85857C7.83034 6.88789 7.84598 6.91637 7.86357 6.94318C7.86972 6.94988 7.87754 6.95156 7.8834 6.95826C7.88954 6.96468 7.89122 6.97306 7.89792 6.97976L11.4378 10.5199C11.3797 11.0965 11.3909 11.6779 11.4707 12.252L7.0415 7.82277C7.0362 7.81747 7.02838 7.81551 7.02307 7.81021C7.01749 7.8049 7.01526 7.79764 7.00911 7.79206C6.98175 7.77363 6.95299 7.75743 6.92283 7.74347C6.891 7.72029 6.85721 7.70019 6.82147 7.68371C6.78237 7.67199 6.74216 7.66417 6.70139 7.66082C6.66789 7.65551 6.63382 7.653 6.60003 7.65356C6.55926 7.65691 6.51905 7.66473 6.47996 7.67701C6.44534 7.68288 6.41155 7.69209 6.3786 7.70466C6.34146 7.72392 6.30628 7.7471 6.27416 7.77419C6.24708 7.78899 6.22111 7.80602 6.19682 7.82529C6.19151 7.83059 6.18956 7.83841 6.18425 7.84372C6.17894 7.8493 6.17168 7.85153 6.1661 7.85824C0.870671 14.0416 1.22614 23.2589 6.98231 29.0159C12.7385 34.7732 21.9558 35.1301 28.14 29.8355C28.1461 29.8307 28.1484 29.8229 28.1545 29.8176C28.1604 29.8123 28.1671 29.8109 28.1724 29.8056C28.1922 29.7808 28.2098 29.7542 28.2252 29.7263C28.2509 29.6948 28.2735 29.661 28.2925 29.6249C28.3059 29.5898 28.3156 29.5532 28.3218 29.5158C28.333 29.4792 28.3405 29.4418 28.3441 29.4035C28.343 29.3655 28.3383 29.3276 28.3302 29.2901C28.3268 29.2522 28.3196 29.2145 28.3087 29.1779C28.2919 29.1413 28.2718 29.1064 28.2486 29.0735C28.2352 29.0444 28.2193 29.0162 28.2012 28.9897C28.1959 28.9835 28.1886 28.9813 28.1838 28.9757C28.1791 28.9704 28.1766 28.9626 28.1713 28.9573L24.5183 25.3013C24.6015 24.7587 24.6216 24.2083 24.5784 23.661L29.0257 28.1076C29.0316 28.1134 29.04 28.1154 29.0467 28.1213C29.0531 28.1274 29.0556 28.1352 29.0623 28.1411C29.0967 28.1665 29.1335 28.1877 29.1726 28.2048C29.1916 28.2184 29.2117 28.2307 29.2327 28.2413C29.3005 28.2687 29.3731 28.2829 29.4463 28.2835C29.5275 28.2827 29.6082 28.2653 29.6825 28.2324C29.7065 28.2187 29.7291 28.2034 29.7509 28.1869C29.7942 28.1657 29.8344 28.1389 29.871 28.1076C29.8777 28.1009 29.8794 28.0925 29.8855 28.0861C29.8914 28.0794 29.8992 28.0783 29.9045 28.0716C33.7096 23.5792 34.6599 17.3268 32.3615 11.9069C30.0628 6.48719 24.9076 2.82389 19.0333 2.43659ZM20.0706 8.88471C20.0706 8.98384 20.0567 9.08045 20.0497 9.17818C19.2578 9.66042 18.5896 10.3211 18.099 11.1077C18.0613 11.1719 18.0342 11.2392 18.0001 11.304C17.9652 11.2387 17.9401 11.1714 17.9004 11.1066C17.4095 10.3203 16.7416 9.65959 15.9497 9.17763C15.9421 9.07906 15.9293 8.97713 15.9293 8.88471C15.9293 7.95597 16.7011 5.78519 18.0001 3.05706C19.2983 5.78351 20.0706 7.95597 20.0706 8.88471ZM22.839 26.5464C22.1007 27.605 21.0416 28.398 19.8179 28.8085C19.5705 28.9095 19.291 28.8942 19.0559 28.7669C18.8632 28.6627 18.7286 28.4762 18.6901 28.2606C18.6527 28.0512 18.6234 27.8197 18.6019 27.5784C18.6306 27.1989 18.6306 26.8178 18.6019 26.4383C18.6488 25.8282 18.83 25.2362 19.1327 24.7043C20.0556 23.1444 22.1208 22.4039 23.0803 22.1339C23.3399 23.0406 23.7426 25.0206 22.839 26.5464ZM17.9903 31.1063L17.3059 29.9064C17.383 29.8807 17.4584 29.8503 17.5321 29.8157C17.7069 29.7135 17.865 29.5847 18.0001 29.4337C18.1353 29.5847 18.293 29.7135 18.4681 29.8157C18.5282 29.8495 18.5952 29.8643 18.6577 29.8919L17.9903 31.1063ZM12.9191 9.15249C13.8792 9.42168 15.9427 10.1611 16.8673 11.7198C17.166 12.2459 17.3464 12.8306 17.3964 13.4335C17.3654 13.8263 17.3654 14.2212 17.3964 14.6141C17.3755 14.8475 17.3467 15.072 17.3107 15.2742C17.2719 15.4917 17.1367 15.6796 16.9429 15.7855C16.719 15.9089 16.4526 15.9287 16.2133 15.8394L16.1748 15.8237C15.6308 15.4521 15.0472 15.1415 14.4348 14.8981C13.9227 14.5476 13.4896 14.0941 13.1629 13.5667C12.2579 12.0353 12.66 10.0567 12.9191 9.15054V9.15249ZM18.4687 16.8323C18.5173 16.8594 18.5706 16.8709 18.6203 16.8924C18.4259 17.1129 18.2514 17.3506 18.099 17.6022C18.0613 17.667 18.0342 17.7337 18.0001 17.799C17.9658 17.7337 17.9401 17.667 17.901 17.6027C17.7488 17.3509 17.5743 17.1132 17.3797 16.8924C17.4294 16.8695 17.4827 16.8583 17.5313 16.8323C17.7069 16.7296 17.865 16.5994 18.0001 16.4473C18.1353 16.5983 18.2933 16.7276 18.4687 16.8301V16.8323ZM22.0901 15.9787C22.4151 15.8494 22.7463 15.7372 23.0825 15.6419C23.3447 16.5467 23.7462 18.522 22.8359 20.0567C22.5095 20.5875 22.0736 21.0424 21.5573 21.3911C20.9477 21.6355 20.3664 21.9446 19.8227 22.3134C19.5736 22.414 19.2921 22.398 19.0559 22.2696C18.8641 22.1652 18.7295 21.9795 18.6901 21.7645C18.6541 21.5615 18.6253 21.3372 18.6035 21.1043C18.6351 20.7117 18.6351 20.3169 18.6035 19.9243C18.6535 19.3209 18.8342 18.7359 19.1327 18.2095C19.4692 17.6658 19.9176 17.2006 20.4487 16.8449C20.9589 16.4905 21.5101 16.199 22.0901 15.9762V15.9787ZM18.1015 24.093C18.0624 24.1583 18.0353 24.2268 18.0001 24.2935C17.9647 24.2268 17.9401 24.1583 17.8988 24.093C17.7463 23.8406 17.5718 23.6018 17.3771 23.3801C17.4288 23.3567 17.4846 23.3455 17.5349 23.3173C17.7086 23.2156 17.8655 23.0878 18.0001 22.9381C18.1344 23.0878 18.2914 23.2159 18.465 23.3178C18.5153 23.3455 18.5712 23.3575 18.6228 23.3807C18.4285 23.6024 18.2539 23.8409 18.1015 24.093ZM14.4415 21.3889C13.9244 21.0396 13.4877 20.5841 13.161 20.0525C12.2562 18.5273 12.6564 16.5467 12.9175 15.6403C13.0476 15.6768 13.1981 15.7224 13.3626 15.7771C13.5312 15.8335 13.7147 15.8969 13.9088 15.9762C14.4898 16.1996 15.0419 16.4925 15.5526 16.8485C16.0823 17.2037 16.5297 17.6681 16.8647 18.2106C17.1635 18.7367 17.3442 19.3217 17.3939 19.9249C17.3632 20.3175 17.3632 20.7123 17.3939 21.1049C17.373 21.3383 17.3442 21.5623 17.3082 21.765C17.2694 21.9806 17.1348 22.1671 16.9421 22.2721C16.7184 22.3967 16.4518 22.4187 16.2108 22.3319L16.1742 22.3171C15.6322 21.9465 15.0517 21.6355 14.4432 21.3889H14.4415ZM12.9186 22.1333C13.8786 22.4034 15.9433 23.145 16.8661 24.7037C17.1699 25.2356 17.3523 25.8282 17.4 26.4389C17.3713 26.8183 17.3713 27.1995 17.4 27.579C17.3785 27.8189 17.3489 28.0517 17.3118 28.2606C17.2733 28.4765 17.1387 28.6633 16.9457 28.7677C16.7109 28.895 16.4311 28.9101 16.1837 28.809C14.9604 28.3985 13.9012 27.6055 13.1629 26.5469C12.2573 25.0206 12.66 23.0406 12.9186 22.1333ZM22.8365 13.5653C22.5101 14.0927 22.0767 14.5462 21.5646 14.8961C20.9522 15.1393 20.3686 15.4495 19.8246 15.8215H19.8185C19.5714 15.9234 19.2913 15.9089 19.0559 15.7818C18.8624 15.676 18.727 15.4884 18.6882 15.2711C18.6521 15.0684 18.6234 14.8447 18.6019 14.6113C18.6331 14.2181 18.6331 13.8233 18.6019 13.4304C18.6513 12.8278 18.8317 12.2434 19.1305 11.7181C19.5563 11.0516 20.1393 10.5001 20.8279 10.1111C20.8989 10.0837 20.9636 10.043 21.0192 9.99132C21.6709 9.63083 22.3621 9.3474 23.0791 9.14635C23.3399 10.0567 23.742 12.0353 22.8365 13.5653ZM9.22624 6.61312C11.2951 4.99635 13.7733 3.98719 16.3831 3.69846C15.6255 5.23063 15.0807 6.85913 14.7629 8.53846C14.0813 8.23241 13.369 8.00009 12.6379 7.84623C12.357 7.79345 12.0778 7.94592 11.9706 8.21091C11.862 8.49489 11.7704 8.78502 11.6958 9.07989L9.22624 6.61312ZM3.59992 17.9992C3.60467 14.7891 4.68643 11.6737 6.67207 9.1511L12.0647 14.5445C12.0242 14.5909 11.9912 14.6434 11.9669 14.7001C11.9119 14.838 10.6188 18.1162 12.1297 20.6629C12.1727 20.7366 12.2269 20.8061 12.2749 20.8787C12.1353 20.9407 12.025 21.0535 11.9664 21.1943C11.9111 21.333 10.6188 24.609 12.1283 27.1579C13.0021 28.4491 14.272 29.4211 15.747 29.9268C15.8215 29.9531 15.8975 29.9748 15.9745 29.9921L17.34 32.3827C9.65627 32.0214 3.60942 25.6916 3.59992 17.9992ZM26.8483 29.3278C24.5041 31.17 21.643 32.2333 18.6647 32.3693L19.9609 30.0109C20.06 29.9894 20.1575 29.9614 20.253 29.9268C21.7276 29.4211 22.9979 28.4494 23.8716 27.1585C23.973 26.9853 24.0632 26.8063 24.1422 26.622L26.8483 29.3278ZM29.391 26.7779L24.1573 21.5447C24.0925 21.3456 24.0433 21.2191 24.0336 21.1943C23.9752 21.0532 23.8646 20.9402 23.7253 20.8782C23.7725 20.8067 23.8261 20.7377 23.8691 20.6646C25.3812 18.1162 24.0883 14.838 24.033 14.7001C23.9746 14.5605 23.8655 14.4482 23.7275 14.3857C23.7744 14.3153 23.8272 14.2477 23.8691 14.1757C25.3812 11.6221 24.0883 8.34885 24.0324 8.21091C23.9252 7.94592 23.646 7.79345 23.3654 7.84623C22.634 8.00009 21.9217 8.23241 21.2401 8.53846C20.9206 6.85606 20.3733 5.22504 19.6135 3.69064C24.7808 4.26419 29.2357 7.58347 31.2635 12.3707C33.2913 17.1579 32.5762 22.6672 29.3935 26.7779H29.391Z" fill="white"/>
</g>
<defs>
<clipPath id="clip0_206_53">
<rect width="36" height="36" fill="white"/>
</clipPath>
</defs>
</svg>
