<svg width="49" height="48" viewBox="0 0 49 48" fill="none" xmlns="http://www.w3.org/2000/svg">
<g clip-path="url(#clip0_261_94)">
<path fill-rule="evenodd" clip-rule="evenodd" d="M36.9448 18.5747L35.7499 12.7501C35.1284 9.71994 33.2187 7.12512 30.1249 7.12512H18.8749C15.7812 7.12512 13.8716 9.71947 13.2499 12.7501L12.0552 18.5748H12.3231C14.2845 18.5748 14.4208 20.0505 16.3821 20.0505C18.0928 20.0505 18.4151 18.9279 19.7709 18.6409C22.1382 18.1643 22.388 20.0421 24.5 20.0505C26.6092 20.0439 26.8598 18.1648 29.2291 18.6409C30.585 18.9279 30.9073 20.0505 32.6179 20.0505C34.5793 20.0505 34.7155 18.5748 36.6768 18.5748L36.9448 18.5747Z" fill="#FFAD32"/>
<path d="M48.5 31.5001C48.5 30.9823 48.0802 30.5626 47.5625 30.5626H40.3608L36.6683 12.5618C35.8618 8.63009 33.3546 6.18762 30.125 6.18762H18.875C15.6454 6.18762 13.1382 8.63009 12.3317 12.5618L8.63917 30.5626H1.4375C0.919812 30.5626 0.5 30.9823 0.5 31.5001C0.5 34.2512 2.48534 36.5474 5.09843 37.0312L4.72334 40.7818C4.69699 41.0454 4.78334 41.3077 4.96099 41.5041C5.13874 41.7005 5.3913 41.8126 5.65615 41.8126H43.3437C43.6085 41.8126 43.8611 41.7005 44.0388 41.5041C44.2166 41.3077 44.3028 41.0453 44.2765 40.7818L43.9016 37.0312C46.5147 36.5474 48.5 34.2512 48.5 31.5001ZM14.1684 12.9385C14.6519 10.5813 16.1423 8.06262 18.875 8.06262H30.125C32.8577 8.06262 34.3481 10.5814 34.8316 12.9385L38.4468 30.5626H10.5532L14.1684 12.9385ZM6.69218 39.9375L6.97342 37.125H42.0266L42.3078 39.9375H6.69218ZM42.875 35.2501H6.12499C4.38087 35.2501 2.91096 34.0532 2.49368 32.4376H46.5064C46.089 34.0532 44.6191 35.2501 42.875 35.2501Z" fill="#0B0B0B"/>
<path d="M20.1834 13.2216C19.6661 13.1827 19.2168 13.569 19.1775 14.0852L18.4151 24.1023C18.3758 24.6186 18.7625 25.0689 19.2788 25.1082C19.7881 25.1493 20.2473 24.762 20.2847 24.2446L21.0471 14.2275C21.0864 13.7112 20.6997 13.2607 20.1834 13.2216Z" fill="#0B0B0B"/>
<path d="M29.8226 14.0852C29.7832 13.5688 29.3324 13.1819 28.8167 13.2215C28.3004 13.2608 27.9137 13.7112 27.9529 14.2275L28.7153 24.2446C28.7529 24.7621 29.2119 25.1493 29.7213 25.1082C30.2375 25.0689 30.6243 24.6185 30.585 24.1023L29.8226 14.0852Z" fill="#0B0B0B"/>
</g>
<defs>
<clipPath id="clip0_261_94">
<rect width="48" height="48" fill="white" transform="translate(0.5)"/>
</clipPath>
</defs>
</svg>
