<svg width="48" height="48" viewBox="0 0 48 48" fill="none" xmlns="http://www.w3.org/2000/svg">
<path fill-rule="evenodd" clip-rule="evenodd" d="M33.9259 17.0324C33.3509 17.3032 32.8466 17.6134 31.7862 17.6134C29.9049 17.6134 29.7743 16.6367 27.893 16.6367C26.0118 16.6367 25.881 17.6134 23.9998 17.6134C22.1186 17.6134 21.9879 16.6367 20.1067 16.6367C18.2255 16.6367 18.0947 17.6134 16.2135 17.6134C15.1531 17.6134 14.6488 17.3032 14.0738 17.0324L13.9712 17.0049C14.7561 26.5277 16.8935 31.3594 17.3471 42.2864H30.6527C31.1068 31.3467 33.2487 26.5165 34.0313 16.9716L33.9259 17.0324Z" fill="#FFAD32"/>
<path d="M35.2568 9.53942C35.2568 9.02132 34.8367 8.60135 34.3187 8.60135H33.2834C32.9267 6.89999 31.622 5.561 29.9401 5.15491C28.8396 -1.72052 19.1574 -1.71677 18.06 5.15698C16.3906 5.56803 15.0792 6.91866 14.7183 8.60126H13.6811C13.1631 8.60126 12.7431 9.02123 12.7431 9.53932C12.7186 24.4376 15.7534 28.426 16.4067 42.2483L15.9851 45.6614C15.9152 46.2274 16.0929 46.7836 16.4856 47.2278C16.9131 47.7113 17.5546 48 18.2017 48H29.7981C30.4451 48 31.0866 47.7112 31.5142 47.2278C31.9068 46.7837 32.0845 46.2273 32.0146 45.6614L31.5932 42.2484C32.2464 28.4259 35.2812 24.4379 35.2568 9.53942ZM31.9776 25.2245C31.2572 25.2702 30.7259 25.0858 30.2494 24.8346C28.8634 24.06 26.9219 24.0605 25.5368 24.8346C25.0656 25.0634 24.7249 25.2288 23.9999 25.2288C23.275 25.2288 22.9345 25.0634 22.4631 24.8346C21.0756 24.0588 19.1319 24.0618 17.7505 24.8346C17.2746 25.0856 16.7417 25.2703 16.0223 25.2245C15.2907 21.116 14.6785 16.8243 14.6233 10.4774H33.3766C33.3215 16.8243 32.7093 21.116 31.9776 25.2245ZM18.9917 6.90749C19.4903 6.8817 19.8813 6.46501 19.8813 5.96577C20.1084 0.500152 27.8956 0.503154 28.1186 5.97074C28.1186 6.46989 28.5096 6.8817 29.0081 6.90749C30.0787 6.96284 30.9738 7.64725 31.3342 8.60126H16.6693C17.0338 7.65457 17.9322 6.96237 18.9917 6.90749ZM30.1086 45.9851C30.0352 46.0681 29.9105 46.1239 29.7981 46.1239H18.2017C18.0894 46.1239 17.9646 46.068 17.8912 45.9851C17.8688 45.9599 17.8431 45.9232 17.8471 45.8913L18.1764 43.2245H29.8232L30.1525 45.8913C30.1566 45.9232 30.1308 45.9599 30.1086 45.9851ZM31.5381 27.6266C30.8059 31.5756 30.0501 35.6526 29.7573 41.3485H18.2426C17.9298 35.3735 17.1552 31.3838 16.3648 27.1031C17.4288 27.0764 18.0591 26.7704 18.5699 26.5225C19.0413 26.2937 19.3818 26.1283 20.1069 26.1283C20.8319 26.1283 21.1724 26.2937 21.6438 26.5225C23.0274 27.2966 24.972 27.2968 26.3563 26.5225C26.8276 26.2937 27.1682 26.1283 27.8932 26.1283C28.6182 26.1283 28.9587 26.2937 29.4301 26.5225C29.9409 26.7705 30.5713 27.0765 31.6353 27.1031C31.6029 27.2773 31.5705 27.4517 31.5381 27.6266Z" fill="#0B0B0B"/>
<path d="M22.2004 36.3502H22.1997C21.6817 36.3502 21.262 36.7702 21.262 37.2883C21.3115 38.5324 23.0892 38.5324 23.1385 37.2883C23.1385 36.7702 22.7185 36.3502 22.2004 36.3502Z" fill="#0B0B0B"/>
<path d="M26.8916 30.0653H26.8908C26.3728 30.0653 25.9531 30.4853 25.9531 31.0034C26.0027 32.2475 27.7804 32.2475 27.8296 31.0034C27.8296 30.4853 27.4097 30.0653 26.8916 30.0653Z" fill="#0B0B0B"/>
<path d="M21.2164 21.5758C22.461 21.5262 22.4601 19.7489 21.2164 19.6997H21.2157C19.9711 19.7494 19.9727 21.5268 21.2164 21.5758Z" fill="#0B0B0B"/>
</svg>
