<svg width="81" height="109" viewBox="0 0 81 109" fill="none" xmlns="http://www.w3.org/2000/svg">
<g clip-path="url(#clip0_206_77)">
<path d="M12.5294 104.183H16.1194V105.132H13.5648V106.139H15.8143V107.084H13.5648V108.915H12.5261V104.18L12.5294 104.183Z" fill="white"/>
<path d="M20.719 104.151H21.6766L23.6956 108.919H22.6114L22.1797 107.856H20.1867L19.755 108.919H18.6968L20.7158 104.151H20.719ZM21.8129 106.937L21.1864 105.402L20.56 106.937H21.8129Z" fill="white"/>
<path d="M27.1201 104.183H28.1588V107.97H30.5089V108.919H27.1201V104.183Z" fill="white"/>
<path d="M35.6018 104.151H36.5594L38.5784 108.919H37.4942L37.0625 107.856H35.0695L34.6378 108.919H33.5796L35.5986 104.151H35.6018ZM36.6925 106.937L36.066 105.402L35.4395 106.937H36.6925Z" fill="white"/>
<path d="M42.4928 105.145H41.0581V104.183H44.9663V105.145H43.5315V108.919H42.4928V105.145Z" fill="white"/>
<path d="M48.0469 106.566V106.553C48.0469 105.207 49.1051 104.105 50.5593 104.105C52.0135 104.105 53.0587 105.194 53.0587 106.54V106.553C53.0587 107.898 52.0005 109 50.5463 109C49.0921 109 48.0469 107.912 48.0469 106.566ZM51.9745 106.566V106.553C51.9745 105.741 51.3805 105.067 50.5463 105.067C49.7121 105.067 49.131 105.728 49.131 106.54V106.553C49.131 107.364 49.725 108.042 50.5593 108.042C51.3935 108.042 51.9745 107.377 51.9745 106.566Z" fill="white"/>
<path d="M56.2981 108.127L58.8916 105.096H56.3792V104.183H60.2257V104.975L57.6322 108.006H60.2257V108.919H56.2981V108.127Z" fill="white"/>
<path d="M63.4619 106.566V106.553C63.4619 105.207 64.5201 104.105 65.9743 104.105C67.4285 104.105 68.4737 105.194 68.4737 106.54V106.553C68.4737 107.898 67.4155 109 65.9613 109C64.5071 109 63.4619 107.912 63.4619 106.566ZM67.3863 106.566V106.553C67.3863 105.741 66.7923 105.067 65.9581 105.067C65.1239 105.067 64.5428 105.728 64.5428 106.54V106.553C64.5428 107.364 65.1368 108.042 65.9711 108.042C66.8053 108.042 67.3863 107.377 67.3863 106.566ZM66.3638 102.684L67.2467 103.069L66.3314 103.747H65.5491L66.3638 102.684Z" fill="white"/>
<path d="M1.43797 97.8253L0.256432 97.5026C0 97.3527 0 97.1996 0.642703 96.6618L0.707622 96.5967C1.18153 96.1861 1.46069 95.7559 1.52236 95.2801C1.60676 94.7847 1.6522 93.3182 1.6522 90.8382V85.7283L1.37305 85.5328C1.13609 85.4252 1.0095 85.4252 0.772542 85.4252C0.0649195 85.5979 0 85.5979 0 85.1026C0 84.8647 0.0843953 84.6724 0.256432 84.5192C0.405747 84.3889 0.814739 84.0891 1.48016 83.6133C2.46694 82.9028 3.02525 82.5574 3.17781 82.5346C3.37257 82.5346 3.60628 82.6845 3.90815 82.9876C4.2295 83.2678 4.46646 83.5709 4.61577 83.8707L4.87221 84.4084L4.84948 88.7428C4.82676 91.6106 4.78456 93.1651 4.67745 93.3997C4.54761 94.0906 3.10964 95.4496 3.47319 95.4496C3.64523 95.5147 4.35285 95.6875 5.62202 95.9677L7.70594 96.4207C7.85525 96.4207 8.02729 96.3132 8.26425 96.0753C8.60832 95.7526 8.6278 95.7526 8.99459 95.9025C9.23155 96.0101 9.31594 96.1404 9.29647 96.3132C9.27374 96.4859 9.05951 97.0464 8.65052 97.9947V98.0175C8.24152 98.9463 7.96237 99.4189 7.81306 99.4417C7.66374 99.4645 6.41729 99.1614 4.0315 98.5357C3.04472 98.2554 2.18454 98.0175 1.43147 97.8253H1.43797Z" fill="white"/>
<path d="M9.94575 97.0073C9.83863 96.6847 9.77372 96.274 9.75099 95.8211C9.72827 95.3681 9.72827 94.2894 9.72827 92.6306V90.7763C9.72827 89.9779 9.77047 88.922 9.83539 88.6417C9.85811 88.4918 9.91978 88.3191 10.0074 88.1236C10.1795 87.6934 10.2866 87.6282 10.6307 87.3056C11.6629 86.2693 13.5001 85.4122 14.7141 85.1808C16.8467 84.7767 16.2494 89.2381 16.7655 90.3168C16.9376 90.6394 17.207 90.4243 17.3563 90.5319C17.5705 90.6818 17.6777 90.8122 17.6127 91.0077C17.59 91.138 17.4634 91.2879 17.1843 91.4607L15.2497 92.497L12.5847 93.8429V93.1716C12.5847 94.5077 12.6074 95.3713 12.6496 95.7396C12.7146 96.1046 12.8444 96.3881 13.0359 96.6227C13.5715 97.1833 14.4317 97.0106 15.6554 96.1046C16.4929 95.4789 16.7948 95.4137 17.0512 95.8243C17.3076 96.2545 17.1161 96.4728 15.2691 97.6786C13.7241 98.715 12.5847 98.9496 11.3805 98.5846C10.6729 98.3695 10.1989 97.8513 9.94251 97.0106L9.94575 97.0073ZM13.6851 92.1483C14.0487 91.9528 14.3927 91.7377 14.4155 91.6529C14.4382 91.5454 14.3927 88.0486 14.2661 87.6608C14.159 87.2502 14.0292 86.9927 13.9221 86.8624C13.6851 86.6245 12.9515 86.7418 12.76 87.0677C12.6107 87.26 12.588 87.563 12.588 88.3387C12.588 89.0067 12.6107 92.6111 12.6529 92.6111L13.6851 92.1483Z" fill="white"/>
<path d="M29.7949 97.0073C29.6878 96.6847 29.6228 96.274 29.6001 95.8211C29.5774 95.3681 29.5774 94.2894 29.5774 92.6306V90.7763C29.5774 89.9779 29.6196 88.922 29.6845 88.6417C29.7072 88.4918 29.7689 88.3191 29.8565 88.1236C30.0286 87.6934 30.1357 87.6282 30.4798 87.3056C31.512 86.2693 33.3492 85.4122 34.5632 85.1808C36.6958 84.7767 36.0986 89.2381 36.6147 90.3168C36.7867 90.6394 37.0561 90.4243 37.2054 90.5319C37.4197 90.6818 37.5268 90.8122 37.4619 91.0077C37.4391 91.138 37.3125 91.2879 37.0334 91.4607L35.0988 92.497L32.4338 93.8429V93.1716C32.4338 94.5077 32.4566 95.3713 32.4988 95.7396C32.5637 96.1046 32.6935 96.3881 32.885 96.6227C33.4206 97.1833 34.2808 97.0106 35.5045 96.1046C36.342 95.4789 36.6439 95.4137 36.9003 95.8243C37.1567 96.2545 36.9652 96.4728 35.1183 97.6786C33.5732 98.715 32.4338 98.9496 31.2296 98.5846C30.522 98.3695 30.0481 97.8513 29.7916 97.0106L29.7949 97.0073ZM33.5342 92.1483C33.8978 91.9528 34.2419 91.7377 34.2646 91.6529C34.2873 91.5454 34.2419 88.0486 34.1153 87.6608C34.0081 87.2502 33.8783 86.9927 33.7712 86.8624C33.5342 86.6245 32.8006 86.7418 32.6091 87.0677C32.4598 87.26 32.4371 87.563 32.4371 88.3387C32.4371 89.0067 32.4598 92.6111 32.502 92.6111L33.5342 92.1483Z" fill="white"/>
<path d="M18.7779 100.37C18.2618 99.8099 18.0703 99.3993 18.1969 99.1614C18.2618 99.0311 18.5832 98.7508 19.1415 98.2978C19.7225 97.8448 20.0211 97.5874 20.0861 97.5222C20.151 97.457 20.0017 97.2647 19.6122 96.9193C19.2259 96.5543 18.9467 96.186 18.7747 95.8178C18.6449 95.5375 18.5605 95.2573 18.5377 94.9346C18.515 94.612 18.515 93.6832 18.515 92.1744C18.515 90.4928 18.5377 89.3717 18.5994 88.8307C18.6643 88.2702 18.8364 87.7749 19.0928 87.3414C19.7809 86.0705 21.4331 85.272 23.1535 85.272C23.5625 85.2492 24.3123 85.3568 25.4517 85.5947C26.591 85.8326 27.3863 85.9173 27.8796 85.8749C28.61 85.7674 28.6327 85.8097 28.7398 86.0705C28.8891 86.5006 28.7626 86.6734 28.2237 86.9341L28.1588 86.9764C27.7953 87.1492 27.5778 87.4718 27.5129 87.9248C27.4479 88.3778 27.4285 89.8671 27.4285 92.4318V98.0404L27 98.7084C26.7208 99.1386 26.3995 99.5069 26.0327 99.8295C25.7113 100.11 25.1952 100.413 24.5298 100.758C23.8644 101.104 23.3061 101.342 22.8549 101.449C22.0596 101.645 20.943 101.645 20.2549 101.449C19.7809 101.299 19.2876 100.954 18.7715 100.37H18.7779ZM24.4714 98.5161C24.5363 97.8676 24.5558 96.0361 24.5363 92.9956C24.5136 90.4276 24.4941 88.8536 24.4714 88.2735C24.4487 87.6901 24.4065 87.3023 24.2993 87.11C24.1046 86.6994 23.7183 86.442 23.1827 86.3344C22.6471 86.2269 22.2154 86.3116 21.8519 86.6375C21.6571 86.8102 21.5078 87.2209 21.4429 87.8889C21.378 88.5374 21.378 89.7009 21.4007 91.4053C21.4234 92.7642 21.4429 93.605 21.4656 93.9276C21.4883 94.2503 21.5727 94.511 21.6798 94.7456C22.1083 95.5441 22.5822 95.7363 23.3548 95.329L23.7638 95.1139L23.9585 95.3713C24.0656 95.5669 24.1305 95.6744 24.1305 95.7363C24.1305 95.8862 23.4846 96.4272 22.1765 97.3527L20.8229 98.3239L21.0177 98.6693C21.4916 99.7056 22.1992 100.178 23.0367 100.178C23.4457 100.178 23.6372 100.136 23.8968 99.8979C24.2182 99.6177 24.413 99.1647 24.4779 98.5161H24.4714Z" fill="white"/>
<path d="M38.9518 93.2759C38.9518 89.6944 38.9096 87.84 38.8447 87.6901C38.6953 87.4327 38.3091 87.4099 37.7281 87.6054C37.3191 87.8009 37.2119 87.6478 37.1048 87.1752C37.0399 86.8526 37.0626 86.8102 37.4684 86.6147C37.6631 86.4843 38.7343 86.0965 39.6594 85.7511C39.6821 85.7511 39.7016 85.7511 39.7243 85.7283C40.7338 85.3828 41.3148 85.2329 41.4869 85.2753C41.6589 85.3177 41.766 85.6403 41.7888 86.2464C41.7888 86.2693 41.7888 86.2888 41.8115 86.3116C41.8342 86.8722 41.8537 87.1524 41.8764 87.1524C41.8991 87.1524 42.7366 86.7222 43.7461 86.1813C44.5186 85.7935 45.0575 85.5328 45.3788 85.4057C45.7002 85.2753 45.9793 85.1906 46.2585 85.1678C47.0115 85.1026 47.3751 85.2525 47.6542 85.8358C47.7386 85.9857 47.8035 86.3735 47.8263 86.9569C47.849 87.5402 47.8685 88.9839 47.8912 91.2717V91.9397C47.9139 94.6348 47.9756 96.1241 48.0859 96.4044C48.1509 96.5999 48.3229 96.6195 48.5599 96.4891C48.5826 96.4663 48.6897 96.4044 48.7546 96.3816C49.3356 96.059 49.5694 96.1013 49.7219 96.5119C49.7868 96.7075 49.7641 96.8769 49.6148 97.0301C49.485 97.1605 49.076 97.4407 48.3683 97.8709C46.4987 98.992 45.6839 99.0343 45.2327 98.1512C45.1483 97.9556 45.0834 97.5906 45.0607 97.0301C45.038 96.4696 45.038 95.0683 45.038 92.8457C45.038 89.5673 44.9958 87.8205 44.9309 87.625C44.8237 87.3675 44.7588 87.3219 44.3304 87.3871C44.009 87.4294 43.5156 87.625 42.8469 87.99L41.8797 88.5505L41.8569 92.5198L41.8342 96.4891L42.1361 96.4044C42.3081 96.3816 42.61 96.2545 42.8015 96.1665C43.2527 95.971 43.4896 96.1437 43.4896 96.6423V97.0073L41.3635 97.9133C39.3218 98.7769 38.9356 98.904 38.9583 98.7312C38.9356 98.6661 38.9356 96.8541 38.9583 93.2759H38.9518Z" fill="white"/>
<path d="M50.5529 97.3104C50.4458 97.0301 50.3581 96.6619 50.3386 96.2089C50.3159 95.7559 50.3159 94.4849 50.3159 92.3471V87.9704L50.6795 87.2795C51.5397 85.5751 52.7634 84.9722 54.0942 85.6175C54.3312 85.725 54.7402 86.0477 55.2758 86.5463C55.8113 87.0416 56.0905 87.3447 56.0905 87.4522C56.0905 87.5174 56.0061 87.6673 55.8536 87.8629C55.7042 88.0584 55.5971 88.1431 55.5322 88.1431C55.4673 88.1431 55.2758 87.9932 54.9317 87.7129C54.5876 87.4099 54.3734 87.26 54.2663 87.26C54.0098 87.26 53.4937 87.8433 53.3217 88.3158C53.2568 88.5537 53.1919 89.7172 53.1497 91.7866C53.1075 93.8559 53.1075 95.1074 53.1724 95.5375C53.2373 95.8602 53.3671 96.1404 53.5586 96.336C53.7729 96.551 54.0163 96.601 54.289 96.4859C54.5681 96.3783 54.9544 96.1209 55.4478 95.7526L56.2009 95.1921V84.9494L55.9217 84.604C55.727 84.3661 55.4705 84.239 55.1914 84.1934C54.9544 84.151 54.8051 84.0858 54.7824 83.9978C54.7597 83.9555 54.7597 83.8675 54.7597 83.7599C54.7597 83.4145 54.8019 83.3949 55.2336 83.3297L57.2298 82.8768C57.9375 82.6812 58.3692 82.5965 58.5412 82.5737C58.736 82.5509 58.8626 82.5737 58.9502 82.6584C59.0151 82.7236 59.08 83.0039 59.08 83.9098C59.1028 84.1901 59.1028 84.6007 59.1028 85.1384C59.1255 86.2399 59.145 87.4034 59.145 89.4956C59.1677 93.9602 59.2521 96.2447 59.3819 96.3523C59.5767 96.525 59.6384 96.5478 60.1772 96.2871C60.7355 96.0492 60.7582 96.0296 60.9075 96.2643C61.2094 96.6944 61.0796 96.9552 60.307 97.4505C59.0833 98.2489 58.2004 98.6595 57.6648 98.7019C57.2363 98.7443 56.9345 98.7247 56.7624 98.6367C56.4411 98.464 56.2041 97.8807 56.2041 97.255C56.2041 96.9747 56.1619 96.7368 56.1392 96.7596C56.1165 96.7596 55.7107 97.0399 55.2595 97.4081C54.724 97.8383 54.2728 98.1642 53.8638 98.3565C53.1983 98.6595 52.231 98.7866 51.7571 98.6139C51.241 98.4184 50.832 97.9882 50.5529 97.2973V97.3104Z" fill="white"/>
<path d="M62.1117 97.6102C61.9396 97.1572 61.8552 96.3392 61.8552 95.1074C61.8552 93.8755 61.8974 93.1455 62.0045 92.8652C62.2188 92.132 63.014 91.5943 65.5264 90.2972L67.8473 89.111V88.4625C67.8473 87.6217 67.6331 87.0612 67.2468 86.9732C66.7729 86.8428 66.3217 86.9732 64.8188 87.6217C63.9391 87.9867 63.4003 88.1822 63.251 88.2474C63.1017 88.3126 62.9946 88.3126 62.9296 88.2702C62.8452 88.1855 62.8452 88.0128 62.7576 87.7521C62.7349 87.3871 62.7576 87.2763 63.079 87.084C63.5723 86.7385 65.7439 85.8326 66.7307 85.5328C68.107 85.1221 69.1165 85.0798 69.7364 85.36C69.7592 85.36 69.7786 85.36 69.8014 85.3828C70.2298 85.5784 70.4895 85.8782 70.5544 86.3312C70.6194 86.7842 70.6615 88.2507 70.6843 90.7535V91.1185C70.707 94.3318 70.7265 96.0133 70.7687 96.1861C70.8336 96.4891 71.1549 96.4891 71.7132 96.2089C72.2715 95.9286 72.5085 95.9286 72.5929 96.3816C72.7227 96.6619 72.6156 96.7694 72.3137 97.0301C72.0346 97.2876 71.4763 97.633 70.6583 98.0436C69.863 98.4542 69.3275 98.6693 69.0483 98.7117C68.6198 98.7769 68.5127 98.7345 68.2336 98.4966C67.9317 98.2392 67.9122 98.1316 67.87 97.5059C67.8473 97.0757 67.8051 96.7727 67.7856 96.7727C67.7661 96.7727 67.2695 97.0757 66.7339 97.4407C65.0168 98.5846 64.0495 98.9072 63.1893 98.5846C62.6537 98.3891 62.2869 98.0664 62.1149 97.6134L62.1117 97.6102ZM67.844 95.3909V92.976C67.844 91.1446 67.8018 90.5808 67.7142 90.5808C67.5649 90.5808 67.0683 90.8187 66.2762 91.2717C65.4842 91.7246 65.0525 92.0049 64.9454 92.1548C64.8383 92.3047 64.7506 92.4774 64.7312 92.7153C64.7084 92.9304 64.7084 93.4486 64.7084 94.2666C64.7084 96.9421 64.9032 97.1148 66.7696 96.0133L67.844 95.3876V95.3909ZM67.1819 84.5649H66.6463L67.1137 82.1305H69.4118L67.1819 84.5649Z" fill="white"/>
<path d="M74.5568 97.8905C73.7616 97.2648 73.7843 97.2224 73.4402 97.3951C73.2682 97.4798 73.1838 97.4603 73.0117 97.2876C72.8624 97.1377 72.7748 97.0073 72.7975 96.8769C72.7975 96.7466 73.1416 96.4011 73.8297 95.8211C74.5179 95.2377 74.9269 94.9575 75.0762 94.9575C75.2255 94.9575 75.5274 95.2149 75.998 95.7331C76.9653 96.8346 77.4587 97.1768 78.0592 97.1768C78.3806 97.1768 78.6403 97.092 78.8318 96.9193C79.1336 96.6619 79.1758 96.336 78.9616 95.9286C78.7668 95.518 78.1663 94.8075 77.199 93.7517C75.5014 91.9625 74.599 90.8187 74.1478 89.8703C73.8038 89.1794 73.7616 89.0067 73.8265 88.5994C73.9336 87.9313 74.3199 87.2632 74.9853 86.5952C75.8228 85.7544 76.7024 85.3437 77.6502 85.3437C78.5299 85.3209 78.9389 85.5588 79.6043 86.3573C79.9484 86.7874 80.0977 86.9406 80.4191 86.9601C80.7826 87.0025 80.8053 87.0253 80.8053 87.3708C80.8053 87.7162 80.8053 87.7358 79.6011 88.3615L78.3968 88.9872L78.0949 88.5994C77.8807 88.3419 77.6437 88.0388 77.4068 87.7162C76.9556 87.1133 76.5466 86.833 76.1603 86.8754C75.9461 86.8982 75.8163 87.0253 75.7968 87.3056C75.7091 87.8009 76.1831 88.4918 77.8385 90.1962C79.085 91.49 79.9224 92.4611 80.3509 93.1292C80.8021 93.7973 81.0163 94.4002 80.9968 94.9835C80.9968 95.8243 80.6528 96.5152 79.7926 97.3788C78.5883 98.5879 77.0432 99.1028 75.7546 98.6954C75.4332 98.5879 75.0242 98.3076 74.5503 97.897L74.5568 97.8905Z" fill="white"/>
<path d="M32.6873 24.6061L32.593 28.6525L32.7553 28.6563L32.8495 24.6099L32.6873 24.6061Z" fill="white"/>
<path d="M32.2989 24.5973L32.2061 28.6437L33.1439 28.6654L33.2368 24.619L32.2989 24.5973Z" fill="white"/>
<path d="M33.2259 28.7499L32.1255 28.7238L32.2229 24.5134L33.3233 24.5394L33.2259 28.7499ZM32.291 28.5641L33.0668 28.5837L33.1545 24.6991L32.3787 24.6828L32.291 28.5674V28.5641Z" fill="white"/>
<path d="M32.7745 17.5263H31.8364C31.8364 14.3228 32.7323 12.4131 34.4981 10.7348C37.0592 8.30365 40.4902 8.4666 40.633 8.47637L40.5811 9.41819C40.5486 9.41819 37.3968 9.2748 35.1343 11.4289C33.5698 12.9215 32.7745 14.5966 32.7745 17.5263Z" fill="white"/>
<path d="M32.8558 17.6078H31.7554V17.5263C31.7554 14.4727 32.5344 12.4881 34.443 10.6761C36.6795 8.55458 39.5717 8.38838 40.4059 8.38838C40.539 8.38838 40.6201 8.39164 40.6396 8.3949H40.7207L40.6591 9.50292H40.5779C40.5779 9.50292 40.526 9.4964 40.4416 9.4964C39.9125 9.4964 37.1794 9.59091 35.1896 11.4876C33.5309 13.0681 32.8558 14.8149 32.8558 17.5263V17.6078ZM31.9177 17.4448H32.6935C32.7064 14.7302 33.4011 12.9671 35.0792 11.3703C37.0625 9.48337 39.6853 9.33346 40.4416 9.33346C40.4643 9.33346 40.487 9.33346 40.5033 9.33346L40.5455 8.55459C39.9937 8.54155 36.9002 8.56762 34.5502 10.7967C32.6935 12.5598 31.9274 14.489 31.9144 17.4448H31.9177Z" fill="white"/>
<path d="M34.1217 18.8722H33.1836V22.8643H34.1217V18.8722Z" fill="white"/>
<path d="M34.2029 22.9458H33.1025V18.7907H34.2029V22.9458ZM33.2648 22.7829H34.0406V18.9537H33.2648V22.7829Z" fill="white"/>
<path d="M36.2738 19.2144H35.3357V24.4514H36.2738V19.2144Z" fill="white"/>
<path d="M36.355 24.5329H35.2546V19.1329H36.355V24.5329ZM35.4169 24.37H36.1927V19.2959H35.4169V24.37Z" fill="white"/>
<path d="M38.773 18.0933H37.835V25.667H38.773V18.0933Z" fill="white"/>
<path d="M38.8543 25.7485H37.7539V18.0119H38.8543V25.7485ZM37.9162 25.5855H38.692V18.1748H37.9162V25.5855Z" fill="white"/>
<path d="M40.6072 29.1866L30.5349 23.8974V17.4807L40.6072 14.1273L50.6794 17.4807V23.8974L40.6072 29.1866ZM31.473 23.3271L40.6072 28.1242L49.7413 23.3271V18.1618L40.6072 15.1212L31.473 18.1618V23.3271Z" fill="white"/>
<path d="M40.6071 29.2778L40.5681 29.2583L30.4504 23.9463V17.422L40.6038 14.0425L40.6298 14.0523L50.7605 17.4253V23.9496L50.7183 23.9724L40.6071 29.2811V29.2778ZM30.6127 23.8485L40.6038 29.0953L50.5949 23.8485V17.5393L40.6038 14.212L30.6127 17.5393V23.8485ZM40.6071 28.2154L40.5681 28.1959L31.3918 23.376V18.1031L40.6071 15.0365L40.6331 15.0463L49.8224 18.1064V23.3793L49.7802 23.4021L40.6071 28.2187V28.2154ZM31.5541 23.275L40.6071 28.0297L49.6601 23.275V18.2172L40.6071 15.2027L31.5541 18.2172V23.275Z" fill="white"/>
<path d="M40.6072 40.7263L40.2339 40.2407C35.6116 34.2183 28.1524 33.5177 28.0777 33.5111L27.0422 33.4231L32.5993 28.0721L40.6039 32.5041L48.6085 28.0721L54.1656 33.4231L53.1334 33.5111C53.0587 33.5177 45.5897 34.2281 40.9772 40.2407L40.6039 40.7263H40.6072ZM29.1424 32.7127C31.3399 33.1005 36.725 34.4921 40.6072 39.2012C44.4893 34.4953 49.8744 33.1005 52.0719 32.7127L48.4624 29.2355L40.6072 33.5828L32.7519 29.2355L29.1424 32.7127Z" fill="white"/>
<path d="M48.5238 24.6023L48.3616 24.6061L48.4544 28.6525L48.6167 28.6488L48.5238 24.6023Z" fill="white"/>
<path d="M48.91 24.5966L47.9722 24.6183L48.065 28.6647L49.0029 28.643L48.91 24.5966Z" fill="white"/>
<path d="M47.9885 28.7499L47.8911 24.5394L48.9915 24.5134L49.0889 28.7238L47.9885 28.7499ZM48.0567 24.6958L48.1475 28.5804L48.9233 28.5609L48.8357 24.6763L48.0599 24.6926L48.0567 24.6958Z" fill="white"/>
<path d="M48.0274 18.8722H47.0894V22.8643H48.0274V18.8722Z" fill="white"/>
<path d="M48.1087 22.9458H47.0083V18.7907H48.1087V22.9458ZM47.1706 22.7829H47.9464V18.9537H47.1706V22.7829Z" fill="white"/>
<path d="M45.8753 19.2144H44.9373V24.4514H45.8753V19.2144Z" fill="white"/>
<path d="M45.9598 24.5329H44.8594V19.1329H45.9598V24.5329ZM45.0184 24.37H45.7942V19.2959H45.0184V24.37Z" fill="white"/>
<path d="M43.3758 18.0933H42.4377V25.667H43.3758V18.0933Z" fill="white"/>
<path d="M43.4602 25.7485H42.3599V18.0119H43.4602V25.7485ZM42.5189 25.5855H43.2947V18.1748H42.5189V25.5855Z" fill="white"/>
<path d="M41.0746 16.5454H40.1365V26.762H41.0746V16.5454Z" fill="white"/>
<path d="M41.1558 26.8435H40.0554V16.4639H41.1558V26.8435ZM40.2177 26.6805H40.9935V16.6268H40.2177V26.6805Z" fill="white"/>
<path d="M49.3776 17.5263H48.4395C48.4395 14.5966 47.6443 12.9215 46.0797 11.4289C43.8205 9.27479 40.6654 9.41819 40.633 9.41819L38.3835 9.53876L39.9254 8.76315C39.7209 8.55458 39.4742 8.55784 38.8152 8.55784C38.3381 8.55784 37.6824 8.55784 36.7865 8.46007C33.5827 8.10159 32.8751 6.51126 32.7388 5.59877C32.4629 3.7575 33.9625 1.50887 36.0821 0.583342L37.0754 0.14991L36.7118 1.1732C36.5268 1.69462 36.1535 3.21978 36.6339 3.98888C36.8092 4.26588 37.0884 4.42231 37.4974 4.46468C38.1076 4.52985 38.6042 4.40276 39.0814 4.27566C39.8215 4.08339 40.5875 3.88459 41.4347 4.56244C42.2008 5.17511 42.5838 6.07131 42.4864 7.0229C42.428 7.58343 42.204 8.10485 41.8535 8.53829C43.1161 8.69471 45.0929 9.19332 46.7159 10.7348C48.4817 12.4098 49.3776 14.3196 49.3776 17.5263ZM38.9288 7.61602C39.7176 7.61602 40.2564 7.64535 40.7531 8.3069C41.2043 7.96472 41.4932 7.47263 41.5516 6.9284C41.6165 6.30269 41.3601 5.71283 40.8505 5.30221C40.3895 4.93396 40.026 5.00565 39.3151 5.18815C38.8055 5.31851 38.1758 5.48471 37.3967 5.39998C36.7054 5.32502 36.1665 5.00891 35.8387 4.48749C35.3778 3.75098 35.4102 2.74724 35.54 1.97815C34.3196 2.8776 33.4951 4.32454 33.6639 5.45538C33.8781 6.88603 35.5368 7.36835 36.8904 7.52151C37.7311 7.61602 38.3283 7.61602 38.812 7.61276C38.8509 7.61276 38.8931 7.61276 38.9321 7.61276L38.9288 7.61602Z" fill="white"/>
<path d="M49.4588 17.6078H48.3584V17.5263C48.3584 14.8182 47.6833 13.0681 46.0246 11.4876C44.0348 9.59416 41.3017 9.4964 40.7726 9.4964C40.6882 9.4964 40.6395 9.4964 40.6363 9.4964L37.9973 9.63653L39.7761 8.7436C39.617 8.64257 39.3898 8.63605 38.9094 8.63605H38.6075C38.1693 8.63605 37.5623 8.62628 36.7768 8.53829C33.5178 8.17329 32.7972 6.54385 32.6544 5.60529C32.3753 3.73143 33.8944 1.44369 36.0464 0.505129L37.2118 -0.00325775L36.7865 1.19927C36.6048 1.71092 36.238 3.20349 36.7021 3.94325C36.8612 4.19745 37.1241 4.34084 37.5039 4.3832C37.611 4.39624 37.7181 4.3995 37.8252 4.3995C38.2797 4.3995 38.6757 4.29521 39.062 4.19745C39.4125 4.1062 39.7793 4.01169 40.1558 4.01169C40.6395 4.01169 41.0745 4.17138 41.4867 4.50052C42.2755 5.13275 42.6682 6.05501 42.5676 7.03268C42.5124 7.5541 42.3209 8.04945 42.0061 8.47637C43.3466 8.66212 45.2163 9.19658 46.7744 10.6761C48.683 12.4881 49.4621 14.4727 49.4621 17.5263V17.6078H49.4588ZM48.5175 17.4448H49.2933C49.2803 14.489 48.5142 12.5565 46.6575 10.7967C45.0767 9.29435 43.1649 8.78596 41.8405 8.62302L41.6944 8.60346L41.7853 8.4894C42.1326 8.06249 42.3436 7.55084 42.3988 7.01639C42.4962 6.09412 42.1229 5.224 41.3796 4.62762C40.9933 4.31803 40.6005 4.17464 40.1494 4.17464C39.7923 4.17464 39.4385 4.26588 39.0944 4.35713C38.7017 4.45816 38.2927 4.5657 37.8187 4.5657C37.7051 4.5657 37.5915 4.55918 37.4812 4.54615C37.0495 4.50052 36.7476 4.33106 36.5593 4.03124C36.0627 3.23608 36.4392 1.67833 36.6275 1.14713L36.9294 0.299819L36.1081 0.658296C34.021 1.56753 32.5408 3.78031 32.8102 5.58573C32.9433 6.47867 33.6379 8.02664 36.7898 8.3786C37.5688 8.46659 38.1661 8.47637 38.6043 8.47637H38.9061C39.5067 8.47637 39.7598 8.48288 39.9773 8.70775L40.0552 8.78922L38.7633 9.43774L40.6233 9.33997C40.6233 9.33997 40.6784 9.33997 40.7661 9.33997C41.5224 9.33997 44.1451 9.48662 46.1284 11.3768C47.8066 12.9736 48.5012 14.7399 48.5142 17.4513L48.5175 17.4448ZM40.7369 8.41771L40.6882 8.35253C40.2143 7.72682 39.7112 7.69423 38.9289 7.69423H38.614C38.1693 7.69423 37.6143 7.68446 36.8807 7.60298C35.5011 7.44656 33.8067 6.95121 33.5828 5.46841C33.4107 4.33106 34.1962 2.86782 35.4914 1.91297L35.6537 1.79239L35.6212 1.99118C35.5011 2.70814 35.4524 3.71513 35.9069 4.44186C36.2217 4.94373 36.7378 5.24681 37.4065 5.31851C37.5428 5.33154 37.6857 5.34132 37.822 5.34132C38.3998 5.34132 38.8964 5.21096 39.2957 5.10994C39.643 5.01869 39.9092 4.95677 40.1494 4.95677C40.4253 4.95677 40.6557 5.04476 40.8992 5.23703C41.4315 5.66395 41.6977 6.28314 41.6295 6.93491C41.5711 7.4987 41.2757 8.00709 40.8018 8.36882L40.7369 8.41771ZM38.9289 7.53455C39.7371 7.53455 40.2727 7.58017 40.7661 8.18958C41.1686 7.86044 41.4185 7.41071 41.4705 6.91862C41.5321 6.32224 41.2887 5.7552 40.7986 5.36739C40.3831 5.03498 40.0325 5.08712 39.3346 5.26962C38.9256 5.37391 38.4193 5.50752 37.8187 5.50752C37.6759 5.50752 37.5299 5.501 37.387 5.48471C36.6697 5.4065 36.1081 5.08061 35.7673 4.53311C35.3258 3.82919 35.3291 2.89389 35.4297 2.16716C34.2936 3.07639 33.5925 4.42883 33.7451 5.4456C33.9528 6.82737 35.5758 7.29339 36.9001 7.4433C37.624 7.52477 38.1726 7.53455 38.614 7.53455H38.9289Z" fill="white"/>
<path d="M71.9276 13.4657L50.7801 10.3665V11.9243L70.4993 14.8149C70.6974 17.8913 70.9376 26.674 68.3538 37.0698C66.4711 44.6337 63.4816 51.536 59.4663 57.5813C54.6168 64.8844 48.2385 70.9623 40.5033 75.6551C32.7876 70.972 26.4223 64.9138 21.5793 57.6367C17.564 51.6077 14.5712 44.7217 12.6821 37.1774C10.0756 26.7587 10.3125 17.9043 10.5105 14.8149L30.2266 11.9275V10.3698L9.07905 13.469C9.07905 13.469 4.1679 56.0822 40.5066 77.454C76.842 56.0822 71.9341 13.469 71.9341 13.469L71.9276 13.4657Z" fill="white"/>
<path d="M48.4721 29.1345L40.6039 33.4883L32.7356 29.1345L28.967 32.7649L29.1261 32.7909C30.5803 33.0451 33.5309 33.7751 36.4912 35.6783C36.4912 35.6164 36.4977 35.5577 36.5074 35.4958C33.651 33.6741 30.814 32.9376 29.3111 32.6606L32.7648 29.3365L40.6071 33.6773L48.4494 29.3365L51.9031 32.6606C50.371 32.9441 47.4496 33.7034 44.538 35.6066C44.5996 35.6229 44.6613 35.6457 44.723 35.6718C47.6833 33.7686 50.6372 33.0451 52.0881 32.7909L52.2472 32.7649L48.4786 29.1345H48.4721Z" fill="white"/>
<path d="M58.0314 37.4022C57.9146 36.317 57.3303 35.3426 56.4279 34.7332C55.7268 34.2574 55.0062 33.8207 54.2693 33.4134L48.6668 28.0167L48.6246 27.9743L40.607 32.4129L32.5895 27.9743L26.8603 33.4916H26.8993C26.2144 33.8761 25.5392 34.2868 24.8835 34.73C23.9812 35.3394 23.3969 36.3138 23.28 37.399C23.1632 38.4842 23.5267 39.5596 24.2798 40.3515C24.9712 41.075 25.9385 41.4922 26.9382 41.4922C27.1525 41.4922 27.3667 41.4726 27.5744 41.4368L27.7497 41.8083C27.7984 41.7594 27.8536 41.717 27.9055 41.6747C27.8731 41.0587 28.1392 40.4265 28.7008 40.1234C28.769 39.9083 28.8858 39.6965 29.0611 39.4977C29.113 39.4391 29.1682 39.3804 29.2202 39.3217C28.9605 39.4945 28.7008 39.6737 28.4476 39.8595C28.2269 40.0224 27.9867 40.1462 27.7335 40.2277C27.7303 40.2277 27.7238 40.2277 27.7205 40.231C27.4706 40.3124 27.2077 40.3548 26.9382 40.3548C26.2371 40.3548 25.5814 40.0745 25.0978 39.5662C24.5784 39.0187 24.3252 38.2756 24.4064 37.5228C24.4875 36.77 24.8933 36.0954 25.5165 35.675C26.6072 34.9353 27.7465 34.2868 28.9215 33.7197C30.1615 33.9381 32.5992 34.5247 35.1506 35.9749C35.2349 35.9586 35.3161 35.9488 35.4005 35.9325C32.9173 34.4855 30.5153 33.8566 29.1747 33.5991C29.4214 33.4818 29.6681 33.3645 29.918 33.2569L27.9705 32.9213C27.7595 33.0288 27.5517 33.1364 27.344 33.2504L32.6122 28.1763L40.6038 32.6019L48.5954 28.1763L53.7435 33.1331C53.6753 33.0973 53.6071 33.0582 53.5357 33.0223L51.6076 33.358C51.7732 33.4329 51.9355 33.5144 52.101 33.5894C50.7637 33.8435 48.287 34.4855 45.7389 35.9814C45.833 35.9879 45.9272 35.9944 46.0213 36.0009C48.6311 34.5116 51.1305 33.9218 52.3542 33.7067C53.539 34.277 54.6913 34.9288 55.7917 35.6718C56.4182 36.0954 56.8207 36.7668 56.9018 37.5196C56.983 38.2724 56.7298 39.0154 56.2104 39.5629C55.7268 40.0713 55.0711 40.3515 54.37 40.3515C54.1005 40.3515 53.8409 40.3092 53.5877 40.2277C53.5844 40.2277 53.5779 40.2277 53.5747 40.2244C53.3215 40.1397 53.0813 40.0159 52.8606 39.8562C52.2179 39.3869 51.5525 38.9633 50.8675 38.5755C50.8675 38.6146 50.8643 38.6569 50.8578 38.696C51.1077 39.0773 51.1857 39.5857 51.085 40.0289C51.4583 40.2636 51.8284 40.5112 52.1887 40.7752C52.338 40.8827 52.4905 40.9805 52.6496 41.0652L52.4159 41.5606C52.4159 41.5606 52.4256 41.5704 52.4321 41.5736C52.734 41.9256 52.945 42.3525 53.0781 42.8153L53.7305 41.4335C53.9382 41.4693 54.1525 41.4889 54.3667 41.4889C55.3665 41.4889 56.337 41.0718 57.0252 40.3483C57.7782 39.5596 58.1418 38.4842 58.0249 37.3957L58.0314 37.4022Z" fill="white"/>
<path d="M28.503 51.1482C28.8211 51.3633 29.1067 51.5654 29.4021 51.7544C30.0805 52.1911 30.8271 52.4257 31.6321 52.4909C32.2261 52.5398 32.8039 52.4909 33.3817 52.354C33.4693 52.3345 33.5732 52.3605 33.6641 52.3866C35.0079 52.7972 36.3452 53.2372 37.6371 53.7977C38.4519 54.1529 39.2601 54.5212 40.0521 54.9253C41.172 55.4988 42.2367 56.1702 43.2332 56.9425C43.3371 57.024 43.4085 57.0305 43.5253 56.9556C44.6874 56.2256 45.804 55.4337 46.8557 54.5505C47.5633 53.9541 48.2417 53.3219 48.8422 52.6147C48.8942 52.5528 49.0045 52.5137 49.0889 52.5137C49.8972 52.5137 50.6762 52.367 51.4001 51.9923C51.7441 51.813 52.0622 51.5784 52.3901 51.3698C52.4258 51.347 52.4647 51.3242 52.5264 51.2818V55.1045C52.9679 55.1404 53.3476 55.2903 53.6593 55.5836C54.1819 56.0822 54.3636 56.7014 54.2208 57.402C54.0163 58.4155 53.5846 59.328 52.9094 60.1134C52.1369 61.0129 51.1761 61.619 50.0303 61.9025C49.6375 62.0003 49.2253 62.0557 48.8228 62.0557C43.2851 62.0655 37.7475 62.072 32.2066 62.0557C30.7751 62.0525 29.5417 61.5017 28.5062 60.511C27.5973 59.6409 27.039 58.572 26.8053 57.3368C26.6106 56.3005 27.2662 55.2707 28.3699 55.1143C28.5062 55.0947 28.4997 55.0165 28.4997 54.9253C28.4997 53.739 28.4997 52.5495 28.4997 51.3633C28.4997 51.3014 28.4997 51.2395 28.4997 51.1384L28.503 51.1482ZM40.5228 60.3937C43.2851 60.3937 46.0507 60.4035 48.813 60.3839C49.2058 60.3839 49.6213 60.309 49.9881 60.1688C51.4195 59.6246 52.257 58.5524 52.5848 57.0631C52.6238 56.8839 52.5459 56.7894 52.3641 56.7894C50.475 56.7894 48.589 56.7894 46.6999 56.7894C46.6382 56.7894 46.5668 56.8154 46.5149 56.8513C45.593 57.4574 44.6776 58.0734 43.7525 58.6763C43.4117 58.9011 43.0871 58.8783 42.769 58.6143C42.0841 58.044 41.3603 57.5291 40.5975 57.0696C40.4157 56.9621 40.2209 56.7991 40.0294 56.7991C36.2479 56.7828 32.4663 56.7861 28.688 56.7861C28.4965 56.7861 28.4283 56.8741 28.464 57.0664C28.649 58.0049 29.0872 58.7968 29.8078 59.4291C30.5122 60.0515 31.3367 60.3806 32.2683 60.3839C35.0209 60.3937 37.7702 60.3872 40.5228 60.3872V60.3937Z" fill="white"/>
<path d="M49.1215 51.5784C48.1217 51.5914 47.2616 51.2297 46.4793 50.6398C46.0865 50.3433 45.6775 50.0924 45.1679 50.0467C44.4733 49.9848 43.863 50.1706 43.3144 50.604C42.7399 51.057 42.1037 51.4024 41.3669 51.51C40.1626 51.6827 39.046 51.4741 38.0592 50.7181C37.7346 50.4704 37.4068 50.2194 37.0043 50.1184C36.183 49.9164 35.4397 50.0793 34.771 50.6138C34.2063 51.0635 33.5765 51.3992 32.8559 51.5035C31.6906 51.6762 30.6 51.5002 29.6294 50.7832C29.4152 50.6268 29.1977 50.4736 28.9705 50.3335C28.6199 50.1119 28.2304 50.0402 27.8182 50.037C27.4027 50.037 27.0684 49.7828 26.9353 49.3884C26.7373 48.7986 27.1949 48.1696 27.8409 48.1696C28.7303 48.1696 29.5418 48.4271 30.2689 48.955C30.5351 49.1473 30.798 49.3591 31.0934 49.4895C31.8334 49.8186 32.5768 49.8023 33.2844 49.3721C33.7031 49.1147 34.0991 48.8181 34.5308 48.5802C35.0015 48.3195 35.5209 48.2185 36.0597 48.1859C36.6797 48.1501 37.2769 48.2218 37.8547 48.4401C38.3611 48.6291 38.7896 48.9452 39.218 49.2581C39.8348 49.7111 40.5132 49.7925 41.237 49.6296C41.6525 49.5383 41.9804 49.2744 42.3114 49.03C42.9866 48.5379 43.7169 48.2283 44.5641 48.1826C45.3627 48.1403 46.1222 48.2511 46.8233 48.6454C47.1479 48.8279 47.4563 49.043 47.7582 49.2613C48.5307 49.8284 49.6149 49.8545 50.4199 49.3233C50.8451 49.043 51.2703 48.7627 51.715 48.5183C52.1208 48.2935 52.5752 48.2152 53.0361 48.1859C53.2796 48.1696 53.5165 48.1403 53.7535 48.2446C54.1268 48.4075 54.3572 48.7692 54.3248 49.1636C54.2923 49.5807 54.0099 49.9229 53.6009 50.0011C53.4029 50.0402 53.1952 50.0304 52.9939 50.0565C52.5525 50.1119 52.1889 50.34 51.8416 50.5975C51.2638 51.0244 50.6503 51.3829 49.9265 51.4904C49.6571 51.5295 49.3877 51.5426 49.115 51.5686L49.1215 51.5784Z" fill="white"/>
<path d="M43.1099 39.8529C43.0515 39.3869 43.5514 38.9307 44.009 38.9437C44.5024 38.9567 44.9179 39.3608 44.9179 39.8562C44.9179 40.3646 44.5187 40.7524 44.0155 40.7687C43.4962 40.785 43.0612 40.3026 43.1131 39.8529H43.1099Z" fill="white"/>
<path d="M33.0474 43.643C32.5313 43.643 32.1548 43.2617 32.1548 42.737C32.1548 42.2286 32.554 41.8278 33.0572 41.8278C33.5668 41.8278 33.9693 42.2384 33.966 42.7501C33.9628 43.2552 33.5635 43.643 33.0474 43.6397V43.643Z" fill="white"/>
<path d="M47.6446 43.643C47.1414 43.643 46.7292 43.2454 46.7389 42.737C46.7487 42.183 47.2064 41.8246 47.6511 41.8278C48.1574 41.8311 48.5632 42.2384 48.5599 42.7501C48.5599 43.2748 48.1022 43.6789 47.6446 43.6398V43.643Z" fill="white"/>
<path d="M40.3378 43.643C39.9093 43.6821 39.4289 43.2519 39.4549 42.7273C39.4776 42.2286 39.8574 41.8278 40.3508 41.8278C40.8539 41.8278 41.2694 42.2417 41.2661 42.7436C41.2661 43.2747 40.8084 43.6789 40.341 43.6397L40.3378 43.643Z" fill="white"/>
<path d="M36.7056 40.7654C36.1894 40.7654 35.8032 40.3711 35.8064 39.8464C35.8064 39.3445 36.2122 38.9437 36.7185 38.9469C37.2152 38.9469 37.6144 39.3608 37.6144 39.866C37.6144 40.3743 37.2152 40.7687 36.7088 40.7654H36.7056Z" fill="white"/>
<path d="M54.2532 43.2161C54.1428 42.3786 53.763 41.6355 53.3605 40.9153C52.8542 40.0093 52.2147 39.2011 51.4519 38.4907C50.7443 37.8357 49.9685 37.2784 49.118 36.8254C47.9787 36.216 46.7712 35.7956 45.515 35.5056C45.515 35.5056 45.5118 35.5056 45.5085 35.5056C45.3462 35.7532 45.119 35.9618 44.8593 36.115C44.7717 36.203 44.6743 36.2844 44.5574 36.3496C44.3172 36.5223 44.0154 36.6299 43.6388 36.6299C43.5901 36.6299 43.5447 36.6201 43.4993 36.6168C43.4993 36.6168 43.4993 36.6168 43.496 36.6168C43.47 36.6331 43.4441 36.6527 43.4214 36.669C43.6648 36.6983 43.9083 36.7342 44.1517 36.7733C45.0508 36.9264 45.9337 37.1415 46.7907 37.4479C48.0858 37.9106 49.2738 38.5624 50.3061 39.4879C51.0364 40.143 51.6531 40.886 52.1043 41.7561C52.338 42.2058 52.588 42.6686 52.7048 43.1574C52.9548 44.1872 52.6821 45.0932 51.8447 45.7776C51.5395 46.0285 51.1695 46.1393 50.7702 46.1393C47.3068 46.1393 43.8433 46.1393 40.3799 46.1393C36.9164 46.1393 33.5666 46.1263 30.1616 46.1458C29.2072 46.1524 28.5288 45.5136 28.2302 44.7901C27.8894 43.9526 28.0225 43.1542 28.399 42.359C28.9119 41.2771 29.5903 40.3189 30.4797 39.5173C31.2587 38.8133 32.1384 38.2626 33.0959 37.8292C34.1379 37.3566 35.2253 37.0372 36.3419 36.8319C36.6632 36.7733 36.9846 36.7211 37.3092 36.6788C36.8353 36.3887 36.3841 36.0791 36.092 35.5577C36.0855 35.5447 36.0822 35.5349 36.0757 35.5219C36.0043 35.499 35.9329 35.473 35.8647 35.4371C35.842 35.4306 35.8258 35.4176 35.8063 35.4078C35.8031 35.4078 35.7966 35.4078 35.7933 35.4078C35.7706 35.4078 35.7479 35.4078 35.7252 35.4045C35.1214 35.5284 34.5241 35.6913 33.9334 35.8803C32.9012 36.2127 31.9176 36.656 30.999 37.236C30.009 37.8617 29.1358 38.6211 28.399 39.5368C27.805 40.2766 27.3246 41.0815 26.9416 41.9484C26.7111 42.4666 26.5618 43.0043 26.5358 43.5713C26.4969 44.386 26.6721 45.1519 27.0909 45.8525C27.7758 46.9931 28.7561 47.6417 30.1096 47.6417C33.5374 47.6417 36.9684 47.6417 40.3961 47.6417C43.8239 47.6417 47.3328 47.6417 50.8027 47.6417C51.348 47.6417 51.8609 47.5113 52.3316 47.2506C53.0002 46.8823 53.4936 46.3348 53.8409 45.6537C54.2337 44.8814 54.3668 44.0634 54.2532 43.2063V43.2161Z" fill="white"/>
<path d="M15.1878 24.7675L16.5706 23.6269C17.0867 23.1968 17.288 22.9719 17.288 22.6232C17.288 22.2745 17.0543 22.0822 16.7297 22.0822C16.4051 22.0822 16.1908 22.2615 15.8792 22.6427L15.2365 22.1246C15.6455 21.5641 16.0448 21.2577 16.7848 21.2577C17.645 21.2577 18.2163 21.7628 18.2196 22.545V22.558C18.2196 23.2554 17.8625 23.6009 17.1289 24.1744L16.4505 24.6991H18.2618V25.491H15.1846V24.7675H15.1878Z" fill="white"/>
<path d="M21.2935 23.4151V23.4021C21.2935 22.1898 22.04 21.2414 23.1437 21.2414C24.2473 21.2414 24.9874 22.1767 24.9874 23.3858V23.3988C24.9874 24.6111 24.2473 25.5595 23.1372 25.5595C22.027 25.5595 21.2935 24.6241 21.2935 23.4151ZM24.0493 23.4118V23.3988C24.0493 22.6427 23.6792 22.0692 23.1339 22.0692C22.5886 22.0692 22.2315 22.6232 22.2315 23.389V23.4021C22.2315 24.1646 22.5951 24.7317 23.1469 24.7317C23.6987 24.7317 24.0493 24.1712 24.0493 23.4118Z" fill="white"/>
<path d="M57.431 22.1832L56.7071 22.3625L56.5156 21.6097L57.7101 21.2512H58.3334L58.3366 25.4552H57.4342L57.431 22.18V22.1832Z" fill="white"/>
<path d="M61.6442 25.0217L62.1246 24.3243C62.4265 24.5687 62.6829 24.6796 63.0335 24.6796C63.5431 24.6796 63.8157 24.2917 63.8742 23.7312C63.6729 23.9039 63.3938 24.018 63.0335 24.018C62.1311 24.018 61.55 23.5194 61.55 22.6753V22.6623C61.55 21.8215 62.196 21.2023 63.1308 21.2023C63.6891 21.2023 64.0137 21.3392 64.3286 21.652C64.6272 21.9486 64.822 22.4016 64.822 23.2228V23.2359C64.822 24.5883 64.189 25.5106 63.0107 25.5138C62.407 25.5138 61.9947 25.3118 61.6474 25.0217H61.6442ZM63.8904 22.6362V22.6232C63.8904 22.2549 63.6177 21.9877 63.1601 21.9877C62.7024 21.9877 62.4557 22.2517 62.4557 22.6199V22.633C62.4557 23.0012 62.7283 23.2587 63.1795 23.2587C63.6307 23.2587 63.8904 22.9947 63.8904 22.6395V22.6362Z" fill="white"/>
</g>
<defs>
<clipPath id="clip0_206_77">
<rect width="81" height="109" fill="white"/>
</clipPath>
</defs>
</svg>
