<svg width="128" height="172" viewBox="0 0 128 172" fill="none" xmlns="http://www.w3.org/2000/svg">
<g clip-path="url(#clip0_224_382)">
<path d="M19.7996 164.399H25.4727V165.896H21.4359V167.485H24.9906V168.976H21.4359V171.866H19.7944V164.394L19.7996 164.399Z" fill="#0B0B0B"/>
<path d="M32.7411 164.348H34.2542L37.4447 171.872H35.7315L35.0493 170.195H31.8998L31.2176 171.872H29.5454L32.7359 164.348H32.7411ZM34.4697 168.745L33.4797 166.323L32.4897 168.745H34.4697Z" fill="#0B0B0B"/>
<path d="M42.8564 164.399H44.4979V170.375H48.2116V171.871H42.8564V164.399Z" fill="#0B0B0B"/>
<path d="M56.2596 164.348H57.7728L60.9633 171.872H59.2501L58.5679 170.195H55.4184L54.7362 171.872H53.064L56.2545 164.348H56.2596ZM57.9831 168.745L56.9931 166.323L56.0031 168.745H57.9831Z" fill="#0B0B0B"/>
<path d="M67.1493 165.916H64.8821V164.399H71.0579V165.916H68.7907V171.871H67.1493V165.916Z" fill="#0B0B0B"/>
<path d="M75.9258 168.159V168.138C75.9258 166.014 77.598 164.276 79.896 164.276C82.1939 164.276 83.8456 165.994 83.8456 168.118V168.138C83.8456 170.262 82.1734 172 79.8754 172C77.5775 172 75.9258 170.283 75.9258 168.159ZM82.1324 168.159V168.138C82.1324 166.858 81.1937 165.793 79.8754 165.793C78.5572 165.793 77.639 166.837 77.639 168.118V168.138C77.639 169.419 78.5777 170.488 79.896 170.488C81.2142 170.488 82.1324 169.439 82.1324 168.159Z" fill="#0B0B0B"/>
<path d="M88.9648 170.622L93.0633 165.839H89.0931V164.399H95.1715V165.649L91.073 170.432H95.1715V171.871H88.9648V170.622Z" fill="#0B0B0B"/>
<path d="M100.286 168.159V168.138C100.286 166.014 101.958 164.276 104.256 164.276C106.554 164.276 108.205 165.994 108.205 168.117V168.138C108.205 170.262 106.533 172 104.235 172C101.937 172 100.286 170.282 100.286 168.159ZM106.487 168.159V168.138C106.487 166.858 105.548 165.793 104.23 165.793C102.912 165.793 101.994 166.837 101.994 168.117V168.138C101.994 169.419 102.932 170.488 104.251 170.488C105.569 170.488 106.487 169.439 106.487 168.159ZM104.871 162.034L106.267 162.641L104.82 163.71H103.584L104.871 162.034Z" fill="#0B0B0B"/>
<path d="M2.27234 154.366L0.405226 153.857C0 153.621 0 153.379 1.01563 152.531L1.11822 152.428C1.86712 151.78 2.30825 151.101 2.40571 150.35C2.53907 149.569 2.61088 147.254 2.61088 143.341V135.278L2.16975 134.969C1.7953 134.799 1.59526 134.799 1.22081 134.799C0.102589 135.072 0 135.072 0 134.29C0 133.915 0.133365 133.611 0.405226 133.37C0.64118 133.164 1.28749 132.691 2.33902 131.94C3.89837 130.819 4.78064 130.274 5.02172 130.238C5.32949 130.238 5.69881 130.475 6.17584 130.953C6.68366 131.395 7.05811 131.873 7.29406 132.346L7.69929 133.195L7.66338 140.034C7.62748 144.56 7.56079 147.013 7.39152 147.383C7.18634 148.473 4.914 150.618 5.4885 150.618C5.76036 150.72 6.87858 150.993 8.88419 151.435L12.1773 152.15C12.4132 152.15 12.6851 151.98 13.0596 151.605C13.6033 151.096 13.634 151.096 14.2137 151.332C14.5881 151.502 14.7215 151.708 14.6907 151.98C14.6548 152.253 14.3163 153.137 13.67 154.634V154.67C13.0236 156.135 12.5825 156.881 12.3466 156.917C12.1106 156.953 10.1409 156.475 6.37076 155.488C4.81141 155.045 3.45211 154.67 2.26208 154.366H2.27234Z" fill="#0B0B0B"/>
<path d="M15.7167 153.076C15.5474 152.567 15.4449 151.919 15.409 151.204C15.373 150.489 15.373 148.787 15.373 146.169V143.243C15.373 141.983 15.4397 140.317 15.5423 139.875C15.5782 139.638 15.6757 139.366 15.8142 139.057C16.086 138.379 16.2553 138.276 16.799 137.767C18.4302 136.131 21.3335 134.779 23.2519 134.414C26.6219 133.776 25.6781 140.816 26.4937 142.518C26.7655 143.027 27.1913 142.688 27.4272 142.858C27.7658 143.094 27.935 143.3 27.8325 143.608C27.7965 143.814 27.5965 144.051 27.1554 144.323L24.0982 145.959L19.887 148.082V147.023C19.887 149.131 19.9229 150.494 19.9895 151.075C20.0921 151.651 20.2973 152.099 20.5999 152.469C21.4463 153.353 22.8056 153.081 24.7394 151.651C26.0628 150.664 26.5398 150.561 26.9451 151.209C27.3503 151.888 27.0477 152.232 24.129 154.135C21.6874 155.77 19.887 156.141 17.9839 155.565C16.8657 155.225 16.1168 154.408 15.7116 153.081L15.7167 153.076ZM21.6258 145.408C22.2003 145.1 22.7441 144.76 22.78 144.627C22.8159 144.457 22.7441 138.939 22.544 138.327C22.3747 137.679 22.1696 137.273 22.0003 137.067C21.6258 136.692 20.4666 136.877 20.1639 137.391C19.928 137.695 19.8921 138.173 19.8921 139.397C19.8921 140.451 19.928 146.139 19.9947 146.139L21.6258 145.408Z" fill="#0B0B0B"/>
<path d="M47.0832 153.076C46.9139 152.567 46.8113 151.919 46.7754 151.204C46.7395 150.489 46.7395 148.787 46.7395 146.169V143.243C46.7395 141.983 46.8062 140.317 46.9088 139.875C46.9447 139.638 47.0421 139.366 47.1806 139.057C47.4525 138.379 47.6218 138.276 48.1655 137.767C49.7966 136.131 52.6999 134.779 54.6183 134.414C57.9884 133.776 57.0445 140.816 57.8601 142.518C58.132 143.027 58.5577 142.688 58.7937 142.858C59.1322 143.094 59.3015 143.3 59.1989 143.608C59.163 143.814 58.963 144.051 58.5218 144.323L55.4647 145.959L51.2534 148.082V147.023C51.2534 149.131 51.2893 150.494 51.356 151.075C51.4586 151.651 51.6638 152.099 51.9664 152.469C52.8128 153.353 54.1721 153.081 56.1059 151.651C57.4292 150.664 57.9063 150.561 58.3115 151.209C58.7167 151.888 58.4141 152.232 55.4955 154.135C53.0538 155.77 51.2534 156.141 49.3504 155.565C48.2322 155.225 47.4833 154.408 47.078 153.081L47.0832 153.076ZM52.9923 145.408C53.5668 145.1 54.1105 144.76 54.1464 144.627C54.1823 144.457 54.1105 138.939 53.9105 138.327C53.7412 137.679 53.536 137.273 53.3667 137.067C52.9923 136.692 51.833 136.877 51.5304 137.391C51.2944 137.695 51.2585 138.173 51.2585 139.397C51.2585 140.451 51.2944 146.139 51.3611 146.139L52.9923 145.408Z" fill="#0B0B0B"/>
<path d="M29.6738 158.383C28.8583 157.498 28.5556 156.85 28.7557 156.475C28.8583 156.269 29.3661 155.827 30.2483 155.112C31.1665 154.397 31.6384 153.991 31.741 153.888C31.8436 153.785 31.6076 153.482 30.9921 152.937C30.3817 152.361 29.9406 151.78 29.6687 151.199C29.4635 150.756 29.3302 150.314 29.2943 149.805C29.2584 149.296 29.2584 147.83 29.2584 145.449C29.2584 142.796 29.2943 141.027 29.3917 140.173C29.4943 139.289 29.7662 138.507 30.1714 137.823C31.2588 135.818 33.8697 134.558 36.5883 134.558C37.2346 134.522 38.4195 134.691 40.22 135.067C42.0204 135.442 43.2771 135.576 44.0568 135.509C45.2109 135.339 45.2468 135.406 45.4161 135.818C45.652 136.496 45.452 136.769 44.6005 137.18L44.4979 137.247C43.9234 137.52 43.5797 138.029 43.4772 138.744C43.3746 139.458 43.3438 141.809 43.3438 145.856V154.706L42.6667 155.76C42.2256 156.439 41.7178 157.02 41.1381 157.529C40.6303 157.971 39.8147 158.45 38.7632 158.995C37.7117 159.54 36.8294 159.915 36.1164 160.085C34.8597 160.393 33.0952 160.393 32.0077 160.085C31.2588 159.848 30.4792 159.303 29.6636 158.383H29.6738ZM38.6709 155.457C38.7735 154.433 38.8042 151.543 38.7735 146.745C38.7376 142.693 38.7068 140.209 38.6709 139.294C38.635 138.373 38.5683 137.761 38.399 137.458C38.0913 136.81 37.4808 136.404 36.6345 136.234C35.7881 136.064 35.1059 136.198 34.5314 136.712C34.2237 136.985 33.9877 137.633 33.8851 138.687C33.7825 139.71 33.7825 141.546 33.8184 144.236C33.8543 146.38 33.8851 147.707 33.921 148.216C33.9569 148.725 34.0903 149.137 34.2596 149.507C34.9366 150.767 35.6855 151.07 36.9063 150.427L37.5527 150.088L37.8604 150.494C38.0297 150.803 38.1323 150.972 38.1323 151.07C38.1323 151.307 37.1115 152.16 35.0444 153.621L32.9054 155.153L33.2132 155.698C33.9621 157.334 35.0803 158.079 36.4037 158.079C37.05 158.079 37.3526 158.012 37.763 157.637C38.2708 157.195 38.5785 156.48 38.6811 155.457H38.6709Z" fill="#0B0B0B"/>
<path d="M61.5532 147.188C61.5532 141.536 61.4865 138.61 61.3839 138.373C61.148 137.967 60.5376 137.931 59.6194 138.24C58.9731 138.548 58.8038 138.307 58.6346 137.561C58.532 137.052 58.5679 136.985 59.209 136.676C59.5168 136.471 61.2095 135.859 62.6714 135.314C62.7073 135.314 62.7381 135.314 62.774 135.278C64.3693 134.733 65.2874 134.496 65.5593 134.563C65.8312 134.63 66.0004 135.139 66.0363 136.095C66.0363 136.131 66.0363 136.162 66.0722 136.198C66.1081 137.083 66.1389 137.525 66.1748 137.525C66.2107 137.525 67.5341 136.846 69.1294 135.992C70.3502 135.381 71.2017 134.969 71.7095 134.769C72.2173 134.563 72.6584 134.429 73.0996 134.393C74.2896 134.29 74.8641 134.527 75.3052 135.447C75.4386 135.684 75.5412 136.296 75.5771 137.216C75.613 138.137 75.6438 140.415 75.6797 144.025V145.079C75.7156 149.332 75.813 151.682 75.9874 152.124C76.09 152.433 76.3619 152.464 76.7363 152.258C76.7723 152.222 76.9415 152.124 77.0441 152.088C77.9623 151.579 78.3316 151.646 78.5727 152.294C78.6753 152.603 78.6394 152.87 78.4034 153.112C78.1982 153.317 77.5519 153.76 76.4337 154.438C73.4791 156.207 72.1917 156.274 71.4787 154.881C71.3453 154.572 71.2427 153.996 71.2068 153.112C71.1709 152.227 71.1709 150.016 71.1709 146.509C71.1709 141.335 71.1042 138.579 71.0016 138.271C70.8324 137.864 70.7298 137.792 70.0527 137.895C69.5449 137.962 68.7652 138.271 67.7085 138.847L66.18 139.731L66.144 145.995L66.1081 152.258L66.5852 152.124C66.857 152.088 67.3341 151.888 67.6367 151.749C68.3497 151.44 68.7242 151.713 68.7242 152.5V153.076L65.3644 154.505C62.138 155.868 61.5276 156.069 61.5635 155.796C61.5276 155.693 61.5276 152.834 61.5635 147.188H61.5532Z" fill="#0B0B0B"/>
<path d="M79.8859 153.554C79.7167 153.112 79.5782 152.531 79.5474 151.816C79.5115 151.101 79.5115 149.095 79.5115 145.722V138.816L80.086 137.725C81.4453 135.036 83.3791 134.085 85.4821 135.103C85.8566 135.273 86.5029 135.782 87.3493 136.568C88.1956 137.35 88.6368 137.828 88.6368 137.998C88.6368 138.101 88.5034 138.337 88.2623 138.646C88.0263 138.955 87.8571 139.088 87.7545 139.088C87.6519 139.088 87.3493 138.852 86.8055 138.409C86.2618 137.931 85.9233 137.695 85.754 137.695C85.3488 137.695 84.5332 138.615 84.2613 139.361C84.1588 139.736 84.0562 141.572 83.9895 144.837C83.9228 148.103 83.9228 150.078 84.0254 150.756C84.128 151.266 84.3331 151.708 84.6358 152.016C84.9743 152.356 85.359 152.435 85.7899 152.253C86.231 152.083 86.8414 151.677 87.6211 151.096L88.8111 150.211V134.049L88.37 133.503C88.0623 133.128 87.657 132.928 87.2159 132.856C86.8414 132.789 86.6055 132.686 86.5696 132.547C86.5337 132.48 86.5337 132.341 86.5337 132.172C86.5337 131.626 86.6004 131.596 87.2826 131.493L90.4372 130.778C91.5554 130.469 92.2376 130.336 92.5095 130.3C92.8172 130.264 93.0173 130.3 93.1558 130.433C93.2584 130.536 93.361 130.979 93.361 132.408C93.3969 132.85 93.3969 133.498 93.3969 134.347C93.4328 136.085 93.4636 137.921 93.4636 141.222C93.4995 148.268 93.6328 151.872 93.838 152.042C94.1458 152.315 94.2432 152.351 95.0947 151.939C95.977 151.564 96.0129 151.533 96.2488 151.903C96.7259 152.582 96.5207 152.993 95.2999 153.775C93.3661 155.035 91.9709 155.683 91.1245 155.75C90.4474 155.817 89.9704 155.786 89.6985 155.647C89.1907 155.374 88.8163 154.454 88.8163 153.467C88.8163 153.024 88.7496 152.649 88.7137 152.685C88.6778 152.685 88.0366 153.127 87.3236 153.708C86.4773 154.387 85.7643 154.901 85.118 155.205C84.0664 155.683 82.5378 155.884 81.7889 155.611C80.9734 155.302 80.3271 154.624 79.8859 153.533V153.554Z" fill="#0B0B0B"/>
<path d="M98.1518 154.027C97.88 153.312 97.7466 152.021 97.7466 150.078C97.7466 148.134 97.8133 146.982 97.9825 146.54C98.3211 145.383 99.5778 144.534 103.548 142.487L107.216 140.616V139.592C107.216 138.265 106.877 137.381 106.267 137.242C105.518 137.036 104.805 137.242 102.43 138.265C101.04 138.841 100.188 139.15 99.9522 139.253C99.7163 139.356 99.547 139.356 99.4444 139.289C99.3111 139.155 99.3111 138.882 99.1726 138.471C99.1367 137.895 99.1726 137.72 99.6804 137.417C100.46 136.872 103.892 135.442 105.451 134.969C107.626 134.321 109.221 134.254 110.201 134.697C110.237 134.697 110.268 134.697 110.303 134.733C110.981 135.041 111.391 135.514 111.493 136.229C111.596 136.944 111.663 139.258 111.699 143.207V143.783C111.735 148.854 111.765 151.507 111.832 151.78C111.935 152.258 112.442 152.258 113.325 151.816C114.207 151.374 114.581 151.374 114.715 152.088C114.92 152.531 114.751 152.7 114.274 153.112C113.833 153.518 112.95 154.063 111.658 154.711C110.401 155.359 109.555 155.698 109.113 155.765C108.436 155.868 108.267 155.801 107.826 155.426C107.349 155.02 107.318 154.85 107.251 153.862C107.216 153.184 107.149 152.705 107.118 152.705C107.087 152.705 106.302 153.184 105.456 153.76C102.743 155.565 101.214 156.074 99.8548 155.565C99.0084 155.256 98.4288 154.747 98.1569 154.032L98.1518 154.027ZM107.21 150.525V146.714C107.21 143.824 107.144 142.935 107.005 142.935C106.769 142.935 105.984 143.31 104.733 144.025C103.481 144.74 102.799 145.182 102.63 145.419C102.461 145.655 102.322 145.928 102.291 146.303C102.255 146.642 102.255 147.46 102.255 148.751C102.255 152.973 102.563 153.245 105.513 151.507L107.21 150.52V150.525ZM106.164 133.442H105.318L106.056 129.6H109.688L106.164 133.442Z" fill="#0B0B0B"/>
<path d="M117.818 154.469C116.561 153.482 116.597 153.415 116.053 153.688C115.782 153.821 115.648 153.79 115.376 153.518C115.14 153.281 115.002 153.076 115.038 152.87C115.038 152.664 115.582 152.119 116.669 151.204C117.756 150.283 118.403 149.841 118.639 149.841C118.875 149.841 119.352 150.247 120.095 151.065C121.624 152.803 122.404 153.343 123.353 153.343C123.86 153.343 124.271 153.209 124.573 152.937C125.051 152.531 125.117 152.016 124.779 151.373C124.471 150.726 123.522 149.604 121.993 147.938C119.311 145.115 117.885 143.31 117.172 141.814C116.628 140.723 116.561 140.451 116.664 139.808C116.833 138.754 117.444 137.7 118.495 136.645C119.818 135.319 121.209 134.671 122.706 134.671C124.096 134.635 124.743 135.01 125.794 136.27C126.338 136.949 126.574 137.191 127.082 137.221C127.656 137.288 127.692 137.324 127.692 137.869C127.692 138.414 127.692 138.445 125.789 139.433L123.886 140.42L123.409 139.808C123.071 139.402 122.696 138.924 122.322 138.414C121.609 137.463 120.962 137.021 120.352 137.088C120.013 137.124 119.808 137.324 119.777 137.767C119.639 138.548 120.388 139.638 123.004 142.328C124.974 144.369 126.297 145.902 126.974 146.956C127.687 148.01 128.026 148.962 127.995 149.882C127.995 151.209 127.451 152.299 126.092 153.662C124.189 155.57 121.747 156.382 119.711 155.739C119.203 155.57 118.557 155.127 117.808 154.48L117.818 154.469Z" fill="#0B0B0B"/>
<path d="M51.6536 38.8279L51.5046 45.2131L51.761 45.2191L51.91 38.834L51.6536 38.8279Z" fill="#0B0B0B"/>
<path d="M51.0401 38.814L50.8933 45.1992L52.3753 45.2335L52.5221 38.8482L51.0401 38.814Z" fill="#0B0B0B"/>
<path d="M52.505 45.3668L50.7661 45.3257L50.92 38.6816L52.6589 38.7228L52.505 45.3668ZM51.0277 45.0737L52.2537 45.1046L52.3921 38.9748L51.1662 38.949L51.0277 45.0789V45.0737Z" fill="#0B0B0B"/>
<path d="M51.792 27.6564H50.3096C50.3096 22.6013 51.7253 19.5878 54.5157 16.9395C58.5628 13.1032 63.9847 13.3603 64.2103 13.3757L64.1283 14.8619C64.077 14.8619 59.0963 14.6356 55.5211 18.0348C53.0487 20.3901 51.792 23.0333 51.792 27.6564Z" fill="#0B0B0B"/>
<path d="M51.9203 27.7848H50.1814V27.6563C50.1814 22.8378 51.4125 19.706 54.4286 16.8468C57.9628 13.4991 62.5331 13.2368 63.8514 13.2368C64.0617 13.2368 64.1899 13.242 64.2207 13.2471H64.3489L64.2514 14.9955H64.1232C64.1232 14.9955 64.0411 14.9853 63.9078 14.9853C63.0717 14.9853 58.7527 15.1344 55.6083 18.1273C52.9872 20.6214 51.9203 23.3778 51.9203 27.6563V27.7848ZM50.4379 27.5277H51.6638C51.6843 23.2441 52.782 20.462 55.4339 17.9422C58.568 14.9647 62.7126 14.7281 63.9078 14.7281C63.9437 14.7281 63.9796 14.7281 64.0052 14.7281L64.0719 13.4991C63.1999 13.4785 58.3116 13.5197 54.5978 17.0371C51.6638 19.8192 50.4533 22.8635 50.4327 27.5277H50.4379Z" fill="#0B0B0B"/>
<path d="M53.9206 29.78H52.4382V36.0795H53.9206V29.78Z" fill="#0B0B0B"/>
<path d="M54.0489 36.208H52.3101V29.6514H54.0489V36.208ZM52.5665 35.9509H53.7925V29.9085H52.5665V35.9509Z" fill="#0B0B0B"/>
<path d="M57.3215 30.3201H55.8391V38.584H57.3215V30.3201Z" fill="#0B0B0B"/>
<path d="M57.4498 38.7125H55.7109V30.1914H57.4498V38.7125ZM55.9674 38.4553H57.1933V30.4485H55.9674V38.4553Z" fill="#0B0B0B"/>
<path d="M61.2712 28.551H59.7888V40.5021H61.2712V28.551Z" fill="#0B0B0B"/>
<path d="M61.3995 40.6306H59.6606V28.4224H61.3995V40.6306ZM59.9171 40.3735H61.1431V28.6795H59.9171V40.3735Z" fill="#0B0B0B"/>
<path d="M64.1693 46.0561L48.2527 37.7098V27.5843L64.1693 22.2927L80.086 27.5843V37.7098L64.1693 46.0561ZM49.7351 36.8099L64.1693 44.3796L78.6036 36.8099V28.6591L64.1693 23.8612L49.7351 28.6591V36.8099Z" fill="#0B0B0B"/>
<path d="M64.1694 46.2L64.1078 46.1691L48.1194 37.7869V27.4917L64.1643 22.1589L64.2053 22.1744L80.2143 27.4968V37.792L80.1476 37.828L64.1694 46.2051V46.2ZM48.3759 37.6326L64.1643 45.912L79.9527 37.6326V27.6768L64.1643 22.4263L48.3759 27.6768V37.6326ZM64.1694 44.5235L64.1078 44.4927L49.6069 36.887V28.5664L64.1694 23.7274L64.2104 23.7428L78.7319 28.5716V36.8921L78.6652 36.9281L64.1694 44.5287V44.5235ZM49.8634 36.7275L64.1694 44.2304L78.4754 36.7275V28.7464L64.1694 23.9897L49.8634 28.7464V36.7275Z" fill="#0B0B0B"/>
<path d="M64.1693 64.2653L63.5794 63.4991C56.2751 53.9958 44.4877 52.8902 44.3697 52.8799L42.7334 52.741L51.515 44.2971L64.1642 51.2909L76.8134 44.2971L85.595 52.741L83.9638 52.8799C83.8458 52.8902 72.043 54.0112 64.7541 63.4991L64.1642 64.2653H64.1693ZM46.0521 51.62C49.5248 52.2319 58.0345 54.4278 64.1693 61.8586C70.3041 54.4329 78.8139 52.2319 82.2865 51.62L76.5826 46.133L64.1693 52.993L51.7561 46.133L46.0521 51.62Z" fill="#0B0B0B"/>
<path d="M76.6797 38.8219L76.4233 38.8279L76.5698 45.2131L76.8262 45.2072L76.6797 38.8219Z" fill="#0B0B0B"/>
<path d="M77.2899 38.8129L75.8079 38.8472L75.9546 45.2324L77.4366 45.1982L77.2899 38.8129Z" fill="#0B0B0B"/>
<path d="M75.8336 45.3668L75.6797 38.7228L77.4186 38.6816L77.5725 45.3257L75.8336 45.3668ZM75.9413 38.9696L76.0849 45.0994L77.3109 45.0686L77.1724 38.9388L75.9464 38.9645L75.9413 38.9696Z" fill="#0B0B0B"/>
<path d="M75.8952 29.78H74.4128V36.0795H75.8952V29.78Z" fill="#0B0B0B"/>
<path d="M76.0235 36.208H74.2847V29.6514H76.0235V36.208ZM74.5411 35.9509H75.7671V29.9085H74.5411V35.9509Z" fill="#0B0B0B"/>
<path d="M72.4944 30.3201H71.012V38.584H72.4944V30.3201Z" fill="#0B0B0B"/>
<path d="M72.6278 38.7125H70.8889V30.1914H72.6278V38.7125ZM71.1403 38.4553H72.3662V30.4485H71.1403V38.4553Z" fill="#0B0B0B"/>
<path d="M68.5447 28.551H67.0623V40.5021H68.5447V28.551Z" fill="#0B0B0B"/>
<path d="M68.6781 40.6306H66.9392V28.4224H68.6781V40.6306ZM67.1906 40.3735H68.4165V28.6795H67.1906V40.3735Z" fill="#0B0B0B"/>
<path d="M64.9079 26.1084H63.4255V42.23H64.9079V26.1084Z" fill="#0B0B0B"/>
<path d="M65.0362 42.3585H63.2974V25.9797H65.0362V42.3585ZM63.5538 42.1014H64.7798V26.2369H63.5538V42.1014Z" fill="#0B0B0B"/>
<path d="M78.0293 27.6562H76.5469C76.5469 23.0331 75.2902 20.3899 72.8178 18.0346C69.2477 14.6355 64.2619 14.8617 64.2106 14.8617L60.6559 15.052L63.0924 13.8281C62.7692 13.499 62.3794 13.5041 61.3381 13.5041C60.5841 13.5041 59.5479 13.5041 58.1322 13.3499C53.0694 12.7842 51.9512 10.2747 51.7358 8.83477C51.2998 5.92928 53.6696 2.38098 57.0191 0.92052L58.5887 0.236572L58.0142 1.85131C57.7218 2.6741 57.132 5.08077 57.8911 6.29439C58.1681 6.7315 58.6092 6.97834 59.2555 7.04519C60.2199 7.14804 61.0047 6.94749 61.7587 6.74693C62.9282 6.44353 64.1388 6.12984 65.4776 7.19947C66.6881 8.16625 67.2934 9.58043 67.1395 11.082C67.0472 11.9665 66.6932 12.7893 66.1392 13.4733C68.1346 13.7201 71.2584 14.5069 73.8231 16.9393C76.6136 19.5825 78.0293 22.596 78.0293 27.6562ZM61.5176 12.018C62.7641 12.018 63.6156 12.0642 64.4004 13.1082C65.1134 12.5682 65.5699 11.7917 65.6622 10.9329C65.7648 9.94555 65.3596 9.01476 64.5543 8.36681C63.8259 7.78571 63.2514 7.89884 62.128 8.18682C61.3227 8.39252 60.3276 8.65479 59.0965 8.52108C58.004 8.40281 57.1525 7.90399 56.6344 7.08119C55.906 5.919 55.9573 4.33512 56.1625 3.12149C54.2338 4.54081 52.9309 6.82407 53.1977 8.6085C53.5362 10.866 56.1574 11.6271 58.2963 11.8688C59.6249 12.018 60.5687 12.018 61.333 12.0128C61.3945 12.0128 61.4612 12.0128 61.5228 12.0128L61.5176 12.018Z" fill="#0B0B0B"/>
<path d="M78.1574 27.7847H76.4185V27.6562C76.4185 23.3828 75.3516 20.6213 72.7305 18.1272C69.5861 15.1394 65.2671 14.9852 64.431 14.9852C64.2977 14.9852 64.2207 14.9852 64.2156 14.9852L60.0454 15.2063L62.8563 13.7972C62.6049 13.6378 62.2459 13.6275 61.4867 13.6275H61.0097C60.3172 13.6275 59.358 13.6121 58.1167 13.4733C52.9667 12.8973 51.828 10.3261 51.6023 8.84505C51.1612 5.88814 53.5618 2.27813 56.9626 0.797097L58.804 -0.00512695L58.1321 1.89244C57.8448 2.69981 57.2652 5.05506 57.9987 6.2224C58.2501 6.62351 58.6655 6.84978 59.2657 6.91663C59.435 6.9372 59.6042 6.94234 59.7735 6.94234C60.4916 6.94234 61.1174 6.77778 61.7278 6.62351C62.2818 6.47952 62.8614 6.33039 63.4564 6.33039C64.2207 6.33039 64.9081 6.58237 65.5595 7.10176C66.806 8.0994 67.4266 9.55471 67.2676 11.0975C67.1804 11.9202 66.8778 12.7019 66.3802 13.3756C68.4987 13.6687 71.4532 14.512 73.9154 16.8467C76.9315 19.7059 78.1625 22.8377 78.1625 27.6562V27.7847H78.1574ZM76.6699 27.5276H77.8958C77.8753 22.8634 76.6647 19.8139 73.7307 17.037C71.2327 14.6663 68.2114 13.8641 66.1186 13.607L65.8878 13.5761L66.0314 13.3961C66.5803 12.7225 66.9137 11.9151 67.0009 11.0717C67.1548 9.61642 66.5649 8.24339 65.3902 7.30231C64.7798 6.81378 64.1592 6.58751 63.4462 6.58751C62.8819 6.58751 62.3228 6.7315 61.7791 6.87549C61.1584 7.03491 60.5121 7.20461 59.7632 7.20461C59.5837 7.20461 59.4042 7.19432 59.2298 7.17375C58.5476 7.10176 58.0705 6.83435 57.773 6.36124C56.9882 5.10648 57.5832 2.64838 57.8807 1.81016L58.3578 0.473122L57.06 1.03879C53.7618 2.47354 51.4228 5.96527 51.8485 8.8142C52.0588 10.2232 53.1565 12.6659 58.1372 13.2213C59.3683 13.3601 60.3121 13.3756 61.0046 13.3756H61.4816C62.4305 13.3756 62.8306 13.3858 63.1743 13.7407L63.2974 13.8692L61.2559 14.8926L64.1951 14.7383C64.1951 14.7383 64.2823 14.7383 64.4208 14.7383C65.6159 14.7383 69.7605 14.9697 72.8946 17.9524C75.5465 20.4722 76.6442 23.2594 76.6647 27.5379L76.6699 27.5276ZM64.3746 13.283L64.2977 13.1802C63.5488 12.1928 62.7537 12.1414 61.5175 12.1414H61.02C60.3172 12.1414 59.4401 12.1259 58.2808 11.9974C56.1008 11.7505 53.4233 10.9689 53.0693 8.62907C52.7975 6.83435 54.0388 4.52538 56.0854 3.01864L56.3419 2.82837L56.2906 3.14206C56.1008 4.2734 56.0239 5.86242 56.742 7.00919C57.2396 7.80113 58.0551 8.27938 59.1118 8.39252C59.3272 8.41309 59.5529 8.42851 59.7684 8.42851C60.6814 8.42851 61.4662 8.22282 62.0971 8.0634C62.646 7.91941 63.0666 7.8217 63.4462 7.8217C63.8822 7.8217 64.2464 7.96055 64.6311 8.26396C65.4723 8.93762 65.8929 9.91469 65.7852 10.9432C65.6929 11.8328 65.2261 12.635 64.4772 13.2059L64.3746 13.283ZM61.5175 11.8894C62.7947 11.8894 63.6411 11.9614 64.4208 12.923C65.0568 12.4036 65.4518 11.694 65.5339 10.9175C65.6313 9.9764 65.2466 9.08161 64.4721 8.46965C63.8155 7.94512 63.2615 8.0274 62.1587 8.31538C61.5124 8.47994 60.7122 8.69078 59.7632 8.69078C59.5375 8.69078 59.3067 8.6805 59.081 8.65478C57.9474 8.53136 57.06 8.01712 56.5214 7.15318C55.8238 6.04241 55.829 4.56652 55.988 3.41975C54.1927 4.8545 53.0847 6.98862 53.3258 8.59307C53.6541 10.7735 56.2188 11.5089 58.3116 11.7454C59.4555 11.874 60.3223 11.8894 61.02 11.8894H61.5175Z" fill="#0B0B0B"/>
<path d="M113.663 21.2486L80.2449 16.3582V18.8163L111.406 23.3776C111.719 28.2321 112.099 42.091 108.016 58.4955C105.041 70.4312 100.316 81.3229 93.9713 90.8622C86.3079 102.386 76.2285 111.977 64.0051 119.382C51.8124 111.993 41.7536 102.433 34.1005 90.9496C27.7553 81.436 23.026 70.57 20.0407 58.6652C15.9217 42.2248 16.2962 28.2527 16.6091 23.3776L47.7653 18.8214V16.3633L14.347 21.2538C14.347 21.2538 6.58616 88.4966 64.0102 122.221C121.429 88.4966 113.673 21.2538 113.673 21.2538L113.663 21.2486Z" fill="#0B0B0B"/>
<path d="M76.5979 45.9736L64.1642 52.844L51.7304 45.9736L45.7751 51.7023L46.0265 51.7435C48.3245 52.1446 52.9871 53.2965 57.6652 56.2997C57.6652 56.202 57.6754 56.1094 57.6908 56.0117C53.1769 53.1371 48.6938 51.9749 46.3189 51.5378L51.7766 46.2925L64.1693 53.1422L76.562 46.2925L82.0198 51.5378C79.5987 51.9852 74.9822 53.1834 70.3811 56.1866C70.4785 56.2123 70.576 56.2483 70.6734 56.2894C75.3515 53.2862 80.0193 52.1446 82.3121 51.7435L82.5635 51.7023L76.6082 45.9736H76.5979Z" fill="#0B0B0B"/>
<path d="M91.7041 59.02C91.5194 57.3075 90.5961 55.7699 89.1702 54.8083C88.0622 54.0575 86.9235 53.3684 85.7591 52.7256L76.9057 44.2097L76.839 44.1428L64.1693 51.1469L51.4996 44.1428L42.4461 52.849H42.5077C41.4254 53.4558 40.3584 54.1038 39.3223 54.8032C37.8963 55.7648 36.973 57.3024 36.7883 59.0148C36.6037 60.7273 37.1782 62.4243 38.3682 63.6739C39.4608 64.8155 40.9894 65.4738 42.5692 65.4738C42.9078 65.4738 43.2463 65.4429 43.5746 65.3863L43.8516 65.9726C43.9285 65.8954 44.0157 65.8286 44.0978 65.7617C44.0465 64.7898 44.4671 63.7922 45.3545 63.3139C45.4622 62.9745 45.6469 62.6403 45.9239 62.3266C46.0059 62.234 46.0931 62.1415 46.1752 62.0489C45.7649 62.3214 45.3545 62.6043 44.9544 62.8974C44.6056 63.1545 44.226 63.3499 43.8259 63.4785C43.8208 63.4785 43.8105 63.4785 43.8054 63.4836C43.4104 63.6122 42.995 63.679 42.5692 63.679C41.4613 63.679 40.4251 63.2368 39.6608 62.4346C38.8401 61.5706 38.44 60.3982 38.5683 59.2102C38.6965 58.0223 39.3377 56.9578 40.3225 56.2945C42.046 55.1271 43.8465 54.1038 45.7033 53.209C47.6628 53.5535 51.515 54.4792 55.5467 56.7676C55.6801 56.7419 55.8083 56.7264 55.9417 56.7007C52.0176 54.4175 48.2219 53.425 46.1034 53.0187C46.4932 52.8336 46.8831 52.6485 47.278 52.4788L44.2004 51.9491C43.867 52.1188 43.5387 52.2885 43.2104 52.4685L51.5355 44.4617L64.1642 51.4451L76.7928 44.4617L84.9281 52.2833C84.8204 52.2268 84.7127 52.1651 84.5998 52.1085L81.553 52.6382C81.8146 52.7565 82.071 52.885 82.3326 53.0033C80.2193 53.4044 76.3055 54.4175 72.2789 56.7779C72.4277 56.7881 72.5764 56.7984 72.7252 56.8087C76.8493 54.4586 80.7989 53.5278 82.7327 53.1884C84.605 54.0883 86.4259 55.1168 88.1648 56.2893C89.1548 56.9578 89.7908 58.0172 89.9191 59.2051C90.0473 60.393 89.6472 61.5655 88.8265 62.4294C88.0622 63.2317 87.0261 63.6739 85.9181 63.6739C85.4924 63.6739 85.082 63.6071 84.6819 63.4785C84.6768 63.4785 84.6665 63.4785 84.6614 63.4733C84.2613 63.3396 83.8817 63.1442 83.5329 62.8923C82.5173 62.1517 81.4658 61.4832 80.3834 60.8713C80.3834 60.933 80.3783 60.9998 80.368 61.0615C80.763 61.6632 80.8861 62.4654 80.7271 63.1648C81.317 63.5351 81.9017 63.9259 82.4711 64.3424C82.7071 64.5121 82.9482 64.6664 83.1995 64.8001L82.8302 65.5818C82.8302 65.5818 82.8456 65.5972 82.8558 65.6023C83.3329 66.1577 83.6663 66.8314 83.8766 67.5616L84.9076 65.3812C85.2359 65.4378 85.5744 65.4686 85.913 65.4686C87.4928 65.4686 89.0265 64.8104 90.114 63.6688C91.304 62.4243 91.8785 60.7273 91.6938 59.0097L91.7041 59.02Z" fill="#0B0B0B"/>
<path d="M45.0415 80.711C45.5442 81.0504 45.9956 81.3692 46.4623 81.6675C47.5344 82.3566 48.7142 82.7268 49.9863 82.8297C50.9249 82.9068 51.838 82.8297 52.751 82.6137C52.8895 82.5828 53.0537 82.624 53.1973 82.6651C55.3209 83.3131 57.4342 84.0073 59.4757 84.8918C60.7632 85.4523 62.0404 86.0334 63.292 86.6711C65.0617 87.5762 66.7441 88.6355 68.3189 89.8543C68.483 89.9828 68.5959 89.9931 68.7805 89.8749C70.6169 88.7229 72.3814 87.4733 74.0433 86.0797C75.1615 85.1386 76.2336 84.141 77.1825 83.0251C77.2646 82.9274 77.439 82.8657 77.5724 82.8657C78.8496 82.8657 80.0807 82.6343 81.2245 82.0429C81.7683 81.76 82.2709 81.3898 82.789 81.0607C82.8454 81.0247 82.907 80.9887 83.0045 80.9218V86.9539C83.7021 87.0105 84.3022 87.2471 84.7946 87.7099C85.6205 88.4967 85.9077 89.4737 85.682 90.5794C85.3589 92.1787 84.6767 93.6186 83.6097 94.8579C82.3889 96.2772 80.8706 97.2337 79.0599 97.6811C78.4393 97.8354 77.7878 97.9228 77.1518 97.9228C68.4009 97.9382 59.6501 97.9485 50.8942 97.9228C48.6321 97.9177 46.6829 97.0486 45.0466 95.4853C43.6104 94.1122 42.7281 92.4255 42.3588 90.4765C42.051 88.8412 43.0872 87.2162 44.8312 86.9694C45.0466 86.9385 45.0364 86.8151 45.0364 86.6711C45.0364 84.7992 45.0364 82.9222 45.0364 81.0504C45.0364 80.9527 45.0364 80.855 45.0364 80.6956L45.0415 80.711ZM64.0358 95.3002C68.4009 95.3002 72.7712 95.3156 77.1364 95.2847C77.757 95.2847 78.4136 95.1665 78.9932 94.9453C81.2553 94.0865 82.5787 92.3947 83.0968 90.0446C83.1583 89.7617 83.0352 89.6126 82.748 89.6126C79.7627 89.6126 76.7824 89.6126 73.7971 89.6126C73.6997 89.6126 73.5868 89.6537 73.5047 89.7103C72.048 90.6668 70.6015 91.6387 69.1396 92.5901C68.601 92.9449 68.088 92.9089 67.5854 92.4924C66.503 91.5924 65.3592 90.7799 64.1538 90.0548C63.8665 89.8851 63.5588 89.628 63.2561 89.628C57.2803 89.6023 51.3045 89.6074 45.3339 89.6074C45.0312 89.6074 44.9235 89.7463 44.9799 90.0497C45.2723 91.5307 45.9648 92.7803 47.1035 93.778C48.2166 94.7602 49.5195 95.2796 50.9916 95.2847C55.3414 95.3002 59.686 95.2899 64.0358 95.2899V95.3002Z" fill="#0B0B0B"/>
<path d="M77.6236 81.3897C76.0437 81.4103 74.6844 80.8395 73.4482 79.9087C72.8276 79.4407 72.1812 79.0448 71.3759 78.9728C70.2782 78.8751 69.3139 79.1682 68.447 79.8521C67.5391 80.5669 66.5337 81.112 65.3694 81.2818C63.4663 81.5543 61.7018 81.2252 60.1425 80.0321C59.6295 79.6413 59.1114 79.2453 58.4754 79.0859C57.1776 78.7671 56.003 79.0242 54.9463 79.8676C54.0538 80.5772 53.0587 81.1069 51.92 81.2715C50.0785 81.544 48.355 81.2663 46.8213 80.135C46.4828 79.8881 46.1391 79.6464 45.78 79.4253C45.2261 79.0756 44.6105 78.9625 43.9591 78.9574C43.3025 78.9574 42.7742 78.5562 42.5639 77.934C42.251 77.0032 42.9742 76.0107 43.995 76.0107C45.4004 76.0107 46.6828 76.417 47.8318 77.2501C48.2524 77.5535 48.6679 77.8877 49.1347 78.0934C50.3042 78.6128 51.4788 78.5871 52.5971 77.9083C53.2588 77.502 53.8845 77.0341 54.5668 76.6587C55.3105 76.2473 56.1312 76.0879 56.9827 76.0364C57.9624 75.9799 58.9063 76.093 59.8193 76.4376C60.6195 76.7358 61.2966 77.2346 61.9737 77.7283C62.9483 78.4431 64.0203 78.5717 65.1642 78.3145C65.8207 78.1706 66.3388 77.754 66.862 77.3683C67.9289 76.5918 69.0831 76.1033 70.4218 76.0313C71.6837 75.9644 72.884 76.1393 73.9919 76.7615C74.5049 77.0495 74.9922 77.3889 75.4692 77.7335C76.69 78.6282 78.4033 78.6694 79.6754 77.8312C80.3473 77.3889 81.0193 76.9467 81.722 76.561C82.3632 76.2061 83.0813 76.0827 83.8097 76.0364C84.1944 76.0107 84.5688 75.9644 84.9433 76.129C85.5332 76.3861 85.8974 76.9569 85.8461 77.5792C85.7948 78.2374 85.3485 78.7774 84.7022 78.9008C84.3893 78.9625 84.061 78.9471 83.743 78.9882C83.0454 79.0756 82.4709 79.4356 81.9221 79.8419C81.009 80.5155 80.0395 81.0812 78.8957 81.2509C78.4699 81.3126 78.0442 81.3332 77.6133 81.3743L77.6236 81.3897Z" fill="#0B0B0B"/>
<path d="M68.1238 62.8871C68.0315 62.1517 68.8214 61.4318 69.5447 61.4523C70.3244 61.4729 70.9809 62.1106 70.9809 62.8922C70.9809 63.6945 70.35 64.3064 69.555 64.3321C68.7343 64.3578 68.0469 63.5967 68.129 62.8871H68.1238Z" fill="#0B0B0B"/>
<path d="M52.2226 68.8678C51.407 68.8678 50.812 68.2661 50.812 67.4382C50.812 66.6359 51.4429 66.0034 52.238 66.0034C53.0433 66.0034 53.6794 66.6514 53.6742 67.4587C53.6691 68.2558 53.0382 68.8678 52.2226 68.8626V68.8678Z" fill="#0B0B0B"/>
<path d="M75.2898 68.8678C74.4947 68.8678 73.8433 68.2404 73.8587 67.4382C73.8741 66.564 74.5973 65.9983 75.3 66.0035C76.1002 66.0086 76.7414 66.6514 76.7363 67.4588C76.7363 68.2867 76.013 68.9244 75.2898 68.8627V68.8678Z" fill="#0B0B0B"/>
<path d="M63.7435 68.8678C63.0664 68.9295 62.3072 68.2507 62.3483 67.4227C62.3842 66.6359 62.9843 66.0034 63.764 66.0034C64.5591 66.0034 65.2156 66.6565 65.2105 67.4484C65.2105 68.2867 64.4872 68.9243 63.7486 68.8626L63.7435 68.8678Z" fill="#0B0B0B"/>
<path d="M58.0037 64.327C57.1881 64.327 56.5777 63.7048 56.5828 62.8769C56.5828 62.0849 57.224 61.4524 58.0242 61.4576C58.809 61.4576 59.4399 62.1106 59.4399 62.9077C59.4399 63.7099 58.809 64.3322 58.0088 64.327H58.0037Z" fill="#0B0B0B"/>
<path d="M85.7334 68.1942C85.559 66.8725 84.9589 65.7001 84.3228 64.5636C83.5227 63.134 82.5121 61.8586 81.3067 60.7376C80.1885 59.704 78.9626 58.8246 77.6187 58.1098C75.8182 57.1481 73.9101 56.4848 71.925 56.0271C71.925 56.0271 71.9199 56.0271 71.9147 56.0271C71.6583 56.4179 71.2992 56.747 70.8888 56.9887C70.7503 57.1276 70.5965 57.2561 70.4118 57.359C70.0322 57.6315 69.5552 57.8012 68.9602 57.8012C68.8832 57.8012 68.8114 57.7858 68.7396 57.7807C68.7396 57.7807 68.7396 57.7807 68.7345 57.7807C68.6934 57.8064 68.6524 57.8372 68.6165 57.863C69.0012 57.9092 69.3859 57.9658 69.7706 58.0275C71.1915 58.2692 72.5867 58.6086 73.9409 59.092C75.9875 59.8222 77.8649 60.8507 79.496 62.3112C80.6502 63.3448 81.6248 64.5173 82.3378 65.8903C82.7071 66.6 83.102 67.3302 83.2867 68.1016C83.6817 69.7266 83.2508 71.1562 81.9274 72.2361C81.4452 72.6321 80.8605 72.807 80.2296 72.807C74.7564 72.807 69.2833 72.807 63.8102 72.807C58.3371 72.807 53.0435 72.7864 47.6627 72.8172C46.1547 72.8275 45.0826 71.8196 44.6107 70.678C44.0721 69.3564 44.2824 68.0965 44.8775 66.8417C45.6879 65.1344 46.76 63.6225 48.1654 62.3575C49.3965 61.2467 50.7866 60.3776 52.2998 59.6937C53.9463 58.948 55.6647 58.444 57.4292 58.1201C57.937 58.0275 58.4448 57.9452 58.9578 57.8784C58.2089 57.4207 57.4959 56.9322 57.0342 56.1094C57.024 56.0888 57.0188 56.0734 57.0086 56.0528C56.8957 56.0168 56.7829 55.9757 56.6752 55.9191C56.6393 55.9088 56.6136 55.8882 56.5828 55.8728C56.5777 55.8728 56.5675 55.8728 56.5623 55.8728C56.5264 55.8728 56.4905 55.8728 56.4546 55.8677C55.5005 56.0631 54.5567 56.3202 53.6232 56.6185C51.992 57.143 50.4378 57.8424 48.9861 58.7577C47.4217 59.7451 46.0418 60.9433 44.8775 62.3883C43.9388 63.5557 43.1796 64.8258 42.5743 66.1937C42.2102 67.0114 41.9742 67.8599 41.9332 68.7547C41.8716 70.0403 42.1486 71.2488 42.8103 72.3544C43.8926 74.1543 45.4417 75.1776 47.5807 75.1776C52.9974 75.1776 58.4192 75.1776 63.8359 75.1776C69.2526 75.1776 74.7975 75.1776 80.2808 75.1776C81.1426 75.1776 81.953 74.9719 82.6968 74.5605C83.7535 73.9794 84.5331 73.1155 85.082 72.0407C85.7027 70.822 85.913 69.5312 85.7334 68.1787V68.1942Z" fill="#0B0B0B"/>
<path d="M24.0007 39.0826L26.1859 37.2828C27.0015 36.604 27.3195 36.2491 27.3195 35.6989C27.3195 35.1486 26.9502 34.8452 26.4372 34.8452C25.9243 34.8452 25.5857 35.1281 25.0933 35.7297L24.0777 34.9121C24.724 34.0276 25.3549 33.5442 26.5244 33.5442C27.8837 33.5442 28.7865 34.3413 28.7916 35.5755V35.596C28.7916 36.6965 28.2274 37.2416 27.0681 38.1467L25.9961 38.9746H28.8583V40.2242H23.9956V39.0826H24.0007Z" fill="#0B0B0B"/>
<path d="M33.6492 36.9486V36.928C33.6492 35.015 34.8289 33.5186 36.573 33.5186C38.317 33.5186 39.4865 34.9944 39.4865 36.9023V36.9229C39.4865 38.8359 38.317 40.3323 36.5627 40.3323C34.8084 40.3323 33.6492 38.8564 33.6492 36.9486ZM38.0041 36.9434V36.9229C38.0041 35.7298 37.4193 34.8247 36.5576 34.8247C35.6958 34.8247 35.1316 35.699 35.1316 36.9074V36.928C35.1316 38.1313 35.7061 39.0261 36.5781 39.0261C37.4501 39.0261 38.0041 38.1416 38.0041 36.9434Z" fill="#0B0B0B"/>
<path d="M90.7553 35.0047L89.6115 35.2875L89.3088 34.0996L91.1965 33.5339H92.1813L92.1865 40.1677H90.7605L90.7553 34.9995V35.0047Z" fill="#0B0B0B"/>
<path d="M97.4134 39.4838L98.1726 38.3833C98.6496 38.769 99.0548 38.9438 99.6088 38.9438C100.414 38.9438 100.845 38.3318 100.937 37.4473C100.619 37.7199 100.178 37.8999 99.6088 37.8999C98.1828 37.8999 97.2646 37.1131 97.2646 35.7812V35.7606C97.2646 34.4339 98.2854 33.4568 99.7627 33.4568C100.645 33.4568 101.158 33.6728 101.655 34.1664C102.127 34.6344 102.435 35.3492 102.435 36.6451V36.6657C102.435 38.7998 101.435 40.2551 99.5729 40.2603C98.6188 40.2603 97.9674 39.9414 97.4185 39.4838H97.4134ZM100.963 35.7195V35.6989C100.963 35.1178 100.532 34.6961 99.8089 34.6961C99.0856 34.6961 98.6958 35.1127 98.6958 35.6938V35.7143C98.6958 36.2954 99.1266 36.7017 99.8396 36.7017C100.553 36.7017 100.963 36.2851 100.963 35.7246V35.7195Z" fill="#0B0B0B"/>
</g>
<defs>
<clipPath id="clip0_224_382">
<rect width="128" height="172" fill="white"/>
</clipPath>
</defs>
</svg>
