<svg width="22" height="23" viewBox="0 0 22 23" fill="none" xmlns="http://www.w3.org/2000/svg">
<path d="M21.1741 3.83103C21.0716 3.18842 20.508 2.70887 19.858 2.70887C19.8548 2.70887 19.8484 2.70887 19.8452 2.70887C15.8041 2.75043 11.9071 4.1891 8.81061 6.76591C8.71455 5.63416 8.39113 4.53118 7.85638 3.52091C7.12629 2.14299 6.02796 0.992057 4.68626 0.192797C4.1451 -0.130104 3.46945 -0.0405873 3.04677 0.410195C1.03582 2.54901 -0.0464994 5.34323 0.00153271 8.27811C0.0463626 11.1043 1.13509 13.7642 3.07558 15.8071C2.89306 16.5041 2.75537 17.2138 2.66251 17.9364C2.62408 18.2337 2.83222 18.5054 3.13322 18.547C3.15564 18.5502 3.18126 18.5502 3.20367 18.5502C3.47265 18.5502 3.70641 18.352 3.74163 18.077C3.8409 17.3257 3.98819 16.5904 4.18673 15.8775C4.20914 15.8295 4.22195 15.7816 4.22835 15.7304C6.19127 8.85997 12.5379 3.87259 19.8644 3.79586C19.8644 3.79586 19.8644 3.79586 19.8676 3.79586C19.9829 3.79586 20.0917 3.88857 20.111 4.00047C20.5144 6.54212 20.5272 9.11893 20.1494 11.6638C20.143 11.683 20.1366 11.7021 20.1334 11.7213C19.3809 14.9471 17.2803 17.703 14.3631 19.2791C11.7918 20.673 8.7978 21.0375 5.98953 20.3309C6.93736 19.7075 7.84677 19.0234 8.71455 18.2784C11.0041 16.3123 12.9286 13.988 14.4336 11.376C14.5841 11.1171 14.4944 10.7846 14.2318 10.6343C13.9725 10.4841 13.6394 10.5736 13.4889 10.8357C11.2923 14.6242 8.15097 17.7893 4.41728 20.0208C4.40127 20.0272 4.38846 20.0368 4.37245 20.0464C3.17485 20.7593 1.91961 21.3732 0.613141 21.8847C0.334555 21.9934 0.193661 22.3099 0.305736 22.5881C0.388991 22.8023 0.593928 22.9333 0.811674 22.9333C0.878919 22.9333 0.946163 22.9205 1.01021 22.895C2.30387 22.3898 3.5463 21.7888 4.73749 21.095C6.06318 21.5426 7.4401 21.7664 8.81382 21.7664C10.908 21.7664 12.9926 21.2517 14.8691 20.2318C18.0264 18.5246 20.3127 15.5514 21.1549 12.0698C21.1741 12.025 21.1901 11.9771 21.1965 11.9259C21.6096 9.24041 21.6 6.51654 21.1741 3.83103ZM5.46758 10.4681C5.46118 9.88622 5.43556 9.34592 5.39073 8.828C5.29147 7.72182 5.10254 6.5581 4.81435 5.2633C4.7503 4.96917 4.45891 4.78694 4.16431 4.85088C3.86972 4.91482 3.68719 5.20575 3.75124 5.49988C4.02982 6.74673 4.21234 7.86569 4.30521 8.92391C4.39487 9.93737 4.40447 11.0531 4.33082 12.4247C3.98499 13.1216 3.68399 13.841 3.43422 14.5827C0.155236 10.6759 0.26731 4.9436 3.83449 1.15191C3.90494 1.07518 4.02662 1.06559 4.12589 1.12313C6.46025 2.51065 7.83396 5.02352 7.7475 7.72182C6.88933 8.56264 6.12722 9.48339 5.46758 10.4681Z" fill="white"/>
</svg>
