<svg width="48" height="48" viewBox="0 0 48 48" fill="none" xmlns="http://www.w3.org/2000/svg">
<g clip-path="url(#clip0_261_29)">
<path fill-rule="evenodd" clip-rule="evenodd" d="M40.7626 19.7812C38.7377 19.7812 38.5969 18.375 36.5719 18.375C34.547 18.375 34.4063 19.7812 32.3813 19.7812C30.3563 19.7812 30.2156 18.375 28.1907 18.375C26.1657 18.375 26.025 19.7812 24.0001 19.7812C21.9751 19.7812 21.8344 18.375 19.8094 18.375C17.7844 18.375 17.6438 19.7812 15.6188 19.7812C13.5938 19.7812 13.4532 18.375 11.4282 18.375C9.40328 18.375 9.26256 19.7812 7.23756 19.7812C5.5269 19.7812 5.161 18.7776 3.86762 18.4661C-0.445818 19.5497 0.205557 25.7459 4.68746 25.875H43.3126C47.7978 25.7445 48.4428 19.5477 44.1325 18.4661C42.8391 18.7776 42.4732 19.7812 40.7626 19.7812Z" fill="#FFAD32"/>
<path fill-rule="evenodd" clip-rule="evenodd" d="M15.6188 31.5C13.5938 31.5 13.4531 30.0938 11.4281 30.0938C9.40322 30.0938 9.2625 31.5 7.2375 31.5C5.52684 31.5 5.16094 30.4963 3.86756 30.1849C2.196 30.5615 0.9375 32.0627 0.9375 33.8438C0.9375 35.9062 2.625 37.5938 4.6875 37.5938H24.1582L17.4993 30.9349C17.0221 31.2349 16.498 31.5 15.6188 31.5Z" fill="#FFAD32"/>
<path fill-rule="evenodd" clip-rule="evenodd" d="M38.882 30.9348L32.2231 37.5937H43.3126C47.7962 37.464 48.4441 31.2669 44.1325 30.1848C42.8391 30.4963 42.4732 31.4999 40.7625 31.4999C39.8833 31.4999 39.3593 31.2348 38.882 30.9348Z" fill="#FFAD32"/>
<path d="M43.3125 36.6562H34.4866L39.0508 32.092C40.5742 32.7665 42.2766 32.3947 43.3684 31.5832C43.8619 31.2628 44.2183 31.0312 44.9531 31.0312C48.9953 30.8638 48.9937 25.1041 44.9531 24.9375H3.04678C-0.995906 25.1053 -0.993281 30.8647 3.04678 31.0312C3.78159 31.0312 4.13812 31.2627 4.63153 31.5832C6.18131 32.7247 8.29753 32.7219 9.84328 31.5832C10.3368 31.2628 10.6932 31.0312 11.428 31.0312C12.1628 31.0312 12.5194 31.2627 13.0128 31.5832C14.1068 32.3965 15.8099 32.7655 17.3304 32.092L21.8948 36.6562H4.6875C2.10281 36.6562 0 38.7591 0 41.3438V43.2188C0 45.8034 2.10281 47.9062 4.6875 47.9062H43.3125C45.8972 47.9062 48 45.8034 48 43.2188V41.3438C48 38.759 45.8972 36.6562 43.3125 36.6562ZM19.0364 31.1463C19.2519 31.0732 19.4963 31.0312 19.8093 31.0312C20.5441 31.0312 20.9006 31.2627 21.394 31.5832C22.9438 32.7247 25.06 32.7219 26.6058 31.5832C27.0993 31.2628 27.4557 31.0312 28.1905 31.0312C28.9253 31.0312 29.2819 31.2627 29.7753 31.5832C31.328 32.7256 33.4403 32.7215 34.987 31.5832C35.4804 31.2628 35.837 31.0313 36.5718 31.0313C36.8848 31.0313 37.1291 31.0733 37.3447 31.1464L28.8535 39.6375C28.5082 39.9982 27.873 39.9982 27.5277 39.6375L19.0364 31.1463ZM14.0339 30.0106C12.4841 28.869 10.3679 28.8718 8.82216 30.0106C8.32875 30.331 7.97222 30.5625 7.23741 30.5625C6.50259 30.5625 6.14606 30.331 5.65266 30.0106C5.06644 29.63 4.33697 29.1562 3.04678 29.1562C1.49344 29.0925 1.49166 26.877 3.04678 26.8125H44.9531C46.5078 26.8769 46.5071 29.0921 44.9531 29.1562C43.6629 29.1562 42.9335 29.63 42.3473 30.0106C41.8538 30.3309 41.4973 30.5625 40.7625 30.5625C40.0277 30.5625 39.6712 30.331 39.1777 30.0106C37.6249 28.8681 35.5127 28.8723 33.966 30.0106C33.4726 30.3309 33.1161 30.5624 32.3812 30.5624C31.6464 30.5624 31.2899 30.3309 30.7965 30.0105C29.2467 28.8689 27.1305 28.8717 25.5847 30.0105C25.0912 30.331 24.7347 30.5625 24 30.5625C23.2653 30.5625 22.9087 30.331 22.4152 30.0106C20.8623 28.8681 18.7501 28.8723 17.2035 30.0106C16.71 30.331 16.3536 30.5625 15.6188 30.5625C14.8839 30.5625 14.5274 30.331 14.0339 30.0106ZM46.125 43.2188C46.125 44.7696 44.8633 46.0312 43.3125 46.0312H4.6875C3.13669 46.0312 1.875 44.7696 1.875 43.2188V41.3438C1.875 39.7929 3.13669 38.5312 4.6875 38.5312H23.7698L26.2019 40.9633C27.2451 42.0515 29.1362 42.0514 30.1794 40.9633L32.6115 38.5312H43.3125C44.8633 38.5312 46.125 39.7929 46.125 41.3438V43.2188Z" fill="#0B0B0B"/>
<path d="M12.7503 6.65625C13.9941 6.60675 13.9932 4.83028 12.7503 4.78125H12.7496C11.5057 4.83094 11.5073 6.60741 12.7503 6.65625Z" fill="#0B0B0B"/>
<path d="M24.0003 6.65625C25.2441 6.60675 25.2432 4.83028 24.0003 4.78125H23.9996C22.7557 4.83094 22.7573 6.60741 24.0003 6.65625Z" fill="#0B0B0B"/>
<path d="M35.2503 6.65625C36.4941 6.60675 36.4932 4.83028 35.2503 4.78125H35.2496C34.0057 4.83094 34.0073 6.60741 35.2503 6.65625Z" fill="#0B0B0B"/>
<path d="M7.12527 10.4061C8.36914 10.3566 8.3682 8.58016 7.12527 8.53113H7.12461C5.88073 8.58082 5.88233 10.3572 7.12527 10.4061Z" fill="#0B0B0B"/>
<path d="M18.3753 10.4061C19.6191 10.3566 19.6182 8.58016 18.3753 8.53113H18.3746C17.1307 8.58082 17.1323 10.3572 18.3753 10.4061Z" fill="#0B0B0B"/>
<path d="M29.6253 10.4061C30.8692 10.3566 30.8682 8.58016 29.6253 8.53113H29.6246C28.3807 8.58082 28.3824 10.3572 29.6253 10.4061Z" fill="#0B0B0B"/>
<path d="M40.8753 10.4061C42.1192 10.3566 42.1182 8.58016 40.8753 8.53113H40.8746C39.6307 8.58082 39.6324 10.3572 40.8753 10.4061Z" fill="#0B0B0B"/>
<path d="M0 16.2656C0 17.9456 1.36678 19.3125 3.04678 19.3125C3.78159 19.3125 4.13812 19.544 4.63153 19.8644C6.18131 21.006 8.29753 21.0032 9.84328 19.8644C10.3368 19.5441 10.6932 19.3125 11.428 19.3125C12.1628 19.3125 12.5194 19.544 13.0128 19.8644C14.5626 21.006 16.6788 21.0033 18.2245 19.8644C18.7179 19.5441 19.0745 19.3125 19.8093 19.3125C20.5441 19.3125 20.9006 19.544 21.394 19.8644C22.9438 21.006 25.06 21.0032 26.6058 19.8644C27.0993 19.5441 27.4557 19.3125 28.1905 19.3125C28.9253 19.3125 29.2819 19.544 29.7753 19.8644C31.3282 21.0069 33.4403 21.0027 34.987 19.8644C35.4804 19.5441 35.837 19.3126 36.5718 19.3126C37.3066 19.3126 37.6631 19.5441 38.1565 19.8645C39.7063 21.0061 41.8225 21.0033 43.3683 19.8645C43.8618 19.5442 44.2182 19.3126 44.953 19.3126C47.9873 19.2868 49.1198 15.3712 46.6251 13.7197C47.4741 12.8708 47.9999 11.6988 47.9999 10.4062C48 4.71984 43.3738 0.09375 37.6875 0.09375H10.3125C4.62619 0.09375 0 4.71984 0 10.4062C0 11.6988 0.525844 12.8707 1.37484 13.7196C0.547219 14.2649 0 15.2025 0 16.2656ZM10.3125 1.96875H37.6875C42.3399 1.96875 46.125 5.75381 46.125 10.4062C46.125 11.9571 44.8633 13.2188 43.3125 13.2188H4.6875C3.13669 13.2188 1.875 11.9571 1.875 10.4062C1.875 5.75381 5.66006 1.96875 10.3125 1.96875ZM44.9531 15.0938C46.5078 15.1582 46.5071 17.3734 44.9531 17.4375C43.6629 17.4375 42.9335 17.9112 42.3473 18.2918C41.8538 18.6122 41.4973 18.8438 40.7625 18.8438C40.0277 18.8438 39.6712 18.6123 39.1777 18.2918C37.6249 17.1493 35.5127 17.1535 33.966 18.2918C33.4726 18.6122 33.1161 18.8437 32.3812 18.8437C31.6464 18.8437 31.2899 18.6122 30.7965 18.2917C29.2467 17.1502 27.1305 17.153 25.5847 18.2917C25.0912 18.6123 24.7347 18.8438 24 18.8438C23.2653 18.8438 22.9087 18.6123 22.4152 18.2918C20.8623 17.1493 18.7501 17.1535 17.2035 18.2918C16.71 18.6123 16.3536 18.8438 15.6188 18.8438C14.8839 18.8438 14.5274 18.6123 14.034 18.2918C12.4842 17.1503 10.368 17.1531 8.82225 18.2918C8.32875 18.6123 7.97222 18.8438 7.23741 18.8438C6.50259 18.8438 6.14606 18.6123 5.65266 18.2918C5.06644 17.9112 4.33697 17.4375 3.04678 17.4375C1.49344 17.3738 1.49166 15.1582 3.04678 15.0938H44.9531Z" fill="#0B0B0B"/>
</g>
<defs>
<clipPath id="clip0_261_29">
<rect width="48" height="48" fill="white"/>
</clipPath>
</defs>
</svg>
