<svg width="21" height="27" viewBox="0 0 21 27" fill="none" xmlns="http://www.w3.org/2000/svg">
<path d="M8.726 25.6943C8.87628 25.9068 8.82682 26.2012 8.61483 26.3515C8.53144 26.4104 8.43628 26.4391 8.34207 26.4391C8.19461 26.4391 8.04952 26.3704 7.95766 26.2403C6.69184 24.4573 6.45959 22.1098 7.35136 20.1143L8.726 25.6943ZM7.87605 26.2981C7.98751 26.4558 8.16368 26.5391 8.34207 26.5391C8.45678 26.5391 8.57213 26.5041 8.67251 26.4332L8.67266 26.4331C8.92998 26.2507 8.98957 25.8938 8.80765 25.6366L8.80754 25.6364C7.75394 24.1526 7.56121 22.1993 8.30287 20.5395L8.30295 20.5393C8.43136 20.2505 8.30223 19.9142 8.01474 19.7847L8.01469 19.7847C7.72464 19.6543 7.38884 19.7863 7.26012 20.0734L7.26006 20.0735C6.35386 22.1013 6.58981 24.4862 7.87605 26.2981Z" fill="white" stroke="white" stroke-width="0.2"/>
<path d="M11.9136 26.4478L11.9137 26.4479C12.0085 26.5086 12.1153 26.5391 12.222 26.5391C12.41 26.5391 12.5936 26.4468 12.7023 26.2765C15.3221 22.2073 14.5364 16.7537 10.8756 13.5893L10.8756 13.5893L10.8753 13.5891C10.637 13.3845 10.2766 13.4086 10.0697 13.6487L10.1455 13.714L10.0698 13.6486C9.86353 13.8874 9.8905 14.2478 10.1285 14.4538L10.1286 14.4539C13.3621 17.2479 14.0556 22.0655 11.7422 25.659C11.5714 25.9237 11.6481 26.2772 11.9136 26.4478ZM12.222 26.4391C12.1344 26.4391 12.0463 26.4141 11.9676 26.3637L12.6182 26.2224C12.5287 26.3628 12.3775 26.4391 12.222 26.4391Z" fill="white" stroke="white" stroke-width="0.2"/>
<path d="M7.26003 20.0734L7.26001 20.0735C7.13159 20.3611 7.26044 20.6985 7.548 20.8272C7.62445 20.8622 7.70364 20.8775 7.78096 20.8775C7.99923 20.8775 8.20787 20.7521 8.30282 20.54L8.30285 20.5399C8.86162 19.2886 9.14537 17.9599 9.14537 16.5905C9.14537 16.2747 8.89002 16.0194 8.57428 16.0194C8.25854 16.0194 8.00319 16.2747 8.00319 16.5905C8.00319 17.7979 7.75318 18.9702 7.26003 20.0734Z" fill="white" stroke="white" stroke-width="0.2"/>
<path d="M9.54533 20.812L9.54532 20.8121L10.072 20.2909L10.1715 20.301C10.1715 20.301 10.1715 20.301 10.1715 20.3009C10.3191 18.8479 9.91347 17.4065 9.02796 16.2444L9.02792 16.2443C8.83672 15.9937 8.47913 15.9446 8.22735 16.1364L8.22732 16.1364C7.97704 16.3273 7.92862 16.6863 8.11933 16.937L8.1194 16.9371C8.82899 17.8675 9.15398 19.0218 9.03502 20.1851L9.035 20.1853C9.00362 20.4996 9.23189 20.7794 9.54533 20.812ZM9.1345 20.1952C9.25605 19.0067 8.92393 17.8271 8.19892 16.8764L9.55566 20.7125C9.29703 20.6856 9.10859 20.4548 9.1345 20.1952Z" fill="white" stroke="white" stroke-width="0.2"/>
<path d="M11.0335 13.8109C10.9172 13.519 10.5846 13.3733 10.2914 13.4918C9.99826 13.6088 9.85536 13.9409 9.97241 14.2335C10.7257 16.1233 10.4122 18.2913 9.15481 19.8909C8.95944 20.1383 9.00244 20.4974 9.25049 20.6926C9.35549 20.7758 9.48039 20.8145 9.60317 20.8145C9.77241 20.8145 9.93979 20.7398 10.0528 20.5971L10.053 20.5968C11.5613 18.6783 11.9375 16.0779 11.0335 13.8109ZM11.0335 13.8109L10.9406 13.8479M11.0335 13.8109L10.9406 13.8479M10.9406 13.8479C10.8445 13.6067 10.5698 13.487 10.3286 13.5845L9.97438 20.535C11.4607 18.6445 11.8314 16.0818 10.9406 13.8479Z" fill="white" stroke="white" stroke-width="0.2"/>
<path d="M15.7858 5.54035C15.6563 5.25406 15.3179 5.12449 15.0301 5.25695C14.7428 5.38633 14.6157 5.72544 14.7463 6.01204C15.293 7.21764 15.1285 8.61441 14.3166 9.65963C14.1228 9.90835 14.1682 10.2675 14.4175 10.4614L14.4176 10.4616C14.5216 10.5421 14.6452 10.581 14.7672 10.581C14.9376 10.581 15.1062 10.5051 15.2187 10.3606L15.2188 10.3605C16.2916 8.9796 16.5087 7.13204 15.7858 5.54035ZM15.7858 5.54035C15.7859 5.54037 15.7859 5.5404 15.7859 5.54042L15.6948 5.58162M15.7858 5.54035C15.7858 5.54032 15.7858 5.5403 15.7858 5.54027L15.6948 5.58162M15.6948 5.58162C16.4023 7.13952 16.1899 8.94756 15.1398 10.2991M15.6948 5.58162C15.5878 5.34514 15.3085 5.23867 15.0715 5.34796C14.8346 5.45443 14.7295 5.73426 14.8374 5.97075L15.1398 10.2991M15.1398 10.2991C15.047 10.4183 14.908 10.481 14.7672 10.481C14.6664 10.481 14.5646 10.4489 14.4789 10.3825C14.273 10.2223 14.2358 9.92602 14.3955 9.7211L15.1398 10.2991Z" fill="white" stroke="white" stroke-width="0.2"/>
<path d="M8.99117 0.972913L8.99117 0.972914C12.3483 2.86017 14.6593 6.11791 15.3302 9.91047C15.3854 10.2213 15.1781 10.5168 14.8682 10.5717C14.8325 10.5788 14.7982 10.5809 14.7672 10.5809C14.495 10.5809 14.2543 10.3869 14.2056 10.1093C13.5942 6.65503 11.4901 3.68781 8.43155 1.96887L8.99117 0.972913ZM8.99117 0.972913L8.99082 0.97272M8.99117 0.972913L8.99082 0.97272M8.99082 0.97272C8.71544 0.819347 8.36819 0.916174 8.21339 1.19149L8.99082 0.97272ZM8.21338 1.1915C8.05912 1.46577 8.15675 1.81458 8.43151 1.96884L8.21338 1.1915Z" fill="white" stroke="white" stroke-width="0.2"/>
<path d="M4.9384 11.1667C4.99273 11.4382 5.231 11.6253 5.49764 11.6253C5.53436 11.6253 5.57182 11.6219 5.60902 11.6153L5.60903 11.6153L5.61128 11.6148C5.92056 11.5521 6.12055 11.2512 6.05828 10.9421L6.05828 10.9421C5.82423 9.78236 5.30557 8.68633 4.55902 7.77021L4.55895 7.77012C4.36048 7.52717 4.00188 7.48748 3.75564 7.68745L3.75564 7.68745L3.75548 7.68758C3.51117 7.88679 3.47393 8.24702 3.67334 8.49157L3.6734 8.49164C4.30421 9.26381 4.74139 10.1891 4.9384 11.1667ZM4.9384 11.1667C4.9384 11.1667 4.93839 11.1667 4.93839 11.1666L5.03645 11.147M4.9384 11.1667C4.93841 11.1667 4.93841 11.1668 4.93842 11.1668L5.03645 11.147M5.03645 11.147C5.0812 11.3708 5.27764 11.5253 5.49764 11.5253C5.52826 11.5253 5.55983 11.5225 5.59139 11.5168L5.03645 11.147Z" fill="white" stroke="white" stroke-width="0.2"/>
<path d="M9.28195 1.47295C9.28252 1.15735 9.02737 0.900732 8.71181 0.900732H8.71086C8.39575 0.900732 8.14034 1.15494 8.13977 1.4707V1.47071C8.13416 4.78251 7.03415 8.06475 5.04174 10.711L5.04174 10.711C4.85216 10.9628 4.90235 11.3209 5.15429 11.5106L5.15464 11.5108C5.25749 11.5875 5.37794 11.6254 5.49756 11.6254C5.67099 11.6254 5.84228 11.5461 5.95417 11.3982L5.95432 11.398C8.0943 8.55513 9.27626 5.0306 9.28195 1.47295ZM9.28195 1.47295L9.18195 1.47277M9.28195 1.47295C9.28195 1.47294 9.28195 1.47293 9.28195 1.47292L9.18195 1.47277M9.18195 1.47277C9.1763 5.00877 8.0014 8.51227 5.87443 11.3379L5.21443 11.4307C5.00668 11.2743 4.96522 10.9789 5.12163 10.7711C7.12706 8.1076 8.23412 4.80432 8.23977 1.47088C8.24024 1.21037 8.45082 1.00073 8.71086 1.00073H8.71181C8.97185 1.00073 9.18243 1.21225 9.18195 1.47277Z" fill="white" stroke="white" stroke-width="0.2"/>
<path d="M19.3044 16.8393L19.3044 16.8394H19.3086H19.3086H19.3087H19.3087H19.3088H19.3088H19.3089H19.3089H19.3089H19.309H19.309H19.3091H19.3091H19.3091H19.3092H19.3092H19.3093H19.3093H19.3093H19.3094H19.3094H19.3095H19.3095H19.3096H19.3096H19.3096H19.3097H19.3097H19.3098H19.3098H19.3098H19.3099H19.3099H19.31H19.31H19.31H19.3101H19.3101H19.3102H19.3102H19.3102H19.3103H19.3103H19.3104H19.3104H19.3104H19.3105H19.3105H19.3106H19.3106H19.3106H19.3107H19.3107H19.3108H19.3108H19.3109H19.3109H19.3109H19.311H19.311H19.3111H19.3111H19.3111H19.3112H19.3112H19.3113H19.3113H19.3113H19.3114H19.3114H19.3115H19.3115H19.3115H19.3116H19.3116H19.3117H19.3117H19.3117H19.3118H19.3118H19.3119H19.3119H19.3119H19.312H19.312H19.3121H19.3121H19.3121H19.3122H19.3122H19.3123H19.3123H19.3123H19.3124H19.3124H19.3125H19.3125H19.3125H19.3126H19.3126H19.3127H19.3127H19.3127H19.3128H19.3128H19.3128H19.3129H19.3129H19.313H19.313H19.313H19.3131H19.3131H19.3132H19.3132H19.3132H19.3133H19.3133H19.3134H19.3134H19.3134H19.3135H19.3135H19.3136H19.3136H19.3136H19.3137H19.3137H19.3138H19.3138H19.3138H19.3139H19.3139H19.314H19.314H19.314H19.3141H19.3141H19.3141H19.3142H19.3142H19.3143H19.3143H19.3143H19.3144H19.3144H19.3145H19.3145H19.3145H19.3146H19.3146H19.3147H19.3147H19.3147H19.3148H19.3148H19.3149H19.3149H19.3149H19.315H19.315H19.315H19.3151H19.3151H19.3152H19.3152H19.3152H19.3153H19.3153H19.3154H19.3154H19.3154H19.3155H19.3155H19.3156H19.3156H19.3156H19.3157H19.3157H19.3158H19.3158H19.3158H19.3159H19.3159H19.3159H19.316H19.316H19.3161H19.3161H19.3161H19.3162H19.3162H19.3163H19.3163H19.3163H19.3164H19.3164H19.3165H19.3165H19.3165H19.3166H19.3166H19.3166H19.3167H19.3167H19.3168H19.3168H19.3168H19.3169H19.3169H19.317H19.317H19.317H19.3171H19.3171H19.3171H19.3172H19.3172H19.3173H19.3173H19.3173H19.3174H19.3174H19.3175H19.3175H19.3175H19.3176H19.3176H19.3177H19.3177H19.3177H19.3178H19.3178H19.3178H19.3179H19.3179H19.318H19.318H19.318H19.3181H19.3181H19.3182H19.3182H19.3182H19.3183H19.3183H19.3183H19.3184H19.3184H19.3185H19.3185H19.3185H19.3186H19.3186H19.3187H19.3187H19.3187H19.3188H19.3188H19.3188H19.3189H19.3189H19.319H19.319H19.319H19.3191H19.3191H19.3192H19.3192H19.3192H19.3193H19.3193H19.3194H19.3194H19.3194H19.3195H19.3195H19.3195H19.3196H19.3196H19.3197H19.3197H19.3197H19.3198H19.3198H19.3199H19.3199H19.3199H19.32H19.32H19.32H19.3201H19.3201H19.3202H19.3202H19.3202H19.3203H19.3203H19.3204H19.3204H19.3204H19.3205H19.3205H19.3206H19.3206H19.3206H19.3207H19.3207H19.3207H19.3208H19.3208H19.3209H19.3209H19.3209H19.321H19.321H19.3211H19.3211H19.3211H19.3212H19.3212H19.3212H19.3213H19.3213H19.3214H19.3214H19.3214H19.3215H19.3215H19.3216H19.3216H19.3216H19.3217H19.3217H19.3218H19.3218H19.3218H19.3219H19.3219H19.3219H19.322H19.322H19.3221H19.3221H19.3221H19.3222H19.3222H19.3223H19.3223H19.3223H19.3224H19.3224H19.3225H19.3225H19.3225H19.3226H19.3226H19.3227H19.3227H19.3227H19.3228H19.3228H19.3228H19.3229H19.3229H19.323H19.323H19.323H19.3231H19.3231H19.3232H19.3232H19.3232H19.3233H19.3233H19.3234H19.3234H19.3234H19.3235H19.3235H19.3236H19.3236H19.3236H19.3237H19.3237H19.3237H19.3238H19.3238H19.3239H19.3239H19.3239H19.324H19.324H19.3241H19.3241H19.3241H19.3242H19.3242H19.3243H19.3243H19.3243H19.3244H19.3244H19.3245H19.3245H19.3245H19.3246H19.3246H19.3247H19.3247H19.3247H19.3248H19.3248H19.3249H19.3249H19.3249H19.325H19.325H19.3251H19.3251H19.3251H19.3252H19.3252H19.3253H19.3253H19.3253H19.3254H19.3254H19.3255H19.3255H19.3255H19.3256H19.3256H19.3257H19.3257H19.3257H19.3258H19.3258H19.3259H19.3259H19.3259H19.326H19.326H19.3261H19.3261H19.3261H19.3262H19.3262H19.3263H19.3263H19.3263H19.3264H19.3264H19.3265H19.3265H19.3265H19.3266H19.3266H19.3267H19.3267H19.3267H19.3268H19.3268H19.3269H19.3269H19.3269H19.327H19.327H19.3271H19.3271H19.3271H19.3272H19.3272H19.3273H19.3273H19.3273H19.3274H19.3274H19.3275H19.3275H19.3275H19.3276H19.3276H19.3277H19.3277H19.3278H19.3278H19.3278H19.3279H19.3279H19.328H19.328H19.328H19.3281H19.3281H19.3282H19.3282H19.3282H19.3283H19.3283H19.3284H19.3284H19.3284H19.3285H19.3285H19.3286H19.3286H19.3287H19.3287H19.3287H19.3288H19.3288H19.3289C19.6336 16.8394 19.8863 16.5996 19.8989 16.2932C20.0683 12.2381 18.5272 8.25813 15.6717 5.37415L15.6717 5.37415L15.6715 5.37389C15.449 5.15087 15.0887 5.14847 14.8638 5.37052L14.8638 5.37052L14.8636 5.3707C14.6399 5.5927 14.6375 5.95368 14.8597 6.17815L14.8597 6.17818C17.4929 8.83657 18.9136 12.5057 18.7579 16.2448C18.7447 16.5594 18.9891 16.8261 19.3044 16.8393Z" fill="white" stroke="white" stroke-width="0.2"/>
<path d="M12.0281 25.4307L12.028 25.4307C11.7313 25.5386 11.5781 25.8653 11.6855 26.1622C11.7695 26.3954 11.9891 26.5391 12.2223 26.5391C12.2878 26.5391 12.3533 26.5276 12.4168 26.5051L12.4175 26.5048C16.7699 24.927 19.7068 20.9174 19.8993 16.2931C19.9123 15.9786 19.6694 15.712 19.3547 15.6987C19.0343 15.6728 18.7711 15.9353 18.7582 16.2452L18.7582 16.2453C18.5851 20.4059 15.9433 24.011 12.0281 25.4307Z" fill="white" stroke="white" stroke-width="0.2"/>
<path d="M8.21489 26.5249L8.21517 26.525L8.8009 26.0712L8.89843 26.0933C8.89844 26.0933 8.89845 26.0932 8.89846 26.0932C8.96805 25.7854 8.77499 25.48 8.46798 25.4099L8.4678 25.4098C5.84774 24.816 3.60501 22.8954 2.61564 20.3997L2.61563 20.3997C1.71368 18.1257 1.88177 15.4887 3.06479 13.3498L3.06484 13.3497C3.21734 13.0732 3.11671 12.7267 2.84168 12.5738L2.84168 12.5738L2.84131 12.5736C2.56445 12.4212 2.2184 12.5217 2.06547 12.7968L2.06536 12.797C0.71816 15.2333 0.527273 18.2324 1.55396 20.8211C2.68026 23.6637 5.23182 25.8487 8.21489 26.5249Z" fill="white" stroke="white" stroke-width="0.2"/>
<path d="M2.28913 13.5734L2.28952 13.5737C2.37634 13.6213 2.47062 13.6449 2.56472 13.6449C2.76624 13.6449 2.96088 13.5376 3.06525 13.3499L3.06537 13.3497C3.95188 11.7471 4.49676 10.0099 4.68469 8.18944L4.68471 8.18928C4.71666 7.87487 4.48883 7.59499 4.17485 7.56245L4.17485 7.56243L4.17311 7.56228C3.85745 7.53513 3.58101 7.75689 3.54783 8.07213L3.54781 8.07236C3.3763 9.73884 2.87726 11.3285 2.06546 12.7974C1.91283 13.0731 2.01365 13.4206 2.28913 13.5734Z" fill="white" stroke="white" stroke-width="0.2"/>
</svg>
