<svg width="48" height="48" viewBox="0 0 48 48" fill="none" xmlns="http://www.w3.org/2000/svg">
<g clip-path="url(#clip0_261_77)">
<path fill-rule="evenodd" clip-rule="evenodd" d="M33.3662 25.6957H14.6338C14.628 25.9106 14.625 26.1305 14.625 26.3561V42.3751H33.375C33.375 37.0354 33.375 31.6957 33.375 26.3561C33.375 26.1305 33.3721 25.9105 33.3662 25.6957Z" fill="#FFAD32"/>
<path d="M32.0244 16.9679C30.9169 14.5998 29.7738 12.1559 29.6383 7.49978C30.1499 7.49266 30.5624 7.07575 30.5624 6.56247V2.81249C30.5624 1.26168 29.3008 0 27.7499 0H20.25C18.6992 0 17.4375 1.26168 17.4375 2.81249V6.56247C17.4375 7.07575 17.8501 7.49266 18.3616 7.49978C18.2261 12.1559 17.083 14.5997 15.9756 16.9679C14.8507 19.373 13.6875 21.86 13.6875 26.3559V45.1875C13.6875 46.7383 14.9492 48 16.5 48H31.4999C33.0507 48 34.3124 46.7383 34.3124 45.1875V26.3559C34.3124 21.86 33.1493 19.373 32.0244 16.9679ZM20.2371 7.49997H27.7627C27.8014 8.8945 27.926 10.113 28.11 11.1972C26.0643 11.6217 24.3147 11.3791 22.7525 11.1627C21.7782 11.0277 20.8411 10.8977 19.9313 10.9439C20.0926 9.92396 20.2014 8.78697 20.2371 7.49997ZM19.3125 2.81249C19.3125 2.29555 19.733 1.87499 20.25 1.87499H27.7499C28.2669 1.87499 28.6874 2.29555 28.6874 2.81249V5.62498H19.3125V2.81249ZM32.4374 45.1875C32.4374 45.7044 32.0169 46.125 31.4999 46.125H16.5C15.9831 46.125 15.5625 45.7044 15.5625 45.1875V26.3559C15.5597 19.8505 18.124 18.2963 19.5377 12.8678C20.3859 12.7276 21.3734 12.8644 22.4951 13.0199C23.4633 13.1542 24.5571 13.3058 25.7784 13.3057C26.6255 13.3057 27.534 13.2327 28.5043 13.0304C29.0064 14.941 29.6886 16.3996 30.3259 17.7623C31.4117 20.0839 32.4373 22.2768 32.4373 26.3559V45.1875H32.4374Z" fill="#0B0B0B"/>
<path d="M26.8102 30.3492C26.1391 29.8945 25.6152 29.7296 25.1535 29.6941C25.1585 29.6789 25.1634 29.6651 25.1681 29.6527C25.4148 29.2409 25.3103 28.7015 24.9146 28.4138C24.4958 28.1094 23.9095 28.2018 23.605 28.6206C23.45 28.8337 23.3221 29.2374 23.2225 29.6763C22.7399 29.6415 22.1855 29.7319 21.3784 30.2274C18.1533 32.1568 18.2253 36.9735 21.4736 38.8379C22.416 39.3663 22.8679 39.4052 23.6665 39.314C23.9104 39.2782 24.0791 39.2774 24.3248 39.3131C24.9568 39.3906 25.6099 39.4077 26.6386 38.7703C29.7167 36.9285 29.8009 32.3176 26.8102 30.3492ZM25.6509 37.1764C25.0982 37.5189 24.9158 37.4966 24.5533 37.452C24.2532 37.3992 23.7258 37.4015 23.4331 37.4536C23.0873 37.4969 22.9295 37.5168 22.4192 37.2186C20.383 36.0499 20.3392 33.0337 22.3595 31.8252C22.6595 31.641 22.8293 31.5685 22.9745 31.5506C23.1209 32.6453 24.6731 32.6561 24.836 31.5654C25.089 31.5444 25.3044 31.5938 25.7586 31.9015C27.6331 33.1354 27.5794 36.0225 25.6509 37.1764Z" fill="#0B0B0B"/>
</g>
<defs>
<clipPath id="clip0_261_77">
<rect width="48" height="48" fill="white"/>
</clipPath>
</defs>
</svg>
