<svg width="36" height="36" viewBox="0 0 36 36" fill="none" xmlns="http://www.w3.org/2000/svg">
<g clip-path="url(#clip0_206_20)">
<path d="M22.0718 14.656L16.6628 19.7649L14.0668 17.0942C13.7791 16.7979 13.3052 16.7912 13.0092 17.079C12.7129 17.3671 12.7062 17.8406 12.994 18.1369L16.1074 21.333C16.3967 21.6241 16.8641 21.634 17.1654 21.3553L23.1148 15.7438C23.2593 15.6075 23.3437 15.4194 23.3492 15.221C23.3548 15.0226 23.2813 14.83 23.1447 14.6859C22.8551 14.3849 22.3777 14.3717 22.0718 14.656Z" fill="white"/>
<path d="M18.058 6.79343C11.8762 6.79343 6.84961 11.82 6.84961 18.0018C6.84961 24.1839 11.8762 29.2105 18.058 29.2105C24.2401 29.2105 29.2667 24.1839 29.2667 18.0018C29.2667 11.82 24.2401 6.79343 18.058 6.79343ZM18.058 27.71C12.7014 27.71 8.35008 23.351 8.35008 18.0018C8.35008 12.6526 12.7014 8.2939 18.058 8.2939C23.4198 8.2939 27.7662 12.6403 27.7662 18.0018C27.7662 23.3634 23.4198 27.71 18.058 27.71Z" fill="white"/>
<path d="M33.4829 13.8755L33.7306 9.42659C33.7479 9.12796 33.5855 8.84751 33.3179 8.71387L29.3566 6.7108L27.3536 2.7495C27.2173 2.48429 26.9386 2.32281 26.6409 2.33688L22.1843 2.57719L18.4706 0.123684C18.2203 -0.0413093 17.8959 -0.0413093 17.6454 0.123684L13.9317 2.57719L9.48305 2.32955C9.18412 2.31197 8.90396 2.47432 8.77032 2.74218L6.76696 6.70348L2.80596 8.70654C2.54045 8.84252 2.37926 9.12122 2.39333 9.41927L2.64067 13.8682L0.187465 17.5819C0.0224725 17.8321 0.0224725 18.1566 0.187465 18.4071L2.63335 22.1281L2.38571 26.5771C2.36842 26.8757 2.53048 27.1562 2.79834 27.2898L6.75964 29.2929L8.7627 33.2542C8.89868 33.5197 9.17738 33.6809 9.47543 33.6668L13.9244 33.4192L17.638 35.8724C17.8868 36.0426 18.2145 36.0426 18.4633 35.8724L22.177 33.4192L26.6259 33.6668C26.9245 33.6841 27.2047 33.5217 27.3386 33.2542L29.3417 29.2929L33.303 27.2898C33.5682 27.1535 33.7297 26.8751 33.7156 26.5771L33.468 22.1281L35.9212 18.4145C36.0862 18.1642 36.0862 17.8395 35.9212 17.5892L33.4829 13.8755ZM32.0874 21.513C31.9959 21.6472 31.9534 21.8087 31.9675 21.9707L32.1999 26.1794L28.4564 28.0699C28.3136 28.1414 28.1979 28.2575 28.1264 28.4002L26.2355 32.1438L22.0269 31.9114C21.8657 31.9055 21.7066 31.9471 21.5691 32.0312L18.058 34.3496L14.5471 32.0312C14.4252 31.9489 14.2816 31.9043 14.1345 31.9037H14.097L9.88806 32.1364L7.99752 28.3926C7.92602 28.2499 7.81026 28.1341 7.66724 28.0626L3.91607 26.1794L4.14876 21.9707C4.15462 21.8096 4.11272 21.6504 4.02861 21.513L1.7105 18.0018L4.02861 14.4907C4.12034 14.3567 4.16283 14.195 4.14876 14.0332L3.91607 9.82428L7.65992 7.93374C7.80264 7.86224 7.9184 7.74648 7.9899 7.60376L9.88044 3.85991L14.0894 4.0926C14.2503 4.09817 14.4094 4.05655 14.5471 3.97245L18.058 1.65434L21.5691 3.97245C21.7034 4.06417 21.8651 4.10667 22.0269 4.0926L26.2355 3.85991L28.1264 7.60376C28.1979 7.74648 28.3136 7.86224 28.4564 7.93374L32.1999 9.82428L31.9675 14.0332C31.9617 14.1941 32.0036 14.3532 32.0874 14.4907L34.4058 18.0018L32.0874 21.513Z" fill="white"/>
</g>
<defs>
<clipPath id="clip0_206_20">
<rect width="36" height="36" fill="white"/>
</clipPath>
</defs>
</svg>
