<svg width="49" height="48" viewBox="0 0 49 48" fill="none" xmlns="http://www.w3.org/2000/svg">
<g clip-path="url(#clip0_261_18)">
<path fill-rule="evenodd" clip-rule="evenodd" d="M45.1559 30.1954H3.84424C6.00649 33.0389 9.42339 34.8829 13.2501 34.8829H35.7501C39.5768 34.8829 42.9937 33.0389 45.1559 30.1954Z" fill="#FFAD32"/>
<path d="M48.5 23.0705C48.5 22.5528 48.0802 22.133 47.5625 22.133C26.4083 22.133 24.4102 22.1327 1.4375 22.1327C0.919812 22.1327 0.5 22.5525 0.5 23.0702C0.5 29.7853 5.71821 35.3045 12.3125 35.786V39.5702C12.3125 40.0879 12.7323 40.5077 13.25 40.5077H35.7499C36.2676 40.5077 36.6874 40.0879 36.6874 39.5702V35.786C43.2818 35.3048 48.5 29.7856 48.5 23.0705ZM34.8124 38.633H14.1875V35.8205H34.8124V38.633ZM35.7499 33.9455H13.25C7.5693 33.9455 2.89203 29.5672 2.41503 24.008H46.585C46.108 29.5671 41.4306 33.9455 35.7499 33.9455Z" fill="#0B0B0B"/>
<path fill-rule="evenodd" clip-rule="evenodd" d="M23.5105 8.40001L21.8471 7.97766L19.7389 8.83411L17.2134 9.6891L15.878 11.9495L14.9732 14.4H13.6741L11.9212 14.8451L10.5154 15.7969L8.98474 18.1288L7.66309 19.4712V22.875H9.58309V20.2789L10.4768 19.3712L11.9 17.2031L12.7095 16.6549L13.9105 16.35H15.4827L17.4856 17.0281L18.8685 17.7303L20.4057 18.6671L21.0389 20.2748L21.2672 20.7384L20.9554 22.005V22.875H22.8754V22.275L23.216 22.3615L23.5207 21.1235L24.2105 20.4229L24.9489 18.5479L27.2549 16.206L28.8362 15.5635L30.5028 15.225H32.528L34.1549 15.5555L35.3775 16.1763L36.677 17.4962L37.3073 18.4564L37.9659 20.1286L38.3189 22.6379L40.2196 22.3621L39.8341 19.6214L39.0158 17.5436L38.1691 16.2538L36.5148 14.5737L34.7836 13.6946L32.7181 13.275H31.3677V11.7048L30.3615 10.1719L28.9871 9.24134L26.5019 8.40001H23.5105ZM29.4477 13.4507V12.2952L28.977 11.5781L28.136 11.0087L26.1904 10.35H23.2741L21.9837 10.0224L20.3996 10.6659L18.4943 11.3109L17.6143 12.8005L16.8871 14.77L18.2222 15.222L19.7931 16.0197L21.9482 17.3329L22.6539 19.1247L23.3126 17.4521L26.1759 14.5441L28.2868 13.6865L29.4477 13.4507Z" fill="#0B0B0B"/>
</g>
<defs>
<clipPath id="clip0_261_18">
<rect width="48" height="48" fill="white" transform="translate(0.5)"/>
</clipPath>
</defs>
</svg>
