<svg width="32" height="32" viewBox="0 0 32 32" fill="none" xmlns="http://www.w3.org/2000/svg">
<path d="M29.462 16.3125C29.461 16.3095 26.5 9.4 26.5 9.4V1.5C26.5 1.36739 26.4473 1.24021 26.3536 1.14645C26.2598 1.05268 26.1326 1 26 1H6C5.86739 1 5.74021 1.05268 5.64645 1.14645C5.55268 1.24021 5.5 1.36739 5.5 1.5V9.4C5.5 9.4 2.539 16.3095 2.538 16.3125C2.51909 16.3736 2.50636 16.4364 2.5 16.5V30.5C2.5 30.6326 2.55268 30.7598 2.64645 30.8536C2.74021 30.9473 2.86739 31 3 31H29C29.1326 31 29.2598 30.9473 29.3536 30.8536C29.4473 30.7598 29.5 30.6326 29.5 30.5V16.5C29.4936 16.4364 29.4809 16.3736 29.462 16.3125ZM28.2415 16H23.7585L26 10.7695L28.2415 16ZM6.5 2H25.5V9H6.5V2ZM22.5 30H3.5V17H22.5V30ZM22.6705 16H3.7585L6.3295 10H25.2415L22.6705 16ZM28.5 30H23.5V17H28.5V30Z" fill="white"/>
<path d="M8.5 28H17.5C17.6326 28 17.7598 27.9473 17.8536 27.8536C17.9473 27.7598 18 27.6326 18 27.5V25.5C18 25.3674 17.9473 25.2402 17.8536 25.1464C17.7598 25.0527 17.6326 25 17.5 25H17V24H17.5C17.6326 24 17.7598 23.9473 17.8536 23.8536C17.9473 23.7598 18 23.6326 18 23.5V22.5C17.9992 21.8372 17.7356 21.2018 17.2669 20.7331C16.7982 20.2644 16.1628 20.0008 15.5 20H10.5C9.8372 20.0008 9.20178 20.2644 8.73311 20.7331C8.26444 21.2018 8.00079 21.8372 8 22.5V23.5C8 23.6326 8.05268 23.7598 8.14645 23.8536C8.24021 23.9473 8.36739 24 8.5 24H9V25H8.5C8.36739 25 8.24021 25.0527 8.14645 25.1464C8.05268 25.2402 8 25.3674 8 25.5V27.5C8 27.6326 8.05268 27.7598 8.14645 27.8536C8.24021 27.9473 8.36739 28 8.5 28ZM9 22.5C9 22.1022 9.15804 21.7206 9.43934 21.4393C9.72064 21.158 10.1022 21 10.5 21H15.5C15.8978 21 16.2794 21.158 16.5607 21.4393C16.842 21.7206 17 22.1022 17 22.5V23H9V22.5ZM16 24V25H10V24H16ZM9 26H17V27H9V26Z" fill="white"/>
<path d="M19.5 3H12.5C11.837 3 11.2011 3.26339 10.7322 3.73223C10.2634 4.20107 10 4.83696 10 5.5C10 6.16304 10.2634 6.79893 10.7322 7.26777C11.2011 7.73661 11.837 8 12.5 8H19.5C20.163 8 20.7989 7.73661 21.2678 7.26777C21.7366 6.79893 22 6.16304 22 5.5C22 4.83696 21.7366 4.20107 21.2678 3.73223C20.7989 3.26339 20.163 3 19.5 3ZM19.5 7H12.5C12.1022 7 11.7206 6.84196 11.4393 6.56066C11.158 6.27936 11 5.89782 11 5.5C11 5.10218 11.158 4.72064 11.4393 4.43934C11.7206 4.15804 12.1022 4 12.5 4H19.5C19.8978 4 20.2794 4.15804 20.5607 4.43934C20.842 4.72064 21 5.10218 21 5.5C21 5.89782 20.842 6.27936 20.5607 6.56066C20.2794 6.84196 19.8978 7 19.5 7Z" fill="white"/>
</svg>
